<svg xmlns="http://www.w3.org/2000/svg" width="389.65771484375" height="346.6437072753906" viewBox="-81.82609558105469 -80.38253784179688 389.65771484375 346.6437072753906"><title>Neo4j Graph Visualization</title><desc>Created using Neo4j (http://www.neo4j.com/)</desc><g class="layer relationships"><g class="relationship" transform="translate(43.62584477297594 21.83828085550413) rotate(368.1021687627159)"><path class="outline" fill="#A5ABB6" stroke="none" d="M 24.018736134675446,-6.953439040707552 L 24.277555179777966,-5.987513214418485 A 113.45221407410634 113.45221407410634 0 0 1 42.28757042912288,-9.283777078158778 L 42.1874967676722,-10.278757109256816 A 114.45221407410634 114.45221407410634 0 0 0 24.018736134675446,-6.953439040707552 Z M 61.582685940252915,-10.577450085035224 L 61.513298579656244,-9.579860292490494 A 113.45221407410634 113.45221407410634 0 0 1 79.61627619417702,-6.839749668957905 L 78.92941977145426,-3.919436628449318 L 86.54481602581751,-5.723803522689587 L 80.53208475780735,-10.73350038963602 L 79.8452283350846,-7.813187349127434 A 114.45221407410634 114.45221407410634 0 0 0 61.582685940252915,-10.577450085035224"/><text text-anchor="middle" pointer-events="none" font-size="8px" fill="#000000" x="51.886451369695955" y="-7.339792975317138" font-family="sans-serif">trek</text></g><g class="relationship" transform="translate(153.3998269581461 37.465671441578294) rotate(371.30378698547656)"><path class="outline" fill="#A5ABB6" stroke="none" d="M 21.40063509461097,-12.933012701892217 L 21.90063509461097,-12.06698729810778 A 80.9925435456789 80.9925435456789 0 0 1 50.71377153893085,-22.070857677910922 L 50.569522021419026,-23.06039902454461 A 81.9925435456789 81.9925435456789 0 0 0 21.40063509461097,-12.933012701892217 Z M 69.97187243402774,-23.56727027847232 L 69.87948640428642,-22.57154701294688 A 80.9925435456789 80.9925435456789 0 0 1 99.17565131732061,-14.085736755628954 L 97.81335019033622,-11.412885162401777 L 105.63935522268142,-11.352509391536575 L 100.99205281996646,-17.649538879931857 L 99.62975169298207,-14.976687286704681 A 81.9925435456789 81.9925435456789 0 0 0 69.97187243402774,-23.56727027847232"/><text text-anchor="middle" pointer-events="none" font-size="8px" fill="#000000" x="60.26870390054226" y="-20.39013653715591" font-family="sans-serif">trek</text></g><g class="relationship" transform="translate(278.8316490855761 62.53804432646831) rotate(218.14618040786956)"><path class="outline" fill="#A5ABB6" stroke="none" d="M 21.40063509461097,12.933012701892217 L 21.90063509461097,12.06698729810778 A 50.449298087242546 50.449298087242546 0 0 0 35.954415482146544,17.573598936381075 L 35.732987849263175,18.54877574260427 A 51.449298087242546 51.449298087242546 0 0 1 21.40063509461097,12.933012701892217 Z M 55.1308102201183,19.199264267674998 L 54.97520992274765,18.211444168943366 A 50.449298087242546 50.449298087242546 0 0 0 69.36632154443228,13.65870639832 L 68.04374393189117,10.965977585608803 L 75.8697850428486,11.021480104509273 L 71.12975836115378,17.24901148193493 L 69.80718074861267,14.556282669223734 A 51.449298087242546 51.449298087242546 0 0 1 55.1308102201183,19.199264267674998"/><text text-anchor="middle" pointer-events="none" font-size="8px" fill="#000000" x="45.41770510242245" y="22.297288619838348" transform="rotate(180 45.41770510242245 19.297288619838348)" font-family="sans-serif">trek</text></g><g class="relationship" transform="translate(201.51762039938168 1.815411283132158) rotate(466.22204845201423)"><path class="outline" fill="#A5ABB6" stroke="none" d="M 25 0.5 L 63.21162418883573 0.5 L 63.21162418883573 -0.5 L 25 -0.5 Z M 82.54756168883573 0.5 L 120.75918587767146 0.5 L 120.75918587767146 3.5 L 127.75918587767146 0 L 120.75918587767146 -3.5 L 120.75918587767146 -0.5 L 82.54756168883573 -0.5 Z"/><text text-anchor="middle" pointer-events="none" font-size="8px" fill="#000000" x="72.87959293883573" y="3" transform="rotate(180 72.87959293883573 0)" font-family="sans-serif">trek</text></g><g class="relationship" transform="translate(43.62584477297594 21.83828085550413) rotate(368.1021687627159)"><path class="outline" fill="#A5ABB6" stroke="none" d="M 24.018736134675446,6.953439040707552 L 24.277555179777966,5.987513214418485 A 113.45221407410634 113.45221407410634 0 0 0 40.96304987126441,9.142699848521659 L 40.85130150986479,10.136436384895603 A 114.45221407410634 114.45221407410634 0 0 1 24.018736134675446,6.953439040707552 Z M 62.922630076786206,10.476342881830249 L 62.841535261271574,9.479636490310341 A 113.45221407410634 113.45221407410634 0 0 0 79.61627619417702,6.839749668957905 L 78.92941977145426,3.919436628449318 L 86.54481602581751,5.723803522689587 L 80.53208475780735,10.73350038963602 L 79.8452283350846,7.813187349127434 A 114.45221407410634 114.45221407410634 0 0 1 62.922630076786206,10.476342881830249"/><text text-anchor="middle" pointer-events="none" font-size="8px" fill="#000000" x="51.88645136969598" y="13.339792975317138" font-family="sans-serif">road</text></g><g class="relationship" transform="translate(153.3998269581461 37.465671441578294) rotate(371.30378698547656)"><path class="outline" fill="#A5ABB6" stroke="none" d="M 25 0.5 L 49.45069987478728 0.5 L 49.45069987478728 -0.5 L 25 -0.5 Z M 71.46241862478729 0.5 L 95.91311849957457 0.5 L 95.91311849957457 3.5 L 102.91311849957457 0 L 95.91311849957457 -3.5 L 95.91311849957457 -0.5 L 71.46241862478729 -0.5 Z"/><text text-anchor="middle" pointer-events="none" font-size="8px" fill="#000000" x="60.45655924978728" y="3" font-family="sans-serif">road</text></g><g class="relationship" transform="translate(153.3998269581461 37.465671441578294) rotate(371.30378698547656)"><path class="outline" fill="#A5ABB6" stroke="none" d="M 21.40063509461097,12.933012701892217 L 21.90063509461097,12.06698729810778 A 80.9925435456789 80.9925435456789 0 0 0 37.596525071604404,19.027482844665258 L 37.29031933080236,19.979448203436192 A 81.9925435456789 81.9925435456789 0 0 1 21.40063509461097,12.933012701892217 Z M 83.39382712571481,21.183866343997494 L 83.13774383630488,20.217211623383676 A 80.9925435456789 80.9925435456789 0 0 0 99.17565131732061,14.085736755628954 L 97.81335019033622,11.412885162401777 L 105.63935522268142,11.352509391536575 L 100.99205281996646,17.649538879931857 L 99.62975169298207,14.976687286704681 A 81.9925435456789 81.9925435456789 0 0 1 83.39382712571481,21.183866343997494"/><text text-anchor="middle" pointer-events="none" font-size="8px" fill="#000000" x="60.26870390054228" y="26.39013653715591" font-family="sans-serif">twowheeler</text></g><g class="relationship" transform="translate(278.8316490855761 62.53804432646831) rotate(218.14618040786956)"><path class="outline" fill="#A5ABB6" stroke="none" d="M 25 0.5 L 34.64873653272096 0.5 L 34.64873653272096 -0.5 L 25 -0.5 Z M 56.66045528272096 0.5 L 66.30919181544192 0.5 L 66.30919181544192 3.5 L 73.30919181544192 0 L 66.30919181544192 -3.5 L 66.30919181544192 -0.5 L 56.66045528272096 -0.5 Z"/><text text-anchor="middle" pointer-events="none" font-size="8px" fill="#000000" x="45.65459590772096" y="3" transform="rotate(180 45.65459590772096 0)" font-family="sans-serif">road</text></g><g class="relationship" transform="translate(278.8316490855761 62.53804432646831) rotate(218.14618040786956)"><path class="outline" fill="#A5ABB6" stroke="none" d="M 21.40063509461097,-12.933012701892217 L 21.90063509461097,-12.06698729810778 A 50.449298087242546 50.449298087242546 0 0 1 23.404239201693127,-12.90125509537733 L 22.934043463874968,-13.78381725643888 A 51.449298087242546 51.449298087242546 0 0 0 21.40063509461097,-12.933012701892217 Z M 68.22021941619622,-15.302448432564056 L 67.8102053623175,-14.390369227877336 A 50.449298087242546 50.449298087242546 0 0 1 69.36632154443228,-13.65870639832 L 68.04374393189117,-10.965977585608803 L 75.8697850428486,-11.021480104509273 L 71.12975836115378,-17.24901148193493 L 69.80718074861267,-14.556282669223734 A 51.449298087242546 51.449298087242546 0 0 0 68.22021941619622,-15.302448432564056"/><text text-anchor="middle" pointer-events="none" font-size="8px" fill="#000000" x="45.41770510242247" y="-16.297288619838348" transform="rotate(180 45.41770510242247 -19.297288619838348)" font-family="sans-serif">twowheeler</text></g><g class="relationship" transform="translate(43.62584477297594 21.83828085550413) rotate(299.81254496884304)"><path class="outline" fill="#A5ABB6" stroke="none" d="M 21.40063509461097,12.933012701892217 L 21.90063509461097,12.06698729810778 A 35.859795246904305 35.859795246904305 0 0 0 29.07669516815869,15.220847522894758 L 28.776809530891065,16.174822682194304 A 36.859795246904305 36.859795246904305 0 0 1 21.40063509461097,12.933012701892217 Z M 48.13399385227687,16.923845816104013 L 47.90872235853706,15.949549786086322 A 35.859795246904305 35.859795246904305 0 0 0 55.30703658703101,13.359642630776912 L 54.012285423862785,10.653423972672115 L 61.83733864980357,10.789593026401858 L 57.0333714712553,16.967934174916643 L 55.73862030808708,14.261715516811845 A 36.859795246904305 36.859795246904305 0 0 1 48.13399385227687,16.923845816104013"/><text text-anchor="middle" pointer-events="none" font-size="8px" fill="#000000" x="38.42464840407272" y="20.344098827028738" font-family="sans-serif">trek</text></g><g class="relationship" transform="translate(85.58109306064983 -51.38253313725435) rotate(494.8805062576106)"><path class="outline" fill="#A5ABB6" stroke="none" d="M 24.018736134675446,-6.953439040707552 L 24.277555179777966,-5.987513214418485 A 185.85554121338382 185.85554121338382 0 0 1 60.56329425114348,-11.944320975303071 L 60.49971145691876,-12.942297542301787 A 186.85554121338382 186.85554121338382 0 0 0 24.018736134675446,-6.953439040707552 Z M 79.87749544030282,-13.169930220474043 L 79.83737360871046,-12.17073542533663 A 185.85554121338382 185.85554121338382 0 0 1 116.25303068407759,-7.067957904748405 L 115.54485935627086,-4.152740353608787 L 123.17323352470447,-5.9014277317226655 L 117.19725912115321,-10.954914639601228 L 116.48908779334649,-8.039697088461612 A 186.85554121338382 186.85554121338382 0 0 0 79.87749544030282,-13.169930220474043"/><text text-anchor="middle" pointer-events="none" font-size="8px" fill="#000000" x="70.19152358079518" y="-9.807530544731975" transform="rotate(180 70.19152358079518 -12.807530544731975)" font-family="sans-serif">trek</text></g><g class="relationship" transform="translate(-18.475922076466187 53.10942386635088) rotate(417.9395833982013)"><path class="outline" fill="#A5ABB6" stroke="none" d="M 24.018736134675446,-6.953439040707552 L 24.277555179777966,-5.987513214418485 A 121.85218527539284 121.85218527539284 0 0 1 44.39205467672893,-9.602905495004336 L 44.298308580063825,-10.598501632682684 A 122.85218527539284 122.85218527539284 0 0 0 24.018736134675446,-6.953439040707552 Z M 63.69092298835885,-10.88682150883524 L 63.626815853802846,-9.888878486764824 A 121.85218527539284 121.85218527539284 0 0 1 83.83990498337165,-6.873057007388483 L 83.14993745828484,-3.9534774461630025 L 90.76725188041225,-5.749729375723487 L 84.75986168348742,-10.765829755689124 L 84.0698941584006,-7.846250194463644 A 122.85218527539284 122.85218527539284 0 0 0 63.69092298835885,-10.88682150883524"/><text text-anchor="middle" pointer-events="none" font-size="8px" fill="#000000" x="53.996350170222556" y="-7.626005447013654" font-family="sans-serif">trek</text></g><g class="relationship" transform="translate(42.61912919676268 150.65291618094506) rotate(358.93517255344955)"><path class="outline" fill="#A5ABB6" stroke="none" d="M 24.018736134675446,6.953439040707552 L 24.277555179777966,5.987513214418485 A 124.13326945467473 124.13326945467473 0 0 0 31.606175998679248,7.71480363046345 L 31.4063952827136,8.694644263183008 A 125.13326945467473 125.13326945467473 0 0 1 24.018736134675446,6.953439040707552 Z M 77.78291661641512,9.377720478342752 L 77.61208029715257,8.392421055821444 A 124.13326945467473 124.13326945467473 0 0 0 84.98839326576936,6.881718478339805 L 84.2976167170042,3.9623302274084398 L 91.9154286094034,5.756471239709662 L 85.9094286641229,10.774236146248292 L 85.21865211535774,7.854847895316927 A 125.13326945467473 125.13326945467473 0 0 1 77.78291661641512,9.377720478342752"/><text text-anchor="middle" pointer-events="none" font-size="8px" fill="#000000" x="54.57009469580883" y="13.703734956398705" font-family="sans-serif">twowheeler</text></g><g class="relationship" transform="translate(43.62584477297594 21.83828085550413) rotate(299.81254496884304)"><path class="outline" fill="#A5ABB6" stroke="none" d="M 25 0.5 L 27.688721025338438 0.5 L 27.688721025338438 -0.5 L 25 -0.5 Z M 49.70043977533844 0.5 L 52.389160800676876 0.5 L 52.389160800676876 3.5 L 59.389160800676876 0 L 52.389160800676876 -3.5 L 52.389160800676876 -0.5 L 49.70043977533844 -0.5 Z"/><text text-anchor="middle" pointer-events="none" font-size="8px" fill="#000000" x="38.69458040033844" y="3" font-family="sans-serif">road</text></g><g class="relationship" transform="translate(43.62584477297594 21.83828085550413) rotate(299.81254496884304)"><path class="outline" fill="#A5ABB6" stroke="none" d="M 21.40063509461097,-12.933012701892217 L 21.90063509461097,-12.06698729810778 A 35.859795246904305 35.859795246904305 0 0 1 23.40428310239497,-12.887867942916714 L 22.946214407284778,-13.776784739113097 A 36.859795246904305 36.859795246904305 0 0 0 21.40063509461097,-12.933012701892217 Z M 54.132460817690045,-14.983531527973035 L 53.744451931481485,-14.061875895850498 A 35.859795246904305 35.859795246904305 0 0 1 55.30703658703101,-13.359642630776912 L 54.012285423862785,-10.653423972672115 L 61.83733864980357,-10.789593026401858 L 57.0333714712553,-16.967934174916643 L 55.73862030808708,-14.261715516811845 A 36.859795246904305 36.859795246904305 0 0 0 54.132460817690045,-14.983531527973035"/><text text-anchor="middle" pointer-events="none" font-size="8px" fill="#000000" x="38.42464840407271" y="-14.344098827028738" font-family="sans-serif">Publi…</text></g><g class="relationship" transform="translate(85.58109306064983 -51.38253313725435) rotate(494.8805062576106)"><path class="outline" fill="#A5ABB6" stroke="none" d="M 24.018736134675446,6.953439040707552 L 24.277555179777966,5.987513214418485 A 185.85554121338382 185.85554121338382 0 0 0 47.10581699092282,10.593801214870126 L 46.96982593180397,11.584511279338898 A 186.85554121338382 186.85554121338382 0 0 1 24.018736134675446,6.953439040707552 Z M 93.43554307603138,12.130348494048434 L 93.32286226359378,11.136717257367337 A 185.85554121338382 185.85554121338382 0 0 0 116.25303068407759,7.067957904748405 L 115.54485935627086,4.152740353608787 L 123.17323352470447,5.9014277317226655 L 117.19725912115321,10.954914639601228 L 116.48908779334649,8.039697088461612 A 186.85554121338382 186.85554121338382 0 0 1 93.43554307603138,12.130348494048434"/><text text-anchor="middle" pointer-events="none" font-size="8px" fill="#000000" x="70.1915235807952" y="15.807530544731975" transform="rotate(180 70.1915235807952 12.807530544731975)" font-family="sans-serif">twowheeler</text></g><g class="relationship" transform="translate(-18.475922076466187 53.10942386635088) rotate(417.9395833982013)"><path class="outline" fill="#A5ABB6" stroke="none" d="M 24.018736134675446,6.953439040707552 L 24.277555179777966,5.987513214418485 A 121.85218527539284 121.85218527539284 0 0 0 31.04018768303654,7.594309081310499 L 30.836867293850403,8.57342134215763 A 122.85218527539284 122.85218527539284 0 0 1 24.018736134675446,6.953439040707552 Z M 77.20661697245893,9.262824029339484 L 77.0324939358349,8.278100124827759 A 121.85218527539284 121.85218527539284 0 0 0 83.83990498337165,6.873057007388483 L 83.14993745828484,3.9534774461630025 L 90.76725188041225,5.749729375723487 L 84.75986168348742,10.765829755689124 L 84.0698941584006,7.846250194463644 A 122.85218527539284 122.85218527539284 0 0 1 77.20661697245893,9.262824029339484"/><text text-anchor="middle" pointer-events="none" font-size="8px" fill="#000000" x="53.99635017022261" y="13.626005447013654" font-family="sans-serif">twowheeler</text></g><g class="relationship" transform="translate(42.61912919676268 150.65291618094506) rotate(358.93517255344955)"><path class="outline" fill="#A5ABB6" stroke="none" d="M 24.018736134675446,-6.953439040707552 L 24.277555179777966,-5.987513214418485 A 124.13326945467473 124.13326945467473 0 0 1 44.96447012159459,-9.688872688530083 L 44.87230192708753,-10.684616141393974 A 125.13326945467473 125.13326945467473 0 0 0 24.018736134675446,-6.953439040707552 Z M 64.2642437529974,-10.97023856080159 L 64.20144163536911,-9.972212562131517 A 124.13326945467473 124.13326945467473 0 0 1 84.98839326576936,-6.881718478339805 L 84.2976167170042,-3.9623302274084398 L 91.9154286094034,-5.756471239709662 L 85.9094286641229,-10.774236146248292 L 85.21865211535774,-7.854847895316927 A 125.13326945467473 125.13326945467473 0 0 0 64.2642437529974,-10.97023856080159"/><text text-anchor="middle" pointer-events="none" font-size="8px" fill="#000000" x="54.57009469580882" y="-7.703734956398705" font-family="sans-serif">trek</text></g><g class="relationship" transform="translate(85.58109306064983 -51.38253313725435) rotate(384.64821514043706)"><path class="outline" fill="#A5ABB6" stroke="none" d="M 25 0.5 L 50.6115335644565 0.5 L 50.6115335644565 -0.5 L 25 -0.5 Z M 69.9474710644565 0.5 L 95.559004628913 0.5 L 95.559004628913 3.5 L 102.559004628913 0 L 95.559004628913 -3.5 L 95.559004628913 -0.5 L 69.9474710644565 -0.5 Z"/><text text-anchor="middle" pointer-events="none" font-size="8px" fill="#000000" x="60.2795023144565" y="3" font-family="sans-serif">trek</text></g><g class="relationship" transform="translate(85.58109306064983 -51.38253313725435) rotate(412.64513951833874)"><path class="outline" fill="#A5ABB6" stroke="none" d="M 25 0.5 L 42.718935181828044 0.5 L 42.718935181828044 -0.5 L 25 -0.5 Z M 62.054872681828044 0.5 L 79.77380786365609 0.5 L 79.77380786365609 3.5 L 86.77380786365609 0 L 79.77380786365609 -3.5 L 79.77380786365609 -0.5 L 62.054872681828044 -0.5 Z"/><text text-anchor="middle" pointer-events="none" font-size="8px" fill="#000000" x="52.386903931828044" y="3" font-family="sans-serif">trek</text></g><g class="relationship" transform="translate(-18.475922076466187 53.10942386635088) rotate(465.5338755750006)"><path class="outline" fill="#A5ABB6" stroke="none" d="M 24.018736134675446,-6.953439040707552 L 24.277555179777966,-5.987513214418485 A 147.97648155571457 147.97648155571457 0 0 1 37.557872477907594,-8.89935303229467 L 37.388799567856466,-9.884956578902944 A 148.97648155571457 148.97648155571457 0 0 0 24.018736134675446,-6.953439040707552 Z M 83.81592685702086,-10.507901851631686 L 83.67335911880092,-9.518116804250752 A 147.97648155571457 147.97648155571457 0 0 1 97.02702176406105,-6.963643743019855 L 96.3285931779462,-4.0460766897890945 L 103.95108298595196,-5.820238217623682 L 97.95825987888082,-10.853733147327535 L 97.25983129276598,-7.936166094096775 A 148.97648155571457 148.97648155571457 0 0 0 83.81592685702086,-10.507901851631686"/><text text-anchor="middle" pointer-events="none" font-size="8px" fill="#000000" x="60.58465323451218" y="-8.516325898773886" transform="rotate(180 60.58465323451218 -11.516325898773886)" font-family="sans-serif">twowheeler</text></g><g class="relationship" transform="translate(-52.82609388502729 176.68836931778776) rotate(344.7421224098566)"><path class="outline" fill="#A5ABB6" stroke="none" d="M 21.40063509461097,12.933012701892217 L 21.90063509461097,12.06698729810778 A 51.09815526338325 51.09815526338325 0 0 0 36.264020516706964,17.67350504186951 L 36.04511452779328,18.649250996520472 A 52.09815526338325 52.09815526338325 0 0 1 21.40063509461097,12.933012701892217 Z M 55.44361143607154,19.295900465544193 L 55.29017224673066,18.307742373347196 A 51.09815526338325 51.09815526338325 0 0 0 69.99504318901757,13.670215816498109 L 68.67139479037151,10.978013202139056 L 76.4974573556297,11.03040332205048 L 71.75990772054566,17.25981930231018 L 70.4362593218996,14.567616687951128 A 52.09815526338325 52.09815526338325 0 0 1 55.44361143607154,19.295900465544193"/><text text-anchor="middle" pointer-events="none" font-size="8px" fill="#000000" x="45.73064156379596" y="22.384197328277295" font-family="sans-serif">trek</text></g><g class="relationship" transform="translate(-18.475922076466187 53.10942386635088) rotate(465.5338755750006)"><path class="outline" fill="#A5ABB6" stroke="none" d="M 24.018736134675446,6.953439040707552 L 24.277555179777966,5.987513214418485 A 147.97648155571457 147.97648155571457 0 0 0 50.967831306465726,10.573625454280744 L 50.88938062697162,11.570543450350101 A 148.97648155571457 148.97648155571457 0 0 1 24.018736134675446,6.953439040707552 Z M 70.27498081207986,11.830653620835278 L 70.22330625312914,10.831989643334737 A 147.97648155571457 147.97648155571457 0 0 0 97.02702176406105,6.963643743019855 L 96.3285931779462,4.0460766897890945 L 103.95108298595196,5.820238217623682 L 97.95825987888082,10.853733147327535 L 97.25983129276598,7.936166094096775 A 148.97648155571457 148.97648155571457 0 0 1 70.27498081207986,11.830653620835278"/><text text-anchor="middle" pointer-events="none" font-size="8px" fill="#000000" x="60.584653234512174" y="14.516325898773886" transform="rotate(180 60.584653234512174 11.516325898773886)" font-family="sans-serif">trek</text></g><g class="relationship" transform="translate(-52.82609388502729 176.68836931778776) rotate(344.7421224098566)"><path class="outline" fill="#A5ABB6" stroke="none" d="M 25 0.5 L 34.960380195977564 0.5 L 34.960380195977564 -0.5 L 25 -0.5 Z M 56.972098945977564 0.5 L 66.93247914195513 0.5 L 66.93247914195513 3.5 L 73.93247914195513 0 L 66.93247914195513 -3.5 L 66.93247914195513 -0.5 L 56.972098945977564 -0.5 Z"/><text text-anchor="middle" pointer-events="none" font-size="8px" fill="#000000" x="45.966239570977564" y="3" font-family="sans-serif">road</text></g><g class="relationship" transform="translate(-52.82609388502729 176.68836931778776) rotate(344.7421224098566)"><path class="outline" fill="#A5ABB6" stroke="none" d="M 21.40063509461097,-12.933012701892217 L 21.90063509461097,-12.06698729810778 A 51.09815526338325 51.09815526338325 0 0 1 23.691562708640387,-13.053738236248279 L 23.22661148104319,-13.939074531650128 A 52.09815526338325 52.09815526338325 0 0 0 21.40063509461097,-12.933012701892217 Z M 68.54733681922332,-15.44984225320475 L 68.142377680339,-14.535507469969374 A 51.09815526338325 51.09815526338325 0 0 1 69.99504318901757,-13.670215816498109 L 68.67139479037151,-10.978013202139056 L 76.4974573556297,-11.03040332205048 L 71.75990772054566,-17.25981930231018 L 70.4362593218996,-14.567616687951128 A 52.09815526338325 52.09815526338325 0 0 0 68.54733681922332,-15.44984225320475"/><text text-anchor="middle" pointer-events="none" font-size="8px" fill="#000000" x="45.730641563795956" y="-16.384197328277295" font-family="sans-serif">twowheeler</text></g><g class="relationship" transform="translate(-52.82609388502729 176.68836931778776) rotate(387.9102836578073)"><path class="outline" fill="#A5ABB6" stroke="none" d="M 25 0.5 L 51.53435657486409 0.5 L 51.53435657486409 -0.5 L 25 -0.5 Z M 70.87029407486409 0.5 L 97.40465064972818 0.5 L 97.40465064972818 3.5 L 104.40465064972818 0 L 97.40465064972818 -3.5 L 97.40465064972818 -0.5 L 70.87029407486409 -0.5 Z"/><text text-anchor="middle" pointer-events="none" font-size="8px" fill="#000000" x="61.20232532486409" y="3" font-family="sans-serif">trek</text></g><g class="relationship" transform="translate(61.526418741759024 237.26118884700298) rotate(317.63002899914136)"><path class="outline" fill="#A5ABB6" stroke="none" d="M 25 0.5 L 52.69231926112509 0.5 L 52.69231926112509 -0.5 L 25 -0.5 Z M 72.02825676112509 0.5 L 99.72057602225019 0.5 L 99.72057602225019 3.5 L 106.72057602225019 0 L 99.72057602225019 -3.5 L 99.72057602225019 -0.5 L 72.02825676112509 -0.5 Z"/><text text-anchor="middle" pointer-events="none" font-size="8px" fill="#000000" x="62.36028801112509" y="3" font-family="sans-serif">trek</text></g></g><g class="layer nodes"><g class="node" transform="translate(43.62584477297594,21.83828085550413)"><circle class="outline" cx="0" cy="0" r="25" fill="#F16667" stroke="#eb2728" stroke-width="2px"/><text text-anchor="middle" pointer-events="none" font-family="sans-serif" dy="1.5625" font-size="25" fill="#FFFFFF"/><text text-anchor="middle" pointer-events="none" x="0" y="5" font-size="10px" fill="#FFFFFF" font-family="sans-serif"> Darjeeling</text></g><g class="node" transform="translate(158.84271894939124,148.49268169761248)"><circle class="outline" cx="0" cy="0" r="25" fill="#D9C8AE" stroke="#c0a378" stroke-width="2px"/><text text-anchor="middle" pointer-events="none" font-family="sans-serif" dy="1.5625" font-size="25" fill="#2A2C34"/><text text-anchor="middle" pointer-events="none" x="0" y="5" font-size="10px" fill="#2A2C34" font-family="sans-serif"> Sandak…</text></g><g class="node" transform="translate(153.3998269581461,37.465671441578294)"><circle class="outline" cx="0" cy="0" r="25" fill="#8DCC93" stroke="#5db665" stroke-width="2px"/><text text-anchor="middle" pointer-events="none" font-family="sans-serif" dy="1.5625" font-size="25" fill="#2A2C34"/><text text-anchor="middle" pointer-events="none" x="0" y="5" font-size="10px" fill="#2A2C34" font-family="sans-serif"> Tumbling</text></g><g class="node" transform="translate(278.8316490855761,62.53804432646831)"><circle class="outline" cx="0" cy="0" r="25" fill="#8DCC93" stroke="#5db665" stroke-width="2px"/><text text-anchor="middle" pointer-events="none" font-family="sans-serif" dy="1.5625" font-size="25" fill="#2A2C34"/><text text-anchor="middle" pointer-events="none" x="0" y="5" font-size="10px" fill="#2A2C34" font-family="sans-serif"> Gairibus</text></g><g class="node" transform="translate(201.51762039938168,1.815411283132158)"><circle class="outline" cx="0" cy="0" r="25" fill="#8DCC93" stroke="#5db665" stroke-width="2px"/><text text-anchor="middle" pointer-events="none" font-family="sans-serif" dy="1.5625" font-size="25" fill="#2A2C34"/><text text-anchor="middle" pointer-events="none" x="0" y="5" font-size="10px" fill="#2A2C34" font-family="sans-serif"> BhikeBh…</text></g><g class="node" transform="translate(85.58109306064983,-51.38253313725435)"><circle class="outline" cx="0" cy="0" r="25" fill="#F16667" stroke="#eb2728" stroke-width="2px"/><text text-anchor="middle" pointer-events="none" font-family="sans-serif" dy="1.5625" font-size="25" fill="#FFFFFF"/><text text-anchor="middle" pointer-events="none" x="0" y="5" font-size="10px" fill="#FFFFFF" font-family="sans-serif"> Rimbik</text></g><g class="node" transform="translate(-18.475922076466187,53.10942386635088)"><circle class="outline" cx="0" cy="0" r="25" fill="#8DCC93" stroke="#5db665" stroke-width="2px"/><text text-anchor="middle" pointer-events="none" font-family="sans-serif" dy="1.5625" font-size="25" fill="#2A2C34"/><text text-anchor="middle" pointer-events="none" x="0" y="5" font-size="10px" fill="#2A2C34" font-family="sans-serif"> Sirikhola</text></g><g class="node selected" transform="translate(42.61912919676268,150.65291618094506)"><circle class="outline" cx="0" cy="0" r="25" fill="#8DCC93" stroke="#5db665" stroke-width="2px"/><text text-anchor="middle" pointer-events="none" font-family="sans-serif" dy="1.5625" font-size="25" fill="#2A2C34"/><text text-anchor="middle" pointer-events="none" x="0" y="5" font-size="10px" fill="#2A2C34" font-family="sans-serif"> Gurdum</text></g><g class="node" transform="translate(-52.82609388502729,176.68836931778776)"><circle class="outline" cx="0" cy="0" r="25" fill="#8DCC93" stroke="#5db665" stroke-width="2px"/><text text-anchor="middle" pointer-events="none" font-family="sans-serif" dy="1.5625" font-size="25" fill="#2A2C34"/><text text-anchor="middle" pointer-events="none" x="0" y="5" font-size="10px" fill="#2A2C34" font-family="sans-serif"> Rammam</text></g><g class="node" transform="translate(61.526418741759024,237.26118884700298)"><circle class="outline" cx="0" cy="0" r="25" fill="#D9C8AE" stroke="#c0a378" stroke-width="2px"/><text text-anchor="middle" pointer-events="none" font-family="sans-serif" dy="1.5625" font-size="25" fill="#2A2C34"/><text text-anchor="middle" pointer-events="none" x="0" y="5" font-size="10px" fill="#2A2C34" font-family="sans-serif"> Sabargr…</text></g></g></svg>