<svg xmlns="http://www.w3.org/2000/svg" width="163.73577880859375" height="243.2228240966797" viewBox="-1.3218040466308594 -20.614749908447266 163.73577880859375 243.2228240966797"><title>Neo4j Graph Visualization</title><desc>Created using Neo4j (http://www.neo4j.com/)</desc><g class="layer relationships"><g class="relationship" transform="translate(133.41397678864982 8.38524973764203) rotate(521.9694356987222)"><path class="outline" fill="#A5ABB6" stroke="none" d="M 21.40063509461097,12.933012701892217 L 21.90063509461097,12.06698729810778 A 59.94082773906497 59.94082773906497 0 0 0 39.20491764890076,18.74400968316902 L 38.99360706489646,19.721428650187647 A 60.94082773906497 60.94082773906497 0 0 1 21.40063509461097,12.933012701892217 Z M 61.05448870317249,20.40161558749579 L 60.90379433160356,19.413035187944274 A 59.94082773906497 59.94082773906497 0 0 0 78.58655264677621,13.814742500303003 L 77.24945881489266,11.12919226157371 L 85.07568550912515,11.142448599029596 L 80.36934442262096,17.39547615194206 L 79.0322505907374,14.709925913212766 A 60.94082773906497 60.94082773906497 0 0 1 61.05448870317249,20.40161558749579"/><text text-anchor="middle" pointer-events="none" font-size="8px" fill="#000000" x="50.00840650819645" y="23.568827569881485" transform="rotate(180 50.00840650819645 20.568827569881485)" font-family="sans-serif">road</text></g><g class="relationship" transform="translate(31.23566919355205 41.645266071852575) rotate(451.9111295462517)"><path class="outline" fill="#A5ABB6" stroke="none" d="M 25 0.5 L 40.168587898741755 0.5 L 40.168587898741755 -0.5 L 25 -0.5 Z M 59.504525398741755 0.5 L 74.67311329748351 0.5 L 74.67311329748351 3.5 L 81.67311329748351 0 L 74.67311329748351 -3.5 L 74.67311329748351 -0.5 L 59.504525398741755 -0.5 Z"/><text text-anchor="middle" pointer-events="none" font-size="8px" fill="#000000" x="49.836556648741755" y="3" transform="rotate(180 49.836556648741755 0)" font-family="sans-serif">trek</text></g><g class="relationship" transform="translate(27.678193595437275 148.25904317381332) rotate(384.9900506641415)"><path class="outline" fill="#A5ABB6" stroke="none" d="M 25 0.5 L 40.50449853273098 0.5 L 40.50449853273098 -0.5 L 25 -0.5 Z M 59.84043603273098 0.5 L 75.34493456546195 0.5 L 75.34493456546195 3.5 L 82.34493456546195 0 L 75.34493456546195 -3.5 L 75.34493456546195 -0.5 L 59.84043603273098 -0.5 Z"/><text text-anchor="middle" pointer-events="none" font-size="8px" fill="#000000" x="50.17246728273098" y="3" font-family="sans-serif">trek</text></g><g class="relationship" transform="translate(133.41397678864982 8.38524973764203) rotate(521.9694356987222)"><path class="outline" fill="#A5ABB6" stroke="none" d="M 25 0.5 L 26.48154166593462 0.5 L 26.48154166593462 -0.5 L 25 -0.5 Z M 73.97372916593463 0.5 L 75.45527083186924 0.5 L 75.45527083186924 3.5 L 82.45527083186924 0 L 75.45527083186924 -3.5 L 75.45527083186924 -0.5 L 73.97372916593463 -0.5 Z"/><text text-anchor="middle" pointer-events="none" font-size="8px" fill="#000000" x="50.22763541593462" y="3" transform="rotate(180 50.22763541593462 0)" font-family="sans-serif">PublicTra…</text></g><g class="relationship" transform="translate(133.41397678864982 8.38524973764203) rotate(521.9694356987222)"><path class="outline" fill="#A5ABB6" stroke="none" d="M 21.40063509461097,-12.933012701892217 L 21.90063509461097,-12.06698729810778 A 59.94082773906497 59.94082773906497 0 0 1 40.504776530675414,-19.0100057142827 L 40.31515164790022,-19.99186232490998 A 60.94082773906497 60.94082773906497 0 0 0 21.40063509461097,-12.933012701892217 Z M 59.71879400248445,-20.590120557839732 L 59.590017526524136,-19.59844691230949 A 59.94082773906497 59.94082773906497 0 0 1 78.58655264677621,-13.814742500303003 L 77.24945881489266,-11.12919226157371 L 85.07568550912515,-11.142448599029596 L 80.36934442262096,-17.39547615194206 L 79.0322505907374,-14.709925913212766 A 60.94082773906497 60.94082773906497 0 0 0 59.71879400248445,-20.590120557839732"/><text text-anchor="middle" pointer-events="none" font-size="8px" fill="#000000" x="50.00840650819644" y="-17.568827569881485" transform="rotate(180 50.00840650819644 -20.568827569881485)" font-family="sans-serif">trek</text></g></g><g class="layer nodes"><g class="node" transform="translate(133.41397678864982,8.38524973764203)"><circle class="outline" cx="0" cy="0" r="25" fill="#F16667" stroke="#eb2728" stroke-width="2px"/><text text-anchor="middle" pointer-events="none" font-family="sans-serif" dy="1.5625" font-size="25" fill="#FFFFFF"/><text text-anchor="middle" pointer-events="none" x="0" y="5" font-size="10px" fill="#FFFFFF" font-family="sans-serif"> Darjeeling</text></g><g class="node" transform="translate(124.97361995752539,193.60807828904814)"><circle class="outline" cx="0" cy="0" r="25" fill="#D9C8AE" stroke="#c0a378" stroke-width="2px"/><text text-anchor="middle" pointer-events="none" font-family="sans-serif" dy="1.5625" font-size="25" fill="#2A2C34"/><text text-anchor="middle" pointer-events="none" x="0" y="5" font-size="10px" fill="#2A2C34" font-family="sans-serif"> Sandak…</text></g><g class="node" transform="translate(31.23566919355205,41.645266071852575)"><circle class="outline" cx="0" cy="0" r="25" fill="#F16667" stroke="#eb2728" stroke-width="2px"/><text text-anchor="middle" pointer-events="none" font-family="sans-serif" dy="1.5625" font-size="25" fill="#FFFFFF"/><text text-anchor="middle" pointer-events="none" x="0" y="5" font-size="10px" fill="#FFFFFF" font-family="sans-serif"> Rimbik</text></g><g class="node" transform="translate(27.678193595437275,148.25904317381332)"><circle class="outline" cx="0" cy="0" r="25" fill="#8DCC93" stroke="#5db665" stroke-width="2px"/><text text-anchor="middle" pointer-events="none" font-family="sans-serif" dy="1.5625" font-size="25" fill="#2A2C34"/><text text-anchor="middle" pointer-events="none" x="0" y="5" font-size="10px" fill="#2A2C34" font-family="sans-serif"> BhikeBh…</text></g></g></svg>