<svg xmlns="http://www.w3.org/2000/svg" width="197.3563232421875" height="215.7499542236328" viewBox="-25.200698852539062 -21.890422821044922 197.3563232421875 215.7499542236328"><title>Neo4j Graph Visualization</title><desc>Created using Neo4j (http://www.neo4j.com/)</desc><g class="layer relationships"><g class="relationship" transform="translate(69.96444597845904 164.85952439878935) rotate(252.93797036707133)"><path class="outline" fill="#A5ABB6" stroke="none" d="M 5.987513214418485,24.277555179777966 L 6.953439040707552,24.018736134675446 A 45.890142893278686 45.890142893278686 0 0 0 21.480706202175575,47.04009593821308 L 20.831346554275893,47.800577396027535 A 46.890142893278686 46.890142893278686 0 0 1 5.987513214418485,24.277555179777966 Z M 77.04882017377435,51.31608871051165 L 76.49926102657784,50.48063389800972 A 45.890142893278686 45.890142893278686 0 0 0 93.78137882991864,29.448446598157616 L 91.00290858008712,28.317030197887032 L 96.8844288055219,23.153918748595864 L 97.48600582969398,30.957001798518395 L 94.70753557986247,29.82558539824781 A 46.890142893278686 46.890142893278686 0 0 1 77.04882017377435,51.31608871051165"/><text text-anchor="middle" pointer-events="none" font-size="8px" fill="#000000" x="48.38460114759344" y="61.44119647051649" transform="rotate(180 48.38460114759344 58.44119647051649)" font-family="sans-serif">CONNECTION</text></g><g class="relationship" transform="translate(38.771513319957265 63.22570421537423) rotate(349.0607320422703)"><path class="outline" fill="#A5ABB6" stroke="none" d="M 5.987513214418485,-24.277555179777966 L 6.953439040707552,-24.018736134675446 A 45.89179665619872 45.89179665619872 0 0 1 21.482093340337585,-47.041662971798324 L 20.832752510893865,-47.802160497906954 A 46.89179665619872 46.89179665619872 0 0 0 5.987513214418485,-24.277555179777966 Z M 77.0504962924283,-51.317588376029725 L 76.50095484841785,-50.48212191870489 A 45.89179665619872 45.89179665619872 0 0 1 93.78456942201457,-29.448491153261173 L 91.00609514949743,-28.317084631731284 L 96.8875970176705,-23.15395227097617 L 97.48920178537075,-30.957033181967695 L 94.71072751285361,-29.825626660437806 A 46.89179665619872 46.89179665619872 0 0 0 77.0504962924283,-51.317588376029725"/><text text-anchor="middle" pointer-events="none" font-size="8px" fill="#000000" x="48.386177656141115" y="-55.44242413120445" font-family="sans-serif">CONNECTION</text></g><g class="relationship" transform="translate(69.96444597845904 164.85952439878935) rotate(252.93797036707133)"><path class="outline" fill="#A5ABB6" stroke="none" d="M 9.640628187553363,23.071807214636475 L 10.555422056041385,22.66788620976458 A 44.51766958679961 44.51766958679961 0 0 0 21.84081196291601,38.080309081680575 L 21.17952170348081,38.830439198910994 A 45.51766958679961 45.51766958679961 0 0 1 9.640628187553363,23.071807214636475 Z M 77.18086026169966,42.11618806854356 L 76.61182965746615,41.29387172342713 A 44.51766958679961 44.51766958679961 0 0 0 89.62215839342035,27.30694388650202 L 87.03831389869178,25.78255954288624 L 93.60969594431192,21.532037456071343 L 93.06728438639176,29.33945634465639 L 90.4834398916632,27.815072001040612 A 45.51766958679961 45.51766958679961 0 0 1 77.18086026169966,42.11618806854356"/><text text-anchor="middle" pointer-events="none" font-size="8px" fill="#000000" x="48.643140333062846" y="52.62664714775759" transform="rotate(180 48.643140333062846 49.62664714775759)" font-family="sans-serif">CONNECTION</text></g><g class="relationship" transform="translate(69.96444597845904 164.85952439878935) rotate(252.93797036707133)"><path class="outline" fill="#A5ABB6" stroke="none" d="M 13.065558593808642,21.319971356260147 L 13.907568197342588,20.78050882043712 A 44.38470164618739 44.38470164618739 0 0 0 22.033787058888294,30.22323686652679 L 21.374863486354936,30.975446761143893 A 45.38470164618739 45.38470164618739 0 0 1 13.065558593808642,21.319971356260147 Z M 77.36894010783652,33.973316143275234 L 76.79409823539675,33.15505162510894 A 44.38470164618739 44.38470164618739 0 0 0 85.88208308016974,24.63395560409582 L 83.54329278328458,22.75511022802149 L 90.65585400715736,19.489919140709535 L 89.00047014268327,27.13908277219493 L 86.66167984579812,25.260237396120598 A 45.38470164618739 45.38470164618739 0 0 1 77.36894010783652,33.973316143275234"/><text text-anchor="middle" pointer-events="none" font-size="8px" fill="#000000" x="48.880265925529045" y="44.65713531949189" transform="rotate(180 48.880265925529045 41.65713531949189)" font-family="sans-serif">CONNECTION</text></g><g class="relationship" transform="translate(69.96444597845904 164.85952439878935) rotate(252.93797036707133)"><path class="outline" fill="#A5ABB6" stroke="none" d="M 16.181239564159192,19.063511905398997 L 16.93053533041732,18.401276407507467 A 45.84221538383918 45.84221538383918 0 0 0 22.022094897037075,23.334417151362565 L 21.38386617943678,24.10426395692214 A 46.84221538383918 46.84221538383918 0 0 1 16.181239564159192,19.063511905398997 Z M 77.64064732775604,26.763792024332815 L 77.07789140602333,25.93716891035961 A 45.84221538383918 45.84221538383918 0 0 0 82.61212978795207,21.506360637469985 L 80.56169115019092,19.31645164557644 L 88.06365720866387,17.086988648009566 L 85.34604797163361,24.42623929332805 L 83.29560933387246,22.236330301434503 A 46.84221538383918 46.84221538383918 0 0 1 77.64064732775604,26.763792024332815"/><text text-anchor="middle" pointer-events="none" font-size="8px" fill="#000000" x="49.09153831993416" y="37.333450838473034" transform="rotate(180 49.09153831993416 34.333450838473034)" font-family="sans-serif">CONNECTION</text></g><g class="relationship" transform="translate(69.96444597845904 164.85952439878935) rotate(252.93797036707133)"><path class="outline" fill="#A5ABB6" stroke="none" d="M 18.913925871745995,16.355837126790473 L 19.552772677397954,15.586503155807593 A 49.66314345681809 49.66314345681809 0 0 0 21.787128641561413,17.33648067062103 L 21.193272060221496,18.141051587818055 A 50.66314345681809 50.66314345681809 0 0 1 18.913925871745995,16.355837126790473 Z M 78.01159685565906,20.415818359524025 L 77.48396114657555,19.566347607526083 A 49.66314345681809 49.66314345681809 0 0 0 79.85106507258747,18.000593194981057 L 78.12516837029705,15.54676341828035 L 85.86431733527085,14.382472519086857 L 82.15226067564137,21.272366230582 L 80.42636397335095,18.818536453881293 A 50.66314345681809 50.66314345681809 0 0 1 78.01159685565906,20.415818359524025"/><text text-anchor="middle" pointer-events="none" font-size="8px" fill="#000000" x="49.273199535199836" y="30.50194914090057" transform="rotate(180 49.273199535199836 27.50194914090057)" font-family="sans-serif">CONNECTION</text></g><g class="relationship" transform="translate(69.96444597845904 164.85952439878935) rotate(252.93797036707133)"><path class="outline" fill="#A5ABB6" stroke="none" d="M 21.198937411768455,13.261035125959197 L 21.71221435609968,12.402812090601834 A 57.60574131348752 57.60574131348752 0 0 0 23.06054431486283,13.184638662831318 L 22.570673543736216,14.056433723379271 A 58.60574131348752 58.60574131348752 0 0 1 21.198937411768455,13.261035125959197 Z M 76.66509760321298,15.786821443573672 L 76.23194576858293,14.885500475129795 A 57.60574131348752 57.60574131348752 0 0 0 77.6274866394841,14.191445618229602 L 76.25535395937429,11.523627800578883 L 84.08108366068743,11.434439000915148 L 79.45699687963052,17.748536041763895 L 78.08486419952071,15.080718224113175 A 58.60574131348752 58.60574131348752 0 0 1 76.66509760321298,15.786821443573672"/><text text-anchor="middle" pointer-events="none" font-size="8px" fill="#000000" x="49.4221605934616" y="24.040273678969236" transform="rotate(180 49.4221605934616 21.040273678969236)" font-family="sans-serif">CONNECTI…</text></g><g class="relationship" transform="translate(69.96444597845904 164.85952439878935) rotate(252.93797036707133)"><path class="outline" fill="#A5ABB6" stroke="none" d="M 22.982190118496508,9.852356944268795 L 23.357748420851518,8.925558173481836 A 74.34841577853113 74.34841577853113 0 0 0 23.62967368523451,9.035124332777286 L 23.257772828186646,9.963396788755091 A 75.34841577853113 75.34841577853113 0 0 1 22.982190118496508,9.852356944268795 Z M 76.01320071304909,11.19290538668065 L 75.68494845685932,10.248315287057366 A 74.34841577853113 74.34841577853113 0 0 0 75.96168276933237,10.151536090054242 L 74.96575961707183,7.3216708857041475 L 82.73068877152602,8.299359602171291 L 77.28958030567978,13.924689695854365 L 76.29365715341923,11.094824491504271 A 75.34841577853113 75.34841577853113 0 0 1 76.01320071304909,11.19290538668065"/><text text-anchor="middle" pointer-events="none" font-size="8px" fill="#000000" x="49.5359829514635" y="17.847634493139722" transform="rotate(180 49.5359829514635 14.847634493139722)" font-family="sans-serif">CONNECT…</text></g><g class="relationship" transform="translate(69.96444597845904 164.85952439878935) rotate(252.93797036707133)"><path class="outline" fill="#A5ABB6" stroke="none" d="M 24.221476084042255,6.210482775933699 L 24.45042663399239,5.237044721573006 A 117.18463487103409 117.18463487103409 0 0 0 25.59941170395588,5.50119117308229 L 25.380266066324054,6.47688333227336 A 118.18463487103409 118.18463487103409 0 0 1 24.221476084042255,6.210482775933699 Z M 73.90260916291385,7.164292561614857 L 73.71119091337422,6.182784001416223 A 117.18463487103409 117.18463487103409 0 0 0 74.86719762314648,5.951292045173031 L 74.26334837919866,3.012692703550624 L 81.82457096092341,5.032077032898513 L 75.67232994841025,9.869424500669574 L 75.06848070446243,6.930825159047166 A 118.18463487103409 118.18463487103409 0 0 1 73.90260916291385,7.164292561614857"/><text text-anchor="middle" pointer-events="none" font-size="8px" fill="#000000" x="49.61285879704203" y="11.837888752012361" transform="rotate(180 49.61285879704203 8.837888752012361)" font-family="sans-serif">CONNEC…</text></g><g class="relationship" transform="translate(69.96444597845904 164.85952439878935) rotate(252.93797036707133)"><path class="outline" fill="#A5ABB6" stroke="none" d="M 24.88746257968859,2.4216123439973125 L 24.964386333883052,1.4245753657258797 A 342.09883767519176 342.09883767519176 0 0 0 25.38029890328851,1.456408937987021 L 25.30459091636245,2.4535389699867096 A 343.09883767519176 343.09883767519176 0 0 1 24.88746257968859,2.4216123439973125 Z M 74.00206683844314,2.684993196092421 L 73.93584057618303,1.687188564820815 A 342.09883767519176 342.09883767519176 0 0 0 74.35203695176142,1.6593099230411945 L 74.14970837436725,-1.3338594919384605 L 81.36982034961297,1.6860714782847424 L 74.62180838828696,5.650202476347401 L 74.4194798108928,2.657033061367746 A 343.09883767519176 343.09883767519176 0 0 1 74.00206683844314,2.684993196092421"/><text text-anchor="middle" pointer-events="none" font-size="8px" fill="#000000" x="49.65159366033118" y="5.934352056999501" transform="rotate(180 49.65159366033118 2.9343520569995007)" font-family="sans-serif">CONNEC…</text></g><g class="relationship" transform="translate(38.771513319957265 63.22570421537423) rotate(349.0607320422703)"><path class="outline" fill="#A5ABB6" stroke="none" d="M 7.420576731956966,-23.878547714740503 L 8.369402648794285,-23.562748127125477 A 45.22653443107759 45.22653443107759 0 0 1 21.638304552105122,-43.43750679667948 L 20.982866180217368,-44.192755458152725 A 46.22653443107759 46.22653443107759 0 0 0 7.420576731956966,-23.878547714740503 Z M 77.09672264582186,-47.62690000542069 L 76.53827256260016,-46.797361878177774 A 45.22653443107759 45.22653443107759 0 0 1 92.13172755415934,-28.688967379522868 L 89.4220206914319,-27.401532442103587 L 95.58736021859224,-22.580890522728712 L 95.74467003779594,-30.405547296081913 L 93.0349631750685,-29.118112358662632 A 46.22653443107759 46.22653443107759 0 0 0 77.09672264582186,-47.62690000542069"/><text text-anchor="middle" pointer-events="none" font-size="8px" fill="#000000" x="48.48829181923504" y="-51.921369605484536" font-family="sans-serif">CONNECTION</text></g><g class="relationship" transform="translate(38.771513319957265 63.22570421537423) rotate(349.0607320422703)"><path class="outline" fill="#A5ABB6" stroke="none" d="M 8.82737742500015,-23.39502955323198 L 9.755745358016224,-23.02336709757165 A 44.729857431429586 44.729857431429586 0 0 1 21.773486300653506,-40.01497612957603 L 21.113792171506812,-40.76651033103953 A 45.729857431429586 45.729857431429586 0 0 0 8.82737742500015,-23.39502955323198 Z M 77.14866602821013,-44.10983397166147 L 76.58301468277874,-43.285189469217144 A 44.729857431429586 44.729857431429586 0 0 1 90.53591272990573,-27.843119952882528 L 87.90314765943711,-26.404875160185426 L 94.33061142461041,-21.939708920571917 L 94.04626615719724,-29.760779676478663 L 91.41350108672862,-28.32253488378156 A 45.729857431429586 45.729857431429586 0 0 0 77.14866602821013,-44.10983397166147"/><text text-anchor="middle" pointer-events="none" font-size="8px" fill="#000000" x="48.58765955296508" y="-48.54852288809536" font-family="sans-serif">CONNECTION</text></g><g class="relationship" transform="translate(38.771513319957265 63.22570421537423) rotate(432.93797036707133)"><path class="outline" fill="#A5ABB6" stroke="none" d="M 24.88746257968859,2.4216123439973125 L 24.964386333883052,1.4245753657258797 A 342.09883767519176 342.09883767519176 0 0 0 25.38029890328851,1.456408937987021 L 25.30459091636245,2.4535389699867096 A 343.09883767519176 343.09883767519176 0 0 1 24.88746257968859,2.4216123439973125 Z M 74.00206683844314,2.684993196092421 L 73.93584057618303,1.687188564820815 A 342.09883767519176 342.09883767519176 0 0 0 74.35203695176142,1.6593099230411945 L 74.14970837436725,-1.3338594919384605 L 81.36982034961297,1.6860714782847424 L 74.62180838828696,5.650202476347401 L 74.4194798108928,2.657033061367746 A 343.09883767519176 343.09883767519176 0 0 1 74.00206683844314,2.684993196092421"/><text text-anchor="middle" pointer-events="none" font-size="8px" fill="#000000" x="49.65159366033118" y="5.934352056999501" font-family="sans-serif">CONNEC…</text></g><g class="relationship" transform="translate(38.771513319957265 63.22570421537423) rotate(349.0607320422703)"><path class="outline" fill="#A5ABB6" stroke="none" d="M 10.202936359829577,-22.82871195747293 L 11.10756063932883,-22.402502017489763 A 44.40954207933163 44.40954207933163 0 0 1 21.885131202816655,-36.76225351423312 L 21.22319284302887,-37.5118117893802 A 45.40954207933163 45.40954207933163 0 0 0 10.202936359829577,-22.82871195747293 Z M 77.20796664839015,-40.75534399190945 L 76.63701933609707,-39.93435728885921 A 44.40954207933163 44.40954207933163 0 0 1 89.00080643585078,-26.915322806565708 L 86.45275297544349,-25.331838179893744 L 93.12027947481991,-21.233778836727367 L 92.39821104972715,-29.026635642128326 L 89.85015758931986,-27.443151015456362 A 45.40954207933163 45.40954207933163 0 0 0 77.20796664839015,-40.75534399190945"/><text text-anchor="middle" pointer-events="none" font-size="8px" fill="#000000" x="48.683988480673186" y="-45.309073884412754" font-family="sans-serif">CONNECTION</text></g><g class="relationship" transform="translate(38.771513319957265 63.22570421537423) rotate(349.0607320422703)"><path class="outline" fill="#A5ABB6" stroke="none" d="M 11.542385173217793,-22.18159923254142 L 12.420064162785048,-21.70235024582136 A 44.27751711603793 44.27751711603793 0 0 1 21.97078080694859,-33.66943524918254 L 21.308803086698987,-34.4189587630853 A 45.27751711603793 45.27751711603793 0 0 0 11.542385173217793,-22.18159923254142 Z M 77.27632689406573,-37.554258817335 L 76.70220494780907,-36.73548901401635 A 44.27751711603793 44.27751711603793 0 0 1 87.52976163161111,-25.90999465330341 L 85.0737803562239,-24.187160948343042 L 91.95903715574983,-20.46651062822668 L 90.80440333212736,-28.20710625991724 L 88.34842205674016,-26.48427255495687 A 45.27751711603793 45.27751711603793 0 0 0 77.27632689406573,-37.554258817335"/><text text-anchor="middle" pointer-events="none" font-size="8px" fill="#000000" x="48.7770014365066" y="-42.18981581233922" font-family="sans-serif">CONNECTION</text></g><g class="relationship" transform="translate(38.771513319957265 63.22570421537423) rotate(349.0607320422703)"><path class="outline" fill="#A5ABB6" stroke="none" d="M 12.840983302486569,-21.45598163275829 L 13.68861073018383,-20.92538975210488 A 44.35073557928665 44.35073557928665 0 0 1 22.028109233488745,-30.728309958220088 L 21.3685169847886,-31.479933577762928 A 45.35073557928665 45.35073557928665 0 0 0 12.840983302486569,-21.45598163275829 Z M 77.35543904772183,-34.49903717771426 L 76.7804995661692,-33.680841239963414 A 44.35073557928665 44.35073557928665 0 0 1 86.12582001978775,-24.83157768454452 L 83.76885960511143,-22.975577252527103 L 90.84931443027443,-19.641336788969348 L 89.26843390602284,-27.30624492723441 L 86.91147349134651,-25.450244495216992 A 45.35073557928665 45.35073557928665 0 0 0 77.35543904772183,-34.49903717771426"/><text text-anchor="middle" pointer-events="none" font-size="8px" fill="#000000" x="48.86643653310773" y="-39.17891577568047" font-family="sans-serif">CONNECTION</text></g><g class="relationship" transform="translate(38.771513319957265 63.22570421537423) rotate(432.93797036707133)"><path class="outline" fill="#A5ABB6" stroke="none" d="M 24.221476084042255,6.210482775933699 L 24.45042663399239,5.237044721573006 A 117.18463487103409 117.18463487103409 0 0 0 25.59941170395588,5.50119117308229 L 25.380266066324054,6.47688333227336 A 118.18463487103409 118.18463487103409 0 0 1 24.221476084042255,6.210482775933699 Z M 73.90260916291385,7.164292561614857 L 73.71119091337422,6.182784001416223 A 117.18463487103409 117.18463487103409 0 0 0 74.86719762314648,5.951292045173031 L 74.26334837919866,3.012692703550624 L 81.82457096092341,5.032077032898513 L 75.67232994841025,9.869424500669574 L 75.06848070446243,6.930825159047166 A 118.18463487103409 118.18463487103409 0 0 1 73.90260916291385,7.164292561614857"/><text text-anchor="middle" pointer-events="none" font-size="8px" fill="#000000" x="49.61285879704203" y="11.837888752012361" font-family="sans-serif">CONNEC…</text></g><g class="relationship" transform="translate(38.771513319957265 63.22570421537423) rotate(349.0607320422703)"><path class="outline" fill="#A5ABB6" stroke="none" d="M 14.094134763254786,-20.65442725604399 L 14.908710715305123,-20.074370346472794 A 44.652435219672824 44.652435219672824 0 0 1 22.05503062700626,-27.932161365067778 L 21.400497903876005,-28.688195037830894 A 45.652435219672824 45.652435219672824 0 0 0 14.094134763254786,-20.65442725604399 Z M 77.446890699528,-31.583545451768543 L 76.87374755989289,-30.76409018057359 A 44.652435219672824 44.652435219672824 0 0 1 84.79172992268745,-23.684519340843103 L 82.54032622350998,-21.701798638542865 L 89.7933121779176,-18.761697493145686 L 87.79360152159076,-26.328146943910088 L 85.54219782241329,-24.34542624160985 A 45.652435219672824 45.652435219672824 0 0 0 77.446890699528,-31.583545451768543"/><text text-anchor="middle" pointer-events="none" font-size="8px" fill="#000000" x="48.95204716754969" y="-36.265722166831424" font-family="sans-serif">CONNECTION</text></g><g class="relationship" transform="translate(38.771513319957265 63.22570421537423) rotate(349.0607320422703)"><path class="outline" fill="#A5ABB6" stroke="none" d="M 15.297404415496423,-19.779772954934305 L 16.076045953546178,-19.152303947553452 A 45.213956579260056 45.213956579260056 0 0 1 22.049832109617324,-25.275582261062908 L 21.403313186088134,-26.03848021067259 A 46.213956579260056 46.213956579260056 0 0 0 15.297404415496423,-19.779772954934305 Z M 77.55204654020652,-28.802846042710705 L 76.98359194685409,-27.980131404882663 A 45.213956579260056 45.213956579260056 0 0 1 83.52996442631353,-22.47325700070943 L 81.3902410165266,-20.37050077860241 L 88.79301617952774,-17.831028414891097 L 86.3829289726961,-25.276931963518795 L 84.24320556290918,-23.174175741411773 A 46.213956579260056 46.213956579260056 0 0 0 77.55204654020652,-28.802846042710705"/><text text-anchor="middle" pointer-events="none" font-size="8px" fill="#000000" x="49.03360197607937" y="-33.44060201482904" font-family="sans-serif">CONNECTION</text></g><g class="relationship" transform="translate(38.771513319957265 63.22570421537423) rotate(432.93797036707133)"><path class="outline" fill="#A5ABB6" stroke="none" d="M 22.982190118496508,9.852356944268795 L 23.357748420851518,8.925558173481836 A 74.34841577853113 74.34841577853113 0 0 0 23.62967368523451,9.035124332777286 L 23.257772828186646,9.963396788755091 A 75.34841577853113 75.34841577853113 0 0 1 22.982190118496508,9.852356944268795 Z M 76.01320071304909,11.19290538668065 L 75.68494845685932,10.248315287057366 A 74.34841577853113 74.34841577853113 0 0 0 75.96168276933237,10.151536090054242 L 74.96575961707183,7.3216708857041475 L 82.73068877152602,8.299359602171291 L 77.28958030567978,13.924689695854365 L 76.29365715341923,11.094824491504271 A 75.34841577853113 75.34841577853113 0 0 1 76.01320071304909,11.19290538668065"/><text text-anchor="middle" pointer-events="none" font-size="8px" fill="#000000" x="49.5359829514635" y="17.847634493139722" font-family="sans-serif">CONNECT…</text></g><g class="relationship" transform="translate(38.771513319957265 63.22570421537423) rotate(349.0607320422703)"><path class="outline" fill="#A5ABB6" stroke="none" d="M 16.44653366033987,-18.835114296422724 L 17.186485024722753,-18.16245392272147 A 46.07738732862313 46.07738732862313 0 0 1 22.011332017123305,-22.754286475579164 L 21.37609247066512,-23.526601643509714 A 47.07738732862313 47.07738732862313 0 0 0 16.44653366033987,-18.835114296422724 Z M 77.67190710416422,-26.15298475790958 L 77.11133231537634,-25.324880956339136 A 46.07738732862313 46.07738732862313 0 0 1 82.34273949449953,-21.202205414924457 L 80.32040941137858,-18.986312584730715 L 87.85021111213841,-16.852750692674544 L 85.03917960532745,-24.156729188516113 L 83.0168495222065,-21.940836358322372 A 47.07738732862313 47.07738732862313 0 0 0 77.67190710416422,-26.15298475790958"/><text text-anchor="middle" pointer-events="none" font-size="8px" fill="#000000" x="49.11088474743799" y="-30.694802808914496" font-family="sans-serif">CONNECTION</text></g><g class="relationship" transform="translate(38.771513319957265 63.22570421537423) rotate(349.0607320422703)"><path class="outline" fill="#A5ABB6" stroke="none" d="M 17.5374555120548,-17.82379460616338 L 18.236097874946534,-17.108323538423353 A 47.29946897868034 47.29946897868034 0 0 1 21.939060212916864,-20.364905309667456 L 21.318705459123645,-21.149226659272422 A 48.29946897868034 48.29946897868034 0 0 0 17.5374555120548,-17.82379460616338 Z M 77.80694789429131,-23.630765716210128 L 77.25776096098852,-22.79506618151511 A 47.29946897868034 47.29946897868034 0 0 1 81.23203179627811,-19.875746699685042 L 79.33240024878387,-17.55380785816388 L 86.96649435107653,-15.830262895785346 L 83.76487385960377,-22.971665155046594 L 81.86524231210953,-20.64972631352543 A 48.29946897868034 48.29946897868034 0 0 0 77.80694789429131,-23.630765716210128"/><text text-anchor="middle" pointer-events="none" font-size="8px" fill="#000000" x="49.18369430371014" y="-28.02033442119332" font-family="sans-serif">CONNECTION</text></g><g class="relationship" transform="translate(38.771513319957265 63.22570421537423) rotate(349.0607320422703)"><path class="outline" fill="#A5ABB6" stroke="none" d="M 18.56630899188382,-16.749393135809257 L 19.221169725829103,-15.993643561454997 A 48.95749471304483 48.95749471304483 0 0 1 21.833453045746488,-18.10475487176185 L 21.231950502109523,-18.903625756197044 A 49.95749471304483 49.95749471304483 0 0 0 18.56630899188382,-16.749393135809257 Z M 77.95694625674031,-21.233502882847823 L 77.4229836198181,-20.387994809337528 A 48.95749471304483 48.95749471304483 0 0 1 80.1995960270434,-18.49822269395783 L 78.42756384581321,-16.077499258973035 L 86.14328940554628,-14.766934843584867 L 82.56230560201698,-21.725853940604225 L 80.79027342078679,-19.30513050561943 A 49.95749471304483 49.95749471304483 0 0 0 77.95694625674031,-21.233502882847823"/><text text-anchor="middle" pointer-events="none" font-size="8px" fill="#000000" x="49.25184435683039" y="-25.40986760324133" font-family="sans-serif">CONNECTION</text></g><g class="relationship" transform="translate(38.771513319957265 63.22570421537423) rotate(349.0607320422703)"><path class="outline" fill="#A5ABB6" stroke="none" d="M 19.529452792776517,-15.615712395363635 L 20.13821422178524,-14.822359055072399 A 51.15845869976213 51.15845869976213 0 0 1 21.696050051724942,-15.971561730339324 L 21.117739810448093,-16.78737866129523 A 52.15845869976213 52.15845869976213 0 0 0 19.529452792776517,-15.615712395363635 Z M 78.1208083129659,-18.95873883633528 L 77.60623602045005,-18.101291837521373 A 51.15845869976213 51.15845869976213 0 0 1 79.24698153837693,-17.073929483097455 L 77.60704916335577,-14.56183438032816 L 85.38185884067548,-13.666103125176306 L 81.43355803840514,-20.423389620123178 L 79.79362566338398,-17.911294517353884 A 52.15845869976213 52.15845869976213 0 0 0 78.1208083129659,-18.95873883633528"/><text text-anchor="middle" pointer-events="none" font-size="8px" fill="#000000" x="49.31516334806839" y="-22.856646198360103" font-family="sans-serif">CONNECTION</text></g><g class="relationship" transform="translate(38.771513319957265 63.22570421537423) rotate(349.0607320422703)"><path class="outline" fill="#A5ABB6" stroke="none" d="M 20.42347816666382,-14.426764695378036 L 20.983985768904716,-13.598615416666664 A 54.0537269355539 54.0537269355539 0 0 1 21.52967311644101,-13.963137093019192 L 20.979260791223044,-14.798030063553831 A 55.0537269355539 55.0537269355539 0 0 0 20.42347816666382,-14.426764695378036 Z M 78.2964138264456,-16.803924479316876 L 77.80571311126363,-15.932596293086284 A 54.0537269355539 54.0537269355539 0 0 1 78.37554812235382,-15.60711389121501 L 76.87181994230136,-13.011193715147165 L 84.68331656318753,-12.531068167103898 L 80.38051902909044,-19.0683407926388 L 78.87679084903797,-16.472420616570957 A 55.0537269355539 55.0537269355539 0 0 0 78.2964138264456,-16.803924479316876"/><text text-anchor="middle" pointer-events="none" font-size="8px" fill="#000000" x="49.37349427703372" y="-20.354410736549326" font-family="sans-serif">CONNECTION</text></g><g class="relationship" transform="translate(38.771513319957265 63.22570421537423) rotate(349.0607320422703)"><path class="outline" fill="#A5ABB6" stroke="none" d="M 21.245220988662066,-13.18675794662634 L 21.755491021722964,-12.32674370641864 A 57.86351874692439 57.86351874692439 0 0 1 23.052544064805492,-13.073809803040959 L 22.564689762263082,-13.946734873989698 A 58.86351874692439 58.86351874692439 0 0 0 21.245220988662066,-13.18675794662634 Z M 76.6760007235973,-15.66728320983131 L 76.24458767493057,-14.765128687900571 A 57.86351874692439 57.86351874692439 0 0 1 77.58648082362748,-14.101971748125065 L 76.2226696997513,-11.429890308798871 L 84.04863936936798,-11.365092698968308 L 79.40489565546241,-17.66474700055999 L 78.04108453158622,-14.992665561233798 A 58.86351874692439 58.86351874692439 0 0 0 76.6760007235973,-15.66728320983131"/><text text-anchor="middle" pointer-events="none" font-size="8px" fill="#000000" x="49.426694525997576" y="-17.897331495246284" font-family="sans-serif">CONNECTI…</text></g><g class="relationship" transform="translate(38.771513319957265 63.22570421537423) rotate(349.0607320422703)"><path class="outline" fill="#A5ABB6" stroke="none" d="M 21.991772955509383,-11.900080767512723 L 22.449999477236794,-11.0112453188578 A 62.91977832232622 62.91977832232622 0 0 1 22.884680003309548,-11.233208945553557 L 22.433361969464055,-12.125572118441049 A 63.91977832232622 63.91977832232622 0 0 0 21.991772955509383,-11.900080767512723 Z M 76.8339440109755,-13.676113141152044 L 76.43418615768027,-12.75949235875138 A 62.91977832232622 62.91977832232622 0 0 1 76.88080367665708,-12.562647742198584 L 75.66023550015554,-9.822170899291187 L 83.47867767285793,-10.171401470846213 L 78.50822791199248,-16.216616866075114 L 77.28765973549093,-13.476140023167718 A 63.91977832232622 63.91977832232622 0 0 0 76.8339440109755,-13.676113141152044"/><text text-anchor="middle" pointer-events="none" font-size="8px" fill="#000000" x="49.47463568462908" y="-15.47994943967744" font-family="sans-serif">CONNECTI…</text></g><g class="relationship" transform="translate(38.771513319957265 63.22570421537423) rotate(349.0607320422703)"><path class="outline" fill="#A5ABB6" stroke="none" d="M 22.66049187860102,-10.571286951921099 L 23.065053138670955,-9.656776051575658 A 69.74582168887703 69.74582168887703 0 0 1 23.716162223751592,-9.940857701300445 L 23.32093642019094,-10.859441700834424 A 70.74582168887703 70.74582168887703 0 0 0 22.66049187860102,-10.571286951921099 Z M 75.94343814345487,-12.181535418219127 L 75.5948390755668,-11.244263478029097 A 69.74582168887703 69.74582168887703 0 0 1 76.25939228620433,-10.993236677435524 L 75.18501043641167,-8.192218355318351 L 82.97416534610984,-8.953182081605508 L 77.69190141926121,-14.727927773591754 L 76.61751956946856,-11.92690945147458 A 70.74582168887703 70.74582168887703 0 0 0 75.94343814345487,-12.181535418219127"/><text text-anchor="middle" pointer-events="none" font-size="8px" fill="#000000" x="49.51720337959299" y="-13.097123720618484" font-family="sans-serif">CONNECT…</text></g><g class="relationship" transform="translate(38.771513319957265 63.22570421537423) rotate(349.0607320422703)"><path class="outline" fill="#A5ABB6" stroke="none" d="M 23.249011035194496,-9.205079352477338 L 23.59847521479359,-8.268129627477578 A 79.21565942094593 79.21565942094593 0 0 1 25.842520197822395,-9.066893106103024 L 25.521384318453737,-10.013926234869984 A 80.21565942094593 80.21565942094593 0 0 0 23.249011035194496,-9.205079352477338 Z M 73.72624634880192,-11.058634908899236 L 73.44644143458582,-10.098578030386022 A 79.21565942094593 79.21565942094593 0 0 1 75.72298518687256,-9.397785960962617 L 74.79735477289383,-6.544155232098503 L 82.53572862321863,-7.713586783156227 L 76.95715907217756,-13.202626932781435 L 76.03152865819882,-10.348996203917322 A 80.21565942094593 80.21565942094593 0 0 0 73.72624634880192,-11.058634908899236"/><text text-anchor="middle" pointer-events="none" font-size="8px" fill="#000000" x="49.554297112850364" y="-10.743984618457134" font-family="sans-serif">CONNEC…</text></g><g class="relationship" transform="translate(38.771513319957265 63.22570421537423) rotate(349.0607320422703)"><path class="outline" fill="#A5ABB6" stroke="none" d="M 23.755247544689013,-7.806293236264361 L 24.048377823992112,-6.850220728890738 A 92.90453680352955 92.90453680352955 0 0 1 25.724906226540046,-7.347030135430018 L 25.44982165803031,-8.308450168593367 A 93.90453680352955 93.90453680352955 0 0 0 23.755247544689013,-7.806293236264361 Z M 73.81873673134363,-9.186691733632387 L 73.57873526972351,-8.215919207022665 A 92.90453680352955 92.90453680352955 0 0 1 75.27219393223969,-7.780299155458519 L 74.49750571640246,-4.882048274626612 L 82.16389402348702,-6.455735131976958 L 76.305111553356,-11.644633663234394 L 75.53042333751877,-8.746382782402488 A 93.90453680352955 93.90453680352955 0 0 0 73.81873673134363,-9.186691733632387"/><text text-anchor="middle" pointer-events="none" font-size="8px" fill="#000000" x="49.58583011195143" y="-8.415890991409597" font-family="sans-serif">CONNEC…</text></g><g class="relationship" transform="translate(38.771513319957265 63.22570421537423) rotate(349.0607320422703)"><path class="outline" fill="#A5ABB6" stroke="none" d="M 24.177409740333825,-6.379879171897452 L 24.413168675843256,-5.40806760357391 A 113.96531763190976 113.96531763190976 0 0 1 25.613395352800083,-5.692371120207909 L 25.388167925488908,-6.666677337978683 A 114.96531763190976 114.96531763190976 0 0 0 24.177409740333825,-6.379879171897452 Z M 73.89621114471635,-7.374371615957756 L 73.69950225054892,-6.393909678422489 A 113.96531763190976 113.96531763190976 0 0 1 74.90751187630474,-6.14474043928857 L 74.28558579243568,-3.209913707400755 L 81.85909526468781,-5.182717365575421 L 75.7367466547968,-10.057842748472321 L 75.11482057092775,-7.123016016584507 A 114.96531763190976 114.96531763190976 0 0 0 73.89621114471635,-7.374371615957756"/><text text-anchor="middle" pointer-events="none" font-size="8px" fill="#000000" x="49.61172919509987" y="-6.108391420792543" font-family="sans-serif">CONNEC…</text></g><g class="relationship" transform="translate(38.771513319957265 63.22570421537423) rotate(432.93797036707133)"><path class="outline" fill="#A5ABB6" stroke="none" d="M 21.198937411768455,13.261035125959197 L 21.71221435609968,12.402812090601834 A 57.60574131348752 57.60574131348752 0 0 0 23.06054431486283,13.184638662831318 L 22.570673543736216,14.056433723379271 A 58.60574131348752 58.60574131348752 0 0 1 21.198937411768455,13.261035125959197 Z M 76.66509760321298,15.786821443573672 L 76.23194576858293,14.885500475129795 A 57.60574131348752 57.60574131348752 0 0 0 77.6274866394841,14.191445618229602 L 76.25535395937429,11.523627800578883 L 84.08108366068743,11.434439000915148 L 79.45699687963052,17.748536041763895 L 78.08486419952071,15.080718224113175 A 58.60574131348752 58.60574131348752 0 0 1 76.66509760321298,15.786821443573672"/><text text-anchor="middle" pointer-events="none" font-size="8px" fill="#000000" x="49.4221605934616" y="24.040273678969236" font-family="sans-serif">CONNECTI…</text></g><g class="relationship" transform="translate(38.771513319957265 63.22570421537423) rotate(349.0607320422703)"><path class="outline" fill="#A5ABB6" stroke="none" d="M 24.514003510275753,-4.930885508525639 L 24.691556706530054,-3.946774304189523 A 149.75767544686795 149.75767544686795 0 0 1 25.513257794322946,-4.092662604589151 L 25.341191469344796,-5.077747971351101 A 150.75767544686795 150.75767544686795 0 0 0 24.514003510275753,-4.930885508525639 Z M 73.95501257701991,-5.6114779449795265 L 73.80461557823311,-4.622852261135563 A 149.75767544686795 149.75767544686795 0 0 1 74.62932161983424,-4.495039825042225 L 74.16160981332223,-1.5317231585266011 L 81.62167914278936,-3.8975983876001283 L 75.25293736185026,-8.446128713729724 L 74.78522555533824,-5.4828120472141 A 150.75767544686795 150.75767544686795 0 0 0 73.95501257701991,-5.6114779449795265"/><text text-anchor="middle" pointer-events="none" font-size="8px" fill="#000000" x="49.63193465330409" y="-3.817188353735446" font-family="sans-serif">CONNEC…</text></g><g class="relationship" transform="translate(38.771513319957265 63.22570421537423) rotate(349.0607320422703)"><path class="outline" fill="#A5ABB6" stroke="none" d="M 24.763837585503556,-3.464440508769274 L 24.88255664816086,-2.4715126240959857 A 222.36491264910407 222.36491264910407 0 0 1 25.429258870320826,-2.536192560674948 L 25.312998388991154,-3.5294113182913236 A 223.36491264910407 223.36491264910407 0 0 0 24.763837585503556,-3.464440508769274 Z M 73.99198298219292,-3.8865678573968125 L 73.89030867682817,-2.8917501174923643 A 222.36491264910407 222.36491264910407 0 0 1 74.43790110205447,-2.8350989944206435 L 74.12549043194764,0.14858992589316822 L 81.45191036113783,-2.603422250890322 L 74.85444866219692,-6.813350888172392 L 74.54203799209009,-3.82966196785858 A 223.36491264910407 223.36491264910407 0 0 0 73.99198298219292,-3.8865678573968125"/><text text-anchor="middle" pointer-events="none" font-size="8px" fill="#000000" x="49.64640015150512" y="-1.5381046285037598" font-family="sans-serif">CONNEC…</text></g><g class="relationship" transform="translate(38.771513319957265 63.22570421537423) rotate(349.0607320422703)"><path class="outline" fill="#A5ABB6" stroke="none" d="M 24.92602775597432,-1.9857341988287085 L 24.985492515818752,-0.9875037933928472 A 442.2117939887707 442.2117939887707 0 0 1 25.36528289598504,-1.009964022152758 L 25.306676978861063,-2.008245218248362 A 443.2117939887707 443.2117939887707 0 0 0 24.92602775597432,-1.9857341988287085 Z M 74.00475265845164,-2.1871515907483854 L 73.95348316986647,-1.1884667357815033 A 442.2117939887707 442.2117939887707 0 0 1 74.33342832430698,-1.1687976137882756 L 74.17704228038914,1.8271235142235633 L 81.34997529698758,-1.303217032648632 L 74.54194304953077,-5.1633591178040605 L 74.38555700561294,-2.167437989792222 A 443.2117939887707 443.2117939887707 0 0 0 74.00475265845164,-2.1871515907483854"/><text text-anchor="middle" pointer-events="none" font-size="8px" fill="#000000" x="49.655092650178126" y="0.7329481665833555" font-family="sans-serif">CONNEC…</text></g><g class="relationship" transform="translate(38.771513319957265 63.22570421537423) rotate(349.0607320422703)"><path class="outline" fill="#A5ABB6" stroke="none" d="M 25 0.5 L 25.324007973543132 0.5 L 25.324007973543132 -0.5 L 25 -0.5 Z M 73.99197672354313 0.5 L 74.31598469708626 0.5 L 74.31598469708626 3.5 L 81.31598469708626 0 L 74.31598469708626 -3.5 L 74.31598469708626 -0.5 L 73.99197672354313 -0.5 Z"/><text text-anchor="middle" pointer-events="none" font-size="8px" fill="#000000" x="49.65799234854313" y="3" font-family="sans-serif">CONNEC…</text></g><g class="relationship" transform="translate(38.771513319957265 63.22570421537423) rotate(432.93797036707133)"><path class="outline" fill="#A5ABB6" stroke="none" d="M 18.913925871745995,16.355837126790473 L 19.552772677397954,15.586503155807593 A 49.66314345681809 49.66314345681809 0 0 0 21.787128641561413,17.33648067062103 L 21.193272060221496,18.141051587818055 A 50.66314345681809 50.66314345681809 0 0 1 18.913925871745995,16.355837126790473 Z M 78.01159685565906,20.415818359524025 L 77.48396114657555,19.566347607526083 A 49.66314345681809 49.66314345681809 0 0 0 79.85106507258747,18.000593194981057 L 78.12516837029705,15.54676341828035 L 85.86431733527085,14.382472519086857 L 82.15226067564137,21.272366230582 L 80.42636397335095,18.818536453881293 A 50.66314345681809 50.66314345681809 0 0 1 78.01159685565906,20.415818359524025"/><text text-anchor="middle" pointer-events="none" font-size="8px" fill="#000000" x="49.273199535199836" y="30.50194914090057" font-family="sans-serif">CONNECTION</text></g><g class="relationship" transform="translate(38.771513319957265 63.22570421537423) rotate(349.0607320422703)"><path class="outline" fill="#A5ABB6" stroke="none" d="M 24.92602775597432,1.9857341988287085 L 24.985492515818752,0.9875037933928472 A 442.2117939887707 442.2117939887707 0 0 0 25.36528289598507,1.009964022152758 L 25.306676978861095,2.008245218248362 A 443.2117939887707 443.2117939887707 0 0 1 24.92602775597432,1.9857341988287085 Z M 74.0047526584517,2.1871515907483854 L 73.95348316986653,1.1884667357815033 A 442.2117939887707 442.2117939887707 0 0 0 74.33342832430698,1.1687976137882756 L 74.17704228038914,-1.8271235142235633 L 81.34997529698758,1.303217032648632 L 74.54194304953077,5.1633591178040605 L 74.38555700561294,2.167437989792222 A 443.2117939887707 443.2117939887707 0 0 1 74.0047526584517,2.1871515907483854"/><text text-anchor="middle" pointer-events="none" font-size="8px" fill="#000000" x="49.65509265017817" y="5.2670518334166445" font-family="sans-serif">CONNEC…</text></g><g class="relationship" transform="translate(38.771513319957265 63.22570421537423) rotate(349.0607320422703)"><path class="outline" fill="#A5ABB6" stroke="none" d="M 24.763837585503556,3.464440508769274 L 24.88255664816086,2.4715126240959857 A 222.36491264910407 222.36491264910407 0 0 0 25.429258870320837,2.536192560674948 L 25.312998388991165,3.5294113182913236 A 223.36491264910407 223.36491264910407 0 0 1 24.763837585503556,3.464440508769274 Z M 73.9919829821929,3.8865678573968125 L 73.89030867682814,2.8917501174923643 A 222.36491264910407 222.36491264910407 0 0 0 74.43790110205447,2.8350989944206435 L 74.12549043194764,-0.14858992589316822 L 81.45191036113783,2.603422250890322 L 74.85444866219692,6.813350888172392 L 74.54203799209009,3.82966196785858 A 223.36491264910407 223.36491264910407 0 0 1 73.9919829821929,3.8865678573968125"/><text text-anchor="middle" pointer-events="none" font-size="8px" fill="#000000" x="49.64640015150511" y="7.53810462850376" font-family="sans-serif">CONNEC…</text></g><g class="relationship" transform="translate(38.771513319957265 63.22570421537423) rotate(432.93797036707133)"><path class="outline" fill="#A5ABB6" stroke="none" d="M 16.181239564159192,19.063511905398997 L 16.93053533041732,18.401276407507467 A 45.84221538383918 45.84221538383918 0 0 0 22.022094897037075,23.334417151362565 L 21.38386617943678,24.10426395692214 A 46.84221538383918 46.84221538383918 0 0 1 16.181239564159192,19.063511905398997 Z M 77.64064732775604,26.763792024332815 L 77.07789140602333,25.93716891035961 A 45.84221538383918 45.84221538383918 0 0 0 82.61212978795207,21.506360637469985 L 80.56169115019092,19.31645164557644 L 88.06365720866387,17.086988648009566 L 85.34604797163361,24.42623929332805 L 83.29560933387246,22.236330301434503 A 46.84221538383918 46.84221538383918 0 0 1 77.64064732775604,26.763792024332815"/><text text-anchor="middle" pointer-events="none" font-size="8px" fill="#000000" x="49.09153831993416" y="37.333450838473034" font-family="sans-serif">CONNECTION</text></g><g class="relationship" transform="translate(38.771513319957265 63.22570421537423) rotate(349.0607320422703)"><path class="outline" fill="#A5ABB6" stroke="none" d="M 24.514003510275753,4.930885508525639 L 24.691556706530054,3.946774304189523 A 149.75767544686795 149.75767544686795 0 0 0 25.513257794322925,4.092662604589151 L 25.341191469344775,5.077747971351101 A 150.75767544686795 150.75767544686795 0 0 1 24.514003510275753,4.930885508525639 Z M 73.95501257701989,5.6114779449795265 L 73.8046155782331,4.622852261135563 A 149.75767544686795 149.75767544686795 0 0 0 74.62932161983424,4.495039825042225 L 74.16160981332223,1.5317231585266011 L 81.62167914278936,3.8975983876001283 L 75.25293736185026,8.446128713729724 L 74.78522555533824,5.4828120472141 A 150.75767544686795 150.75767544686795 0 0 1 73.95501257701989,5.6114779449795265"/><text text-anchor="middle" pointer-events="none" font-size="8px" fill="#000000" x="49.63193465330407" y="9.817188353735446" font-family="sans-serif">CONNEC…</text></g><g class="relationship" transform="translate(38.771513319957265 63.22570421537423) rotate(349.0607320422703)"><path class="outline" fill="#A5ABB6" stroke="none" d="M 24.177409740333825,6.379879171897452 L 24.413168675843256,5.40806760357391 A 113.96531763190976 113.96531763190976 0 0 0 25.61339535280006,5.692371120207909 L 25.388167925488887,6.666677337978683 A 114.96531763190976 114.96531763190976 0 0 1 24.177409740333825,6.379879171897452 Z M 73.89621114471635,7.374371615957756 L 73.69950225054893,6.3939096784224745 A 113.96531763190976 113.96531763190976 0 0 0 74.90751187630474,6.14474043928857 L 74.28558579243568,3.209913707400755 L 81.85909526468781,5.182717365575421 L 75.7367466547968,10.057842748472321 L 75.11482057092775,7.123016016584507 A 114.96531763190976 114.96531763190976 0 0 1 73.89621114471635,7.374371615957756"/><text text-anchor="middle" pointer-events="none" font-size="8px" fill="#000000" x="49.61172919509986" y="12.108391420792543" font-family="sans-serif">CONNEC…</text></g><g class="relationship" transform="translate(38.771513319957265 63.22570421537423) rotate(349.0607320422703)"><path class="outline" fill="#A5ABB6" stroke="none" d="M 23.755247544689013,7.806293236264361 L 24.048377823992112,6.850220728890738 A 92.90453680352955 92.90453680352955 0 0 0 25.724906226540046,7.347030135430018 L 25.44982165803031,8.308450168593367 A 93.90453680352955 93.90453680352955 0 0 1 23.755247544689013,7.806293236264361 Z M 73.81873673134365,9.186691733632387 L 73.57873526972352,8.215919207022665 A 92.90453680352955 92.90453680352955 0 0 0 75.27219393223969,7.780299155458519 L 74.49750571640246,4.882048274626612 L 82.16389402348702,6.455735131976958 L 76.305111553356,11.644633663234394 L 75.53042333751877,8.746382782402488 A 93.90453680352955 93.90453680352955 0 0 1 73.81873673134365,9.186691733632387"/><text text-anchor="middle" pointer-events="none" font-size="8px" fill="#000000" x="49.58583011195144" y="14.415890991409597" font-family="sans-serif">CONNEC…</text></g><g class="relationship" transform="translate(38.771513319957265 63.22570421537423) rotate(349.0607320422703)"><path class="outline" fill="#A5ABB6" stroke="none" d="M 23.249011035194496,9.205079352477338 L 23.59847521479359,8.268129627477578 A 79.21565942094593 79.21565942094593 0 0 0 25.84252019782243,9.066893106103038 L 25.521384318453773,10.013926234869984 A 80.21565942094593 80.21565942094593 0 0 1 23.249011035194496,9.205079352477338 Z M 73.72624634880192,11.058634908899236 L 73.44644143458582,10.098578030386022 A 79.21565942094593 79.21565942094593 0 0 0 75.72298518687256,9.397785960962617 L 74.79735477289383,6.544155232098503 L 82.53572862321863,7.713586783156227 L 76.95715907217756,13.202626932781435 L 76.03152865819882,10.348996203917322 A 80.21565942094593 80.21565942094593 0 0 1 73.72624634880192,11.058634908899236"/><text text-anchor="middle" pointer-events="none" font-size="8px" fill="#000000" x="49.554297112850385" y="16.743984618457134" font-family="sans-serif">CONNEC…</text></g><g class="relationship" transform="translate(38.771513319957265 63.22570421537423) rotate(349.0607320422703)"><path class="outline" fill="#A5ABB6" stroke="none" d="M 22.66049187860102,10.571286951921099 L 23.065053138670955,9.656776051575658 A 69.74582168887703 69.74582168887703 0 0 0 23.716162223751585,9.940857701300445 L 23.32093642019093,10.85944170083441 A 70.74582168887703 70.74582168887703 0 0 1 22.66049187860102,10.571286951921099 Z M 75.94343814345487,12.181535418219127 L 75.5948390755668,11.244263478029112 A 69.74582168887703 69.74582168887703 0 0 0 76.25939228620433,10.993236677435524 L 75.18501043641167,8.192218355318351 L 82.97416534610984,8.953182081605508 L 77.69190141926121,14.727927773591754 L 76.61751956946856,11.92690945147458 A 70.74582168887703 70.74582168887703 0 0 1 75.94343814345487,12.181535418219127"/><text text-anchor="middle" pointer-events="none" font-size="8px" fill="#000000" x="49.517203379592985" y="19.097123720618484" font-family="sans-serif">CONNECT…</text></g><g class="relationship" transform="translate(38.771513319957265 63.22570421537423) rotate(349.0607320422703)"><path class="outline" fill="#A5ABB6" stroke="none" d="M 21.991772955509383,11.900080767512723 L 22.449999477236794,11.0112453188578 A 62.91977832232622 62.91977832232622 0 0 0 22.884680003309533,11.23320894555355 L 22.43336196946404,12.125572118441042 A 63.91977832232622 63.91977832232622 0 0 1 21.991772955509383,11.900080767512723 Z M 76.8339440109755,13.676113141152044 L 76.43418615768027,12.75949235875138 A 62.91977832232622 62.91977832232622 0 0 0 76.88080367665708,12.562647742198584 L 75.66023550015554,9.822170899291187 L 83.47867767285793,10.171401470846213 L 78.50822791199248,16.216616866075114 L 77.28765973549093,13.476140023167718 A 63.91977832232622 63.91977832232622 0 0 1 76.8339440109755,13.676113141152044"/><text text-anchor="middle" pointer-events="none" font-size="8px" fill="#000000" x="49.47463568462908" y="21.47994943967744" font-family="sans-serif">CONNECTI…</text></g><g class="relationship" transform="translate(38.771513319957265 63.22570421537423) rotate(432.93797036707133)"><path class="outline" fill="#A5ABB6" stroke="none" d="M 13.065558593808642,21.319971356260147 L 13.907568197342588,20.78050882043712 A 44.38470164618739 44.38470164618739 0 0 0 22.033787058888294,30.22323686652679 L 21.374863486354936,30.975446761143893 A 45.38470164618739 45.38470164618739 0 0 1 13.065558593808642,21.319971356260147 Z M 77.36894010783652,33.973316143275234 L 76.79409823539675,33.15505162510894 A 44.38470164618739 44.38470164618739 0 0 0 85.88208308016974,24.63395560409582 L 83.54329278328458,22.75511022802149 L 90.65585400715736,19.489919140709535 L 89.00047014268327,27.13908277219493 L 86.66167984579812,25.260237396120598 A 45.38470164618739 45.38470164618739 0 0 1 77.36894010783652,33.973316143275234"/><text text-anchor="middle" pointer-events="none" font-size="8px" fill="#000000" x="48.880265925529045" y="44.65713531949189" font-family="sans-serif">CONNECTION</text></g><g class="relationship" transform="translate(38.771513319957265 63.22570421537423) rotate(349.0607320422703)"><path class="outline" fill="#A5ABB6" stroke="none" d="M 21.245220988662066,13.18675794662634 L 21.755491021722964,12.32674370641864 A 57.86351874692439 57.86351874692439 0 0 0 23.0525440648055,13.073809803040966 L 22.56468976226309,13.946734873989698 A 58.86351874692439 58.86351874692439 0 0 1 21.245220988662066,13.18675794662634 Z M 76.6760007235973,15.66728320983131 L 76.24458767493057,14.765128687900571 A 57.86351874692439 57.86351874692439 0 0 0 77.58648082362748,14.101971748125065 L 76.2226696997513,11.429890308798871 L 84.04863936936798,11.365092698968308 L 79.40489565546241,17.66474700055999 L 78.04108453158622,14.992665561233798 A 58.86351874692439 58.86351874692439 0 0 1 76.6760007235973,15.66728320983131"/><text text-anchor="middle" pointer-events="none" font-size="8px" fill="#000000" x="49.42669452599758" y="23.897331495246284" font-family="sans-serif">CONNECTI…</text></g><g class="relationship" transform="translate(38.771513319957265 63.22570421537423) rotate(349.0607320422703)"><path class="outline" fill="#A5ABB6" stroke="none" d="M 20.42347816666382,14.426764695378036 L 20.983985768904716,13.598615416666664 A 54.0537269355539 54.0537269355539 0 0 0 21.529673116441014,13.9631370930192 L 20.97926079122305,14.798030063553838 A 55.0537269355539 55.0537269355539 0 0 1 20.42347816666382,14.426764695378036 Z M 78.29641382644562,16.803924479316876 L 77.80571311126363,15.932596293086284 A 54.0537269355539 54.0537269355539 0 0 0 78.37554812235382,15.60711389121501 L 76.87181994230136,13.011193715147165 L 84.68331656318753,12.531068167103898 L 80.38051902909044,19.0683407926388 L 78.87679084903797,16.472420616570957 A 55.0537269355539 55.0537269355539 0 0 1 78.29641382644562,16.803924479316876"/><text text-anchor="middle" pointer-events="none" font-size="8px" fill="#000000" x="49.37349427703373" y="26.354410736549326" font-family="sans-serif">CONNECTION</text></g><g class="relationship" transform="translate(38.771513319957265 63.22570421537423) rotate(349.0607320422703)"><path class="outline" fill="#A5ABB6" stroke="none" d="M 19.529452792776517,15.615712395363635 L 20.13821422178524,14.822359055072399 A 51.15845869976213 51.15845869976213 0 0 0 21.69605005172493,15.97156173033931 L 21.117739810448082,16.78737866129522 A 52.15845869976213 52.15845869976213 0 0 1 19.529452792776517,15.615712395363635 Z M 78.1208083129659,18.95873883633528 L 77.60623602045005,18.101291837521366 A 51.15845869976213 51.15845869976213 0 0 0 79.24698153837693,17.073929483097455 L 77.60704916335577,14.56183438032816 L 85.38185884067548,13.666103125176306 L 81.43355803840514,20.423389620123178 L 79.79362566338398,17.911294517353884 A 52.15845869976213 52.15845869976213 0 0 1 78.1208083129659,18.95873883633528"/><text text-anchor="middle" pointer-events="none" font-size="8px" fill="#000000" x="49.31516334806838" y="28.856646198360103" font-family="sans-serif">CONNECTION</text></g><g class="relationship" transform="translate(38.771513319957265 63.22570421537423) rotate(349.0607320422703)"><path class="outline" fill="#A5ABB6" stroke="none" d="M 18.56630899188382,16.749393135809257 L 19.221169725829103,15.993643561454997 A 48.95749471304483 48.95749471304483 0 0 0 21.8334530457465,18.104754871761862 L 21.231950502109537,18.90362575619705 A 49.95749471304483 49.95749471304483 0 0 1 18.56630899188382,16.749393135809257 Z M 77.95694625674031,21.233502882847823 L 77.4229836198181,20.387994809337528 A 48.95749471304483 48.95749471304483 0 0 0 80.1995960270434,18.49822269395783 L 78.42756384581321,16.077499258973035 L 86.14328940554628,14.766934843584867 L 82.56230560201698,21.725853940604225 L 80.79027342078679,19.30513050561943 A 49.95749471304483 49.95749471304483 0 0 1 77.95694625674031,21.233502882847823"/><text text-anchor="middle" pointer-events="none" font-size="8px" fill="#000000" x="49.2518443568304" y="31.40986760324133" font-family="sans-serif">CONNECTION</text></g><g class="relationship" transform="translate(38.771513319957265 63.22570421537423) rotate(349.0607320422703)"><path class="outline" fill="#A5ABB6" stroke="none" d="M 17.5374555120548,17.82379460616338 L 18.236097874946534,17.108323538423353 A 47.29946897868034 47.29946897868034 0 0 0 21.93906021291687,20.364905309667456 L 21.318705459123652,21.149226659272422 A 48.29946897868034 48.29946897868034 0 0 1 17.5374555120548,17.82379460616338 Z M 77.80694789429133,23.630765716210114 L 77.25776096098852,22.795066181515104 A 47.29946897868034 47.29946897868034 0 0 0 81.23203179627811,19.875746699685042 L 79.33240024878387,17.55380785816388 L 86.96649435107653,15.830262895785346 L 83.76487385960377,22.971665155046594 L 81.86524231210953,20.64972631352543 A 48.29946897868034 48.29946897868034 0 0 1 77.80694789429133,23.630765716210114"/><text text-anchor="middle" pointer-events="none" font-size="8px" fill="#000000" x="49.183694303710155" y="34.02033442119332" font-family="sans-serif">CONNECTION</text></g><g class="relationship" transform="translate(38.771513319957265 63.22570421537423) rotate(349.0607320422703)"><path class="outline" fill="#A5ABB6" stroke="none" d="M 16.44653366033987,18.835114296422724 L 17.186485024722753,18.16245392272147 A 46.07738732862313 46.07738732862313 0 0 0 22.011332017123305,22.75428647557917 L 21.37609247066512,23.52660164350972 A 47.07738732862313 47.07738732862313 0 0 1 16.44653366033987,18.835114296422724 Z M 77.67190710416422,26.152984757909586 L 77.11133231537633,25.324880956339136 A 46.07738732862313 46.07738732862313 0 0 0 82.34273949449953,21.202205414924457 L 80.32040941137858,18.986312584730715 L 87.85021111213841,16.852750692674544 L 85.03917960532745,24.156729188516113 L 83.0168495222065,21.940836358322372 A 47.07738732862313 47.07738732862313 0 0 1 77.67190710416422,26.152984757909586"/><text text-anchor="middle" pointer-events="none" font-size="8px" fill="#000000" x="49.11088474743799" y="36.694802808914496" font-family="sans-serif">CONNECTION</text></g><g class="relationship" transform="translate(38.771513319957265 63.22570421537423) rotate(432.93797036707133)"><path class="outline" fill="#A5ABB6" stroke="none" d="M 9.640628187553363,23.071807214636475 L 10.555422056041385,22.66788620976458 A 44.51766958679961 44.51766958679961 0 0 0 21.84081196291601,38.080309081680575 L 21.17952170348081,38.830439198910994 A 45.51766958679961 45.51766958679961 0 0 1 9.640628187553363,23.071807214636475 Z M 77.18086026169966,42.11618806854356 L 76.61182965746615,41.29387172342713 A 44.51766958679961 44.51766958679961 0 0 0 89.62215839342035,27.30694388650202 L 87.03831389869178,25.78255954288624 L 93.60969594431192,21.532037456071343 L 93.06728438639176,29.33945634465639 L 90.4834398916632,27.815072001040612 A 45.51766958679961 45.51766958679961 0 0 1 77.18086026169966,42.11618806854356"/><text text-anchor="middle" pointer-events="none" font-size="8px" fill="#000000" x="48.643140333062846" y="52.62664714775759" font-family="sans-serif">CONNECTION</text></g><g class="relationship" transform="translate(38.771513319957265 63.22570421537423) rotate(349.0607320422703)"><path class="outline" fill="#A5ABB6" stroke="none" d="M 15.297404415496423,19.779772954934305 L 16.076045953546178,19.152303947553452 A 45.213956579260056 45.213956579260056 0 0 0 22.049832109617327,25.275582261062915 L 21.403313186088138,26.038480210672596 A 46.213956579260056 46.213956579260056 0 0 1 15.297404415496423,19.779772954934305 Z M 77.55204654020653,28.80284604271069 L 76.98359194685409,27.980131404882655 A 45.213956579260056 45.213956579260056 0 0 0 83.52996442631353,22.47325700070943 L 81.3902410165266,20.37050077860241 L 88.79301617952774,17.831028414891097 L 86.3829289726961,25.276931963518795 L 84.24320556290918,23.174175741411773 A 46.213956579260056 46.213956579260056 0 0 1 77.55204654020653,28.80284604271069"/><text text-anchor="middle" pointer-events="none" font-size="8px" fill="#000000" x="49.03360197607938" y="39.44060201482905" font-family="sans-serif">CONNECTION</text></g><g class="relationship" transform="translate(38.771513319957265 63.22570421537423) rotate(432.93797036707133)"><path class="outline" fill="#A5ABB6" stroke="none" d="M 5.987513214418485,24.277555179777966 L 6.953439040707552,24.018736134675446 A 45.890142893278686 45.890142893278686 0 0 0 21.480706202175575,47.04009593821308 L 20.831346554275893,47.800577396027535 A 46.890142893278686 46.890142893278686 0 0 1 5.987513214418485,24.277555179777966 Z M 77.04882017377435,51.31608871051165 L 76.49926102657784,50.48063389800972 A 45.890142893278686 45.890142893278686 0 0 0 93.78137882991864,29.448446598157616 L 91.00290858008712,28.317030197887032 L 96.8844288055219,23.153918748595864 L 97.48600582969398,30.957001798518395 L 94.70753557986247,29.82558539824781 A 46.890142893278686 46.890142893278686 0 0 1 77.04882017377435,51.31608871051165"/><text text-anchor="middle" pointer-events="none" font-size="8px" fill="#000000" x="48.38460114759344" y="61.44119647051649" font-family="sans-serif">CONNECTION</text></g><g class="relationship" transform="translate(38.771513319957265 63.22570421537423) rotate(349.0607320422703)"><path class="outline" fill="#A5ABB6" stroke="none" d="M 14.094134763254786,20.65442725604399 L 14.908710715305123,20.074370346472794 A 44.652435219672824 44.652435219672824 0 0 0 22.055030627006257,27.93216136506777 L 21.400497903876,28.688195037830887 A 45.652435219672824 45.652435219672824 0 0 1 14.094134763254786,20.65442725604399 Z M 77.446890699528,31.58354545176855 L 76.87374755989288,30.76409018057359 A 44.652435219672824 44.652435219672824 0 0 0 84.79172992268745,23.684519340843103 L 82.54032622350998,21.701798638542865 L 89.7933121779176,18.761697493145686 L 87.79360152159076,26.328146943910088 L 85.54219782241329,24.34542624160985 A 45.652435219672824 45.652435219672824 0 0 1 77.446890699528,31.58354545176855"/><text text-anchor="middle" pointer-events="none" font-size="8px" fill="#000000" x="48.952047167549686" y="42.265722166831424" font-family="sans-serif">CONNECTION</text></g><g class="relationship" transform="translate(38.771513319957265 63.22570421537423) rotate(349.0607320422703)"><path class="outline" fill="#A5ABB6" stroke="none" d="M 12.840983302486569,21.45598163275829 L 13.68861073018383,20.92538975210488 A 44.35073557928665 44.35073557928665 0 0 0 22.028109233488756,30.728309958220102 L 21.36851698478861,31.479933577762942 A 45.35073557928665 45.35073557928665 0 0 1 12.840983302486569,21.45598163275829 Z M 77.35543904772183,34.499037177714264 L 76.7804995661692,33.680841239963414 A 44.35073557928665 44.35073557928665 0 0 0 86.12582001978775,24.83157768454452 L 83.76885960511143,22.975577252527103 L 90.84931443027443,19.641336788969348 L 89.26843390602284,27.30624492723441 L 86.91147349134651,25.450244495216992 A 45.35073557928665 45.35073557928665 0 0 1 77.35543904772183,34.499037177714264"/><text text-anchor="middle" pointer-events="none" font-size="8px" fill="#000000" x="48.86643653310774" y="45.17891577568047" font-family="sans-serif">CONNECTION</text></g><g class="relationship" transform="translate(38.771513319957265 63.22570421537423) rotate(349.0607320422703)"><path class="outline" fill="#A5ABB6" stroke="none" d="M 11.542385173217793,22.18159923254142 L 12.420064162785048,21.70235024582136 A 44.27751711603793 44.27751711603793 0 0 0 21.9707808069486,33.669435249182555 L 21.308803086698997,34.418958763085314 A 45.27751711603793 45.27751711603793 0 0 1 11.542385173217793,22.18159923254142 Z M 77.27632689406573,37.554258817335 L 76.70220494780907,36.73548901401635 A 44.27751711603793 44.27751711603793 0 0 0 87.52976163161111,25.90999465330341 L 85.0737803562239,24.187160948343042 L 91.95903715574983,20.46651062822668 L 90.80440333212736,28.20710625991724 L 88.34842205674016,26.48427255495687 A 45.27751711603793 45.27751711603793 0 0 1 77.27632689406573,37.554258817335"/><text text-anchor="middle" pointer-events="none" font-size="8px" fill="#000000" x="48.77700143650661" y="48.18981581233922" font-family="sans-serif">CONNECTION</text></g><g class="relationship" transform="translate(38.771513319957265 63.22570421537423) rotate(349.0607320422703)"><path class="outline" fill="#A5ABB6" stroke="none" d="M 10.202936359829577,22.82871195747293 L 11.10756063932883,22.402502017489763 A 44.40954207933163 44.40954207933163 0 0 0 21.885131202816655,36.76225351423312 L 21.22319284302887,37.5118117893802 A 45.40954207933163 45.40954207933163 0 0 1 10.202936359829577,22.82871195747293 Z M 77.20796664839015,40.75534399190945 L 76.63701933609707,39.93435728885921 A 44.40954207933163 44.40954207933163 0 0 0 89.00080643585078,26.915322806565708 L 86.45275297544349,25.331838179893744 L 93.12027947481991,21.233778836727367 L 92.39821104972715,29.026635642128326 L 89.85015758931986,27.443151015456362 A 45.40954207933163 45.40954207933163 0 0 1 77.20796664839015,40.75534399190945"/><text text-anchor="middle" pointer-events="none" font-size="8px" fill="#000000" x="48.683988480673186" y="51.309073884412754" font-family="sans-serif">CONNECTION</text></g><g class="relationship" transform="translate(38.771513319957265 63.22570421537423) rotate(349.0607320422703)"><path class="outline" fill="#A5ABB6" stroke="none" d="M 8.82737742500015,23.39502955323198 L 9.755745358016224,23.02336709757165 A 44.729857431429586 44.729857431429586 0 0 0 21.773486300653506,40.01497612957603 L 21.113792171506812,40.76651033103954 A 45.729857431429586 45.729857431429586 0 0 1 8.82737742500015,23.39502955323198 Z M 77.14866602821014,44.10983397166147 L 76.58301468277875,43.285189469217144 A 44.729857431429586 44.729857431429586 0 0 0 90.53591272990573,27.843119952882528 L 87.90314765943711,26.404875160185426 L 94.33061142461041,21.939708920571917 L 94.04626615719724,29.760779676478663 L 91.41350108672862,28.32253488378156 A 45.729857431429586 45.729857431429586 0 0 1 77.14866602821014,44.10983397166147"/><text text-anchor="middle" pointer-events="none" font-size="8px" fill="#000000" x="48.587659552965086" y="54.54852288809536" font-family="sans-serif">CONNECTION</text></g><g class="relationship" transform="translate(38.771513319957265 63.22570421537423) rotate(349.0607320422703)"><path class="outline" fill="#A5ABB6" stroke="none" d="M 7.420576731956966,23.878547714740503 L 8.369402648794285,23.562748127125477 A 45.22653443107759 45.22653443107759 0 0 0 21.638304552105133,43.437506796679486 L 20.98286618021738,44.19275545815273 A 46.22653443107759 46.22653443107759 0 0 1 7.420576731956966,23.878547714740503 Z M 77.09672264582187,47.62690000542069 L 76.53827256260017,46.797361878177774 A 45.22653443107759 45.22653443107759 0 0 0 92.13172755415934,28.688967379522868 L 89.4220206914319,27.401532442103587 L 95.58736021859224,22.580890522728712 L 95.74467003779594,30.405547296081913 L 93.0349631750685,29.118112358662632 A 46.22653443107759 46.22653443107759 0 0 1 77.09672264582187,47.62690000542069"/><text text-anchor="middle" pointer-events="none" font-size="8px" fill="#000000" x="48.488291819235044" y="57.92136960548454" font-family="sans-serif">CONNECTION</text></g><g class="relationship" transform="translate(38.771513319957265 63.22570421537423) rotate(349.0607320422703)"><path class="outline" fill="#A5ABB6" stroke="none" d="M 5.987513214418485,24.277555179777966 L 6.953439040707552,24.018736134675446 A 45.89179665619872 45.89179665619872 0 0 0 21.482093340337602,47.04166297179834 L 20.832752510893883,47.80216049790697 A 46.89179665619872 46.89179665619872 0 0 1 5.987513214418485,24.277555179777966 Z M 77.0504962924283,51.31758837602972 L 76.50095484841785,50.48212191870489 A 45.89179665619872 45.89179665619872 0 0 0 93.78456942201457,29.448491153261173 L 91.00609514949743,28.317084631731284 L 96.8875970176705,23.15395227097617 L 97.48920178537075,30.957033181967695 L 94.71072751285361,29.825626660437806 A 46.89179665619872 46.89179665619872 0 0 1 77.0504962924283,51.31758837602972"/><text text-anchor="middle" pointer-events="none" font-size="8px" fill="#000000" x="48.386177656141136" y="61.44242413120445" font-family="sans-serif">CONNECTION</text></g></g><g class="layer nodes"><g class="node" transform="translate(69.96444597845904,164.85952439878935)"><circle class="outline" cx="0" cy="0" r="25" fill="#ECB5C9" stroke="#da7298" stroke-width="2px"/><text text-anchor="middle" pointer-events="none" font-family="sans-serif" dy="1.5625" font-size="25" fill="#2A2C34"/><text text-anchor="middle" pointer-events="none" x="0" y="5" font-size="10px" fill="#2A2C34" font-family="sans-serif"> MSN</text></g><g class="node" transform="translate(143.15561798510362,43.050291075444385)"><circle class="outline" cx="0" cy="0" r="25" fill="#ECB5C9" stroke="#da7298" stroke-width="2px"/><text text-anchor="middle" pointer-events="none" font-family="sans-serif" dy="1.5625" font-size="25" fill="#2A2C34"/><text text-anchor="middle" pointer-events="none" x="0" y="5" font-size="10px" fill="#2A2C34" font-family="sans-serif"> GRR</text></g><g class="node" transform="translate(38.771513319957265,63.22570421537423)"><circle class="outline" cx="0" cy="0" r="25" fill="#ECB5C9" stroke="#da7298" stroke-width="2px"/><text text-anchor="middle" pointer-events="none" font-family="sans-serif" dy="1.5625" font-size="25" fill="#2A2C34"/><text text-anchor="middle" pointer-events="none" x="0" y="5" font-size="10px" fill="#2A2C34" font-family="sans-serif"> ORD</text></g></g></svg>