<svg xmlns="http://www.w3.org/2000/svg" width="643.7898559570312" height="659.488037109375" viewBox="-224.12998962402344 -232.0771942138672 643.7898559570312 659.488037109375"><title>Neo4j Graph Visualization</title><desc>Created using Neo4j (http://www.neo4j.com/)</desc><g class="layer relationships"><g class="relationship" transform="translate(153.98248860698982 238.28008870571534) rotate(442.58000728480476)"><path class="outline" fill="#A5ABB6" stroke="none" d="M 25 0.5 L 47.64774011277376 0.5 L 47.64774011277376 -0.5 L 25 -0.5 Z M 106.83524011277376 0.5 L 129.48298022554752 0.5 L 129.48298022554752 3.5 L 136.48298022554752 0 L 129.48298022554752 -3.5 L 129.48298022554752 -0.5 L 106.83524011277376 -0.5 Z"/><text text-anchor="middle" pointer-events="none" font-size="8px" fill="#000000" x="77.24149011277376" y="3" font-family="sans-serif">DESTINATION</text></g><g class="relationship" transform="translate(153.98248860698982 238.28008870571534) rotate(263.2891156182655)"><path class="outline" fill="#A5ABB6" stroke="none" d="M 25 0.5 L 45.30793761526476 0.5 L 45.30793761526476 -0.5 L 25 -0.5 Z M 79.75325011526476 0.5 L 100.06118773052953 0.5 L 100.06118773052953 3.5 L 107.06118773052953 0 L 100.06118773052953 -3.5 L 100.06118773052953 -0.5 L 79.75325011526476 -0.5 Z"/><text text-anchor="middle" pointer-events="none" font-size="8px" fill="#000000" x="62.53059386526476" y="3" transform="rotate(180 62.53059386526476 0)" font-family="sans-serif">ORIGIN</text></g><g class="relationship" transform="translate(-24.089529888943122 163.7656928977771) rotate(482.4388672104801)"><path class="outline" fill="#A5ABB6" stroke="none" d="M 25 0.5 L 39.53077724084642 0.5 L 39.53077724084642 -0.5 L 25 -0.5 Z M 98.71827724084642 0.5 L 113.24905448169284 0.5 L 113.24905448169284 3.5 L 120.24905448169284 0 L 113.24905448169284 -3.5 L 113.24905448169284 -0.5 L 98.71827724084642 -0.5 Z"/><text text-anchor="middle" pointer-events="none" font-size="8px" fill="#000000" x="69.12452724084642" y="3" transform="rotate(180 69.12452724084642 0)" font-family="sans-serif">DESTINATION</text></g><g class="relationship" transform="translate(-24.089529888943122 163.7656928977771) rotate(340.7984511280706)"><path class="outline" fill="#A5ABB6" stroke="none" d="M 25 0.5 L 65.38758687711824 0.5 L 65.38758687711824 -0.5 L 25 -0.5 Z M 99.83289937711824 0.5 L 140.22048625423648 0.5 L 140.22048625423648 3.5 L 147.22048625423648 0 L 140.22048625423648 -3.5 L 140.22048625423648 -0.5 L 99.83289937711824 -0.5 Z"/><text text-anchor="middle" pointer-events="none" font-size="8px" fill="#000000" x="82.61024312711824" y="3" font-family="sans-serif">ORIGIN</text></g><g class="relationship" transform="translate(270.1637539047413 208.28650973789624) rotate(217.54707750020611)"><path class="outline" fill="#A5ABB6" stroke="none" d="M 25 0.5 L 62.277519880959886 0.5 L 62.277519880959886 -0.5 L 25 -0.5 Z M 96.72283238095989 0.5 L 134.00035226191977 0.5 L 134.00035226191977 3.5 L 141.00035226191977 0 L 134.00035226191977 -3.5 L 134.00035226191977 -0.5 L 96.72283238095989 -0.5 Z"/><text text-anchor="middle" pointer-events="none" font-size="8px" fill="#000000" x="79.50017613095989" y="3" transform="rotate(180 79.50017613095989 0)" font-family="sans-serif">ORIGIN</text></g><g class="relationship" transform="translate(270.1637539047413 208.28650973789624) rotate(399.53482812527864)"><path class="outline" fill="#A5ABB6" stroke="none" d="M 25 0.5 L 43.19086496177434 0.5 L 43.19086496177434 -0.5 L 25 -0.5 Z M 102.37836496177434 0.5 L 120.56922992354868 0.5 L 120.56922992354868 3.5 L 127.56922992354868 0 L 120.56922992354868 -3.5 L 120.56922992354868 -0.5 L 102.37836496177434 -0.5 Z"/><text text-anchor="middle" pointer-events="none" font-size="8px" fill="#000000" x="72.78461496177434" y="3" font-family="sans-serif">DESTINATION</text></g><g class="relationship" transform="translate(336.40574516130414 82.35064769086458) rotate(299.018775361817)"><path class="outline" fill="#A5ABB6" stroke="none" d="M 25 0.5 L 25.93854565536894 0.5 L 25.93854565536894 -0.5 L 25 -0.5 Z M 78.90338940536894 0.5 L 79.84193506073788 0.5 L 79.84193506073788 3.5 L 86.84193506073788 0 L 79.84193506073788 -3.5 L 79.84193506073788 -0.5 L 78.90338940536894 -0.5 Z"/><text text-anchor="middle" pointer-events="none" font-size="8px" fill="#000000" x="52.42096753036894" y="3" font-family="sans-serif">DESTINAT…</text></g><g class="relationship" transform="translate(336.40574516130414 82.35064769086458) rotate(532.8632669753608)"><path class="outline" fill="#A5ABB6" stroke="none" d="M 25 0.5 L 78.97769733271365 0.5 L 78.97769733271365 -0.5 L 25 -0.5 Z M 113.42300983271365 0.5 L 167.4007071654273 0.5 L 167.4007071654273 3.5 L 174.4007071654273 0 L 167.4007071654273 -3.5 L 167.4007071654273 -0.5 L 113.42300983271365 -0.5 Z"/><text text-anchor="middle" pointer-events="none" font-size="8px" fill="#000000" x="96.20035358271365" y="3" transform="rotate(180 96.20035358271365 0)" font-family="sans-serif">ORIGIN</text></g><g class="relationship" transform="translate(160.2114171955585 -62.166326264470214) rotate(259.63856334468835)"><path class="outline" fill="#A5ABB6" stroke="none" d="M 25 0.5 L 38.52966572246109 0.5 L 38.52966572246109 -0.5 L 25 -0.5 Z M 97.71716572246109 0.5 L 111.24683144492218 0.5 L 111.24683144492218 3.5 L 118.24683144492218 0 L 111.24683144492218 -3.5 L 111.24683144492218 -0.5 L 97.71716572246109 -0.5 Z"/><text text-anchor="middle" pointer-events="none" font-size="8px" fill="#000000" x="68.12341572246109" y="3" transform="rotate(180 68.12341572246109 0)" font-family="sans-serif">DESTINATION</text></g><g class="relationship" transform="translate(160.2114171955585 -62.166326264470214) rotate(457.2916636588893)"><path class="outline" fill="#A5ABB6" stroke="none" d="M 25 0.5 L 64.61248021783416 0.5 L 64.61248021783416 -0.5 L 25 -0.5 Z M 99.05779271783416 0.5 L 138.67027293566832 0.5 L 138.67027293566832 3.5 L 145.67027293566832 0 L 138.67027293566832 -3.5 L 138.67027293566832 -0.5 L 99.05779271783416 -0.5 Z"/><text text-anchor="middle" pointer-events="none" font-size="8px" fill="#000000" x="81.83513646783416" y="3" transform="rotate(180 81.83513646783416 0)" font-family="sans-serif">ORIGIN</text></g><g class="relationship" transform="translate(213.69355972198434 260.1506985291924) rotate(465.6975900769341)"><path class="outline" fill="#A5ABB6" stroke="none" d="M 25 0.5 L 38.71454368775997 0.5 L 38.71454368775997 -0.5 L 25 -0.5 Z M 97.90204368775997 0.5 L 111.61658737551994 0.5 L 111.61658737551994 3.5 L 118.61658737551994 0 L 111.61658737551994 -3.5 L 111.61658737551994 -0.5 L 97.90204368775997 -0.5 Z"/><text text-anchor="middle" pointer-events="none" font-size="8px" fill="#000000" x="68.30829368775997" y="3" transform="rotate(180 68.30829368775997 0)" font-family="sans-serif">DESTINATION</text></g><g class="relationship" transform="translate(213.69355972198434 260.1506985291924) rotate(243.84672390097563)"><path class="outline" fill="#A5ABB6" stroke="none" d="M 25 0.5 L 64.51792315243519 0.5 L 64.51792315243519 -0.5 L 25 -0.5 Z M 98.96323565243519 0.5 L 138.48115880487038 0.5 L 138.48115880487038 3.5 L 145.48115880487038 0 L 138.48115880487038 -3.5 L 138.48115880487038 -0.5 L 98.96323565243519 -0.5 Z"/><text text-anchor="middle" pointer-events="none" font-size="8px" fill="#000000" x="81.74057940243519" y="3" transform="rotate(180 81.74057940243519 0)" font-family="sans-serif">ORIGIN</text></g><g class="relationship" transform="translate(166.29438161690217 296.7290791702944) rotate(445.19785970442837)"><path class="outline" fill="#A5ABB6" stroke="none" d="M 25 0.5 L 25.852003568403404 0.5 L 25.852003568403404 -0.5 L 25 -0.5 Z M 69.1879410684034 0.5 L 70.03994463680681 0.5 L 70.03994463680681 3.5 L 77.03994463680681 0 L 70.03994463680681 -3.5 L 70.03994463680681 -0.5 L 69.1879410684034 -0.5 Z"/><text text-anchor="middle" pointer-events="none" font-size="8px" fill="#000000" x="47.519972318403404" y="3" font-family="sans-serif">DESTIN…</text></g><g class="relationship" transform="translate(166.29438161690217 296.7290791702944) rotate(261.6751308354858)"><path class="outline" fill="#A5ABB6" stroke="none" d="M 25 0.5 L 75.08959211138331 0.5 L 75.08959211138331 -0.5 L 25 -0.5 Z M 109.53490461138331 0.5 L 159.62449672276662 0.5 L 159.62449672276662 3.5 L 166.62449672276662 0 L 159.62449672276662 -3.5 L 159.62449672276662 -0.5 L 109.53490461138331 -0.5 Z"/><text text-anchor="middle" pointer-events="none" font-size="8px" fill="#000000" x="92.31224836138331" y="3" transform="rotate(180 92.31224836138331 0)" font-family="sans-serif">ORIGIN</text></g><g class="relationship" transform="translate(33.89429920223288 250.66293208062328) rotate(525.2856837643965)"><path class="outline" fill="#A5ABB6" stroke="none" d="M 25 0.5 L 37.15786943016758 0.5 L 37.15786943016758 -0.5 L 25 -0.5 Z M 96.34536943016758 0.5 L 108.50323886033516 0.5 L 108.50323886033516 3.5 L 115.50323886033516 0 L 108.50323886033516 -3.5 L 108.50323886033516 -0.5 L 96.34536943016758 -0.5 Z"/><text text-anchor="middle" pointer-events="none" font-size="8px" fill="#000000" x="66.75161943016758" y="3" transform="rotate(180 66.75161943016758 0)" font-family="sans-serif">DESTINATION</text></g><g class="relationship" transform="translate(33.89429920223288 250.66293208062328) rotate(306.0960923302981)"><path class="outline" fill="#A5ABB6" stroke="none" d="M 25 0.5 L 68.0978070206804 0.5 L 68.0978070206804 -0.5 L 25 -0.5 Z M 102.5431195206804 0.5 L 145.6409265413608 0.5 L 145.6409265413608 3.5 L 152.6409265413608 0 L 145.6409265413608 -3.5 L 145.6409265413608 -0.5 L 102.5431195206804 -0.5 Z"/><text text-anchor="middle" pointer-events="none" font-size="8px" fill="#000000" x="85.3204632706804" y="3" font-family="sans-serif">ORIGIN</text></g><g class="relationship" transform="translate(263.62880720551436 77.27195410212875) rotate(526.5766948767082)"><path class="outline" fill="#A5ABB6" stroke="none" d="M 25 0.5 L 43.57326495792556 0.5 L 43.57326495792556 -0.5 L 25 -0.5 Z M 78.01857745792556 0.5 L 96.59184241585112 0.5 L 96.59184241585112 3.5 L 103.59184241585112 0 L 96.59184241585112 -3.5 L 96.59184241585112 -0.5 L 78.01857745792556 -0.5 Z"/><text text-anchor="middle" pointer-events="none" font-size="8px" fill="#000000" x="60.79592120792556" y="3" transform="rotate(180 60.79592120792556 0)" font-family="sans-serif">ORIGIN</text></g><g class="relationship" transform="translate(263.62880720551436 77.27195410212875) rotate(323.8734873145661)"><path class="outline" fill="#A5ABB6" stroke="none" d="M 25 0.5 L 45.54209092744094 0.5 L 45.54209092744094 -0.5 L 25 -0.5 Z M 104.72959092744094 0.5 L 125.27168185488188 0.5 L 125.27168185488188 3.5 L 132.27168185488188 0 L 125.27168185488188 -3.5 L 125.27168185488188 -0.5 L 104.72959092744094 -0.5 Z"/><text text-anchor="middle" pointer-events="none" font-size="8px" fill="#000000" x="75.13584092744094" y="3" font-family="sans-serif">DESTINATION</text></g><g class="relationship" transform="translate(-12.534781996508165 44.6862932458961) rotate(220.98101903307395)"><path class="outline" fill="#A5ABB6" stroke="none" d="M 25 0.5 L 42.437313017444495 0.5 L 42.437313017444495 -0.5 L 25 -0.5 Z M 101.6248130174445 0.5 L 119.06212603488899 0.5 L 119.06212603488899 3.5 L 126.06212603488899 0 L 119.06212603488899 -3.5 L 119.06212603488899 -0.5 L 101.6248130174445 -0.5 Z"/><text text-anchor="middle" pointer-events="none" font-size="8px" fill="#000000" x="72.0310630174445" y="3" transform="rotate(180 72.0310630174445 0)" font-family="sans-serif">DESTINATION</text></g><g class="relationship" transform="translate(-12.534781996508165 44.6862932458961) rotate(382.4534069595868)"><path class="outline" fill="#A5ABB6" stroke="none" d="M 25 0.5 L 61.01627677831716 0.5 L 61.01627677831716 -0.5 L 25 -0.5 Z M 95.46158927831716 0.5 L 131.47786605663433 0.5 L 131.47786605663433 3.5 L 138.47786605663433 0 L 131.47786605663433 -3.5 L 131.47786605663433 -0.5 L 95.46158927831716 -0.5 Z"/><text text-anchor="middle" pointer-events="none" font-size="8px" fill="#000000" x="78.23893302831716" y="3" font-family="sans-serif">ORIGIN</text></g><g class="relationship" transform="translate(63.01830579814975 -19.70949506488542) rotate(239.47167802235083)"><path class="outline" fill="#A5ABB6" stroke="none" d="M 25 0.5 L 49.34372632927976 0.5 L 49.34372632927976 -0.5 L 25 -0.5 Z M 108.53122632927976 0.5 L 132.87495265855952 0.5 L 132.87495265855952 3.5 L 139.87495265855952 0 L 132.87495265855952 -3.5 L 132.87495265855952 -0.5 L 108.53122632927976 -0.5 Z"/><text text-anchor="middle" pointer-events="none" font-size="8px" fill="#000000" x="78.93747632927976" y="3" transform="rotate(180 78.93747632927976 0)" font-family="sans-serif">DESTINATION</text></g><g class="relationship" transform="translate(63.01830579814975 -19.70949506488542) rotate(419.22539788943357)"><path class="outline" fill="#A5ABB6" stroke="none" d="M 25 0.5 L 53.087380808683875 0.5 L 53.087380808683875 -0.5 L 25 -0.5 Z M 87.53269330868387 0.5 L 115.62007411736775 0.5 L 115.62007411736775 3.5 L 122.62007411736775 0 L 115.62007411736775 -3.5 L 115.62007411736775 -0.5 L 87.53269330868387 -0.5 Z"/><text text-anchor="middle" pointer-events="none" font-size="8px" fill="#000000" x="70.31003705868387" y="3" font-family="sans-serif">ORIGIN</text></g><g class="relationship" transform="translate(296.8766943324333 127.04856880713436) rotate(303.3501361342588)"><path class="outline" fill="#A5ABB6" stroke="none" d="M 25 0.5 L 52.20181230138803 0.5 L 52.20181230138803 -0.5 L 25 -0.5 Z M 111.38931230138803 0.5 L 138.59112460277606 0.5 L 138.59112460277606 3.5 L 145.59112460277606 0 L 138.59112460277606 -3.5 L 138.59112460277606 -0.5 L 111.38931230138803 -0.5 Z"/><text text-anchor="middle" pointer-events="none" font-size="8px" fill="#000000" x="81.79556230138803" y="3" font-family="sans-serif">DESTINATION</text></g><g class="relationship" transform="translate(296.8766943324333 127.04856880713436) rotate(187.1727564613101)"><path class="outline" fill="#A5ABB6" stroke="none" d="M 25 0.5 L 59.065147271354164 0.5 L 59.065147271354164 -0.5 L 25 -0.5 Z M 93.51045977135416 0.5 L 127.57560704270833 0.5 L 127.57560704270833 3.5 L 134.57560704270833 0 L 127.57560704270833 -3.5 L 127.57560704270833 -0.5 L 93.51045977135416 -0.5 Z"/><text text-anchor="middle" pointer-events="none" font-size="8px" fill="#000000" x="76.28780352135416" y="3" transform="rotate(180 76.28780352135416 0)" font-family="sans-serif">ORIGIN</text></g><g class="relationship" transform="translate(-19.54495150388057 223.47717398079746) rotate(502.67414541088846)"><path class="outline" fill="#A5ABB6" stroke="none" d="M 25 0.5 L 26.678166683924438 0.5 L 26.678166683924438 -0.5 L 25 -0.5 Z M 70.01410418392445 0.5 L 71.69227086784888 0.5 L 71.69227086784888 3.5 L 78.69227086784888 0 L 71.69227086784888 -3.5 L 71.69227086784888 -0.5 L 70.01410418392445 -0.5 Z"/><text text-anchor="middle" pointer-events="none" font-size="8px" fill="#000000" x="48.34613543392444" y="3" transform="rotate(180 48.34613543392444 0)" font-family="sans-serif">DESTIN…</text></g><g class="relationship" transform="translate(-19.54495150388057 223.47717398079746) rotate(323.6479558754729)"><path class="outline" fill="#A5ABB6" stroke="none" d="M 25 0.5 L 77.42532730151497 0.5 L 77.42532730151497 -0.5 L 25 -0.5 Z M 111.87063980151497 0.5 L 164.29596710302994 0.5 L 164.29596710302994 3.5 L 171.29596710302994 0 L 164.29596710302994 -3.5 L 164.29596710302994 -0.5 L 111.87063980151497 -0.5 Z"/><text text-anchor="middle" pointer-events="none" font-size="8px" fill="#000000" x="94.64798355151497" y="3" font-family="sans-serif">ORIGIN</text></g><g class="relationship" transform="translate(3.413056666111716 -12.972021032569442) rotate(197.6699518550737)"><path class="outline" fill="#A5ABB6" stroke="none" d="M 25 0.5 L 35.118813316735654 0.5 L 35.118813316735654 -0.5 L 25 -0.5 Z M 94.30631331673565 0.5 L 104.42512663347131 0.5 L 104.42512663347131 3.5 L 111.42512663347131 0 L 104.42512663347131 -3.5 L 104.42512663347131 -0.5 L 94.30631331673565 -0.5 Z"/><text text-anchor="middle" pointer-events="none" font-size="8px" fill="#000000" x="64.71256331673565" y="3" transform="rotate(180 64.71256331673565 0)" font-family="sans-serif">DESTINATION</text></g><g class="relationship" transform="translate(3.413056666111716 -12.972021032569442) rotate(401.6274063211921)"><path class="outline" fill="#A5ABB6" stroke="none" d="M 25 0.5 L 69.67224560515491 0.5 L 69.67224560515491 -0.5 L 25 -0.5 Z M 104.11755810515491 0.5 L 148.78980371030983 0.5 L 148.78980371030983 3.5 L 155.78980371030983 0 L 148.78980371030983 -3.5 L 148.78980371030983 -0.5 L 104.11755810515491 -0.5 Z"/><text text-anchor="middle" pointer-events="none" font-size="8px" fill="#000000" x="86.89490185515491" y="3" font-family="sans-serif">ORIGIN</text></g><g class="relationship" transform="translate(109.21120958059346 278.57147558101497) rotate(421.2943651364083)"><path class="outline" fill="#A5ABB6" stroke="none" d="M 25 0.5 L 35.22201035505857 0.5 L 35.22201035505857 -0.5 L 25 -0.5 Z M 94.40951035505857 0.5 L 104.63152071011714 0.5 L 104.63152071011714 3.5 L 111.63152071011714 0 L 104.63152071011714 -3.5 L 104.63152071011714 -0.5 L 94.40951035505857 -0.5 Z"/><text text-anchor="middle" pointer-events="none" font-size="8px" fill="#000000" x="64.81576035505857" y="3" font-family="sans-serif">DESTINATION</text></g><g class="relationship" transform="translate(109.21120958059346 278.57147558101497) rotate(279.71058035014784)"><path class="outline" fill="#A5ABB6" stroke="none" d="M 25 0.5 L 66.24729634139268 0.5 L 66.24729634139268 -0.5 L 25 -0.5 Z M 100.69260884139268 0.5 L 141.93990518278537 0.5 L 141.93990518278537 3.5 L 148.93990518278537 0 L 141.93990518278537 -3.5 L 141.93990518278537 -0.5 L 100.69260884139268 -0.5 Z"/><text text-anchor="middle" pointer-events="none" font-size="8px" fill="#000000" x="83.46995259139268" y="3" font-family="sans-serif">ORIGIN</text></g><g class="relationship" transform="translate(100.50386902422365 -66.5449664495499) rotate(437.6432817932377)"><path class="outline" fill="#A5ABB6" stroke="none" d="M 25 0.5 L 68.1709792385016 0.5 L 68.1709792385016 -0.5 L 25 -0.5 Z M 102.6162917385016 0.5 L 145.7872709770032 0.5 L 145.7872709770032 3.5 L 152.7872709770032 0 L 145.7872709770032 -3.5 L 145.7872709770032 -0.5 L 102.6162917385016 -0.5 Z"/><text text-anchor="middle" pointer-events="none" font-size="8px" fill="#000000" x="85.3936354885016" y="3" font-family="sans-serif">ORIGIN</text></g><g class="relationship" transform="translate(100.50386902422365 -66.5449664495499) rotate(283.96138529861275)"><path class="outline" fill="#A5ABB6" stroke="none" d="M 25 0.5 L 37.25043370512394 0.5 L 37.25043370512394 -0.5 L 25 -0.5 Z M 96.43793370512394 0.5 L 108.68836741024788 0.5 L 108.68836741024788 3.5 L 115.68836741024788 0 L 108.68836741024788 -3.5 L 108.68836741024788 -0.5 L 96.43793370512394 -0.5 Z"/><text text-anchor="middle" pointer-events="none" font-size="8px" fill="#000000" x="66.84418370512394" y="3" font-family="sans-serif">DESTINATION</text></g><g class="relationship" transform="translate(284.16343173596454 -24.446045874690952) rotate(497.9004672711747)"><path class="outline" fill="#A5ABB6" stroke="none" d="M 25 0.5 L 77.40214379109256 0.5 L 77.40214379109256 -0.5 L 25 -0.5 Z M 111.84745629109256 0.5 L 164.2496000821851 0.5 L 164.2496000821851 3.5 L 171.2496000821851 0 L 164.2496000821851 -3.5 L 164.2496000821851 -0.5 L 111.84745629109256 -0.5 Z"/><text text-anchor="middle" pointer-events="none" font-size="8px" fill="#000000" x="94.62480004109256" y="3" transform="rotate(180 94.62480004109256 0)" font-family="sans-serif">ORIGIN</text></g><g class="relationship" transform="translate(284.16343173596454 -24.446045874690952) rotate(364.82807470847234)"><path class="outline" fill="#A5ABB6" stroke="none" d="M 25 0.5 L 25.60187944690344 0.5 L 25.60187944690344 -0.5 L 25 -0.5 Z M 74.27375444690344 0.5 L 74.87563389380688 0.5 L 74.87563389380688 3.5 L 81.87563389380688 0 L 74.87563389380688 -3.5 L 74.87563389380688 -0.5 L 74.27375444690344 -0.5 Z"/><text text-anchor="middle" pointer-events="none" font-size="8px" fill="#000000" x="49.93781694690344" y="3" font-family="sans-serif">DESTINA…</text></g><g class="relationship" transform="translate(30.387648682362837 190.73592246022574) rotate(504.1621404274701)"><path class="outline" fill="#A5ABB6" stroke="none" d="M 25 0.5 L 48.55940506816428 0.5 L 48.55940506816428 -0.5 L 25 -0.5 Z M 107.74690506816428 0.5 L 131.30631013632856 0.5 L 131.30631013632856 3.5 L 138.30631013632856 0 L 131.30631013632856 -3.5 L 131.30631013632856 -0.5 L 107.74690506816428 -0.5 Z"/><text text-anchor="middle" pointer-events="none" font-size="8px" fill="#000000" x="78.15315506816428" y="3" transform="rotate(180 78.15315506816428 0)" font-family="sans-serif">DESTINATION</text></g><g class="relationship" transform="translate(30.387648682362837 190.73592246022574) rotate(322.29505423688056)"><path class="outline" fill="#A5ABB6" stroke="none" d="M 25 0.5 L 47.63316259414107 0.5 L 47.63316259414107 -0.5 L 25 -0.5 Z M 82.07847509414107 0.5 L 104.71163768828214 0.5 L 104.71163768828214 3.5 L 111.71163768828214 0 L 104.71163768828214 -3.5 L 104.71163768828214 -0.5 L 82.07847509414107 -0.5 Z"/><text text-anchor="middle" pointer-events="none" font-size="8px" fill="#000000" x="64.85581884414107" y="3" font-family="sans-serif">ORIGIN</text></g><g class="relationship" transform="translate(244.51940564713328 20.460507996851497) rotate(346.1941901558007)"><path class="outline" fill="#A5ABB6" stroke="none" d="M 25 0.5 L 42.1502615217736 0.5 L 42.1502615217736 -0.5 L 25 -0.5 Z M 101.3377615217736 0.5 L 118.4880230435472 0.5 L 118.4880230435472 3.5 L 125.4880230435472 0 L 118.4880230435472 -3.5 L 118.4880230435472 -0.5 L 101.3377615217736 -0.5 Z"/><text text-anchor="middle" pointer-events="none" font-size="8px" fill="#000000" x="71.7440115217736" y="3" font-family="sans-serif">DESTINATION</text></g><g class="relationship" transform="translate(244.51940564713328 20.460507996851497) rotate(500.7232624815528)"><path class="outline" fill="#A5ABB6" stroke="none" d="M 25 0.5 L 47.72449411621449 0.5 L 47.72449411621449 -0.5 L 25 -0.5 Z M 82.16980661621449 0.5 L 104.89430073242897 0.5 L 104.89430073242897 3.5 L 111.89430073242897 0 L 104.89430073242897 -3.5 L 104.89430073242897 -0.5 L 82.16980661621449 -0.5 Z"/><text text-anchor="middle" pointer-events="none" font-size="8px" fill="#000000" x="64.94715036621449" y="3" transform="rotate(180 64.94715036621449 0)" font-family="sans-serif">ORIGIN</text></g><g class="relationship" transform="translate(303.1198065292919 32.44565069659134) rotate(515.592536567321)"><path class="outline" fill="#A5ABB6" stroke="none" d="M 25 0.5 L 69.6378296298113 0.5 L 69.6378296298113 -0.5 L 25 -0.5 Z M 104.0831421298113 0.5 L 148.7209717596226 0.5 L 148.7209717596226 3.5 L 155.7209717596226 0 L 148.7209717596226 -3.5 L 148.7209717596226 -0.5 L 104.0831421298113 -0.5 Z"/><text text-anchor="middle" pointer-events="none" font-size="8px" fill="#000000" x="86.8604858798113" y="3" transform="rotate(180 86.8604858798113 0)" font-family="sans-serif">ORIGIN</text></g><g class="relationship" transform="translate(303.1198065292919 32.44565069659134) rotate(331.31530061486114)"><path class="outline" fill="#A5ABB6" stroke="none" d="M 25 0.5 L 27.61389441131754 0.5 L 27.61389441131754 -0.5 L 25 -0.5 Z M 65.17248816131755 0.5 L 67.78638257263508 0.5 L 67.78638257263508 3.5 L 74.78638257263508 0 L 67.78638257263508 -3.5 L 67.78638257263508 -0.5 L 65.17248816131755 -0.5 Z"/><text text-anchor="middle" pointer-events="none" font-size="8px" fill="#000000" x="46.39319128631754" y="3" font-family="sans-serif">DESTI…</text></g><g class="relationship" transform="translate(225.68304074246828 -36.372159913735096) rotate(481.26683692052467)"><path class="outline" fill="#A5ABB6" stroke="none" d="M 25 0.5 L 63.216686509034446 0.5 L 63.216686509034446 -0.5 L 25 -0.5 Z M 97.66199900903445 0.5 L 135.8786855180689 0.5 L 135.8786855180689 3.5 L 142.8786855180689 0 L 135.8786855180689 -3.5 L 135.8786855180689 -0.5 L 97.66199900903445 -0.5 Z"/><text text-anchor="middle" pointer-events="none" font-size="8px" fill="#000000" x="80.43934275903445" y="3" transform="rotate(180 80.43934275903445 0)" font-family="sans-serif">ORIGIN</text></g><g class="relationship" transform="translate(225.68304074246828 -36.372159913735096) rotate(367.2273468276533)"><path class="outline" fill="#A5ABB6" stroke="none" d="M 25 0.5 L 50.05528948918506 0.5 L 50.05528948918506 -0.5 L 25 -0.5 Z M 109.24278948918506 0.5 L 134.2980789783701 0.5 L 134.2980789783701 3.5 L 141.2980789783701 0 L 134.2980789783701 -3.5 L 134.2980789783701 -0.5 L 109.24278948918506 -0.5 Z"/><text text-anchor="middle" pointer-events="none" font-size="8px" fill="#000000" x="79.64903948918506" y="3" font-family="sans-serif">DESTINATION</text></g><g class="relationship" transform="translate(-34.323766592174834 100.6233003883632) rotate(362.1534301627528)"><path class="outline" fill="#A5ABB6" stroke="none" d="M 25 0.5 L 65.77526125948962 0.5 L 65.77526125948962 -0.5 L 25 -0.5 Z M 100.22057375948962 0.5 L 140.99583501897925 0.5 L 140.99583501897925 3.5 L 147.99583501897925 0 L 140.99583501897925 -3.5 L 140.99583501897925 -0.5 L 100.22057375948962 -0.5 Z"/><text text-anchor="middle" pointer-events="none" font-size="8px" fill="#000000" x="82.99791750948962" y="3" font-family="sans-serif">ORIGIN</text></g><g class="relationship" transform="translate(-34.323766592174834 100.6233003883632) rotate(182.34785712142798)"><path class="outline" fill="#A5ABB6" stroke="none" d="M 25 0.5 L 47.37691442561646 0.5 L 47.37691442561646 -0.5 L 25 -0.5 Z M 106.56441442561646 0.5 L 128.94132885123292 0.5 L 128.94132885123292 3.5 L 135.94132885123292 0 L 128.94132885123292 -3.5 L 128.94132885123292 -0.5 L 106.56441442561646 -0.5 Z"/><text text-anchor="middle" pointer-events="none" font-size="8px" fill="#000000" x="76.97066442561646" y="3" transform="rotate(180 76.97066442561646 0)" font-family="sans-serif">DESTINATION</text></g></g><g class="layer nodes"><g class="node" transform="translate(174.8366624666702,398.4108363313815)"><circle class="outline" cx="0" cy="0" r="25" fill="#ECB5C9" stroke="#da7298" stroke-width="2px"/><text text-anchor="middle" pointer-events="none" font-family="sans-serif" dy="1.5625" font-size="25" fill="#2A2C34"/><text text-anchor="middle" pointer-events="none" x="0" y="5" font-size="10px" fill="#2A2C34" font-family="sans-serif"> SMF</text></g><g class="node" transform="translate(153.98248860698982,238.28008870571534)"><circle class="outline" cx="0" cy="0" r="25" fill="#4C8EDA" stroke="#2870c2" stroke-width="2px"/><text text-anchor="middle" pointer-events="none" font-family="sans-serif" dy="1.5625" font-size="25" fill="#FFFFFF"/><text text-anchor="middle" pointer-events="none" x="0" y="5" font-size="10px" fill="#FFFFFF" font-family="sans-serif"> 11/2/2015</text></g><g class="node" transform="translate(138.54989666222892,107.12372244519156)"><circle class="outline" cx="0" cy="0" r="25" fill="#ECB5C9" stroke="#da7298" stroke-width="2px"/><text text-anchor="middle" pointer-events="none" font-family="sans-serif" dy="1.5625" font-size="25" fill="#2A2C34"/><text text-anchor="middle" pointer-events="none" x="0" y="5" font-size="10px" fill="#2A2C34" font-family="sans-serif"> LAX</text></g><g class="node" transform="translate(-102.00104000961566,286.35070184480173)"><circle class="outline" cx="0" cy="0" r="25" fill="#ECB5C9" stroke="#da7298" stroke-width="2px"/><text text-anchor="middle" pointer-events="none" font-family="sans-serif" dy="1.5625" font-size="25" fill="#2A2C34"/><text text-anchor="middle" pointer-events="none" x="0" y="5" font-size="10px" fill="#2A2C34" font-family="sans-serif"> FAT</text></g><g class="node" transform="translate(-24.089529888943122,163.7656928977771)"><circle class="outline" cx="0" cy="0" r="25" fill="#4C8EDA" stroke="#2870c2" stroke-width="2px"/><text text-anchor="middle" pointer-events="none" font-family="sans-serif" dy="1.5625" font-size="25" fill="#FFFFFF"/><text text-anchor="middle" pointer-events="none" x="0" y="5" font-size="10px" fill="#FFFFFF" font-family="sans-serif"> 11/3/2015</text></g><g class="node" transform="translate(387.8309097464454,305.40401771451593)"><circle class="outline" cx="0" cy="0" r="25" fill="#ECB5C9" stroke="#da7298" stroke-width="2px"/><text text-anchor="middle" pointer-events="none" font-family="sans-serif" dy="1.5625" font-size="25" fill="#2A2C34"/><text text-anchor="middle" pointer-events="none" x="0" y="5" font-size="10px" fill="#2A2C34" font-family="sans-serif"> IAH</text></g><g class="node" transform="translate(270.1637539047413,208.28650973789624)"><circle class="outline" cx="0" cy="0" r="25" fill="#4C8EDA" stroke="#2870c2" stroke-width="2px"/><text text-anchor="middle" pointer-events="none" font-family="sans-serif" dy="1.5625" font-size="25" fill="#FFFFFF"/><text text-anchor="middle" pointer-events="none" x="0" y="5" font-size="10px" fill="#FFFFFF" font-family="sans-serif"> 11/30/20…</text></g><g class="node" transform="translate(390.6598428586995,-15.45073942185376)"><circle class="outline" cx="0" cy="0" r="25" fill="#ECB5C9" stroke="#da7298" stroke-width="2px"/><text text-anchor="middle" pointer-events="none" font-family="sans-serif" dy="1.5625" font-size="25" fill="#2A2C34"/><text text-anchor="middle" pointer-events="none" x="0" y="5" font-size="10px" fill="#2A2C34" font-family="sans-serif"> ABQ</text></g><g class="node" transform="translate(336.40574516130414,82.35064769086458)"><circle class="outline" cx="0" cy="0" r="25" fill="#4C8EDA" stroke="#2870c2" stroke-width="2px"/><text text-anchor="middle" pointer-events="none" font-family="sans-serif" dy="1.5625" font-size="25" fill="#FFFFFF"/><text text-anchor="middle" pointer-events="none" x="0" y="5" font-size="10px" fill="#FFFFFF" font-family="sans-serif"> 11/3/2015</text></g><g class="node" transform="translate(134.44745687466605,-203.07719549602885)"><circle class="outline" cx="0" cy="0" r="25" fill="#ECB5C9" stroke="#da7298" stroke-width="2px"/><text text-anchor="middle" pointer-events="none" font-family="sans-serif" dy="1.5625" font-size="25" fill="#2A2C34"/><text text-anchor="middle" pointer-events="none" x="0" y="5" font-size="10px" fill="#2A2C34" font-family="sans-serif"> EWR</text></g><g class="node" transform="translate(160.2114171955585,-62.166326264470214)"><circle class="outline" cx="0" cy="0" r="25" fill="#4C8EDA" stroke="#2870c2" stroke-width="2px"/><text text-anchor="middle" pointer-events="none" font-family="sans-serif" dy="1.5625" font-size="25" fill="#FFFFFF"/><text text-anchor="middle" pointer-events="none" x="0" y="5" font-size="10px" fill="#FFFFFF" font-family="sans-serif"> 11/30/20…</text></g><g class="node" transform="translate(213.69355972198434,260.1506985291924)"><circle class="outline" cx="0" cy="0" r="25" fill="#4C8EDA" stroke="#2870c2" stroke-width="2px"/><text text-anchor="middle" pointer-events="none" font-family="sans-serif" dy="1.5625" font-size="25" fill="#FFFFFF"/><text text-anchor="middle" pointer-events="none" x="0" y="5" font-size="10px" fill="#FFFFFF" font-family="sans-serif"> 11/3/2015</text></g><g class="node" transform="translate(166.29438161690217,296.7290791702944)"><circle class="outline" cx="0" cy="0" r="25" fill="#4C8EDA" stroke="#2870c2" stroke-width="2px"/><text text-anchor="middle" pointer-events="none" font-family="sans-serif" dy="1.5625" font-size="25" fill="#FFFFFF"/><text text-anchor="middle" pointer-events="none" x="0" y="5" font-size="10px" fill="#FFFFFF" font-family="sans-serif"> 11/4/2015</text></g><g class="node" transform="translate(33.89429920223288,250.66293208062328)"><circle class="outline" cx="0" cy="0" r="25" fill="#4C8EDA" stroke="#2870c2" stroke-width="2px"/><text text-anchor="middle" pointer-events="none" font-family="sans-serif" dy="1.5625" font-size="25" fill="#FFFFFF"/><text text-anchor="middle" pointer-events="none" x="0" y="5" font-size="10px" fill="#FFFFFF" font-family="sans-serif"> 11/1/2015</text></g><g class="node" transform="translate(263.62880720551436,77.27195410212875)"><circle class="outline" cx="0" cy="0" r="25" fill="#4C8EDA" stroke="#2870c2" stroke-width="2px"/><text text-anchor="middle" pointer-events="none" font-family="sans-serif" dy="1.5625" font-size="25" fill="#FFFFFF"/><text text-anchor="middle" pointer-events="none" x="0" y="5" font-size="10px" fill="#FFFFFF" font-family="sans-serif"> 11/1/2015</text></g><g class="node" transform="translate(-126.57564123066312,-54.381604416849996)"><circle class="outline" cx="0" cy="0" r="25" fill="#ECB5C9" stroke="#da7298" stroke-width="2px"/><text text-anchor="middle" pointer-events="none" font-family="sans-serif" dy="1.5625" font-size="25" fill="#2A2C34"/><text text-anchor="middle" pointer-events="none" x="0" y="5" font-size="10px" fill="#2A2C34" font-family="sans-serif"> TUS</text></g><g class="node" transform="translate(-12.534781996508165,44.6862932458961)"><circle class="outline" cx="0" cy="0" r="25" fill="#4C8EDA" stroke="#2870c2" stroke-width="2px"/><text text-anchor="middle" pointer-events="none" font-family="sans-serif" dy="1.5625" font-size="25" fill="#FFFFFF"/><text text-anchor="middle" pointer-events="none" x="0" y="5" font-size="10px" fill="#FFFFFF" font-family="sans-serif"> 11/2/2015</text></g><g class="node" transform="translate(-20.73226999730484,-161.72918055986202)"><circle class="outline" cx="0" cy="0" r="25" fill="#ECB5C9" stroke="#da7298" stroke-width="2px"/><text text-anchor="middle" pointer-events="none" font-family="sans-serif" dy="1.5625" font-size="25" fill="#2A2C34"/><text text-anchor="middle" pointer-events="none" x="0" y="5" font-size="10px" fill="#2A2C34" font-family="sans-serif"> LAS</text></g><g class="node" transform="translate(63.01830579814975,-19.70949506488542)"><circle class="outline" cx="0" cy="0" r="25" fill="#4C8EDA" stroke="#2870c2" stroke-width="2px"/><text text-anchor="middle" pointer-events="none" font-family="sans-serif" dy="1.5625" font-size="25" fill="#FFFFFF"/><text text-anchor="middle" pointer-events="none" x="0" y="5" font-size="10px" fill="#FFFFFF" font-family="sans-serif"> 11/29/20…</text></g><g class="node" transform="translate(296.8766943324333,127.04856880713436)"><circle class="outline" cx="0" cy="0" r="25" fill="#4C8EDA" stroke="#2870c2" stroke-width="2px"/><text text-anchor="middle" pointer-events="none" font-family="sans-serif" dy="1.5625" font-size="25" fill="#FFFFFF"/><text text-anchor="middle" pointer-events="none" x="0" y="5" font-size="10px" fill="#FFFFFF" font-family="sans-serif"> 11/4/2015</text></g><g class="node" transform="translate(-19.54495150388057,223.47717398079746)"><circle class="outline" cx="0" cy="0" r="25" fill="#4C8EDA" stroke="#2870c2" stroke-width="2px"/><text text-anchor="middle" pointer-events="none" font-family="sans-serif" dy="1.5625" font-size="25" fill="#FFFFFF"/><text text-anchor="middle" pointer-events="none" x="0" y="5" font-size="10px" fill="#FFFFFF" font-family="sans-serif"> 11/4/2015</text></g><g class="node" transform="translate(3.413056666111716,-12.972021032569442)"><circle class="outline" cx="0" cy="0" r="25" fill="#4C8EDA" stroke="#2870c2" stroke-width="2px"/><text text-anchor="middle" pointer-events="none" font-family="sans-serif" dy="1.5625" font-size="25" fill="#FFFFFF"/><text text-anchor="middle" pointer-events="none" x="0" y="5" font-size="10px" fill="#FFFFFF" font-family="sans-serif"> 11/1/2015</text></g><g class="node" transform="translate(109.21120958059346,278.57147558101497)"><circle class="outline" cx="0" cy="0" r="25" fill="#4C8EDA" stroke="#2870c2" stroke-width="2px"/><text text-anchor="middle" pointer-events="none" font-family="sans-serif" dy="1.5625" font-size="25" fill="#FFFFFF"/><text text-anchor="middle" pointer-events="none" x="0" y="5" font-size="10px" fill="#FFFFFF" font-family="sans-serif"> 11/1/2015</text></g><g class="node" transform="translate(100.50386902422365,-66.5449664495499)"><circle class="outline" cx="0" cy="0" r="25" fill="#4C8EDA" stroke="#2870c2" stroke-width="2px"/><text text-anchor="middle" pointer-events="none" font-family="sans-serif" dy="1.5625" font-size="25" fill="#FFFFFF"/><text text-anchor="middle" pointer-events="none" x="0" y="5" font-size="10px" fill="#FFFFFF" font-family="sans-serif"> 11/29/20…</text></g><g class="node" transform="translate(284.16343173596454,-24.446045874690952)"><circle class="outline" cx="0" cy="0" r="25" fill="#4C8EDA" stroke="#2870c2" stroke-width="2px"/><text text-anchor="middle" pointer-events="none" font-family="sans-serif" dy="1.5625" font-size="25" fill="#FFFFFF"/><text text-anchor="middle" pointer-events="none" x="0" y="5" font-size="10px" fill="#FFFFFF" font-family="sans-serif"> 11/3/2015</text></g><g class="node" transform="translate(30.387648682362837,190.73592246022574)"><circle class="outline" cx="0" cy="0" r="25" fill="#4C8EDA" stroke="#2870c2" stroke-width="2px"/><text text-anchor="middle" pointer-events="none" font-family="sans-serif" dy="1.5625" font-size="25" fill="#FFFFFF"/><text text-anchor="middle" pointer-events="none" x="0" y="5" font-size="10px" fill="#FFFFFF" font-family="sans-serif"> 11/2/2015</text></g><g class="node" transform="translate(244.51940564713328,20.460507996851497)"><circle class="outline" cx="0" cy="0" r="25" fill="#4C8EDA" stroke="#2870c2" stroke-width="2px"/><text text-anchor="middle" pointer-events="none" font-family="sans-serif" dy="1.5625" font-size="25" fill="#FFFFFF"/><text text-anchor="middle" pointer-events="none" x="0" y="5" font-size="10px" fill="#FFFFFF" font-family="sans-serif"> 11/2/2015</text></g><g class="node" transform="translate(303.1198065292919,32.44565069659134)"><circle class="outline" cx="0" cy="0" r="25" fill="#4C8EDA" stroke="#2870c2" stroke-width="2px"/><text text-anchor="middle" pointer-events="none" font-family="sans-serif" dy="1.5625" font-size="25" fill="#FFFFFF"/><text text-anchor="middle" pointer-events="none" x="0" y="5" font-size="10px" fill="#FFFFFF" font-family="sans-serif"> 11/1/2015</text></g><g class="node" transform="translate(225.68304074246828,-36.372159913735096)"><circle class="outline" cx="0" cy="0" r="25" fill="#4C8EDA" stroke="#2870c2" stroke-width="2px"/><text text-anchor="middle" pointer-events="none" font-family="sans-serif" dy="1.5625" font-size="25" fill="#FFFFFF"/><text text-anchor="middle" pointer-events="none" x="0" y="5" font-size="10px" fill="#FFFFFF" font-family="sans-serif"> 11/2/2015</text></g><g class="node" transform="translate(-195.1299893679794,94.03011838124256)"><circle class="outline" cx="0" cy="0" r="25" fill="#ECB5C9" stroke="#da7298" stroke-width="2px"/><text text-anchor="middle" pointer-events="none" font-family="sans-serif" dy="1.5625" font-size="25" fill="#2A2C34"/><text text-anchor="middle" pointer-events="none" x="0" y="5" font-size="10px" fill="#2A2C34" font-family="sans-serif"> BOS</text></g><g class="node" transform="translate(-34.323766592174834,100.6233003883632)"><circle class="outline" cx="0" cy="0" r="25" fill="#4C8EDA" stroke="#2870c2" stroke-width="2px"/><text text-anchor="middle" pointer-events="none" font-family="sans-serif" dy="1.5625" font-size="25" fill="#FFFFFF"/><text text-anchor="middle" pointer-events="none" x="0" y="5" font-size="10px" fill="#FFFFFF" font-family="sans-serif"> 11/29/20…</text></g></g></svg>