<svg xmlns="http://www.w3.org/2000/svg" width="161.8213653564453" height="242.9617156982422" viewBox="-0.0016536712646484375 -20.847427368164062 161.8213653564453 242.9617156982422"><title>Neo4j Graph Visualization</title><desc>Created using Neo4j (http://www.neo4j.com/)</desc><g class="layer relationships"><g class="relationship" transform="translate(132.81972329042333 8.15257205254398) rotate(520.6566368227899)"><path class="outline" fill="#A5ABB6" stroke="none" d="M 21.40063509461097,12.933012701892217 L 21.90063509461097,12.06698729810778 A 59.97376817677338 59.97376817677338 0 0 0 39.22074791191914,18.749045168297215 L 39.00954271911313,19.72648691414797 A 60.97376817677338 60.97376817677338 0 0 1 21.40063509461097,12.933012701892217 Z M 61.070464712636685,20.406484363278572 L 60.91985985739769,19.417890322441565 A 59.97376817677338 59.97376817677338 0 0 0 78.61863179951109,13.8152412056486 L 77.28149157491875,11.129714065629882 L 85.10771849698683,11.142835204936237 L 80.4014854323009,17.395944059006894 L 79.06434520770856,14.710416918988173 A 60.97376817677338 60.97376817677338 0 0 1 61.070464712636685,20.406484363278572"/><text text-anchor="middle" pointer-events="none" font-size="8px" fill="#000000" x="50.02438367561863" y="23.573241200914282" transform="rotate(180 50.02438367561863 20.573241200914282)" font-family="sans-serif">road</text></g><g class="relationship" transform="translate(31.40020156359081 43.75537692618721) rotate(451.2896355531733)"><path class="outline" fill="#A5ABB6" stroke="none" d="M 25 0.5 L 40.19121233589518 0.5 L 40.19121233589518 -0.5 L 25 -0.5 Z M 59.52714983589518 0.5 L 74.71836217179036 0.5 L 74.71836217179036 3.5 L 81.71836217179036 0 L 74.71836217179036 -3.5 L 74.71836217179036 -0.5 L 59.52714983589518 -0.5 Z"/><text text-anchor="middle" pointer-events="none" font-size="8px" fill="#000000" x="49.85918108589518" y="3" transform="rotate(180 49.85918108589518 0)" font-family="sans-serif">trek</text></g><g class="relationship" transform="translate(28.99834623508957 150.4467070126116) rotate(383.40679509253346)"><path class="outline" fill="#A5ABB6" stroke="none" d="M 25 0.5 L 40.534818818982195 0.5 L 40.534818818982195 -0.5 L 25 -0.5 Z M 59.870756318982195 0.5 L 75.40557513796439 0.5 L 75.40557513796439 3.5 L 82.40557513796439 0 L 75.40557513796439 -3.5 L 75.40557513796439 -0.5 L 59.870756318982195 -0.5 Z"/><text text-anchor="middle" pointer-events="none" font-size="8px" fill="#000000" x="50.202787568982195" y="3" font-family="sans-serif">trek</text></g><g class="relationship" transform="translate(132.81972329042333 8.15257205254398) rotate(520.6566368227899)"><path class="outline" fill="#A5ABB6" stroke="none" d="M 25 0.5 L 26.497461915238063 0.5 L 26.497461915238063 -0.5 L 25 -0.5 Z M 73.98964941523806 0.5 L 75.48711133047613 0.5 L 75.48711133047613 3.5 L 82.48711133047613 0 L 75.48711133047613 -3.5 L 75.48711133047613 -0.5 L 73.98964941523806 -0.5 Z"/><text text-anchor="middle" pointer-events="none" font-size="8px" fill="#000000" x="50.24355566523806" y="3" transform="rotate(180 50.24355566523806 0)" font-family="sans-serif">PublicTra…</text></g><g class="relationship" transform="translate(132.81972329042333 8.15257205254398) rotate(520.6566368227899)"><path class="outline" fill="#A5ABB6" stroke="none" d="M 21.40063509461097,-12.933012701892217 L 21.90063509461097,-12.06698729810778 A 59.97376817677338 59.97376817677338 0 0 1 40.52063979950716,-19.014910091410243 L 40.3311089474522,-19.996784857416237 A 60.97376817677338 60.97376817677338 0 0 0 21.40063509461097,-12.933012701892217 Z M 59.73476002385601,-20.594875600842485 L 59.60606138712246,-19.60319185039433 A 59.97376817677338 59.97376817677338 0 0 1 78.61863179951109,-13.8152412056486 L 77.28149157491875,-11.129714065629882 L 85.10771849698683,-11.142835204936237 L 80.4014854323009,-17.395944059006894 L 79.06434520770856,-14.710416918988173 A 60.97376817677338 60.97376817677338 0 0 0 59.73476002385601,-20.594875600842485"/><text text-anchor="middle" pointer-events="none" font-size="8px" fill="#000000" x="50.02438367561861" y="-17.573241200914282" transform="rotate(180 50.02438367561861 -20.573241200914282)" font-family="sans-serif">trek</text></g></g><g class="layer nodes"><g class="node" transform="translate(132.81972329042333,8.15257205254398)"><circle class="outline" cx="0" cy="0" r="25" fill="#F16667" stroke="#eb2728" stroke-width="2px"/><text text-anchor="middle" pointer-events="none" font-family="sans-serif" dy="1.5625" font-size="25" fill="#FFFFFF"/><text text-anchor="middle" pointer-events="none" x="0" y="5" font-size="10px" fill="#FFFFFF" font-family="sans-serif"> Darjeeling</text></g><g class="node" transform="translate(127.56525009870069,193.11429463434806)"><circle class="outline" cx="0" cy="0" r="25" fill="#D9C8AE" stroke="#c0a378" stroke-width="2px"/><text text-anchor="middle" pointer-events="none" font-family="sans-serif" dy="1.5625" font-size="25" fill="#2A2C34"/><text text-anchor="middle" pointer-events="none" x="0" y="5" font-size="10px" fill="#2A2C34" font-family="sans-serif"> Sandak…</text></g><g class="node" transform="translate(31.40020156359081,43.75537692618721)"><circle class="outline" cx="0" cy="0" r="25" fill="#F16667" stroke="#eb2728" stroke-width="2px"/><text text-anchor="middle" pointer-events="none" font-family="sans-serif" dy="1.5625" font-size="25" fill="#FFFFFF"/><text text-anchor="middle" pointer-events="none" x="0" y="5" font-size="10px" fill="#FFFFFF" font-family="sans-serif"> Rimbik</text></g><g class="node" transform="translate(28.99834623508957,150.4467070126116)"><circle class="outline" cx="0" cy="0" r="25" fill="#8DCC93" stroke="#5db665" stroke-width="2px"/><text text-anchor="middle" pointer-events="none" font-family="sans-serif" dy="1.5625" font-size="25" fill="#2A2C34"/><text text-anchor="middle" pointer-events="none" x="0" y="5" font-size="10px" fill="#2A2C34" font-family="sans-serif"> BhikeBh…</text></g></g></svg>