<svg xmlns="http://www.w3.org/2000/svg" width="237.84059143066406" height="289.9476013183594" viewBox="-48.5596809387207 -49.81684112548828 237.84059143066406 289.9476013183594"><title>Neo4j Graph Visualization</title><desc>Created using Neo4j (http://www.neo4j.com/)</desc><g class="layer relationships"><g class="relationship" transform="translate(51.165934291722444 17.85852631530083) rotate(362.5289157291408)"><path class="outline" fill="#A5ABB6" stroke="none" d="M 5.987513214418485,24.277555179777966 L 6.953439040707552,24.018736134675446 A 47.44740185801365 47.44740185801365 0 0 0 22.79538580994625,48.507077875466116 L 22.163344372451448,49.282012467086275 A 48.44740185801365 48.44740185801365 0 0 1 5.987513214418485,24.277555179777966 Z M 78.62299120692836,52.72018422741237 L 78.089652362526,51.87428253273883 A 47.44740185801365 47.44740185801365 0 0 0 96.78600812316057,29.489188386746928 L 94.00386011203294,28.366845995059556 L 99.86849837228573,23.184566759397008 L 100.4955388046641,30.98564490899676 L 97.71339079353646,29.86330251730939 A 48.44740185801365 48.44740185801365 0 0 1 78.62299120692836,52.72018422741237"/><text text-anchor="middle" pointer-events="none" font-size="8px" fill="#000000" x="49.86969936841102" y="62.597190763412854" font-family="sans-serif">CONNECTION</text></g><g class="relationship" transform="translate(14.237865976752277 117.48515932539534) rotate(290.3379611095603)"><path class="outline" fill="#A5ABB6" stroke="none" d="M 5.987513214418485,24.277555179777966 L 6.953439040707552,24.018736134675446 A 45.856650223431025 45.856650223431025 0 0 0 21.45261761808784,47.008355454792174 L 20.802876652810966,47.76851114808209 A 46.856650223431025 46.856650223431025 0 0 1 5.987513214418485,24.277555179777966 Z M 77.01487263629011,51.285712843616416 L 76.4649547331793,50.45049412984247 A 45.856650223431025 45.856650223431025 0 0 0 93.7167617914828,29.44754364364385 L 90.93837306579526,28.315927061504652 L 96.82026527075551,23.153239380729474 L 97.4212800923995,30.956365753162785 L 94.64289136671196,29.824749171023587 A 46.856650223431025 46.856650223431025 0 0 1 77.01487263629011,51.285712843616416"/><text text-anchor="middle" pointer-events="none" font-size="8px" fill="#000000" x="48.352673357270675" y="61.416333380644446" font-family="sans-serif">CONNECTION</text></g><g class="relationship" transform="translate(14.237865976752277 117.48515932539534) rotate(407.6075243159835)"><path class="outline" fill="#A5ABB6" stroke="none" d="M 5.987513214418485,-24.277555179777966 L 6.953439040707552,-24.018736134675446 A 46.28825797135314 46.28825797135314 0 0 1 21.81520536151908,-47.416761058293616 L 21.170349434425813,-48.18106520802242 A 47.28825797135314 47.28825797135314 0 0 0 5.987513214418485,-24.277555179777966 Z M 77.45203776541369,-51.67657045286113 L 76.90671053192018,-50.83834720788977 A 46.28825797135314 46.28825797135314 0 0 1 94.54947406551823,-29.45909176252385 L 91.7700427533986,-28.33003836201128 L 97.6471705520675,-23.161927600996833 L 98.25538248167771,-30.964496296540617 L 95.47595116955809,-29.835442896028045 A 47.28825797135314 47.28825797135314 0 0 0 77.45203776541369,-51.67657045286113"/><text text-anchor="middle" pointer-events="none" font-size="8px" fill="#000000" x="48.764157531268594" y="-55.7367329571873" font-family="sans-serif">CONNECTION</text></g><g class="relationship" transform="translate(51.165934291722444 17.85852631530083) rotate(362.5289157291408)"><path class="outline" fill="#A5ABB6" stroke="none" d="M 9.640628187553363,23.071807214636475 L 10.555422056041385,22.66788620976458 A 46.16197078302813 46.16197078302813 0 0 0 23.12973787492289,39.399289339166224 L 22.487339565064364,40.165660275130605 A 47.16197078302813 47.16197078302813 0 0 1 9.640628187553363,23.071807214636475 Z M 78.7658805835156,43.38196293998868 L 78.21497547360474,42.547395051872854 A 46.16197078302813 46.16197078302813 0 0 0 92.61358517889043,27.357486969650108 L 90.02512494088936,25.840953555482304 L 96.58357318494882,21.57050198334225 L 96.0648654962252,29.379531521873847 L 93.47640525822412,27.862998107706044 A 47.16197078302813 47.16197078302813 0 0 1 78.7658805835156,43.38196293998868"/><text text-anchor="middle" pointer-events="none" font-size="8px" fill="#000000" x="50.1217357162661" y="53.60805242005016" font-family="sans-serif">CONNECTION</text></g><g class="relationship" transform="translate(51.165934291722444 17.85852631530083) rotate(362.5289157291408)"><path class="outline" fill="#A5ABB6" stroke="none" d="M 13.065558593808642,21.319971356260147 L 13.907568197342588,20.78050882043712 A 46.17113810242759 46.17113810242759 0 0 0 23.304681368737707,31.40792453477914 L 22.666199630394097,32.1775615075148 A 47.17113810242759 47.17113810242759 0 0 1 13.065558593808642,21.319971356260147 Z M 78.9614797619881,35.113979596880775 L 78.40653512996613,34.28209231161311 A 46.17113810242759 46.17113810242759 0 0 0 88.85831728016653,24.690014819943034 L 86.51437197945987,22.81760449437464 L 93.61793225661056,19.53287750588888 L 91.98357768110876,27.186561920700893 L 89.63963238040209,25.314151595132497 A 47.17113810242759 47.17113810242759 0 0 1 78.9614797619881,35.113979596880775"/><text text-anchor="middle" pointer-events="none" font-size="8px" fill="#000000" x="50.35300166220917" y="45.48068623135689" font-family="sans-serif">CONNECTION</text></g><g class="relationship" transform="translate(51.165934291722444 17.85852631530083) rotate(362.5289157291408)"><path class="outline" fill="#A5ABB6" stroke="none" d="M 16.181239564159192,19.063511905398997 L 16.93053533041732,18.401276407507467 A 47.84969590087066 47.84969590087066 0 0 0 23.28771082702541,24.390502734287992 L 22.671272237326523,25.177905722045885 A 48.84969590087066 48.84969590087066 0 0 1 16.181239564159192,19.063511905398997 Z M 79.23302088115351,27.783545702196555 L 78.69158637459799,26.942802771741007 A 47.84969590087066 47.84969590087066 0 0 0 85.57248171693826,21.56341697261532 L 83.5167713588712,19.37845589201553 L 91.01334263134895,17.130919650558816 L 88.31342886102767,24.476698413415043 L 86.25771850296061,22.291737332815252 A 48.84969590087066 48.84969590087066 0 0 1 79.23302088115351,27.783545702196555"/><text text-anchor="middle" pointer-events="none" font-size="8px" fill="#000000" x="50.5591356292106" y="38.01198314136704" font-family="sans-serif">CONNECTION</text></g><g class="relationship" transform="translate(51.165934291722444 17.85852631530083) rotate(362.5289157291408)"><path class="outline" fill="#A5ABB6" stroke="none" d="M 18.913925871745995,16.355837126790473 L 19.552772677397954,15.586503155807593 A 52.017693309692916 52.017693309692916 0 0 0 23.065235731176177,18.259783105402654 L 22.493913316366893,19.080508819838656 A 53.017693309692916 53.017693309692916 0 0 1 18.913925871745995,16.355837126790473 Z M 79.59163869155586,21.30844941845696 L 79.08600505998147,20.445701117606184 A 52.017693309692916 52.017693309692916 0 0 0 82.7960930515382,18.054243510210544 L 81.0652214236569,15.603920387070348 L 88.80199227684554,14.423930232344201 L 85.10392188871326,21.32134100773081 L 83.37305026083196,18.87101788459061 A 53.017693309692916 53.017693309692916 0 0 1 79.59163869155586,21.30844941845696"/><text text-anchor="middle" pointer-events="none" font-size="8px" fill="#000000" x="50.73643936434124" y="31.045283279831672" font-family="sans-serif">CONNECTION</text></g><g class="relationship" transform="translate(51.165934291722444 17.85852631530083) rotate(362.5289157291408)"><path class="outline" fill="#A5ABB6" stroke="none" d="M 21.198937411768455,13.261035125959197 L 21.71221435609968,12.402812090601834 A 60.5363164520558 60.5363164520558 0 0 0 22.659780871701688,12.957915923520297 L 22.16215678785385,13.825308724490306 A 61.5363164520558 61.5363164520558 0 0 1 21.198937411768455,13.261035125959197 Z M 80.02117884123632,15.629403800006777 L 79.57856104209037,14.732693432118012 A 60.5363164520558 60.5363164520558 0 0 0 80.55887043505913,14.237702461626638 L 79.1824358164425,11.572101639921769 L 87.00801145547327,11.470288488471965 L 82.39411659321465,17.791836890566465 L 81.01768197459802,15.126236068861596 A 61.5363164520558 61.5363164520558 0 0 1 80.02117884123632,15.629403800006777"/><text text-anchor="middle" pointer-events="none" font-size="8px" fill="#000000" x="50.881868482627425" y="24.45581771472154" font-family="sans-serif">CONNECTION</text></g><g class="relationship" transform="translate(51.165934291722444 17.85852631530083) rotate(362.5289157291408)"><path class="outline" fill="#A5ABB6" stroke="none" d="M 22.982190118496508,9.852356944268795 L 23.357748420851518,8.925558173481836 A 78.35364384252281 78.35364384252281 0 0 0 23.983826072955754,9.176126808361474 L 23.616258179487946,10.106123498512375 A 79.35364384252281 79.35364384252281 0 0 1 22.982190118496508,9.852356944268795 Z M 78.5701836849226,11.354677128063514 L 78.24523233359693,10.408946395100045 A 78.35364384252281 78.35364384252281 0 0 0 78.882043926632,10.187070614029118 L 77.8828076654542,7.358373582824221 L 85.64887637630639,8.326968843148384 L 80.21435894153574,13.958666655635646 L 79.21512268035794,11.12996962443075 A 79.35364384252281 79.35364384252281 0 0 1 78.5701836849226,11.354677128063514"/><text text-anchor="middle" pointer-events="none" font-size="8px" fill="#000000" x="50.9930166836598" y="18.14079701517032" font-family="sans-serif">CONNECTI…</text></g><g class="relationship" transform="translate(51.165934291722444 17.85852631530083) rotate(362.5289157291408)"><path class="outline" fill="#A5ABB6" stroke="none" d="M 24.221476084042255,6.210482775933699 L 24.45042663399239,5.237044721573006 A 123.75459791582689 123.75459791582689 0 0 0 24.653421549925646,5.284608272963155 L 24.426111301987333,6.258430664974256 A 124.75459791582689 124.75459791582689 0 0 1 24.221476084042255,6.210482775933699 Z M 77.7759812583613,6.995286496799039 L 77.57565299960208,6.015557662507376 A 123.75459791582689 123.75459791582689 0 0 0 77.77988410425766,5.973618620949911 L 77.17394845484655,3.0354487843385654 L 84.73660299791932,5.049463745092552 L 78.58779830347247,9.891178403098372 L 77.98186265406136,6.953008566487026 A 124.75459791582689 124.75459791582689 0 0 1 77.7759812583613,6.995286496799039"/><text text-anchor="middle" pointer-events="none" font-size="8px" fill="#000000" x="51.06809832965589" y="12.01235761552681" font-family="sans-serif">CONNECT…</text></g><g class="relationship" transform="translate(51.165934291722444 17.85852631530083) rotate(362.5289157291408)"><path class="outline" fill="#A5ABB6" stroke="none" d="M 24.88746257968859,2.4216123439973125 L 24.964386333883052,1.4245753657258797 A 361.6532219874128 361.6532219874128 0 0 0 26.830185240380917,1.5636721141268026 L 26.75842056895708,2.5610937060002925 A 362.6532219874128 362.6532219874128 0 0 1 24.88746257968859,2.4216123439973125 Z M 75.4563953986951,2.7867570412419695 L 75.39387758790946,1.788713192839225 A 361.6532219874128 361.6532219874128 0 0 0 77.2608854695352,1.6669140349965612 L 77.05784476012843,-1.3262071570575786 L 84.27867503589599,1.6920059117231134 L 77.53160641541089,5.657742291068748 L 77.32856570600413,2.6646210990146075 A 362.6532219874128 362.6532219874128 0 0 1 75.4563953986951,2.7867570412419695"/><text text-anchor="middle" pointer-events="none" font-size="8px" fill="#000000" x="51.10593277893717" y="5.992273458269892" font-family="sans-serif">CONNEC…</text></g><g class="relationship" transform="translate(51.165934291722444 17.85852631530083) rotate(362.5289157291408)"><path class="outline" fill="#A5ABB6" stroke="none" d="M 24.88746257968859,-2.4216123439973125 L 24.964386333883052,-1.4245753657258797 A 361.6532219874128 361.6532219874128 0 0 1 26.83018524038081,-1.5636721141268026 L 26.758420568956975,-2.5610937060002925 A 362.6532219874128 362.6532219874128 0 0 0 24.88746257968859,-2.4216123439973125 Z M 75.4563953986951,-2.7867570412419695 L 75.39387758790944,-1.788713192839225 A 361.6532219874128 361.6532219874128 0 0 1 77.2608854695352,-1.6669140349965612 L 77.05784476012843,1.3262071570575786 L 84.27867503589599,-1.6920059117231134 L 77.53160641541089,-5.657742291068748 L 77.32856570600413,-2.6646210990146075 A 362.6532219874128 362.6532219874128 0 0 0 75.4563953986951,-2.7867570412419695"/><text text-anchor="middle" pointer-events="none" font-size="8px" fill="#000000" x="51.1059327789371" y="0.007726541730107783" font-family="sans-serif">CONNEC…</text></g><g class="relationship" transform="translate(51.165934291722444 17.85852631530083) rotate(362.5289157291408)"><path class="outline" fill="#A5ABB6" stroke="none" d="M 24.221476084042255,-6.210482775933699 L 24.45042663399239,-5.237044721573006 A 123.75459791582689 123.75459791582689 0 0 1 24.653421549925625,-5.284608272963155 L 24.42611130198731,-6.258430664974256 A 124.75459791582689 124.75459791582689 0 0 0 24.221476084042255,-6.210482775933699 Z M 77.77598125836131,-6.995286496799039 L 77.57565299960211,-6.015557662507376 A 123.75459791582689 123.75459791582689 0 0 1 77.77988410425766,-5.973618620949911 L 77.17394845484655,-3.0354487843385654 L 84.73660299791932,-5.049463745092552 L 78.58779830347247,-9.891178403098372 L 77.98186265406136,-6.953008566487026 A 124.75459791582689 124.75459791582689 0 0 0 77.77598125836131,-6.995286496799039"/><text text-anchor="middle" pointer-events="none" font-size="8px" fill="#000000" x="51.06809832965589" y="-6.01235761552681" font-family="sans-serif">CONNECT…</text></g><g class="relationship" transform="translate(51.165934291722444 17.85852631530083) rotate(362.5289157291408)"><path class="outline" fill="#A5ABB6" stroke="none" d="M 22.982190118496508,-9.852356944268795 L 23.357748420851518,-8.925558173481836 A 78.35364384252281 78.35364384252281 0 0 1 23.983826072955726,-9.17612680836146 L 23.616258179487918,-10.10612349851236 A 79.35364384252281 79.35364384252281 0 0 0 22.982190118496508,-9.852356944268795 Z M 78.57018368492257,-11.354677128063543 L 78.2452323335969,-10.408946395100074 A 78.35364384252281 78.35364384252281 0 0 1 78.882043926632,-10.187070614029118 L 77.8828076654542,-7.358373582824221 L 85.64887637630639,-8.326968843148384 L 80.21435894153574,-13.958666655635646 L 79.21512268035794,-11.12996962443075 A 79.35364384252281 79.35364384252281 0 0 0 78.57018368492257,-11.354677128063543"/><text text-anchor="middle" pointer-events="none" font-size="8px" fill="#000000" x="50.993016683659775" y="-12.140797015170321" font-family="sans-serif">CONNECTI…</text></g><g class="relationship" transform="translate(51.165934291722444 17.85852631530083) rotate(362.5289157291408)"><path class="outline" fill="#A5ABB6" stroke="none" d="M 21.198937411768455,-13.261035125959197 L 21.71221435609968,-12.402812090601834 A 60.5363164520558 60.5363164520558 0 0 1 22.659780871701667,-12.95791592352029 L 22.16215678785383,-13.825308724490299 A 61.5363164520558 61.5363164520558 0 0 0 21.198937411768455,-13.261035125959197 Z M 80.02117884123629,-15.629403800006791 L 79.57856104209034,-14.732693432118026 A 60.5363164520558 60.5363164520558 0 0 1 80.55887043505913,-14.237702461626638 L 79.1824358164425,-11.572101639921769 L 87.00801145547327,-11.470288488471965 L 82.39411659321465,-17.791836890566465 L 81.01768197459802,-15.126236068861596 A 61.5363164520558 61.5363164520558 0 0 0 80.02117884123629,-15.629403800006791"/><text text-anchor="middle" pointer-events="none" font-size="8px" fill="#000000" x="50.8818684826274" y="-18.45581771472154" font-family="sans-serif">CONNECTION</text></g><g class="relationship" transform="translate(51.165934291722444 17.85852631530083) rotate(362.5289157291408)"><path class="outline" fill="#A5ABB6" stroke="none" d="M 18.913925871745995,-16.355837126790473 L 19.552772677397954,-15.586503155807593 A 52.017693309692916 52.017693309692916 0 0 1 23.065235731176177,-18.259783105402654 L 22.493913316366893,-19.080508819838656 A 53.017693309692916 53.017693309692916 0 0 0 18.913925871745995,-16.355837126790473 Z M 79.59163869155584,-21.30844941845696 L 79.08600505998146,-20.44570111760619 A 52.017693309692916 52.017693309692916 0 0 1 82.7960930515382,-18.054243510210544 L 81.0652214236569,-15.603920387070348 L 88.80199227684554,-14.423930232344201 L 85.10392188871326,-21.32134100773081 L 83.37305026083196,-18.87101788459061 A 53.017693309692916 53.017693309692916 0 0 0 79.59163869155584,-21.30844941845696"/><text text-anchor="middle" pointer-events="none" font-size="8px" fill="#000000" x="50.73643936434123" y="-25.045283279831672" font-family="sans-serif">CONNECTION</text></g><g class="relationship" transform="translate(51.165934291722444 17.85852631530083) rotate(362.5289157291408)"><path class="outline" fill="#A5ABB6" stroke="none" d="M 16.181239564159192,-19.063511905398997 L 16.93053533041732,-18.401276407507467 A 47.84969590087066 47.84969590087066 0 0 1 23.28771082702541,-24.390502734288 L 22.671272237326523,-25.177905722045885 A 48.84969590087066 48.84969590087066 0 0 0 16.181239564159192,-19.063511905398997 Z M 79.2330208811535,-27.78354570219657 L 78.69158637459797,-26.942802771741015 A 47.84969590087066 47.84969590087066 0 0 1 85.57248171693826,-21.56341697261532 L 83.5167713588712,-19.37845589201553 L 91.01334263134895,-17.130919650558816 L 88.31342886102767,-24.476698413415043 L 86.25771850296061,-22.291737332815252 A 48.84969590087066 48.84969590087066 0 0 0 79.2330208811535,-27.78354570219657"/><text text-anchor="middle" pointer-events="none" font-size="8px" fill="#000000" x="50.559135629210594" y="-32.01198314136704" font-family="sans-serif">CONNECTION</text></g><g class="relationship" transform="translate(51.165934291722444 17.85852631530083) rotate(362.5289157291408)"><path class="outline" fill="#A5ABB6" stroke="none" d="M 13.065558593808642,-21.319971356260147 L 13.907568197342588,-20.78050882043712 A 46.17113810242759 46.17113810242759 0 0 1 23.304681368737704,-31.40792453477914 L 22.66619963039409,-32.1775615075148 A 47.17113810242759 47.17113810242759 0 0 0 13.065558593808642,-21.319971356260147 Z M 78.96147976198812,-35.11397959688077 L 78.40653512996613,-34.282092311613106 A 46.17113810242759 46.17113810242759 0 0 1 88.85831728016653,-24.690014819943034 L 86.51437197945987,-22.81760449437464 L 93.61793225661056,-19.53287750588888 L 91.98357768110876,-27.186561920700893 L 89.63963238040209,-25.314151595132497 A 47.17113810242759 47.17113810242759 0 0 0 78.96147976198812,-35.11397959688077"/><text text-anchor="middle" pointer-events="none" font-size="8px" fill="#000000" x="50.353001662209174" y="-39.48068623135689" font-family="sans-serif">CONNECTION</text></g><g class="relationship" transform="translate(51.165934291722444 17.85852631530083) rotate(362.5289157291408)"><path class="outline" fill="#A5ABB6" stroke="none" d="M 9.640628187553363,-23.071807214636475 L 10.555422056041385,-22.66788620976458 A 46.16197078302813 46.16197078302813 0 0 1 23.129737874922878,-39.39928933916622 L 22.487339565064353,-40.16566027513059 A 47.16197078302813 47.16197078302813 0 0 0 9.640628187553363,-23.071807214636475 Z M 78.7658805835156,-43.38196293998868 L 78.21497547360474,-42.547395051872854 A 46.16197078302813 46.16197078302813 0 0 1 92.61358517889043,-27.357486969650108 L 90.02512494088936,-25.840953555482304 L 96.58357318494882,-21.57050198334225 L 96.0648654962252,-29.379531521873847 L 93.47640525822412,-27.862998107706044 A 47.16197078302813 47.16197078302813 0 0 0 78.7658805835156,-43.38196293998868"/><text text-anchor="middle" pointer-events="none" font-size="8px" fill="#000000" x="50.12173571626609" y="-47.60805242005016" font-family="sans-serif">CONNECTION</text></g><g class="relationship" transform="translate(51.165934291722444 17.85852631530083) rotate(362.5289157291408)"><path class="outline" fill="#A5ABB6" stroke="none" d="M 5.987513214418485,-24.277555179777966 L 6.953439040707552,-24.018736134675446 A 47.44740185801365 47.44740185801365 0 0 1 22.795385809946247,-48.50707787546611 L 22.16334437245144,-49.28201246708627 A 48.44740185801365 48.44740185801365 0 0 0 5.987513214418485,-24.277555179777966 Z M 78.62299120692835,-52.72018422741237 L 78.089652362526,-51.87428253273883 A 47.44740185801365 47.44740185801365 0 0 1 96.78600812316057,-29.489188386746928 L 94.00386011203294,-28.366845995059556 L 99.86849837228573,-23.184566759397008 L 100.4955388046641,-30.98564490899676 L 97.71339079353646,-29.86330251730939 A 48.44740185801365 48.44740185801365 0 0 0 78.62299120692835,-52.72018422741237"/><text text-anchor="middle" pointer-events="none" font-size="8px" fill="#000000" x="49.86969936841101" y="-56.597190763412854" font-family="sans-serif">CONNECTION</text></g><g class="relationship" transform="translate(14.237865976752277 117.48515932539534) rotate(290.3379611095603)"><path class="outline" fill="#A5ABB6" stroke="none" d="M 8.397614054720682,23.552708510656636 L 9.332630297406096,23.198103623614102 A 44.82802499862013 44.82802499862013 0 0 0 21.70522850512079,41.01836683225508 L 21.046213674679066,41.77049677665158 A 45.82802499862013 45.82802499862013 0 0 1 8.397614054720682,23.552708510656636 Z M 77.09617103405361,45.14439951284438 L 76.53213605248484,44.318648618465986 A 44.82802499862013 44.82802499862013 0 0 0 90.95301709809267,28.11120720708896 L 88.29583186849416,26.718595755318045 L 94.64530802382457,22.14321024665425 L 94.49593073755736,29.968022476116847 L 91.83874550795885,28.575411024345932 A 45.82802499862013 45.82802499862013 0 0 1 77.09617103405361,45.14439951284438"/><text text-anchor="middle" pointer-events="none" font-size="8px" fill="#000000" x="48.52399091637784" y="55.547993920484615" font-family="sans-serif">CONNECTION</text></g><g class="relationship" transform="translate(14.237865976752277 117.48515932539534) rotate(290.3379611095603)"><path class="outline" fill="#A5ABB6" stroke="none" d="M 10.722644294488074,22.589265134879494 L 11.617278930593223,22.142466670377868 A 44.2977292278373 44.2977292278373 0 0 0 21.8925883482882,35.52521467309284 L 21.22991389607523,36.27412225776818 A 45.2977292278373 45.2977292278373 0 0 1 10.722644294488074,22.589265134879494 Z M 77.19712208999661,39.47852756711028 L 76.62425539813988,38.658879012325286 A 44.2977292278373 44.2977292278373 0 0 0 88.35986972434881,26.53636755141004 L 85.84649204748114,24.898401540339222 L 92.60068669632534,20.944813973897276 L 91.71103996017239,28.720322232837802 L 89.19766228330471,27.082356221766982 A 45.2977292278373 45.2977292278373 0 0 1 77.19712208999661,39.47852756711028"/><text text-anchor="middle" pointer-events="none" font-size="8px" fill="#000000" x="48.68685930463364" y="50.074791902558914" font-family="sans-serif">CONNECTION</text></g><g class="relationship" transform="translate(14.237865976752277 117.48515932539534) rotate(290.3379611095603)"><path class="outline" fill="#A5ABB6" stroke="none" d="M 12.939050610423134,21.396985051658767 L 13.784240695966929,20.862519225530967 A 44.32532011843585 44.32532011843585 0 0 0 22.002863309246894,30.481032296643257 L 21.34308920245565,31.232496286470997 A 45.32532011843585 45.32532011843585 0 0 1 12.939050610423134,21.396985051658767 Z M 77.32592523290072,34.24375144029593 L 76.75056551417984,33.425850960974984 A 44.32532011843585 44.32532011843585 0 0 0 85.95352168921015,24.744425444439912 L 83.60457351706927,22.878295094063485 L 90.69931720211196,19.574568101173945 L 89.08545258539797,27.232599244941813 L 86.7365044132571,25.366468894565386 A 45.32532011843585 45.32532011843585 0 0 1 77.32592523290072,34.24375144029593"/><text text-anchor="middle" pointer-events="none" font-size="8px" fill="#000000" x="48.83993755810278" y="44.932765547092636" font-family="sans-serif">CONNECTION</text></g><g class="relationship" transform="translate(14.237865976752277 117.48515932539534) rotate(407.6075243159835)"><path class="outline" fill="#A5ABB6" stroke="none" d="M 7.420576731956966,-23.878547714740503 L 8.369402648794285,-23.562748127125477 A 45.63014084257692 45.63014084257692 0 0 1 21.968593359068766,-43.79761061267571 L 21.31779831522812,-44.55686406898161 A 46.63014084257692 46.63014084257692 0 0 0 7.420576731956966,-23.878547714740503 Z M 77.49946035889518,-47.97187381017007 L 76.94541962423504,-47.13938425207503 A 45.63014084257692 45.63014084257692 0 0 1 92.89538871823031,-28.700671344603954 L 90.18461958048157,-27.41547459630859 L 96.34597598721093,-22.589742814572794 L 96.50974756856196,-30.41426700899777 L 93.79897843081322,-29.129070260702406 A 46.63014084257692 46.63014084257692 0 0 0 77.49946035889518,-47.97187381017007"/><text text-anchor="middle" pointer-events="none" font-size="8px" fill="#000000" x="48.865602063841" y="-52.19792317709887" font-family="sans-serif">CONNECTION</text></g><g class="relationship" transform="translate(14.237865976752277 117.48515932539534) rotate(407.6075243159835)"><path class="outline" fill="#A5ABB6" stroke="none" d="M 8.82737742500015,-23.39502955323198 L 9.755745358016224,-23.02336709757165 A 45.142357917296295 45.142357917296295 0 0 1 22.101143441223932,-40.360785235561245 L 21.446252540706368,-41.11650866937767 A 46.142357917296295 46.142357917296295 0 0 0 8.82737742500015,-23.39502955323198 Z M 77.55256154750674,-44.44150514147739 L 76.9915130912328,-43.61372218096623 A 45.142357917296295 45.142357917296295 0 0 1 91.29822322606172,-27.855772865070307 L 88.66430496046038,-26.41964105700684 L 95.08818382247671,-21.949318880011106 L 94.81011424686349,-29.7706152758216 L 92.17619598126215,-28.334483467758133 A 46.142357917296295 46.142357917296295 0 0 0 77.55256154750674,-44.44150514147739"/><text text-anchor="middle" pointer-events="none" font-size="8px" fill="#000000" x="48.96432295363585" y="-48.80806710939625" font-family="sans-serif">CONNECTION</text></g><g class="relationship" transform="translate(14.237865976752277 117.48515932539534) rotate(290.3379611095603)"><path class="outline" fill="#A5ABB6" stroke="none" d="M 15.024380075409052,19.987946451540527 L 15.8115635560181,19.37122757891198 A 45.016186334586926 45.016186334586926 0 0 0 22.025679505246593,25.851247262546572 L 21.37653783704345,26.61191479478549 A 46.016186334586926 46.016186334586926 0 0 1 15.024380075409052,19.987946451540527 Z M 77.49036783324728,29.408426791927873 L 76.92007272352632,28.5869869050047 A 45.016186334586926 45.016186334586926 0 0 0 83.74767923563792,22.756919885962915 L 81.58178380446206,20.681131606486513 L 88.95216779294549,18.049128593132018 L 86.63553981053904,25.524637591931455 L 84.46964437936319,23.448849312455053 A 46.016186334586926 46.016186334586926 0 0 1 77.49036783324728,29.408426791927873"/><text text-anchor="middle" pointer-events="none" font-size="8px" fill="#000000" x="48.98201004052826" y="40.0686637503119" font-family="sans-serif">CONNECTION</text></g><g class="relationship" transform="translate(14.237865976752277 117.48515932539534) rotate(407.6075243159835)"><path class="outline" fill="#A5ABB6" stroke="none" d="M 10.202936359829577,-22.82871195747293 L 11.10756063932883,-22.402502017489763 A 44.83286945635532 44.83286945635532 0 0 1 22.21041017629563,-37.09436084400859 L 21.55343566072182,-37.84827362801385 A 45.83286945635532 45.83286945635532 0 0 0 10.202936359829577,-22.82871195747293 Z M 77.61293076530073,-41.07429451683487 L 77.04677664482084,-40.24999511014841 A 44.83286945635532 44.83286945635532 0 0 1 89.76167817961681,-26.928761586959705 L 87.21239575988216,-25.347256245700358 L 93.87673771251106,-21.24402016445541 L 93.16072140592968,-29.0374353753055 L 90.61143898619503,-27.45593003404615 A 45.83286945635532 45.83286945635532 0 0 0 77.61293076530073,-41.07429451683487"/><text text-anchor="middle" pointer-events="none" font-size="8px" fill="#000000" x="49.06002927131844" y="-45.55228095186144" font-family="sans-serif">CONNECTION</text></g><g class="relationship" transform="translate(14.237865976752277 117.48515932539534) rotate(407.6075243159835)"><path class="outline" fill="#A5ABB6" stroke="none" d="M 11.542385173217793,-22.18159923254142 L 12.420064162785048,-21.70235024582136 A 44.713840906380774 44.713840906380774 0 0 1 22.294005093963797,-33.98832517056733 L 21.63715126123897,-34.74234310300309 A 45.713840906380774 45.713840906380774 0 0 0 11.542385173217793,-22.18159923254142 Z M 77.68221129272885,-37.860945079020844 L 77.11306750809604,-37.0387070645665 A 44.713840906380774 44.713840906380774 0 0 1 88.28912601528201,-25.92404982253468 L 85.83185580071044,-24.20305502516327 L 92.71432557824389,-20.477251788096282 L 91.56548630137742,-28.218709552363226 L 89.10821608680585,-26.497714754991815 A 45.713840906380774 45.713840906380774 0 0 0 77.68221129272885,-37.860945079020844"/><text text-anchor="middle" pointer-events="none" font-size="8px" fill="#000000" x="49.1524451686941" y="-42.417292178794696" font-family="sans-serif">CONNECTION</text></g><g class="relationship" transform="translate(14.237865976752277 117.48515932539534) rotate(407.6075243159835)"><path class="outline" fill="#A5ABB6" stroke="none" d="M 12.840983302486569,-21.45598163275829 L 13.68861073018383,-20.92538975210488 A 44.80252867955557 44.80252867955557 0 0 1 22.349679516311603,-31.034353118149888 L 21.6953686053689,-31.790578766895898 A 45.80252867955557 45.80252867955557 0 0 0 12.840983302486569,-21.45598163275829 Z M 77.76202874119288,-34.79378537442156 L 77.19224435102069,-33.97199114913392 A 44.80252867955557 44.80252867955557 0 0 1 86.88362804057203,-24.846075576657103 L 84.5253349122999,-22.991768827183208 L 91.60339264405647,-19.652442735601113 L 90.02801887826821,-27.31848457595563 L 87.66972574999608,-25.464177826481734 A 45.80252867955557 45.80252867955557 0 0 0 77.76202874119288,-34.79378537442156"/><text text-anchor="middle" pointer-events="none" font-size="8px" fill="#000000" x="49.2413099539975" y="-39.391208960656826" font-family="sans-serif">CONNECTION</text></g><g class="relationship" transform="translate(14.237865976752277 117.48515932539534) rotate(407.6075243159835)"><path class="outline" fill="#A5ABB6" stroke="none" d="M 14.094134763254786,-20.65442725604399 L 14.908710715305123,-20.074370346472794 A 45.122559856262455 45.122559856262455 0 0 1 22.375430289451725,-28.22560634067893 L 21.726330755360205,-28.986309827487148 A 46.122559856262455 46.122559856262455 0 0 0 14.094134763254786,-20.65442725604399 Z M 77.8538981046019,-31.866544591946877 L 77.28607543133634,-31.043393687357955 A 45.122559856262455 45.122559856262455 0 0 1 85.54795208664456,-23.699284240688527 L 83.29518832554068,-21.718108974171926 L 90.54615500203394,-18.77303134253226 L 88.55163710144971,-26.340851262710665 L 86.29887334034584,-24.359675996194063 A 46.122559856262455 46.122559856262455 0 0 0 77.8538981046019,-31.866544591946877"/><text text-anchor="middle" pointer-events="none" font-size="8px" fill="#000000" x="49.32637810550729" y="-36.46332659908785" font-family="sans-serif">CONNECTION</text></g><g class="relationship" transform="translate(14.237865976752277 117.48515932539534) rotate(407.6075243159835)"><path class="outline" fill="#A5ABB6" stroke="none" d="M 15.297404415496423,-19.779772954934305 L 16.076045953546178,-19.152303947553452 A 45.70577753244408 45.70577753244408 0 0 1 22.369629833911457,-25.556544161925544 L 21.728686071069614,-26.324132002419475 A 46.70577753244408 46.70577753244408 0 0 0 15.297404415496423,-19.779772954934305 Z M 77.9591083028276,-29.074138815657946 L 77.39612344693063,-28.247671603948575 A 45.70577753244408 45.70577753244408 0 0 1 84.28459044892641,-22.48811318815056 L 82.14349608356291,-20.386752933789438 L 89.54461343666294,-17.842453044695894 L 87.13938293607775,-25.289926860632058 L 84.99828857071425,-23.188566606270935 A 46.70577753244408 46.70577753244408 0 0 0 77.9591083028276,-29.074138815657946"/><text text-anchor="middle" pointer-events="none" font-size="8px" fill="#000000" x="49.407419233921765" y="-33.623964058699435" font-family="sans-serif">CONNECTION</text></g><g class="relationship" transform="translate(14.237865976752277 117.48515932539534) rotate(407.6075243159835)"><path class="outline" fill="#A5ABB6" stroke="none" d="M 16.44653366033987,-18.835114296422724 L 17.186485024722753,-18.16245392272147 A 46.59492434776456 46.59492434776456 0 0 1 22.331180029413545,-23.02273288568665 L 21.701641871548457,-23.799702452524265 A 47.59492434776456 47.59492434776456 0 0 0 16.44653366033987,-18.835114296422724 Z M 78.07858501181164,-26.412456816817944 L 77.52360730138098,-25.58059159881377 A 46.59492434776456 46.59492434776456 0 0 1 83.09577781863011,-21.2169791027468 L 81.07208218722151,-19.002333309077358 L 88.60056727576024,-16.864130261738318 L 85.79403866050824,-24.169840160972726 L 83.77034302909964,-21.95519436730328 A 47.59492434776456 47.59492434776456 0 0 0 78.07858501181164,-26.412456816817944"/><text text-anchor="middle" pointer-events="none" font-size="8px" fill="#000000" x="49.48421800315822" y="-30.864325098218032" font-family="sans-serif">CONNECTION</text></g><g class="relationship" transform="translate(14.237865976752277 117.48515932539534) rotate(407.6075243159835)"><path class="outline" fill="#A5ABB6" stroke="none" d="M 17.5374555120548,-17.82379460616338 L 18.236097874946534,-17.108323538423353 A 47.847606686573165 47.847606686573165 0 0 1 22.25968652121951,-20.620640349331524 L 21.645135901361648,-21.409517738811225 A 48.847606686573165 48.847606686573165 0 0 0 17.5374555120548,-17.82379460616338 Z M 78.21273536778303,-23.878134255288046 L 77.66924359204549,-23.038719763093845 A 47.847606686573165 47.847606686573165 0 0 1 81.9835089477146,-19.890267855333747 L 80.08253323472951,-17.569429356290605 L 87.71562806431278,-15.841464274875728 L 84.51814323169472,-22.98471918739127 L 82.61716751870964,-20.66388068834813 A 48.847606686573165 48.847606686573165 0 0 0 78.21273536778303,-23.878134255288046"/><text text-anchor="middle" pointer-events="none" font-size="8px" fill="#000000" x="49.55657401843853" y="-28.176379602495032" font-family="sans-serif">CONNECTION</text></g><g class="relationship" transform="translate(14.237865976752277 117.48515932539534) rotate(290.3379611095603)"><path class="outline" fill="#A5ABB6" stroke="none" d="M 16.957507614068078,18.376423360350163 L 17.67871006141189,17.683699006840566 A 46.54567085961207 46.54567085961207 0 0 0 21.95387705071575,21.611908244531612 L 21.324523467301695,22.389027326168325 A 47.54567085961207 47.54567085961207 0 0 1 16.957507614068078,18.376423360350163 Z M 77.69627040332952,24.950588446961227 L 77.13999034404084,24.119593563921768 A 46.54567085961207 46.54567085961207 0 0 0 81.7538026997922,20.595304111077322 L 79.78758927943916,18.329469874946277 L 87.36845148749016,16.38511183627538 L 84.37542059359627,23.616416425918715 L 82.40920717324323,21.35058218978767 A 47.54567085961207 47.54567085961207 0 0 1 77.69627040332952,24.950588446961227"/><text text-anchor="middle" pointer-events="none" font-size="8px" fill="#000000" x="49.11198603697532" y="35.43755430318856" font-family="sans-serif">CONNECTION</text></g><g class="relationship" transform="translate(14.237865976752277 117.48515932539534) rotate(407.6075243159835)"><path class="outline" fill="#A5ABB6" stroke="none" d="M 18.56630899188382,-16.749393135809257 L 19.221169725829103,-15.993643561454997 A 49.54227893292803 49.54227893292803 0 0 1 22.15564594159694,-18.347402715422035 L 21.560016964425312,-19.150662400426505 A 50.54227893292803 50.54227893292803 0 0 0 18.56630899188382,-16.749393135809257 Z M 78.36128192907937,-21.468305862557195 L 77.833074265643,-20.61919063816942 A 49.54227893292803 49.54227893292803 0 0 1 80.94955582697472,-18.512326738039608 L 79.17621635277813,-16.092560817696032 L 86.89123288680915,-14.777828951638181 L 83.31400845923683,-21.73868129849771 L 81.54066898504024,-19.318915378154134 A 50.54227893292803 50.54227893292803 0 0 0 78.36128192907937,-21.468305862557195"/><text text-anchor="middle" pointer-events="none" font-size="8px" fill="#000000" x="49.62430168971867" y="-25.552761572437262" font-family="sans-serif">CONNECTION</text></g><g class="relationship" transform="translate(14.237865976752277 117.48515932539534) rotate(407.6075243159835)"><path class="outline" fill="#A5ABB6" stroke="none" d="M 19.529452792776517,-15.615712395363635 L 20.13821422178524,-14.822359055072399 A 51.7875265171104 51.7875265171104 0 0 1 22.02063331196592,-16.200551624049574 L 21.448220772676013,-17.020517406789118 A 52.7875265171104 52.7875265171104 0 0 0 19.529452792776517,-15.615712395363635 Z M 78.52309798606285,-19.180326788490653 L 78.01429151436373,-18.319445859234406 A 51.7875265171104 51.7875265171104 0 0 1 79.99548419100807,-17.087458860004546 L 78.35429625094615,-14.576183856068244 L 86.12865719020311,-13.676566167182756 L 82.18373477775732,-20.435825531919615 L 80.5425468376954,-17.924550527983314 A 52.7875265171104 52.7875265171104 0 0 0 78.52309798606285,-19.180326788490653"/><text text-anchor="middle" pointer-events="none" font-size="8px" fill="#000000" x="49.68723007772698" y="-22.98668090011853" font-family="sans-serif">CONNECTION</text></g><g class="relationship" transform="translate(14.237865976752277 117.48515932539534) rotate(290.3379611095603)"><path class="outline" fill="#A5ABB6" stroke="none" d="M 18.71885000674371,16.57874103860215 L 19.366765402124248,15.817028730424791 A 49.205184232078764 49.205184232078764 0 0 0 21.785824223472993,17.74693671515314 L 21.187071510015137,18.547870662571313 A 50.205184232078764 50.205184232078764 0 0 1 18.71885000674371,16.57874103860215 Z M 77.94542336454458,20.854885871465953 L 77.41364837010363,20.00800019128986 A 49.205184232078764 49.205184232078764 0 0 0 79.98135557607988,18.280785637437123 L 78.22947957606746,15.845435461265225 L 85.95581865381638,14.598966666770133 L 82.3171902427631,21.527919205666322 L 80.56531424275069,19.092569029494424 A 50.205184232078764 50.205184232078764 0 0 1 77.94542336454458,20.854885871465953"/><text text-anchor="middle" pointer-events="none" font-size="8px" fill="#000000" x="49.22889838272395" y="31.00100986998978" font-family="sans-serif">CONNECTION</text></g><g class="relationship" transform="translate(14.237865976752277 117.48515932539534) rotate(407.6075243159835)"><path class="outline" fill="#A5ABB6" stroke="none" d="M 20.42347816666382,-14.426764695378036 L 20.983985768904716,-13.598615416666664 A 54.736950895231345 54.736950895231345 0 0 1 21.857470860982794,-14.177692712695404 L 21.312921127746147,-15.016421267134739 A 55.736950895231345 55.736950895231345 0 0 0 20.42347816666382,-14.426764695378036 Z M 78.69606155023523,-17.0114574417952 L 78.2110763071085,-16.136935107060808 A 54.736950895231345 54.736950895231345 0 0 1 79.1226691945755,-15.619919509251458 L 77.61775126200943,-13.02468888053248 L 85.42902698368079,-12.54098277138382 L 81.1292264379969,-19.080227014210095 L 79.62430850543085,-16.48499638549112 A 55.736950895231345 55.736950895231345 0 0 0 78.69606155023523,-17.0114574417952"/><text text-anchor="middle" pointer-events="none" font-size="8px" fill="#000000" x="49.74520272910772" y="-20.471846584341947" font-family="sans-serif">CONNECTION</text></g><g class="relationship" transform="translate(14.237865976752277 117.48515932539534) rotate(407.6075243159835)"><path class="outline" fill="#A5ABB6" stroke="none" d="M 21.245220988662066,-13.18675794662634 L 21.755491021722964,-12.32674370641864 A 58.61400809299702 58.61400809299702 0 0 1 23.39096114615446,-13.261907928560433 L 22.908593489635305,-14.137876788705704 A 59.61400809299702 59.61400809299702 0 0 0 21.245220988662066,-13.18675794662634 Z M 77.06719906809381,-15.848659900229826 L 76.64107881529522,-14.943993370421822 A 58.61400809299702 58.61400809299702 0 0 1 78.33231013225829,-14.113914288161945 L 76.96738825791152,-11.442400058941047 L 84.7933303128315,-11.374348952889653 L 80.15220596472062,-17.675933260456475 L 78.78728409037386,-15.004419031235576 A 59.61400809299702 59.61400809299702 0 0 0 77.06719906809381,-15.848659900229826"/><text text-anchor="middle" pointer-events="none" font-size="8px" fill="#000000" x="49.79807750643525" y="-18.00239945999958" font-family="sans-serif">CONNECTI…</text></g><g class="relationship" transform="translate(14.237865976752277 117.48515932539534) rotate(290.3379611095603)"><path class="outline" fill="#A5ABB6" stroke="none" d="M 20.290564273975832,14.613110601225724 L 20.858629020706985,13.790126735332066 A 53.495544218833196 53.495544218833196 0 0 0 21.528073261172278,14.244773537322601 L 20.97252253313634,15.076256182107656 A 54.495544218833196 54.495544218833196 0 0 1 20.290564273975832,14.613110601225724 Z M 78.23323489713852,17.10903826520815 L 77.73804444651836,16.240253816904307 A 53.495544218833196 53.495544218833196 0 0 0 78.4380431494464,15.834222880211836 L 76.91321626444856,13.250639521620947 L 84.72054213365811,12.706890708315349 L 80.47114566277686,19.279000691666354 L 78.94631877777903,16.695417333075465 A 54.495544218833196 54.495544218833196 0 0 1 78.23323489713852,17.10903826520815"/><text text-anchor="middle" pointer-events="none" font-size="8px" fill="#000000" x="49.33190146974975" y="26.72570845256594" font-family="sans-serif">CONNECTION</text></g><g class="relationship" transform="translate(14.237865976752277 117.48515932539534) rotate(407.6075243159835)"><path class="outline" fill="#A5ABB6" stroke="none" d="M 21.991772955509383,-11.900080767512723 L 22.449999477236794,-11.0112453188578 A 63.7555052069 63.7555052069 0 0 1 23.226936718483522,-11.405089673315317 L 22.780896395245563,-12.300102539170204 A 64.7555052069 64.7555052069 0 0 0 21.991772955509383,-11.900080767512723 Z M 77.22214503389736,-13.841666487210802 L 76.82746535248542,-12.922847707972721 A 63.7555052069 63.7555052069 0 0 1 77.62544409733117,-12.573598835177794 L 76.40385635472381,-9.83357631937405 L 84.22242792464112,-10.17989785506126 L 79.25422775414097,-16.226962189582785 L 78.03264001153362,-13.486939673779041 A 64.7555052069 64.7555052069 0 0 0 77.22214503389736,-13.841666487210802"/><text text-anchor="middle" pointer-events="none" font-size="8px" fill="#000000" x="49.84572641817284" y="-15.572852847038803" font-family="sans-serif">CONNECTI…</text></g><g class="relationship" transform="translate(14.237865976752277 117.48515932539534) rotate(407.6075243159835)"><path class="outline" fill="#A5ABB6" stroke="none" d="M 22.66049187860102,-10.571286951921099 L 23.065053138670955,-9.656776051575658 A 70.69240817955121 70.69240817955121 0 0 1 24.06514203005595,-10.090008237811958 L 23.674727817980827,-11.010647549925963 A 71.69240817955121 71.69240817955121 0 0 0 22.66049187860102,-10.571286951921099 Z M 76.32649914009416,-12.324849216183637 L 75.98250126225525,-11.38587879064174 A 70.69240817955121 70.69240817955121 0 0 1 77.00295849654059,-11.003079952010438 L 75.92765934010153,-8.202413651973702 L 83.71706305603281,-8.96082630365877 L 78.436690705126,-14.737301685392753 L 77.36139154868694,-11.936635385356016 A 71.69240817955121 71.69240817955121 0 0 0 76.32649914009416,-12.324849216183637"/><text text-anchor="middle" pointer-events="none" font-size="8px" fill="#000000" x="49.8880354530064" y="-13.178039790128295" font-family="sans-serif">CONNECT…</text></g><g class="relationship" transform="translate(14.237865976752277 117.48515932539534) rotate(290.3379611095603)"><path class="outline" fill="#A5ABB6" stroke="none" d="M 21.6567284317686,12.499444532963278 L 22.139187846575794,11.623526207396388 A 60.33331106965895 60.33331106965895 0 0 0 22.933756057347324,12.053455568706902 L 22.464466286252446,12.936499797919524 A 61.33331106965895 61.33331106965895 0 0 1 21.6567284317686,12.499444532963278 Z M 76.72650012274775,14.567142409889229 L 76.31108249927743,13.657511606700233 A 60.33331106965895 60.33331106965895 0 0 0 77.13003341584971,13.276070531918082 L 75.84305921411845,10.566144812626462 L 83.66768912781869,10.724785014427095 L 78.84599901815804,16.889304824306908 L 77.55902481642678,14.179379105015288 A 61.33331106965895 61.33331106965895 0 0 1 76.72650012274775,14.567142409889229"/><text text-anchor="middle" pointer-events="none" font-size="8px" fill="#000000" x="49.4202689189848" y="22.58233443618149" font-family="sans-serif">CONNECTI…</text></g><g class="relationship" transform="translate(14.237865976752277 117.48515932539534) rotate(290.3379611095603)"><path class="outline" fill="#A5ABB6" stroke="none" d="M 22.803502786540566,10.25915496833129 L 23.195469396400643,9.339175524672465 A 71.56755625750174 71.56755625750174 0 0 0 23.648210083739578,9.530236495950888 L 23.26256953433223,10.452885598618195 A 72.56755625750174 72.56755625750174 0 0 1 22.803502786540566,10.25915496833129 Z M 75.94093358218231,11.735490847243213 L 75.60065242821956,10.795167107110174 A 71.56755625750174 71.56755625750174 0 0 0 76.0621549858241,10.626365999168039 L 75.02196605868299,7.812470657146049 L 82.80127560506558,8.668241059509144 L 77.44907355534555,14.378226455197359 L 76.40888462820445,11.564331113175369 A 72.56755625750174 72.56755625750174 0 0 1 75.94093358218231,11.735490847243213"/><text text-anchor="middle" pointer-events="none" font-size="8px" fill="#000000" x="49.49339115540998" y="18.544699208817008" font-family="sans-serif">CONNECT…</text></g><g class="relationship" transform="translate(14.237865976752277 117.48515932539534) rotate(407.6075243159835)"><path class="outline" fill="#A5ABB6" stroke="none" d="M 23.249011035194496,-9.205079352477338 L 23.59847521479359,-8.268129627477578 A 80.31148624895346 80.31148624895346 0 0 1 23.908410193834293,-8.383003425626356 L 23.562805175527266,-9.321383503910738 A 81.31148624895346 81.31148624895346 0 0 0 23.249011035194496,-9.205079352477338 Z M 76.45590488752161,-10.460231058167992 L 76.15101017753625,-9.507844993684188 A 80.31148624895346 80.31148624895346 0 0 1 76.46560235517128,-9.406417963238942 L 75.53916677374811,-6.553048531589213 L 83.27787029259117,-7.720296511859818 L 77.70084979706884,-13.210910538771916 L 76.77441421564566,-10.357541107122186 A 81.31148624895346 81.31148624895346 0 0 0 76.45590488752161,-10.460231058167992"/><text text-anchor="middle" pointer-events="none" font-size="8px" fill="#000000" x="49.92490442238567" y="-10.813065772281078" font-family="sans-serif">CONNECT…</text></g><g class="relationship" transform="translate(14.237865976752277 117.48515932539534) rotate(407.6075243159835)"><path class="outline" fill="#A5ABB6" stroke="none" d="M 23.755247544689013,-7.806293236264361 L 24.048377823992112,-6.850220728890738 A 94.21096009198266 94.21096009198266 0 0 1 26.08484881889546,-7.449583751098928 L 25.81333461263646,-8.41201818304718 A 95.21096009198266 95.21096009198266 0 0 0 23.755247544689013,-7.806293236264361 Z M 74.19385956026173,-9.28475598223072 L 73.9572334757298,-8.313155191721023 A 94.21096009198266 94.21096009198266 0 0 1 76.01399636164149,-7.787630143213077 L 75.23862372552678,-4.88956229114948 L 82.905383455809,-6.461438634289329 L 77.04782654312778,-11.651720612631205 L 76.27245390701307,-8.75365276056761 A 95.21096009198266 95.21096009198266 0 0 0 74.19385956026173,-9.28475598223072"/><text text-anchor="middle" pointer-events="none" font-size="8px" fill="#000000" x="49.956246814555456" y="-8.47326595550335" font-family="sans-serif">CONNEC…</text></g><g class="relationship" transform="translate(14.237865976752277 117.48515932539534) rotate(407.6075243159835)"><path class="outline" fill="#A5ABB6" stroke="none" d="M 24.177409740333825,-6.379879171897452 L 24.413168675843256,-5.40806760357391 A 115.58965574068537 115.58965574068537 0 0 1 25.976293661074653,-5.775800031125698 L 25.7540577780842,-6.750792960490557 A 116.58965574068537 116.58965574068537 0 0 0 24.177409740333825,-6.379879171897452 Z M 74.26939997935622,-7.45399374663738 L 74.07551539357046,-6.47296940066289 A 115.58965574068537 115.58965574068537 0 0 1 75.64864161314547,-6.150695053229827 L 75.02615912739995,-3.2159862848952114 L 82.60004248688384,-5.187354047879371 L 76.47861826080617,-10.06364007767598 L 75.85613577506065,-7.128931309341365 A 116.58965574068537 116.58965574068537 0 0 0 74.26939997935622,-7.45399374663738"/><text text-anchor="middle" pointer-events="none" font-size="8px" fill="#000000" x="49.98198966285499" y="-6.15416613727281" font-family="sans-serif">CONNEC…</text></g><g class="relationship" transform="translate(14.237865976752277 117.48515932539534) rotate(290.3379611095603)"><path class="outline" fill="#A5ABB6" stroke="none" d="M 23.71927013578604,7.914936779634347 L 24.016773189641242,6.960215913125802 A 91.53112297877792 91.53112297877792 0 0 0 25.701945408337046,7.467615235853586 L 25.422853274875408,8.42787956458804 A 92.53112297877792 92.53112297877792 0 0 1 23.71927013578604,7.914936779634347 Z M 73.77883432217904,9.319576087305194 L 73.53533492653544,8.349675038578468 A 91.53112297877792 91.53112297877792 0 0 0 75.23806825563182,7.904749551161891 L 74.45176172918714,5.009629165673492 L 82.12440024284554,6.552554387039028 L 76.28647695755807,11.764910065146424 L 75.50017043111339,8.869789679658023 A 92.53112297877792 92.53112297877792 0 0 1 73.77883432217904,9.319576087305194"/><text text-anchor="middle" pointer-events="none" font-size="8px" fill="#000000" x="49.550773076540914" y="14.589022572209231" font-family="sans-serif">CONNEC…</text></g><g class="relationship" transform="translate(14.237865976752277 117.48515932539534) rotate(407.6075243159835)"><path class="outline" fill="#A5ABB6" stroke="none" d="M 24.514003510275753,-4.930885508525639 L 24.691556706530054,-3.946774304189523 A 151.91450636577653 151.91450636577653 0 0 1 25.87878994320802,-4.15611408346021 L 25.70905188762119,-5.14160329825944 A 152.91450636577653 152.91450636577653 0 0 0 24.514003510275753,-4.930885508525639 Z M 74.32661142333532,-5.671907973594159 L 74.17840999305402,-4.682950777319917 A 151.91450636577653 151.91450636577653 0 0 1 75.36992703385526,-4.499557639666962 L 74.90179272466146,-1.5363076892652692 L 82.36219930299151,-3.9011192432817015 L 75.99410611278033,-8.450557573535887 L 75.52597180358653,-5.487307623134194 A 152.91450636577653 152.91450636577653 0 0 0 74.32661142333532,-5.671907973594159"/><text text-anchor="middle" pointer-events="none" font-size="8px" fill="#000000" x="50.0020734306014" y="-3.851446719677938" font-family="sans-serif">CONNEC…</text></g><g class="relationship" transform="translate(14.237865976752277 117.48515932539534) rotate(407.6075243159835)"><path class="outline" fill="#A5ABB6" stroke="none" d="M 24.763837585503556,-3.464440508769274 L 24.88255664816086,-2.4715126240959857 A 225.59061385378573 225.59061385378573 0 0 1 25.796935699265184,-2.5789479491143084 L 25.68226990387589,-3.57235207401402 A 226.59061385378573 226.59061385378573 0 0 0 24.763837585503556,-3.464440508769274 Z M 74.36245920370322,-3.9271992533222146 L 74.26228737421526,-2.9322291007160857 A 225.59061385378573 225.59061385378573 0 0 1 75.17813544519686,-2.8381349508473663 L 74.86544061927735,0.14552420291721324 L 82.1921226083008,-2.6057902159959343 L 75.59506187975622,-6.816347155866806 L 75.28236705383671,-3.832688002102226 A 226.59061385378573 226.59061385378573 0 0 0 74.36245920370322,-3.9271992533222146"/><text text-anchor="middle" pointer-events="none" font-size="8px" fill="#000000" x="50.01645191444739" y="-1.560909073266373" font-family="sans-serif">CONNEC…</text></g><g class="relationship" transform="translate(14.237865976752277 117.48515932539534) rotate(290.3379611095603)"><path class="outline" fill="#A5ABB6" stroke="none" d="M 24.394753454168672,5.490537670422244 L 24.594779147944713,4.510747018379977 A 133.24679518682464 133.24679518682464 0 0 0 25.517806590674628,4.695790341945482 L 25.324708098723104,5.676969720247982 A 134.24679518682464 134.24679518682464 0 0 1 24.394753454168672,5.490537670422244 Z M 73.90183307610752,6.278307802522008 L 73.73308214804287,5.292649076452321 A 133.24679518682464 133.24679518682464 0 0 0 74.66040735836549,5.1305113389303765 L 74.13327620612469,2.1771856291013223 L 81.6393558733401,4.392759602006681 L 75.36324889468656,9.068278952035783 L 74.83611774244577,6.114953242206728 A 134.24679518682464 134.24679518682464 0 0 1 73.90183307610752,6.278307802522008"/><text text-anchor="middle" pointer-events="none" font-size="8px" fill="#000000" x="49.592031963745654" y="10.693331325620122" font-family="sans-serif">CONNEC…</text></g><g class="relationship" transform="translate(14.237865976752277 117.48515932539534) rotate(290.3379611095603)"><path class="outline" fill="#A5ABB6" stroke="none" d="M 24.82310987284838,3.0105176034192493 L 24.923631880283896,2.015582768356604 A 261.8723062730935 261.8723062730935 0 0 0 25.374659951455705,2.060757529145519 L 25.275860264633582,3.0558648710357375 A 262.8723062730935 262.8723062730935 0 0 1 24.82310987284838,3.0105176034192493 Z M 73.96575951023947,3.3584825528425313 L 73.87933656963493,2.362224014441381 A 261.8723062730935 261.8723062730935 0 0 0 74.33089131589989,2.322658990457866 L 74.06644949867463,-0.6656633692119533 L 81.34771712466701,2.203681810210549 L 74.68348040553359,6.307088803350959 L 74.41903858830833,3.3187664436811395 A 262.8723062730935 262.8723062730935 0 0 1 73.96575951023947,3.3584825528425313"/><text text-anchor="middle" pointer-events="none" font-size="8px" fill="#000000" x="49.61689575009669" y="6.836941779595065" font-family="sans-serif">CONNEC…</text></g><g class="relationship" transform="translate(14.237865976752277 117.48515932539534) rotate(407.6075243159835)"><path class="outline" fill="#A5ABB6" stroke="none" d="M 24.92602775597432,-1.9857341988287085 L 24.985492515818752,-0.9875037933928472 A 448.65178003149924 448.65178003149924 0 0 1 25.73447535069845,-1.03149238437328 L 25.676679998773956,-2.0298208359841965 A 449.65178003149924 449.65178003149924 0 0 0 24.92602775597432,-1.9857341988287085 Z M 74.37467049784112,-2.2075660752808517 L 74.3241642869526,-1.2088423283609586 A 448.65178003149924 448.65178003149924 0 0 1 75.07344827404876,-1.1703223366404591 L 74.91691940390874,1.8255913324783106 L 82.0900016470159,-1.3044072511668647 L 75.28215343423545,-5.164873895465485 L 75.12562456409543,-2.1689602263467154 A 449.65178003149924 449.65178003149924 0 0 0 74.37467049784112,-2.2075660752808517"/><text text-anchor="middle" pointer-events="none" font-size="8px" fill="#000000" x="50.02509216771414" y="0.7215562562033142" font-family="sans-serif">CONNEC…</text></g><g class="relationship" transform="translate(14.237865976752277 117.48515932539534) rotate(407.6075243159835)"><path class="outline" fill="#A5ABB6" stroke="none" d="M 25 0.5 L 25.69399006983614 0.5 L 25.69399006983614 -0.5 L 25 -0.5 Z M 74.36195881983613 0.5 L 75.05594888967228 0.5 L 75.05594888967228 3.5 L 82.05594888967228 0 L 75.05594888967228 -3.5 L 75.05594888967228 -0.5 L 74.36195881983613 -0.5 Z"/><text text-anchor="middle" pointer-events="none" font-size="8px" fill="#000000" x="50.02797444483614" y="3" font-family="sans-serif">CONNEC…</text></g><g class="relationship" transform="translate(14.237865976752277 117.48515932539534) rotate(407.6075243159835)"><path class="outline" fill="#A5ABB6" stroke="none" d="M 24.92602775597432,1.9857341988287085 L 24.985492515818752,0.9875037933928472 A 448.65178003149924 448.65178003149924 0 0 0 25.734475350698418,1.03149238437328 L 25.676679998773928,2.0298208359841965 A 449.65178003149924 449.65178003149924 0 0 1 24.92602775597432,1.9857341988287085 Z M 74.3746704978413,2.2075660752808517 L 74.32416428695277,1.2088423283609586 A 448.65178003149924 448.65178003149924 0 0 0 75.07344827404876,1.1703223366404591 L 74.91691940390874,-1.8255913324783106 L 82.0900016470159,1.3044072511668647 L 75.28215343423545,5.164873895465485 L 75.12562456409543,2.1689602263467154 A 449.65178003149924 449.65178003149924 0 0 1 74.3746704978413,2.2075660752808517"/><text text-anchor="middle" pointer-events="none" font-size="8px" fill="#000000" x="50.02509216771421" y="5.278443743796686" font-family="sans-serif">CONNEC…</text></g><g class="relationship" transform="translate(14.237865976752277 117.48515932539534) rotate(290.3379611095603)"><path class="outline" fill="#A5ABB6" stroke="none" d="M 25 0.5 L 25.29121735262442 0.5 L 25.29121735262442 -0.5 L 25 -0.5 Z M 73.95918610262441 0.5 L 74.25040345524884 0.5 L 74.25040345524884 3.5 L 81.25040345524884 0 L 74.25040345524884 -3.5 L 74.25040345524884 -0.5 L 73.95918610262441 -0.5 Z"/><text text-anchor="middle" pointer-events="none" font-size="8px" fill="#000000" x="49.62520172762442" y="3" font-family="sans-serif">CONNEC…</text></g><g class="relationship" transform="translate(14.237865976752277 117.48515932539534) rotate(290.3379611095603)"><path class="outline" fill="#A5ABB6" stroke="none" d="M 24.82310987284838,-3.0105176034192493 L 24.923631880283896,-2.015582768356604 A 261.8723062730935 261.8723062730935 0 0 1 25.37465995145567,-2.060757529145519 L 25.275860264633547,-3.0558648710357375 A 262.8723062730935 262.8723062730935 0 0 0 24.82310987284838,-3.0105176034192493 Z M 73.96575951023942,-3.3584825528425313 L 73.87933656963489,-2.362224014441381 A 261.8723062730935 261.8723062730935 0 0 1 74.33089131589989,-2.322658990457866 L 74.06644949867463,0.6656633692119533 L 81.34771712466701,-2.203681810210549 L 74.68348040553359,-6.307088803350959 L 74.41903858830833,-3.3187664436811395 A 262.8723062730935 262.8723062730935 0 0 0 73.96575951023942,-3.3584825528425313"/><text text-anchor="middle" pointer-events="none" font-size="8px" fill="#000000" x="49.61689575009665" y="-0.8369417795950653" font-family="sans-serif">CONNEC…</text></g><g class="relationship" transform="translate(14.237865976752277 117.48515932539534) rotate(290.3379611095603)"><path class="outline" fill="#A5ABB6" stroke="none" d="M 24.394753454168672,-5.490537670422244 L 24.594779147944713,-4.510747018379977 A 133.24679518682464 133.24679518682464 0 0 1 25.5178065906746,-4.695790341945482 L 25.324708098723075,-5.676969720247953 A 134.24679518682464 134.24679518682464 0 0 0 24.394753454168672,-5.490537670422244 Z M 73.90183307610754,-6.278307802522008 L 73.73308214804288,-5.292649076452321 A 133.24679518682464 133.24679518682464 0 0 1 74.66040735836549,-5.1305113389303765 L 74.13327620612469,-2.1771856291013223 L 81.6393558733401,-4.392759602006681 L 75.36324889468656,-9.068278952035783 L 74.83611774244577,-6.114953242206728 A 134.24679518682464 134.24679518682464 0 0 0 73.90183307610754,-6.278307802522008"/><text text-anchor="middle" pointer-events="none" font-size="8px" fill="#000000" x="49.59203196374564" y="-4.693331325620122" font-family="sans-serif">CONNEC…</text></g><g class="relationship" transform="translate(14.237865976752277 117.48515932539534) rotate(407.6075243159835)"><path class="outline" fill="#A5ABB6" stroke="none" d="M 24.763837585503556,3.464440508769274 L 24.88255664816086,2.4715126240959857 A 225.59061385378573 225.59061385378573 0 0 0 25.796935699265244,2.578947949114337 L 25.68226990387595,3.5723520740140486 A 226.59061385378573 226.59061385378573 0 0 1 24.763837585503556,3.464440508769274 Z M 74.36245920370325,3.9271992533222146 L 74.26228737421528,2.9322291007160857 A 225.59061385378573 225.59061385378573 0 0 0 75.17813544519686,2.8381349508473663 L 74.86544061927735,-0.14552420291721324 L 82.1921226083008,2.6057902159959343 L 75.59506187975622,6.816347155866806 L 75.28236705383671,3.832688002102226 A 226.59061385378573 226.59061385378573 0 0 1 74.36245920370325,3.9271992533222146"/><text text-anchor="middle" pointer-events="none" font-size="8px" fill="#000000" x="50.01645191444743" y="7.560909073266373" font-family="sans-serif">CONNEC…</text></g><g class="relationship" transform="translate(14.237865976752277 117.48515932539534) rotate(407.6075243159835)"><path class="outline" fill="#A5ABB6" stroke="none" d="M 24.514003510275753,4.930885508525639 L 24.691556706530054,3.946774304189523 A 151.91450636577653 151.91450636577653 0 0 0 25.878789943208123,4.15611408346021 L 25.70905188762129,5.14160329825944 A 152.91450636577653 152.91450636577653 0 0 1 24.514003510275753,4.930885508525639 Z M 74.32661142333536,5.671907973594131 L 74.17840999305406,4.682950777319917 A 151.91450636577653 151.91450636577653 0 0 0 75.36992703385526,4.499557639666962 L 74.90179272466146,1.5363076892652692 L 82.36219930299151,3.9011192432817015 L 75.99410611278033,8.450557573535887 L 75.52597180358653,5.487307623134194 A 152.91450636577653 152.91450636577653 0 0 1 74.32661142333536,5.671907973594131"/><text text-anchor="middle" pointer-events="none" font-size="8px" fill="#000000" x="50.00207343060147" y="9.851446719677938" font-family="sans-serif">CONNEC…</text></g><g class="relationship" transform="translate(14.237865976752277 117.48515932539534) rotate(407.6075243159835)"><path class="outline" fill="#A5ABB6" stroke="none" d="M 24.177409740333825,6.379879171897452 L 24.413168675843256,5.40806760357391 A 115.58965574068537 115.58965574068537 0 0 0 25.976293661074678,5.775800031125712 L 25.754057778084224,6.750792960490571 A 116.58965574068537 116.58965574068537 0 0 1 24.177409740333825,6.379879171897452 Z M 74.26939997935628,7.453993746637366 L 74.07551539357053,6.472969400662876 A 115.58965574068537 115.58965574068537 0 0 0 75.64864161314547,6.150695053229827 L 75.02615912739995,3.2159862848952114 L 82.60004248688384,5.187354047879371 L 76.47861826080617,10.06364007767598 L 75.85613577506065,7.128931309341365 A 116.58965574068537 116.58965574068537 0 0 1 74.26939997935628,7.453993746637366"/><text text-anchor="middle" pointer-events="none" font-size="8px" fill="#000000" x="49.981989662855035" y="12.15416613727281" font-family="sans-serif">CONNEC…</text></g><g class="relationship" transform="translate(14.237865976752277 117.48515932539534) rotate(290.3379611095603)"><path class="outline" fill="#A5ABB6" stroke="none" d="M 23.71927013578604,-7.914936779634347 L 24.016773189641242,-6.960215913125802 A 91.53112297877792 91.53112297877792 0 0 1 25.701945408337014,-7.467615235853572 L 25.422853274875376,-8.427879564588025 A 92.53112297877792 92.53112297877792 0 0 0 23.71927013578604,-7.914936779634347 Z M 73.778834322179,-9.319576087305194 L 73.53533492653541,-8.349675038578468 A 91.53112297877792 91.53112297877792 0 0 1 75.23806825563182,-7.904749551161891 L 74.45176172918714,-5.009629165673492 L 82.12440024284554,-6.552554387039028 L 76.28647695755807,-11.764910065146424 L 75.50017043111339,-8.869789679658023 A 92.53112297877792 92.53112297877792 0 0 0 73.778834322179,-9.319576087305194"/><text text-anchor="middle" pointer-events="none" font-size="8px" fill="#000000" x="49.550773076540885" y="-8.589022572209231" font-family="sans-serif">CONNEC…</text></g><g class="relationship" transform="translate(14.237865976752277 117.48515932539534) rotate(407.6075243159835)"><path class="outline" fill="#A5ABB6" stroke="none" d="M 23.755247544689013,7.806293236264361 L 24.048377823992112,6.850220728890738 A 94.21096009198266 94.21096009198266 0 0 0 26.08484881889545,7.449583751098928 L 25.81333461263645,8.41201818304718 A 95.21096009198266 95.21096009198266 0 0 1 23.755247544689013,7.806293236264361 Z M 74.19385956026177,9.284755982230706 L 73.95723347572982,8.313155191721009 A 94.21096009198266 94.21096009198266 0 0 0 76.01399636164149,7.787630143213077 L 75.23862372552678,4.88956229114948 L 82.905383455809,6.461438634289329 L 77.04782654312778,11.651720612631205 L 76.27245390701307,8.75365276056761 A 95.21096009198266 95.21096009198266 0 0 1 74.19385956026177,9.284755982230706"/><text text-anchor="middle" pointer-events="none" font-size="8px" fill="#000000" x="49.95624681455547" y="14.47326595550335" font-family="sans-serif">CONNEC…</text></g><g class="relationship" transform="translate(14.237865976752277 117.48515932539534) rotate(407.6075243159835)"><path class="outline" fill="#A5ABB6" stroke="none" d="M 23.249011035194496,9.205079352477338 L 23.59847521479359,8.268129627477578 A 80.31148624895346 80.31148624895346 0 0 0 23.908410193834293,8.383003425626356 L 23.562805175527266,9.321383503910738 A 81.31148624895346 81.31148624895346 0 0 1 23.249011035194496,9.205079352477338 Z M 76.45590488752163,10.460231058167977 L 76.15101017753628,9.507844993684188 A 80.31148624895346 80.31148624895346 0 0 0 76.46560235517128,9.406417963238942 L 75.53916677374811,6.553048531589213 L 83.27787029259117,7.720296511859818 L 77.70084979706884,13.210910538771916 L 76.77441421564566,10.357541107122186 A 81.31148624895346 81.31148624895346 0 0 1 76.45590488752163,10.460231058167977"/><text text-anchor="middle" pointer-events="none" font-size="8px" fill="#000000" x="49.92490442238568" y="16.813065772281078" font-family="sans-serif">CONNECT…</text></g><g class="relationship" transform="translate(14.237865976752277 117.48515932539534) rotate(407.6075243159835)"><path class="outline" fill="#A5ABB6" stroke="none" d="M 22.66049187860102,10.571286951921099 L 23.065053138670955,9.656776051575658 A 70.69240817955121 70.69240817955121 0 0 0 24.065142030055938,10.090008237811944 L 23.674727817980813,11.010647549925963 A 71.69240817955121 71.69240817955121 0 0 1 22.66049187860102,10.571286951921099 Z M 76.32649914009416,12.324849216183637 L 75.98250126225525,11.38587879064174 A 70.69240817955121 70.69240817955121 0 0 0 77.00295849654059,11.003079952010438 L 75.92765934010153,8.202413651973702 L 83.71706305603281,8.96082630365877 L 78.436690705126,14.737301685392753 L 77.36139154868694,11.936635385356016 A 71.69240817955121 71.69240817955121 0 0 1 76.32649914009416,12.324849216183637"/><text text-anchor="middle" pointer-events="none" font-size="8px" fill="#000000" x="49.888035453006395" y="19.178039790128295" font-family="sans-serif">CONNECT…</text></g><g class="relationship" transform="translate(14.237865976752277 117.48515932539534) rotate(407.6075243159835)"><path class="outline" fill="#A5ABB6" stroke="none" d="M 21.991772955509383,11.900080767512723 L 22.449999477236794,11.0112453188578 A 63.7555052069 63.7555052069 0 0 0 23.226936718483522,11.405089673315317 L 22.780896395245563,12.300102539170204 A 64.7555052069 64.7555052069 0 0 1 21.991772955509383,11.900080767512723 Z M 77.22214503389733,13.841666487210816 L 76.82746535248539,12.922847707972736 A 63.7555052069 63.7555052069 0 0 0 77.62544409733117,12.573598835177794 L 76.40385635472381,9.83357631937405 L 84.22242792464112,10.17989785506126 L 79.25422775414097,16.226962189582785 L 78.03264001153362,13.486939673779041 A 64.7555052069 64.7555052069 0 0 1 77.22214503389733,13.841666487210816"/><text text-anchor="middle" pointer-events="none" font-size="8px" fill="#000000" x="49.84572641817282" y="21.572852847038803" font-family="sans-serif">CONNECTI…</text></g><g class="relationship" transform="translate(14.237865976752277 117.48515932539534) rotate(290.3379611095603)"><path class="outline" fill="#A5ABB6" stroke="none" d="M 22.803502786540566,-10.25915496833129 L 23.195469396400643,-9.339175524672465 A 71.56755625750174 71.56755625750174 0 0 1 23.648210083739578,-9.530236495950888 L 23.26256953433223,-10.452885598618195 A 72.56755625750174 72.56755625750174 0 0 0 22.803502786540566,-10.25915496833129 Z M 75.94093358218232,-11.735490847243199 L 75.60065242821959,-10.79516710711016 A 71.56755625750174 71.56755625750174 0 0 1 76.0621549858241,-10.626365999168039 L 75.02196605868299,-7.812470657146049 L 82.80127560506558,-8.668241059509144 L 77.44907355534555,-14.378226455197359 L 76.40888462820445,-11.564331113175369 A 72.56755625750174 72.56755625750174 0 0 0 75.94093358218232,-11.735490847243199"/><text text-anchor="middle" pointer-events="none" font-size="8px" fill="#000000" x="49.49339115540999" y="-12.544699208817008" font-family="sans-serif">CONNECT…</text></g><g class="relationship" transform="translate(14.237865976752277 117.48515932539534) rotate(290.3379611095603)"><path class="outline" fill="#A5ABB6" stroke="none" d="M 21.6567284317686,-12.499444532963278 L 22.139187846575794,-11.623526207396388 A 60.33331106965895 60.33331106965895 0 0 1 22.933756057347324,-12.053455568706902 L 22.464466286252446,-12.936499797919524 A 61.33331106965895 61.33331106965895 0 0 0 21.6567284317686,-12.499444532963278 Z M 76.72650012274775,-14.567142409889229 L 76.31108249927743,-13.657511606700233 A 60.33331106965895 60.33331106965895 0 0 1 77.13003341584971,-13.276070531918082 L 75.84305921411845,-10.566144812626462 L 83.66768912781869,-10.724785014427095 L 78.84599901815804,-16.889304824306908 L 77.55902481642678,-14.179379105015288 A 61.33331106965895 61.33331106965895 0 0 0 76.72650012274775,-14.567142409889229"/><text text-anchor="middle" pointer-events="none" font-size="8px" fill="#000000" x="49.420268918984796" y="-16.58233443618149" font-family="sans-serif">CONNECTI…</text></g><g class="relationship" transform="translate(14.237865976752277 117.48515932539534) rotate(407.6075243159835)"><path class="outline" fill="#A5ABB6" stroke="none" d="M 21.245220988662066,13.18675794662634 L 21.755491021722964,12.32674370641864 A 58.61400809299702 58.61400809299702 0 0 0 23.390961146154467,13.261907928560433 L 22.908593489635308,14.13787678870571 A 59.61400809299702 59.61400809299702 0 0 1 21.245220988662066,13.18675794662634 Z M 77.06719906809381,15.848659900229826 L 76.64107881529522,14.943993370421822 A 58.61400809299702 58.61400809299702 0 0 0 78.33231013225829,14.113914288161945 L 76.96738825791152,11.442400058941047 L 84.7933303128315,11.374348952889653 L 80.15220596472062,17.675933260456475 L 78.78728409037386,15.004419031235576 A 59.61400809299702 59.61400809299702 0 0 1 77.06719906809381,15.848659900229826"/><text text-anchor="middle" pointer-events="none" font-size="8px" fill="#000000" x="49.798077506435256" y="24.00239945999958" font-family="sans-serif">CONNECTI…</text></g><g class="relationship" transform="translate(14.237865976752277 117.48515932539534) rotate(407.6075243159835)"><path class="outline" fill="#A5ABB6" stroke="none" d="M 20.42347816666382,14.426764695378036 L 20.983985768904716,13.598615416666664 A 54.736950895231345 54.736950895231345 0 0 0 21.857470860982794,14.177692712695404 L 21.312921127746147,15.016421267134739 A 55.736950895231345 55.736950895231345 0 0 1 20.42347816666382,14.426764695378036 Z M 78.69606155023524,17.011457441795194 L 78.2110763071085,16.1369351070608 A 54.736950895231345 54.736950895231345 0 0 0 79.1226691945755,15.619919509251458 L 77.61775126200943,13.02468888053248 L 85.42902698368079,12.54098277138382 L 81.1292264379969,19.080227014210095 L 79.62430850543085,16.48499638549112 A 55.736950895231345 55.736950895231345 0 0 1 78.69606155023524,17.011457441795194"/><text text-anchor="middle" pointer-events="none" font-size="8px" fill="#000000" x="49.745202729107724" y="26.471846584341947" font-family="sans-serif">CONNECTION</text></g><g class="relationship" transform="translate(14.237865976752277 117.48515932539534) rotate(407.6075243159835)"><path class="outline" fill="#A5ABB6" stroke="none" d="M 19.529452792776517,15.615712395363635 L 20.13821422178524,14.822359055072399 A 51.7875265171104 51.7875265171104 0 0 0 22.020633311965923,16.200551624049574 L 21.44822077267602,17.020517406789125 A 52.7875265171104 52.7875265171104 0 0 1 19.529452792776517,15.615712395363635 Z M 78.52309798606285,19.18032678849066 L 78.01429151436372,18.319445859234413 A 51.7875265171104 51.7875265171104 0 0 0 79.99548419100807,17.087458860004546 L 78.35429625094615,14.576183856068244 L 86.12865719020311,13.676566167182756 L 82.18373477775732,20.435825531919615 L 80.5425468376954,17.924550527983314 A 52.7875265171104 52.7875265171104 0 0 1 78.52309798606285,19.18032678849066"/><text text-anchor="middle" pointer-events="none" font-size="8px" fill="#000000" x="49.68723007772698" y="28.98668090011853" font-family="sans-serif">CONNECTION</text></g><g class="relationship" transform="translate(14.237865976752277 117.48515932539534) rotate(407.6075243159835)"><path class="outline" fill="#A5ABB6" stroke="none" d="M 18.56630899188382,16.749393135809257 L 19.221169725829103,15.993643561454997 A 49.54227893292803 49.54227893292803 0 0 0 22.155645941596944,18.347402715422042 L 21.560016964425316,19.150662400426512 A 50.54227893292803 50.54227893292803 0 0 1 18.56630899188382,16.749393135809257 Z M 78.36128192907938,21.46830586255718 L 77.833074265643,20.619190638169407 A 49.54227893292803 49.54227893292803 0 0 0 80.94955582697472,18.512326738039608 L 79.17621635277813,16.092560817696032 L 86.89123288680915,14.777828951638181 L 83.31400845923683,21.73868129849771 L 81.54066898504024,19.318915378154134 A 50.54227893292803 50.54227893292803 0 0 1 78.36128192907938,21.46830586255718"/><text text-anchor="middle" pointer-events="none" font-size="8px" fill="#000000" x="49.62430168971868" y="31.552761572437262" font-family="sans-serif">CONNECTION</text></g><g class="relationship" transform="translate(14.237865976752277 117.48515932539534) rotate(290.3379611095603)"><path class="outline" fill="#A5ABB6" stroke="none" d="M 20.290564273975832,-14.613110601225724 L 20.858629020706985,-13.790126735332066 A 53.495544218833196 53.495544218833196 0 0 1 21.528073261172267,-14.244773537322594 L 20.972522533136328,-15.076256182107642 A 54.495544218833196 54.495544218833196 0 0 0 20.290564273975832,-14.613110601225724 Z M 78.2332348971385,-17.109038265208163 L 77.73804444651834,-16.24025381690432 A 53.495544218833196 53.495544218833196 0 0 1 78.4380431494464,-15.834222880211836 L 76.91321626444856,-13.250639521620947 L 84.72054213365811,-12.706890708315349 L 80.47114566277686,-19.279000691666354 L 78.94631877777903,-16.695417333075465 A 54.495544218833196 54.495544218833196 0 0 0 78.2332348971385,-17.109038265208163"/><text text-anchor="middle" pointer-events="none" font-size="8px" fill="#000000" x="49.33190146974973" y="-20.72570845256594" font-family="sans-serif">CONNECTION</text></g><g class="relationship" transform="translate(14.237865976752277 117.48515932539534) rotate(290.3379611095603)"><path class="outline" fill="#A5ABB6" stroke="none" d="M 18.71885000674371,-16.57874103860215 L 19.366765402124248,-15.817028730424791 A 49.205184232078764 49.205184232078764 0 0 1 21.78582422347298,-17.746936715153133 L 21.187071510015123,-18.547870662571306 A 50.205184232078764 50.205184232078764 0 0 0 18.71885000674371,-16.57874103860215 Z M 77.94542336454455,-20.854885871465967 L 77.4136483701036,-20.008000191289874 A 49.205184232078764 49.205184232078764 0 0 1 79.98135557607988,-18.280785637437123 L 78.22947957606746,-15.845435461265225 L 85.95581865381638,-14.598966666770133 L 82.3171902427631,-21.527919205666322 L 80.56531424275069,-19.092569029494424 A 50.205184232078764 50.205184232078764 0 0 0 77.94542336454455,-20.854885871465967"/><text text-anchor="middle" pointer-events="none" font-size="8px" fill="#000000" x="49.228898382723926" y="-25.00100986998978" font-family="sans-serif">CONNECTION</text></g><g class="relationship" transform="translate(14.237865976752277 117.48515932539534) rotate(290.3379611095603)"><path class="outline" fill="#A5ABB6" stroke="none" d="M 16.957507614068078,-18.376423360350163 L 17.67871006141189,-17.683699006840566 A 46.54567085961207 46.54567085961207 0 0 1 21.95387705071575,-21.61190824453162 L 21.324523467301695,-22.389027326168332 A 47.54567085961207 47.54567085961207 0 0 0 16.957507614068078,-18.376423360350163 Z M 77.69627040332952,-24.950588446961234 L 77.13999034404083,-24.119593563921775 A 46.54567085961207 46.54567085961207 0 0 1 81.7538026997922,-20.595304111077322 L 79.78758927943916,-18.329469874946277 L 87.36845148749016,-16.38511183627538 L 84.37542059359627,-23.616416425918715 L 82.40920717324323,-21.35058218978767 A 47.54567085961207 47.54567085961207 0 0 0 77.69627040332952,-24.950588446961234"/><text text-anchor="middle" pointer-events="none" font-size="8px" fill="#000000" x="49.11198603697531" y="-29.437554303188563" font-family="sans-serif">CONNECTION</text></g><g class="relationship" transform="translate(14.237865976752277 117.48515932539534) rotate(407.6075243159835)"><path class="outline" fill="#A5ABB6" stroke="none" d="M 17.5374555120548,17.82379460616338 L 18.236097874946534,17.108323538423353 A 47.847606686573165 47.847606686573165 0 0 0 22.259686521219507,20.620640349331516 L 21.64513590136164,21.409517738811225 A 48.847606686573165 48.847606686573165 0 0 1 17.5374555120548,17.82379460616338 Z M 78.21273536778304,23.87813425528804 L 77.66924359204549,23.03871976309383 A 47.847606686573165 47.847606686573165 0 0 0 81.9835089477146,19.890267855333747 L 80.08253323472951,17.569429356290605 L 87.71562806431278,15.841464274875728 L 84.51814323169472,22.98471918739127 L 82.61716751870964,20.66388068834813 A 48.847606686573165 48.847606686573165 0 0 1 78.21273536778304,23.87813425528804"/><text text-anchor="middle" pointer-events="none" font-size="8px" fill="#000000" x="49.55657401843854" y="34.17637960249503" font-family="sans-serif">CONNECTION</text></g><g class="relationship" transform="translate(14.237865976752277 117.48515932539534) rotate(290.3379611095603)"><path class="outline" fill="#A5ABB6" stroke="none" d="M 15.024380075409052,-19.987946451540527 L 15.8115635560181,-19.37122757891198 A 45.016186334586926 45.016186334586926 0 0 1 22.025679505246586,-25.851247262546572 L 21.376537837043447,-26.61191479478549 A 46.016186334586926 46.016186334586926 0 0 0 15.024380075409052,-19.987946451540527 Z M 77.49036783324726,-29.40842679192788 L 76.9200727235263,-28.586986905004707 A 45.016186334586926 45.016186334586926 0 0 1 83.74767923563792,-22.756919885962915 L 81.58178380446206,-20.681131606486513 L 88.95216779294549,-18.049128593132018 L 86.63553981053904,-25.524637591931455 L 84.46964437936319,-23.448849312455053 A 46.016186334586926 46.016186334586926 0 0 0 77.49036783324726,-29.40842679192788"/><text text-anchor="middle" pointer-events="none" font-size="8px" fill="#000000" x="48.98201004052826" y="-34.0686637503119" font-family="sans-serif">CONNECTION</text></g><g class="relationship" transform="translate(14.237865976752277 117.48515932539534) rotate(407.6075243159835)"><path class="outline" fill="#A5ABB6" stroke="none" d="M 16.44653366033987,18.835114296422724 L 17.186485024722753,18.16245392272147 A 46.59492434776456 46.59492434776456 0 0 0 22.331180029413535,23.022732885686644 L 21.701641871548446,23.799702452524258 A 47.59492434776456 47.59492434776456 0 0 1 16.44653366033987,18.835114296422724 Z M 78.07858501181164,26.412456816817944 L 77.52360730138098,25.58059159881377 A 46.59492434776456 46.59492434776456 0 0 0 83.09577781863011,21.2169791027468 L 81.07208218722151,19.002333309077358 L 88.60056727576024,16.864130261738318 L 85.79403866050824,24.169840160972726 L 83.77034302909964,21.95519436730328 A 47.59492434776456 47.59492434776456 0 0 1 78.07858501181164,26.412456816817944"/><text text-anchor="middle" pointer-events="none" font-size="8px" fill="#000000" x="49.48421800315821" y="36.86432509821803" font-family="sans-serif">CONNECTION</text></g><g class="relationship" transform="translate(14.237865976752277 117.48515932539534) rotate(407.6075243159835)"><path class="outline" fill="#A5ABB6" stroke="none" d="M 15.297404415496423,19.779772954934305 L 16.076045953546178,19.152303947553452 A 45.70577753244408 45.70577753244408 0 0 0 22.369629833911475,25.55654416192555 L 21.728686071069628,26.32413200241949 A 46.70577753244408 46.70577753244408 0 0 1 15.297404415496423,19.779772954934305 Z M 77.95910830282762,29.07413881565794 L 77.39612344693064,28.247671603948568 A 45.70577753244408 45.70577753244408 0 0 0 84.28459044892641,22.48811318815056 L 82.14349608356291,20.386752933789438 L 89.54461343666294,17.842453044695894 L 87.13938293607775,25.289926860632058 L 84.99828857071425,23.188566606270935 A 46.70577753244408 46.70577753244408 0 0 1 77.95910830282762,29.07413881565794"/><text text-anchor="middle" pointer-events="none" font-size="8px" fill="#000000" x="49.407419233921786" y="39.623964058699435" font-family="sans-serif">CONNECTION</text></g><g class="relationship" transform="translate(14.237865976752277 117.48515932539534) rotate(290.3379611095603)"><path class="outline" fill="#A5ABB6" stroke="none" d="M 12.939050610423134,-21.396985051658767 L 13.784240695966929,-20.862519225530967 A 44.32532011843585 44.32532011843585 0 0 1 22.00286330924689,-30.481032296643257 L 21.343089202455648,-31.23249628647099 A 45.32532011843585 45.32532011843585 0 0 0 12.939050610423134,-21.396985051658767 Z M 77.32592523290072,-34.24375144029593 L 76.75056551417984,-33.425850960974984 A 44.32532011843585 44.32532011843585 0 0 1 85.95352168921015,-24.744425444439912 L 83.60457351706927,-22.878295094063485 L 90.69931720211196,-19.574568101173945 L 89.08545258539797,-27.232599244941813 L 86.7365044132571,-25.366468894565386 A 45.32532011843585 45.32532011843585 0 0 0 77.32592523290072,-34.24375144029593"/><text text-anchor="middle" pointer-events="none" font-size="8px" fill="#000000" x="48.839937558102775" y="-38.932765547092636" font-family="sans-serif">CONNECTION</text></g><g class="relationship" transform="translate(14.237865976752277 117.48515932539534) rotate(407.6075243159835)"><path class="outline" fill="#A5ABB6" stroke="none" d="M 14.094134763254786,20.65442725604399 L 14.908710715305123,20.074370346472794 A 45.122559856262455 45.122559856262455 0 0 0 22.375430289451725,28.22560634067893 L 21.726330755360205,28.986309827487148 A 46.122559856262455 46.122559856262455 0 0 1 14.094134763254786,20.65442725604399 Z M 77.85389810460191,31.86654459194687 L 77.28607543133634,31.04339368735795 A 45.122559856262455 45.122559856262455 0 0 0 85.54795208664456,23.699284240688527 L 83.29518832554068,21.718108974171926 L 90.54615500203394,18.77303134253226 L 88.55163710144971,26.340851262710665 L 86.29887334034584,24.359675996194063 A 46.122559856262455 46.122559856262455 0 0 1 77.85389810460191,31.86654459194687"/><text text-anchor="middle" pointer-events="none" font-size="8px" fill="#000000" x="49.326378105507295" y="42.46332659908785" font-family="sans-serif">CONNECTION</text></g><g class="relationship" transform="translate(14.237865976752277 117.48515932539534) rotate(290.3379611095603)"><path class="outline" fill="#A5ABB6" stroke="none" d="M 10.722644294488074,-22.589265134879494 L 11.617278930593223,-22.142466670377868 A 44.2977292278373 44.2977292278373 0 0 1 21.892588348288182,-35.525214673092826 L 21.22991389607521,-36.274122257768155 A 45.2977292278373 45.2977292278373 0 0 0 10.722644294488074,-22.589265134879494 Z M 77.1971220899966,-39.478527567110284 L 76.62425539813988,-38.658879012325286 A 44.2977292278373 44.2977292278373 0 0 1 88.35986972434881,-26.53636755141004 L 85.84649204748114,-24.898401540339222 L 92.60068669632534,-20.944813973897276 L 91.71103996017239,-28.720322232837802 L 89.19766228330471,-27.082356221766982 A 45.2977292278373 45.2977292278373 0 0 0 77.1971220899966,-39.478527567110284"/><text text-anchor="middle" pointer-events="none" font-size="8px" fill="#000000" x="48.68685930463363" y="-44.074791902558914" font-family="sans-serif">CONNECTION</text></g><g class="relationship" transform="translate(14.237865976752277 117.48515932539534) rotate(290.3379611095603)"><path class="outline" fill="#A5ABB6" stroke="none" d="M 8.397614054720682,-23.552708510656636 L 9.332630297406096,-23.198103623614102 A 44.82802499862013 44.82802499862013 0 0 1 21.70522850512079,-41.01836683225508 L 21.046213674679066,-41.77049677665158 A 45.82802499862013 45.82802499862013 0 0 0 8.397614054720682,-23.552708510656636 Z M 77.09617103405361,-45.14439951284439 L 76.53213605248484,-44.31864861846599 A 44.82802499862013 44.82802499862013 0 0 1 90.95301709809267,-28.11120720708896 L 88.29583186849416,-26.718595755318045 L 94.64530802382457,-22.14321024665425 L 94.49593073755736,-29.968022476116847 L 91.83874550795885,-28.575411024345932 A 45.82802499862013 45.82802499862013 0 0 0 77.09617103405361,-45.14439951284439"/><text text-anchor="middle" pointer-events="none" font-size="8px" fill="#000000" x="48.52399091637784" y="-49.547993920484615" font-family="sans-serif">CONNECTION</text></g><g class="relationship" transform="translate(14.237865976752277 117.48515932539534) rotate(407.6075243159835)"><path class="outline" fill="#A5ABB6" stroke="none" d="M 12.840983302486569,21.45598163275829 L 13.68861073018383,20.92538975210488 A 44.80252867955557 44.80252867955557 0 0 0 22.3496795163116,31.03435311814988 L 21.69536860536889,31.79057876689589 A 45.80252867955557 45.80252867955557 0 0 1 12.840983302486569,21.45598163275829 Z M 77.76202874119288,34.79378537442156 L 77.1922443510207,33.97199114913392 A 44.80252867955557 44.80252867955557 0 0 0 86.88362804057203,24.846075576657103 L 84.5253349122999,22.991768827183208 L 91.60339264405647,19.652442735601113 L 90.02801887826821,27.31848457595563 L 87.66972574999608,25.464177826481734 A 45.80252867955557 45.80252867955557 0 0 1 77.76202874119288,34.79378537442156"/><text text-anchor="middle" pointer-events="none" font-size="8px" fill="#000000" x="49.24130995399751" y="45.391208960656826" font-family="sans-serif">CONNECTION</text></g><g class="relationship" transform="translate(14.237865976752277 117.48515932539534) rotate(407.6075243159835)"><path class="outline" fill="#A5ABB6" stroke="none" d="M 11.542385173217793,22.18159923254142 L 12.420064162785048,21.70235024582136 A 44.713840906380774 44.713840906380774 0 0 0 22.294005093963808,33.988325170567336 L 21.637151261238976,34.742343103003094 A 45.713840906380774 45.713840906380774 0 0 1 11.542385173217793,22.18159923254142 Z M 77.68221129272887,37.86094507902084 L 77.11306750809604,37.038707064566495 A 44.713840906380774 44.713840906380774 0 0 0 88.28912601528201,25.92404982253468 L 85.83185580071044,24.20305502516327 L 92.71432557824389,20.477251788096282 L 91.56548630137742,28.218709552363226 L 89.10821608680585,26.497714754991815 A 45.713840906380774 45.713840906380774 0 0 1 77.68221129272887,37.86094507902084"/><text text-anchor="middle" pointer-events="none" font-size="8px" fill="#000000" x="49.152445168694115" y="48.417292178794696" font-family="sans-serif">CONNECTION</text></g><g class="relationship" transform="translate(14.237865976752277 117.48515932539534) rotate(290.3379611095603)"><path class="outline" fill="#A5ABB6" stroke="none" d="M 5.987513214418485,-24.277555179777966 L 6.953439040707552,-24.018736134675446 A 45.856650223431025 45.856650223431025 0 0 1 21.452617618087825,-47.00835545479217 L 20.802876652810948,-47.768511148082084 A 46.856650223431025 46.856650223431025 0 0 0 5.987513214418485,-24.277555179777966 Z M 77.01487263629011,-51.285712843616416 L 76.4649547331793,-50.45049412984247 A 45.856650223431025 45.856650223431025 0 0 1 93.7167617914828,-29.44754364364385 L 90.93837306579526,-28.315927061504652 L 96.82026527075551,-23.153239380729474 L 97.4212800923995,-30.956365753162785 L 94.64289136671196,-29.824749171023587 A 46.856650223431025 46.856650223431025 0 0 0 77.01487263629011,-51.285712843616416"/><text text-anchor="middle" pointer-events="none" font-size="8px" fill="#000000" x="48.35267335727066" y="-55.416333380644446" font-family="sans-serif">CONNECTION</text></g><g class="relationship" transform="translate(14.237865976752277 117.48515932539534) rotate(407.6075243159835)"><path class="outline" fill="#A5ABB6" stroke="none" d="M 10.202936359829577,22.82871195747293 L 11.10756063932883,22.402502017489763 A 44.83286945635532 44.83286945635532 0 0 0 22.21041017629563,37.09436084400859 L 21.55343566072182,37.84827362801385 A 45.83286945635532 45.83286945635532 0 0 1 10.202936359829577,22.82871195747293 Z M 77.61293076530073,41.07429451683486 L 77.04677664482085,40.249995110148404 A 44.83286945635532 44.83286945635532 0 0 0 89.76167817961681,26.928761586959705 L 87.21239575988216,25.347256245700358 L 93.87673771251106,21.24402016445541 L 93.16072140592968,29.0374353753055 L 90.61143898619503,27.45593003404615 A 45.83286945635532 45.83286945635532 0 0 1 77.61293076530073,41.07429451683486"/><text text-anchor="middle" pointer-events="none" font-size="8px" fill="#000000" x="49.06002927131844" y="51.55228095186144" font-family="sans-serif">CONNECTION</text></g><g class="relationship" transform="translate(14.237865976752277 117.48515932539534) rotate(407.6075243159835)"><path class="outline" fill="#A5ABB6" stroke="none" d="M 8.82737742500015,23.39502955323198 L 9.755745358016224,23.02336709757165 A 45.142357917296295 45.142357917296295 0 0 0 22.101143441223932,40.360785235561245 L 21.446252540706368,41.11650866937767 A 46.142357917296295 46.142357917296295 0 0 1 8.82737742500015,23.39502955323198 Z M 77.55256154750674,44.441505141477386 L 76.9915130912328,43.61372218096622 A 45.142357917296295 45.142357917296295 0 0 0 91.29822322606172,27.855772865070307 L 88.66430496046038,26.41964105700684 L 95.08818382247671,21.949318880011106 L 94.81011424686349,29.7706152758216 L 92.17619598126215,28.334483467758133 A 46.142357917296295 46.142357917296295 0 0 1 77.55256154750674,44.441505141477386"/><text text-anchor="middle" pointer-events="none" font-size="8px" fill="#000000" x="48.96432295363586" y="54.80806710939625" font-family="sans-serif">CONNECTION</text></g><g class="relationship" transform="translate(14.237865976752277 117.48515932539534) rotate(407.6075243159835)"><path class="outline" fill="#A5ABB6" stroke="none" d="M 7.420576731956966,23.878547714740503 L 8.369402648794285,23.562748127125477 A 45.63014084257692 45.63014084257692 0 0 0 21.96859335906876,43.7976106126757 L 21.317798315228117,44.5568640689816 A 46.63014084257692 46.63014084257692 0 0 1 7.420576731956966,23.878547714740503 Z M 77.49946035889519,47.97187381017007 L 76.94541962423506,47.13938425207503 A 45.63014084257692 45.63014084257692 0 0 0 92.89538871823031,28.700671344603954 L 90.18461958048157,27.41547459630859 L 96.34597598721093,22.589742814572794 L 96.50974756856196,30.41426700899777 L 93.79897843081322,29.129070260702406 A 46.63014084257692 46.63014084257692 0 0 1 77.49946035889519,47.97187381017007"/><text text-anchor="middle" pointer-events="none" font-size="8px" fill="#000000" x="48.865602063841" y="58.19792317709887" font-family="sans-serif">CONNECTION</text></g><g class="relationship" transform="translate(14.237865976752277 117.48515932539534) rotate(407.6075243159835)"><path class="outline" fill="#A5ABB6" stroke="none" d="M 5.987513214418485,24.277555179777966 L 6.953439040707552,24.018736134675446 A 46.28825797135314 46.28825797135314 0 0 0 21.81520536151908,47.416761058293616 L 21.170349434425813,48.18106520802242 A 47.28825797135314 47.28825797135314 0 0 1 5.987513214418485,24.277555179777966 Z M 77.45203776541369,51.67657045286113 L 76.90671053192018,50.83834720788977 A 46.28825797135314 46.28825797135314 0 0 0 94.54947406551823,29.45909176252385 L 91.7700427533986,28.33003836201128 L 97.6471705520675,23.161927600996833 L 98.25538248167771,30.964496296540617 L 95.47595116955809,29.835442896028045 A 47.28825797135314 47.28825797135314 0 0 1 77.45203776541369,51.67657045286113"/><text text-anchor="middle" pointer-events="none" font-size="8px" fill="#000000" x="48.764157531268594" y="61.7367329571873" font-family="sans-serif">CONNECTION</text></g></g><g class="layer nodes"><g class="node" transform="translate(160.2809131517913,22.677762939219637)"><circle class="outline" cx="0" cy="0" r="25" fill="#ECB5C9" stroke="#da7298" stroke-width="2px"/><text text-anchor="middle" pointer-events="none" font-family="sans-serif" dy="1.5625" font-size="25" fill="#2A2C34"/><text text-anchor="middle" pointer-events="none" x="0" y="5" font-size="10px" fill="#2A2C34" font-family="sans-serif"> LAX</text></g><g class="node" transform="translate(86.41556533367427,196.55067588103358)"><circle class="outline" cx="0" cy="0" r="25" fill="#ECB5C9" stroke="#da7298" stroke-width="2px"/><text text-anchor="middle" pointer-events="none" font-family="sans-serif" dy="1.5625" font-size="25" fill="#2A2C34"/><text text-anchor="middle" pointer-events="none" x="0" y="5" font-size="10px" fill="#2A2C34" font-family="sans-serif"> DAY</text></g><g class="node" transform="translate(51.165934291722444,17.85852631530083)"><circle class="outline" cx="0" cy="0" r="25" fill="#ECB5C9" stroke="#da7298" stroke-width="2px"/><text text-anchor="middle" pointer-events="none" font-family="sans-serif" dy="1.5625" font-size="25" fill="#2A2C34"/><text text-anchor="middle" pointer-events="none" x="0" y="5" font-size="10px" fill="#2A2C34" font-family="sans-serif"> ORD</text></g><g class="node" transform="translate(14.237865976752277,117.48515932539534)"><circle class="outline" cx="0" cy="0" r="25" fill="#ECB5C9" stroke="#da7298" stroke-width="2px"/><text text-anchor="middle" pointer-events="none" font-family="sans-serif" dy="1.5625" font-size="25" fill="#2A2C34"/><text text-anchor="middle" pointer-events="none" x="0" y="5" font-size="10px" fill="#2A2C34" font-family="sans-serif"> MSP</text></g></g></svg>