<svg xmlns="http://www.w3.org/2000/svg" width="199.9490966796875" height="308.91424560546875" viewBox="-40.37934112548828 -55.77769470214844 199.9490966796875 308.91424560546875"><title>Neo4j Graph Visualization</title><desc>Created using Neo4j (http://www.neo4j.com/)</desc><g class="layer relationships"><g class="relationship" transform="translate(28.36553922059226 39.501211531311085) rotate(342.56711954730395)"><path class="outline" fill="#A5ABB6" stroke="none" d="M 5.987513214418485,24.277555179777966 L 6.953439040707552,24.018736134675446 A 46.32502751178901 46.32502751178901 0 0 0 21.84615644235336,47.45149201811695 L 21.201713801322107,48.216144672869845 A 47.32502751178901 47.32502751178901 0 0 1 5.987513214418485,24.277555179777966 Z M 77.48925065206313,51.70981027035336 L 76.9443112724137,50.87133482497211 A 46.32502751178901 46.32502751178901 0 0 0 94.62041612095898,29.460066826988612 L 91.84089678281241,28.331230147539696 L 97.71762159603088,23.162661151221435 L 98.3264419051544,30.965182399587167 L 95.54692256700783,29.83634572013825 A 47.32502751178901 47.32502751178901 0 0 1 77.48925065206313,51.70981027035336"/><text text-anchor="middle" pointer-events="none" font-size="8px" fill="#000000" x="48.7992169243127" y="61.764028253386115" font-family="sans-serif">CONNECTION</text></g><g class="relationship" transform="translate(26.29913020662698 146.13398273241168) rotate(271.1101811999123)"><path class="outline" fill="#A5ABB6" stroke="none" d="M 5.987513214418485,24.277555179777966 L 6.953439040707552,24.018736134675446 A 46.07227562418923 46.07227562418923 0 0 0 21.63359418043797,47.21255756315209 L 20.98630152216249,47.97479913545227 A 47.07227562418923 47.07227562418923 0 0 1 5.987513214418485,24.277555179777966 Z M 77.23335645239916,51.4811380202122 L 76.68574076633845,50.64440803964484 A 46.07227562418923 46.07227562418923 0 0 0 94.13276922367984,29.453336679486373 L 91.35385747880913,28.323005084679068 L 97.233361569042,23.157597873922604 L 97.83798488350745,30.960445472562782 L 95.05907313863673,29.830113877755476 A 47.07227562418923 47.07227562418923 0 0 1 77.23335645239916,51.4811380202122"/><text text-anchor="middle" pointer-events="none" font-size="8px" fill="#000000" x="48.558233824922254" y="61.576401206887525" font-family="sans-serif">CONNECTION</text></g><g class="relationship" transform="translate(26.29913020662698 146.13398273241168) rotate(386.6481364448555)"><path class="outline" fill="#A5ABB6" stroke="none" d="M 5.987513214418485,-24.277555179777966 L 6.953439040707552,-24.018736134675446 A 46.389483508011665 46.389483508011665 0 0 1 21.900435818038396,-47.51235117170543 L 21.25671657063373,-48.277612911583205 A 47.389483508011665 47.389483508011665 0 0 0 5.987513214418485,-24.277555179777966 Z M 77.55447260413683,-51.76805696471784 L 77.01021190607564,-50.92914082317213 A 46.389483508011665 46.389483508011665 0 0 1 94.74477619897864,-29.461772807726234 L 91.96510285153242,-28.33331541752615 L 97.84112233401986,-23.163944562051753 L 98.45100732890693,-30.966382661326342 L 95.6713339814607,-29.83792527112626 A 47.389483508011665 47.389483508011665 0 0 0 77.55447260413683,-51.76805696471784"/><text text-anchor="middle" pointer-events="none" font-size="8px" fill="#000000" x="48.86067666227344" y="-55.811876085702764" font-family="sans-serif">CONNECTION</text></g><g class="relationship" transform="translate(26.29913020662698 146.13398273241168) rotate(386.6481364448555)"><path class="outline" fill="#A5ABB6" stroke="none" d="M 7.420576731956966,-23.878547714740503 L 8.369402648794285,-23.562748127125477 A 45.733190683863235 45.733190683863235 0 0 1 22.053117585793785,-43.8893614135808 L 21.403499197064225,-44.64962186173288 A 46.733190683863235 46.733190683863235 0 0 0 7.420576731956966,-23.878547714740503 Z M 77.60219053060436,-48.059768615276 L 77.04926549118008,-47.22653761442591 A 45.733190683863235 45.733190683863235 0 0 1 93.09037625323457,-28.70363212706607 L 90.37933840046716,-27.419002312348123 L 96.53968546303767,-22.591982106395097 L 96.70509339025779,-30.416471880023327 L 93.99405553749038,-29.13184206530538 A 46.733190683863235 46.733190683863235 0 0 0 77.60219053060436,-48.059768615276"/><text text-anchor="middle" pointer-events="none" font-size="8px" fill="#000000" x="48.96195156812932" y="-52.26853313657202" font-family="sans-serif">CONNECTION</text></g><g class="relationship" transform="translate(26.29913020662698 146.13398273241168) rotate(386.6481364448555)"><path class="outline" fill="#A5ABB6" stroke="none" d="M 8.82737742500015,-23.39502955323198 L 9.755745358016224,-23.02336709757165 A 45.24767861683915 45.24767861683915 0 0 1 22.185010445625995,-40.448874545321175 L 21.53133649620324,-41.20565084505978 A 46.24767861683915 46.24767861683915 0 0 0 8.82737742500015,-23.39502955323198 Z M 77.6555767871606,-44.525987665554226 L 77.09569273822531,-43.69741669590357 A 45.24767861683915 45.24767861683915 0 0 1 91.49286896116067,-27.858974309248374 L 88.8586589234505,-26.423377751288232 L 95.28162926935269,-21.95175031425135 L 95.00514901144088,-29.773103053195232 L 92.37093897373072,-28.33750649523509 A 46.24767861683915 46.24767861683915 0 0 0 77.6555767871606,-44.525987665554226"/><text text-anchor="middle" pointer-events="none" font-size="8px" fill="#000000" x="49.06050859349586" y="-48.874334335574275" font-family="sans-serif">CONNECTION</text></g><g class="relationship" transform="translate(26.29913020662698 146.13398273241168) rotate(271.1101811999123)"><path class="outline" fill="#A5ABB6" stroke="none" d="M 8.397614054720682,23.552708510656636 L 9.332630297406096,23.198103623614102 A 45.05077850159476 45.05077850159476 0 0 0 21.883638659619578,41.20901508936653 L 21.22721934199661,41.963411324412405 A 46.05077850159476 46.05077850159476 0 0 1 8.397614054720682,23.552708510656636 Z M 77.31576415440145,45.327188448435706 L 76.75421177561842,44.49974725663829 A 45.05077850159476 45.05077850159476 0 0 0 91.36783985834056,28.117970277464188 L 88.7100389560826,26.7265341977405 L 95.05749086140548,22.148340852149587 L 94.9115743946845,29.973218383762443 L 92.25377349242653,28.581782304038754 A 46.05077850159476 46.05077850159476 0 0 1 77.31576415440145,45.327188448435706"/><text text-anchor="middle" pointer-events="none" font-size="8px" fill="#000000" x="48.728939839092554" y="55.69195962188749" font-family="sans-serif">CONNECTION</text></g><g class="relationship" transform="translate(26.29913020662698 146.13398273241168) rotate(271.1101811999123)"><path class="outline" fill="#A5ABB6" stroke="none" d="M 10.722644294488074,22.589265134879494 L 11.617278930593223,22.142466670377868 A 44.530537275939515 44.530537275939515 0 0 0 22.068798104634933,35.70328610715253 L 21.408868006435483,36.454613110188134 A 45.530537275939515 45.530537275939515 0 0 1 10.722644294488074,22.589265134879494 Z M 77.41771018153463,39.64964803794564 L 76.84750232121064,38.82814758388322 A 44.530537275939515 44.530537275939515 0 0 0 88.77336105992966,26.543849875577493 L 86.25929834696485,24.906935499295077 L 93.01183839008277,20.95052260804002 L 92.12544467721607,28.726402377287382 L 89.61138196425127,27.089488001004966 A 45.530537275939515 45.530537275939515 0 0 1 77.41771018153463,39.64964803794564"/><text text-anchor="middle" pointer-events="none" font-size="8px" fill="#000000" x="48.89123390200281" y="50.203738464296414" font-family="sans-serif">CONNECTION</text></g><g class="relationship" transform="translate(26.29913020662698 146.13398273241168) rotate(271.1101811999123)"><path class="outline" fill="#A5ABB6" stroke="none" d="M 12.939050610423134,21.396985051658767 L 13.784240695966929,20.862519225530967 A 44.571747693674475 44.571747693674475 0 0 0 22.177425262835428,30.647215303451617 L 21.520542457153123,31.401207995457938 A 45.571747693674475 45.571747693674475 0 0 1 12.939050610423134,21.396985051658767 Z M 77.54723616952303,34.4038375341731 L 76.97470170358847,33.5839568810796 A 44.571747693674475 44.571747693674475 0 0 0 86.36558627381622,24.752359545407337 L 84.01590863238393,22.887147766184093 L 91.1093600322425,19.580647011935845 L 89.49848979572594,27.239308584371663 L 87.14881215429365,25.37409680514842 A 45.571747693674475 45.571747693674475 0 0 1 77.54723616952303,34.4038375341731"/><text text-anchor="middle" pointer-events="none" font-size="8px" fill="#000000" x="49.04377852270625" y="45.04760270151891" font-family="sans-serif">CONNECTION</text></g><g class="relationship" transform="translate(26.29913020662698 146.13398273241168) rotate(271.1101811999123)"><path class="outline" fill="#A5ABB6" stroke="none" d="M 15.024380075409052,19.987946451540527 L 15.8115635560181,19.37122757891198 A 45.28077286177769 45.28077286177769 0 0 0 22.199362021141788,26.005912670661132 L 21.55324942032145,26.769154773182457 A 46.28077286177769 46.28077286177769 0 0 1 15.024380075409052,19.987946451540527 Z M 77.7119408363517,29.557753953509184 L 77.14461883045634,28.734257905172065 A 45.28077286177769 45.28077286177769 0 0 0 84.15827336148251,22.76503135417482 L 81.99162968342813,20.69002408374251 L 89.36106427216697,18.055363983786627 L 87.04713159888837,25.53170771475123 L 84.88048792083399,23.456700444318923 A 46.28077286177769 46.28077286177769 0 0 1 77.7119408363517,29.557753953509184"/><text text-anchor="middle" pointer-events="none" font-size="8px" fill="#000000" x="49.18536100444262" y="40.170156843813594" font-family="sans-serif">CONNECTION</text></g><g class="relationship" transform="translate(26.29913020662698 146.13398273241168) rotate(271.1101811999123)"><path class="outline" fill="#A5ABB6" stroke="none" d="M 16.957507614068078,18.376423360350163 L 17.67871006141189,17.683699006840566 A 46.83446375564752 46.83446375564752 0 0 0 22.12767332467927,21.755057175888005 L 21.501464241335082,22.534712345778658 A 47.83446375564752 47.83446375564752 0 0 1 16.957507614068078,18.376423360350163 Z M 77.91744423648528,25.08903202065327 L 77.36425303882413,24.255977701397782 A 46.83446375564752 46.83446375564752 0 0 0 82.16293288803605,20.603320700892574 L 80.19597796956666,18.33813012420614 L 87.77620338671596,16.391290987245036 L 84.78553944599525,23.623574803141153 L 82.81858452752586,21.358384226454717 A 47.83446375564752 47.83446375564752 0 0 1 77.91744423648528,25.08903202065327"/><text text-anchor="middle" pointer-events="none" font-size="8px" fill="#000000" x="49.314893096191504" y="35.52634662955682" font-family="sans-serif">CONNECTION</text></g><g class="relationship" transform="translate(28.36553922059226 39.501211531311085) rotate(342.56711954730395)"><path class="outline" fill="#A5ABB6" stroke="none" d="M 9.640628187553363,23.071807214636475 L 10.555422056041385,22.66788620976458 A 44.97686186928496 44.97686186928496 0 0 0 22.198717260820796,38.45065631703702 L 21.542796393268635,39.20548597696674 A 45.97686186928496 45.97686186928496 0 0 1 9.640628187553363,23.071807214636475 Z M 77.6245700546798,42.47166308131039 L 77.06070837550541,41.64579383817402 A 44.97686186928496 44.97686186928496 0 0 0 90.45743448203946,27.32134323400909 L 87.87227491198433,25.799190154535037 L 94.43998492915478,21.542996417126112 L 93.90431390877964,29.350880673307824 L 91.31915433872452,27.828727593833772 A 45.97686186928496 45.97686186928496 0 0 1 77.6245700546798,42.47166308131039"/><text text-anchor="middle" pointer-events="none" font-size="8px" fill="#000000" x="49.0559080186641" y="52.90071925146358" font-family="sans-serif">CONNECTION</text></g><g class="relationship" transform="translate(28.36553922059226 39.501211531311085) rotate(342.56711954730395)"><path class="outline" fill="#A5ABB6" stroke="none" d="M 13.065558593808642,21.319971356260147 L 13.907568197342588,20.78050882043712 A 44.88358703028714 44.88358703028714 0 0 0 22.386331404550162,30.55641126394933 L 21.733227451571423,31.313679529891814 A 45.88358703028714 45.88358703028714 0 0 1 13.065558593808642,21.319971356260147 Z M 77.81499779047739,34.2942678579118 L 77.24583962384706,33.4720397986983 A 44.88358703028714 44.88358703028714 0 0 0 86.71303568120408,24.64991460572305 L 84.37277779541958,22.772897549853955 L 91.48278512586272,19.502149048204085 L 89.83337952891674,27.152604013548515 L 87.49312164313224,25.27558695767942 A 45.88358703028714 45.88358703028714 0 0 1 77.81499779047739,34.2942678579118"/><text text-anchor="middle" pointer-events="none" font-size="8px" fill="#000000" x="49.29136884768047" y="44.88712186793913" font-family="sans-serif">CONNECTION</text></g><g class="relationship" transform="translate(26.29913020662698 146.13398273241168) rotate(271.1101811999123)"><path class="outline" fill="#A5ABB6" stroke="none" d="M 18.71885000674371,16.57874103860215 L 19.366765402124248,15.817028730424791 A 49.52664309056741 49.52664309056741 0 0 0 21.96092257613351,17.878131308512508 L 21.365386203681403,18.681459653018408 A 50.52664309056741 50.52664309056741 0 0 1 18.71885000674371,16.57874103860215 Z M 78.16536068203342,20.981870930178104 L 77.63673817504957,20.133013907405648 A 49.52664309056741 49.52664309056741 0 0 0 80.38907586925748,18.288445530276267 L 78.63648973853618,15.85360634577078 L 86.36246498822383,14.604884422677486 L 82.72585737688588,21.534897776283586 L 80.97327124616459,19.100058591778097 A 50.52664309056741 50.52664309056741 0 0 1 78.16536068203342,20.981870930178104"/><text text-anchor="middle" pointer-events="none" font-size="8px" fill="#000000" x="49.431409677476054" y="31.077640060847486" font-family="sans-serif">CONNECTION</text></g><g class="relationship" transform="translate(26.29913020662698 146.13398273241168) rotate(271.1101811999123)"><path class="outline" fill="#A5ABB6" stroke="none" d="M 20.290564273975832,14.613110601225724 L 20.858629020706985,13.790126735332066 A 53.86218929687184 53.86218929687184 0 0 0 21.705767396474556,14.363066734687692 L 21.15343053579531,15.196687747099801 A 54.86218929687184 54.86218929687184 0 0 1 20.290564273975832,14.613110601225724 Z M 78.45100134279434,17.223497235102954 L 77.95894731165284,16.35293257326709 A 53.86218929687184 53.86218929687184 0 0 0 78.8444513354416,15.84128201437598 L 77.31896870555087,13.258085787624777 L 85.12615630284286,12.712355249089466 L 80.87842817529591,19.28554365004425 L 79.35294554540518,16.702347423293048 A 54.86218929687184 54.86218929687184 0 0 1 78.45100134279434,17.223497235102954"/><text text-anchor="middle" pointer-events="none" font-size="8px" fill="#000000" x="49.53406681698142" y="26.79062406722094" font-family="sans-serif">CONNECTION</text></g><g class="relationship" transform="translate(26.29913020662698 146.13398273241168) rotate(271.1101811999123)"><path class="outline" fill="#A5ABB6" stroke="none" d="M 21.6567284317686,12.499444532963278 L 22.139187846575794,11.623526207396388 A 60.765011927811926 60.765011927811926 0 0 0 23.118685349922682,12.151406937202005 L 22.65234536753674,13.036012510793014 A 61.765011927811926 61.765011927811926 0 0 1 21.6567284317686,12.499444532963278 Z M 76.93851297427653,14.661560028939768 L 76.52593840759403,13.75063619736725 A 60.765011927811926 60.765011927811926 0 0 0 77.53526640874976,13.282308950620006 L 76.24771166436602,10.572659013780395 L 84.07237538543947,10.729622869864537 L 79.25200606792808,16.89517553307282 L 77.96445132354434,14.185525596233209 A 61.765011927811926 61.765011927811926 0 0 1 76.93851297427653,14.661560028939768"/><text text-anchor="middle" pointer-events="none" font-size="8px" fill="#000000" x="49.62213949196765" y="22.635902580144986" font-family="sans-serif">CONNECTI…</text></g><g class="relationship" transform="translate(26.29913020662698 146.13398273241168) rotate(386.6481364448555)"><path class="outline" fill="#A5ABB6" stroke="none" d="M 10.202936359829577,-22.82871195747293 L 11.10756063932883,-22.402502017489763 A 44.94095450597666 44.94095450597666 0 0 1 22.293684515574526,-37.178939246191156 L 21.637967363198218,-37.933945879327254 A 45.94095450597666 45.94095450597666 0 0 0 10.202936359829577,-22.82871195747293 Z M 77.71620807907158,-41.15551269378089 L 77.15126620686063,-40.33038198836339 A 44.94095450597666 44.94095450597666 0 0 1 89.95595974959684,-26.932162411677922 L 87.40636633707527,-25.351158480365097 L 94.06990115808036,-21.246611771013058 L 93.35541763295893,-29.04016765342835 L 90.80582422043736,-27.459163722115527 A 45.94095450597666 45.94095450597666 0 0 0 77.71620807907158,-41.15551269378089"/><text text-anchor="middle" pointer-events="none" font-size="8px" fill="#000000" x="49.15605717678596" y="-45.614377060188026" font-family="sans-serif">CONNECTION</text></g><g class="relationship" transform="translate(26.29913020662698 146.13398273241168) rotate(386.6481364448555)"><path class="outline" fill="#A5ABB6" stroke="none" d="M 11.542385173217793,-22.18159923254142 L 12.420064162785048,-21.70235024582136 A 44.82524423413572 44.82524423413572 0 0 1 22.37676884656401,-34.06951554865538 L 21.721212566061585,-34.82466186765179 A 45.82524423413572 45.82524423413572 0 0 0 11.542385173217793,-22.18159923254142 Z M 77.78571290652489,-37.93901489245832 L 77.21782780057202,-37.11590705843115 A 44.82524423413572 44.82524423413572 0 0 1 88.48302598722711,-25.92760711594695 L 86.02542955566392,-24.20707819158449 L 92.90719288266672,-20.479970263026573 L 91.75982122931137,-28.221645681763565 L 89.30222479774818,-26.501116757401103 A 45.82524423413572 45.82524423413572 0 0 0 77.78571290652489,-37.93901489245832"/><text text-anchor="middle" pointer-events="none" font-size="8px" fill="#000000" x="49.248321804735944" y="-42.475371998015724" font-family="sans-serif">CONNECTION</text></g><g class="relationship" transform="translate(26.29913020662698 146.13398273241168) rotate(386.6481364448555)"><path class="outline" fill="#A5ABB6" stroke="none" d="M 12.840983302486569,-21.45598163275829 L 13.68861073018383,-20.92538975210488 A 44.9178816718532 44.9178816718532 0 0 1 22.43203403845106,-31.112249388296547 L 21.779060120287976,-31.869629782945594 A 45.9178816718532 45.9178816718532 0 0 0 12.840983302486569,-21.45598163275829 Z M 77.86570025247691,-34.868789745976784 L 77.29721886629896,-34.04609362129331 A 44.9178816718532 44.9178816718532 0 0 1 87.0771339478703,-24.849745357320533 L 84.71850348239849,-22.9958677110482 L 91.79595353341772,-19.655253878931713 L 90.22197456849938,-27.32158221901698 L 87.86334410302757,-25.467704572744648 A 45.9178816718532 45.9178816718532 0 0 0 77.86570025247691,-34.868789745976784"/><text text-anchor="middle" pointer-events="none" font-size="8px" fill="#000000" x="49.33704208960293" y="-39.445412271846756" font-family="sans-serif">CONNECTION</text></g><g class="relationship" transform="translate(26.29913020662698 146.13398273241168) rotate(386.6481364448555)"><path class="outline" fill="#A5ABB6" stroke="none" d="M 14.094134763254786,-20.65442725604399 L 14.908710715305123,-20.074370346472794 A 45.24259330420837 45.24259330420837 0 0 1 22.457497528402822,-28.300271389889367 L 21.8097729051952,-29.06214592843922 A 46.24259330420837 46.24259330420837 0 0 0 14.094134763254786,-20.65442725604399 Z M 77.9576670550743,-31.93853166624568 L 77.39118870786224,-31.11445504229625 A 45.24259330420837 45.24259330420837 0 0 1 85.74105640607499,-23.703021999488467 L 83.48794834825677,-21.72223829605323 L 90.73840305706024,-18.775900481818493 L 88.74520048316595,-26.344066937402115 L 86.49209242534772,-24.36328323396688 A 46.24259330420837 46.24259330420837 0 0 0 77.9576670550743,-31.93853166624568"/><text text-anchor="middle" pointer-events="none" font-size="8px" fill="#000000" x="49.421972784709816" y="-36.513779627602496" font-family="sans-serif">CONNECTION</text></g><g class="relationship" transform="translate(26.29913020662698 146.13398273241168) rotate(386.6481364448555)"><path class="outline" fill="#A5ABB6" stroke="none" d="M 15.297404415496423,-19.779772954934305 L 16.076045953546178,-19.152303947553452 A 45.83135054051057 45.83135054051057 0 0 1 22.45155290334635,-25.628007033786105 L 21.812019353051937,-26.39677022102117 A 46.83135054051057 46.83135054051057 0 0 0 15.297404415496423,-19.779772954934305 Z M 78.06288344851946,-29.14311972409024 L 77.50128007992853,-28.315713139400863 A 45.83135054051057 45.83135054051057 0 0 1 84.47729052607973,-22.491874406813643 L 82.33584907316929,-20.390867861427168 L 89.73654604079991,-17.845345440920358 L 87.33254579662697,-25.293216467328946 L 85.19110434371653,-23.19220992194247 A 46.83135054051057 46.83135054051057 0 0 0 78.06288344851946,-29.14311972409024"/><text text-anchor="middle" pointer-events="none" font-size="8px" fill="#000000" x="49.50288374874087" y="-33.67078075771076" font-family="sans-serif">CONNECTION</text></g><g class="relationship" transform="translate(26.29913020662698 146.13398273241168) rotate(386.6481364448555)"><path class="outline" fill="#A5ABB6" stroke="none" d="M 16.44653366033987,-18.835114296422724 L 17.186485024722753,-18.16245392272147 A 46.727063248839436 46.727063248839436 0 0 1 22.413122687953056,-23.090985317226078 L 21.785025938430014,-23.869120571046764 A 47.727063248839436 47.727063248839436 0 0 0 16.44653366033987,-18.835114296422724 Z M 78.18225662109741,-26.47840305906 L 77.62869192230079,-25.645596884583476 A 46.727063248839436 46.727063248839436 0 0 1 83.2880757468988,-21.220719745589264 L 81.26403436751413,-19.006389938505734 L 88.79218552665782,-16.867011494872276 L 85.98679758607837,-24.173159488367304 L 83.9627562066937,-21.958829681283774 A 47.727063248839436 47.727063248839436 0 0 0 78.18225662109741,-26.47840305906"/><text text-anchor="middle" pointer-events="none" font-size="8px" fill="#000000" x="49.579559868423694" y="-30.907608255448928" font-family="sans-serif">CONNECTION</text></g><g class="relationship" transform="translate(26.29913020662698 146.13398273241168) rotate(386.6481364448555)"><path class="outline" fill="#A5ABB6" stroke="none" d="M 17.5374555120548,-17.82379460616338 L 18.236097874946534,-17.108323538423353 A 47.98755863528368 47.98755863528368 0 0 1 22.34183114636866,-20.685632860428782 L 21.728747069586593,-21.47565052782381 A 48.98755863528368 48.98755863528368 0 0 0 17.5374555120548,-17.82379460616338 Z M 78.31617691408857,-23.940974923754666 L 77.77412218785742,-23.100631735663953 A 47.98755863528368 47.98755863528368 0 0 1 82.17541140595756,-19.89394483170763 L 80.27409533311058,-17.573385159746206 L 87.90693665267538,-15.844300607058225 L 84.71049950308688,-22.98802439432286 L 82.8091834302399,-20.667464722361437 A 48.98755863528368 48.98755863528368 0 0 0 78.31617691408857,-23.940974923754666"/><text text-anchor="middle" pointer-events="none" font-size="8px" fill="#000000" x="49.65180094843753" y="-28.216221796137376" font-family="sans-serif">CONNECTION</text></g><g class="relationship" transform="translate(26.29913020662698 146.13398273241168) rotate(386.6481364448555)"><path class="outline" fill="#A5ABB6" stroke="none" d="M 18.56630899188382,-16.749393135809257 L 19.221169725829103,-15.993643561454997 A 49.6915875646265 49.6915875646265 0 0 1 22.23818957669103,-18.40904058988628 L 21.644043744376493,-19.213397929594983 A 50.6915875646265 50.6915875646265 0 0 0 18.56630899188382,-16.749393135809257 Z M 78.4643535457682,-21.527925051533764 L 77.93759722190245,-20.677908713298173 A 49.6915875646265 49.6915875646265 0 0 1 81.14107388074706,-18.515898333654405 L 79.36740336076831,-16.096375056940932 L 87.0822399464083,-14.780587666489566 L 83.5059679073854,-21.741929369272373 L 81.73229738740665,-19.3224060925589 A 50.6915875646265 50.6915875646265 0 0 0 78.4643535457682,-21.527925051533764"/><text text-anchor="middle" pointer-events="none" font-size="8px" fill="#000000" x="49.71942157658779" y="-25.589245997692657" font-family="sans-serif">CONNECTION</text></g><g class="relationship" transform="translate(26.29913020662698 146.13398273241168) rotate(386.6481364448555)"><path class="outline" fill="#A5ABB6" stroke="none" d="M 19.529452792776517,-15.615712395363635 L 20.13821422178524,-14.822359055072399 A 51.948141752372 51.948141752372 0 0 1 22.103781408640565,-16.258691295408653 L 21.532857082568555,-17.07969398352801 A 52.948141752372 52.948141752372 0 0 0 19.529452792776517,-15.615712395363635 Z M 78.62565199390846,-19.236561671074007 L 78.11829872568167,-18.37482350827768 A 51.948141752372 51.948141752372 0 0 1 80.18663306196488,-17.090885135915663 L 78.54512715585457,-14.579817960349668 L 86.31937412263724,-13.679215884252603 L 82.3753076034453,-20.438974703336985 L 80.73380169733498,-17.92790752777099 A 52.948141752372 52.948141752372 0 0 0 78.62565199390846,-19.236561671074007"/><text text-anchor="middle" pointer-events="none" font-size="8px" fill="#000000" x="49.78225097149633" y="-23.019882084114435" font-family="sans-serif">CONNECTION</text></g><g class="relationship" transform="translate(26.29913020662698 146.13398273241168) rotate(386.6481364448555)"><path class="outline" fill="#A5ABB6" stroke="none" d="M 20.42347816666382,-14.426764695378036 L 20.983985768904716,-13.598615416666664 A 54.91139341795093 54.91139341795093 0 0 1 21.94142847219821,-14.232139261829062 L 21.39835700923002,-15.071825742671521 A 55.91139341795093 55.91139341795093 0 0 0 20.42347816666382,-14.426764695378036 Z M 78.79795022955597,-17.064097647409547 L 78.31440458085157,-16.188778502400673 A 54.91139341795093 54.91139341795093 0 0 1 79.31346800233791,-15.623162667820964 L 77.80824875412132,-13.02810678888535 L 85.61946826122377,-12.543493735138199 L 81.32042699996002,-19.08323717306845 L 79.81520775174343,-16.488181294132836 A 55.91139341795093 55.91139341795093 0 0 0 78.79795022955597,-17.064097647409547"/><text text-anchor="middle" pointer-events="none" font-size="8px" fill="#000000" x="49.840132819294084" y="-20.501831004163584" font-family="sans-serif">CONNECTION</text></g><g class="relationship" transform="translate(26.29913020662698 146.13398273241168) rotate(386.6481364448555)"><path class="outline" fill="#A5ABB6" stroke="none" d="M 21.245220988662066,-13.18675794662634 L 21.755491021722964,-12.32674370641864 A 58.80562498954862 58.80562498954862 0 0 1 23.477575695516652,-13.309633273746137 L 22.99659001534036,-14.186361723989052 A 59.80562498954862 59.80562498954862 0 0 0 21.245220988662066,-13.18675794662634 Z M 77.1669765885297,-15.89466188055696 L 76.74218816162734,-14.989369224909176 A 58.80562498954862 58.80562498954862 0 0 1 78.52278161267544,-14.1169390057163 L 77.15757841715845,-11.445568526926401 L 84.98351326243804,-11.37669329597496 L 80.34305254003144,-17.6787663107695 L 78.97784934451444,-15.0073958319796 A 59.80562498954862 59.80562498954862 0 0 0 77.1669765885297,-15.89466188055696"/><text text-anchor="middle" pointer-events="none" font-size="8px" fill="#000000" x="49.89292510507137" y="-18.02922607610057" font-family="sans-serif">CONNECTI…</text></g><g class="relationship" transform="translate(26.29913020662698 146.13398273241168) rotate(386.6481364448555)"><path class="outline" fill="#A5ABB6" stroke="none" d="M 21.991772955509383,-11.900080767512723 L 22.449999477236794,-11.0112453188578 A 63.968885174017174 63.968885174017174 0 0 1 23.314513191602572,-11.44867803719896 L 22.869801267042423,-12.344351696605116 A 64.96888517401717 64.96888517401717 0 0 0 21.991772955509383,-11.900080767512723 Z M 77.32117210505123,-13.883634230809534 L 76.9277694353381,-12.964267960239106 A 63.968885174017174 63.968885174017174 0 0 1 77.81561430071413,-12.576372561417138 L 76.59376832041293,-9.836465190643118 L 84.41237249590371,-10.182049835843339 L 79.44474227444907,-16.22958238911583 L 78.22289629414787,-13.48967501834181 A 64.96888517401717 64.96888517401717 0 0 0 77.32117210505123,-13.883634230809534"/><text text-anchor="middle" pointer-events="none" font-size="8px" fill="#000000" x="49.94049994415563" y="-15.596573562241971" font-family="sans-serif">CONNECTI…</text></g><g class="relationship" transform="translate(28.36553922059226 39.501211531311085) rotate(342.56711954730395)"><path class="outline" fill="#A5ABB6" stroke="none" d="M 16.181239564159192,19.063511905398997 L 16.93053533041732,18.401276407507467 A 46.40283016826864 46.40283016826864 0 0 0 22.372943302230095,23.632036500979225 L 21.740933657358898,24.406997021773527 A 47.40283016826864 47.40283016826864 0 0 1 16.181239564159192,19.063511905398997 Z M 78.08683614484328,27.051391995209762 L 77.53018464253253,26.220645881782083 A 46.40283016826864 46.40283016826864 0 0 0 83.43856613111123,21.52259481005796 L 81.38662749947243,19.334091245521634 L 88.88706422030248,17.09948859699011 L 86.17448430662965,24.440599562773066 L 84.12254567499085,22.25209599823674 A 47.40283016826864 47.40283016826864 0 0 1 78.08683614484328,27.051391995209762"/><text text-anchor="middle" pointer-events="none" font-size="8px" fill="#000000" x="49.50118179355088" y="37.52293723145872" font-family="sans-serif">CONNECTION</text></g><g class="relationship" transform="translate(28.36553922059226 39.501211531311085) rotate(342.56711954730395)"><path class="outline" fill="#A5ABB6" stroke="none" d="M 18.913925871745995,16.355837126790473 L 19.552772677397954,15.586503155807593 A 50.32068182244556 50.32068182244556 0 0 0 22.14145307285144,17.597343130436045 L 21.55404993413125,18.406637608745186 A 51.32068182244556 51.32068182244556 0 0 1 18.913925871745995,16.355837126790473 Z M 78.45435265108937,20.66825160606784 L 77.93303508119122,19.814888851246955 A 50.32068182244556 50.32068182244556 0 0 0 80.67314648872014,18.015852145757414 L 78.94583481955071,15.563018193458337 L 86.68431098894622,14.394263909745256 L 82.97622871427937,21.286297415489518 L 81.24891704510995,18.83346346319044 A 51.32068182244556 51.32068182244556 0 0 1 78.45435265108937,20.66825160606784"/><text text-anchor="middle" pointer-events="none" font-size="8px" fill="#000000" x="49.681605668052796" y="30.65367872791446" font-family="sans-serif">CONNECTION</text></g><g class="relationship" transform="translate(28.36553922059226 39.501211531311085) rotate(342.56711954730395)"><path class="outline" fill="#A5ABB6" stroke="none" d="M 21.198937411768455,13.261035125959197 L 21.71221435609968,12.402812090601834 A 58.42414215754266 58.42414215754266 0 0 0 21.712756164890553,12.40313612589133 L 21.19948849427343,13.261364707505386 A 59.42414215754266 59.42414215754266 0 0 1 21.198937411768455,13.261035125959197 Z M 78.90290666396515,15.093954555842785 L 78.44513098293051,14.204886827346655 A 58.42414215754266 58.42414215754266 0 0 0 78.4456922610535,14.20459782474579 L 77.07233639708359,11.537409479146723 L 84.89802437811296,11.444632199749194 L 80.27683341301336,17.760848952211212 L 78.90347754904346,15.093660606612143 A 59.42414215754266 59.42414215754266 0 0 1 78.90290666396515,15.093954555842785"/><text text-anchor="middle" pointer-events="none" font-size="8px" fill="#000000" x="49.82956400293695" y="24.15631606071478" font-family="sans-serif">CONNECTION</text></g><g class="relationship" transform="translate(26.29913020662698 146.13398273241168) rotate(271.1101811999123)"><path class="outline" fill="#A5ABB6" stroke="none" d="M 22.803502786540566,10.25915496833129 L 23.195469396400643,9.339175524672465 A 72.09892331315633 72.09892331315633 0 0 0 23.838348088605493,9.609414582463614 L 23.45529809861521,10.533142196627253 A 73.09892331315633 73.09892331315633 0 0 1 22.803502786540566,10.25915496833129 Z M 76.14896044154541,11.81155504092581 L 75.81115628000202,10.87033862136866 A 72.09892331315633 72.09892331315633 0 0 0 76.46638355948286,10.631593205766661 L 75.42570739672668,7.817878023970349 L 83.20516501080029,8.6723013563016 L 77.85395177649112,14.383213448161744 L 76.81327561373493,11.56949826636543 A 73.09892331315633 73.09892331315633 0 0 1 76.14896044154541,11.81155504092581"/><text text-anchor="middle" pointer-events="none" font-size="8px" fill="#000000" x="49.69501920475928" y="18.587214787187506" font-family="sans-serif">CONNECT…</text></g><g class="relationship" transform="translate(26.29913020662698 146.13398273241168) rotate(271.1101811999123)"><path class="outline" fill="#A5ABB6" stroke="none" d="M 23.71927013578604,7.914936779634347 L 24.016773189641242,6.960215913125802 A 92.23121039199023 92.23121039199023 0 0 0 25.897482196960073,7.5243768754786515 L 25.620370385931736,8.485214553855485 A 93.23121039199023 93.23121039199023 0 0 1 23.71927013578604,7.914936779634347 Z M 73.98295246509753,9.37386648572975 L 73.74132616390115,8.403497107312361 A 92.23121039199023 92.23121039199023 0 0 0 75.64149129479306,7.9088088853023395 L 74.85480581435812,5.01379144928009 L 82.52764622558414,6.555712336957852 L 76.69040526870631,11.768832133332007 L 75.90371978827137,8.873814697309756 A 93.23121039199023 93.23121039199023 0 0 1 73.98295246509753,9.37386648572975"/><text text-anchor="middle" pointer-events="none" font-size="8px" fill="#000000" x="49.752211686436034" y="14.620714622050954" font-family="sans-serif">CONNEC…</text></g><g class="relationship" transform="translate(26.29913020662698 146.13398273241168) rotate(271.1101811999123)"><path class="outline" fill="#A5ABB6" stroke="none" d="M 24.394753454168672,5.490537670422244 L 24.594779147944713,4.510747018379977 A 134.28805213469178 134.28805213469178 0 0 0 25.71601984757542,4.734681921378424 L 25.524343673222788,5.716140144730545 A 135.28805213469178 135.28805213469178 0 0 1 24.394753454168672,5.490537670422244 Z M 74.10423117280259,6.315380610397298 L 73.93682251495426,5.329493019808282 A 134.28805213469178 134.28805213469178 0 0 0 75.06324576258604,5.133283401073439 L 74.53585545245879,2.180003959370725 L 82.04212951158024,4.394919251060333 L 75.76643284275569,9.070989323343724 L 75.23904253262845,6.11770988164101 A 135.28805213469178 135.28805213469178 0 0 1 74.10423117280259,6.315380610397298"/><text text-anchor="middle" pointer-events="none" font-size="8px" fill="#000000" x="49.79333483695556" y="10.714367751063023" font-family="sans-serif">CONNEC…</text></g><g class="relationship" transform="translate(26.29913020662698 146.13398273241168) rotate(271.1101811999123)"><path class="outline" fill="#A5ABB6" stroke="none" d="M 24.82310987284838,3.0105176034192493 L 24.923631880283896,2.015582768356604 A 263.9442718924617 263.9442718924617 0 0 0 25.574881850877837,2.080565431805553 L 25.476827220233353,3.0757464652909903 A 264.9442718924617 264.9442718924617 0 0 1 24.82310987284838,3.0105176034192493 Z M 74.16709766756392,3.377294692801115 L 74.08137678157036,2.3809755021275123 A 263.9442718924617 263.9442718924617 0 0 0 74.7333816653096,2.3240641471290453 L 74.46880829658606,-0.6642465684027719 L 81.75020222967109,2.2047780726961053 L 75.08614615694098,6.308478434504801 L 74.82157278821745,3.3201677189729843 A 264.9442718924617 264.9442718924617 0 0 1 74.16709766756392,3.377294692801115"/><text text-anchor="middle" pointer-events="none" font-size="8px" fill="#000000" x="49.81811701535014" y="6.847432721552536" font-family="sans-serif">CONNEC…</text></g><g class="relationship" transform="translate(26.29913020662698 146.13398273241168) rotate(271.1101811999123)"><path class="outline" fill="#A5ABB6" stroke="none" d="M 25 0.5 L 25.492411387884786 0.5 L 25.492411387884786 -0.5 L 25 -0.5 Z M 74.16038013788479 0.5 L 74.65279152576957 0.5 L 74.65279152576957 3.5 L 81.65279152576957 0 L 74.65279152576957 -3.5 L 74.65279152576957 -0.5 L 74.16038013788479 -0.5 Z"/><text text-anchor="middle" pointer-events="none" font-size="8px" fill="#000000" x="49.826395762884786" y="3" font-family="sans-serif">CONNEC…</text></g><g class="relationship" transform="translate(26.29913020662698 146.13398273241168) rotate(271.1101811999123)"><path class="outline" fill="#A5ABB6" stroke="none" d="M 24.82310987284838,-3.0105176034192493 L 24.923631880283896,-2.015582768356604 A 263.9442718924617 263.9442718924617 0 0 1 25.574881850877834,-2.080565431805553 L 25.47682722023335,-3.0757464652909903 A 264.9442718924617 264.9442718924617 0 0 0 24.82310987284838,-3.0105176034192493 Z M 74.16709766756398,-3.377294692801115 L 74.0813767815704,-2.3809755021275123 A 263.9442718924617 263.9442718924617 0 0 1 74.7333816653096,-2.3240641471290453 L 74.46880829658606,0.6642465684027719 L 81.75020222967109,-2.2047780726961053 L 75.08614615694098,-6.308478434504801 L 74.82157278821745,-3.3201677189729843 A 264.9442718924617 264.9442718924617 0 0 0 74.16709766756398,-3.377294692801115"/><text text-anchor="middle" pointer-events="none" font-size="8px" fill="#000000" x="49.81811701535017" y="-0.8474327215525363" font-family="sans-serif">CONNEC…</text></g><g class="relationship" transform="translate(26.29913020662698 146.13398273241168) rotate(271.1101811999123)"><path class="outline" fill="#A5ABB6" stroke="none" d="M 24.394753454168672,-5.490537670422244 L 24.594779147944713,-4.510747018379977 A 134.28805213469178 134.28805213469178 0 0 1 25.71601984757547,-4.734681921378424 L 25.524343673222837,-5.7161401447305735 A 135.28805213469178 135.28805213469178 0 0 0 24.394753454168672,-5.490537670422244 Z M 74.10423117280259,-6.315380610397298 L 73.93682251495426,-5.329493019808282 A 134.28805213469178 134.28805213469178 0 0 1 75.06324576258604,-5.133283401073439 L 74.53585545245879,-2.180003959370725 L 82.04212951158024,-4.394919251060333 L 75.76643284275569,-9.070989323343724 L 75.23904253262845,-6.11770988164101 A 135.28805213469178 135.28805213469178 0 0 0 74.10423117280259,-6.315380610397298"/><text text-anchor="middle" pointer-events="none" font-size="8px" fill="#000000" x="49.79333483695558" y="-4.714367751063023" font-family="sans-serif">CONNEC…</text></g><g class="relationship" transform="translate(26.29913020662698 146.13398273241168) rotate(271.1101811999123)"><path class="outline" fill="#A5ABB6" stroke="none" d="M 23.71927013578604,-7.914936779634347 L 24.016773189641242,-6.960215913125802 A 92.23121039199023 92.23121039199023 0 0 1 25.897482196960052,-7.5243768754786515 L 25.620370385931714,-8.485214553855485 A 93.23121039199023 93.23121039199023 0 0 0 23.71927013578604,-7.914936779634347 Z M 73.9829524650975,-9.373866485729764 L 73.74132616390112,-8.403497107312376 A 92.23121039199023 92.23121039199023 0 0 1 75.64149129479306,-7.9088088853023395 L 74.85480581435812,-5.01379144928009 L 82.52764622558414,-6.555712336957852 L 76.69040526870631,-11.768832133332007 L 75.90371978827137,-8.873814697309756 A 93.23121039199023 93.23121039199023 0 0 0 73.9829524650975,-9.373866485729764"/><text text-anchor="middle" pointer-events="none" font-size="8px" fill="#000000" x="49.75221168643601" y="-8.620714622050954" font-family="sans-serif">CONNEC…</text></g><g class="relationship" transform="translate(26.29913020662698 146.13398273241168) rotate(271.1101811999123)"><path class="outline" fill="#A5ABB6" stroke="none" d="M 22.803502786540566,-10.25915496833129 L 23.195469396400643,-9.339175524672465 A 72.09892331315633 72.09892331315633 0 0 1 23.838348088605475,-9.6094145824636 L 23.455298098615195,-10.533142196627239 A 73.09892331315633 73.09892331315633 0 0 0 22.803502786540566,-10.25915496833129 Z M 76.14896044154541,-11.81155504092581 L 75.81115628000202,-10.87033862136866 A 72.09892331315633 72.09892331315633 0 0 1 76.46638355948286,-10.631593205766661 L 75.42570739672668,-7.817878023970349 L 83.20516501080029,-8.6723013563016 L 77.85395177649112,-14.383213448161744 L 76.81327561373493,-11.56949826636543 A 73.09892331315633 73.09892331315633 0 0 0 76.14896044154541,-11.81155504092581"/><text text-anchor="middle" pointer-events="none" font-size="8px" fill="#000000" x="49.69501920475927" y="-12.587214787187506" font-family="sans-serif">CONNECT…</text></g><g class="relationship" transform="translate(26.29913020662698 146.13398273241168) rotate(386.6481364448555)"><path class="outline" fill="#A5ABB6" stroke="none" d="M 22.66049187860102,-10.571286951921099 L 23.065053138670955,-9.656776051575658 A 70.9340931103365 70.9340931103365 0 0 1 23.141243722878812,-9.690427764328916 L 22.73775656668287,-10.605413072836612 A 71.9340931103365 71.9340931103365 0 0 0 22.66049187860102,-10.571286951921099 Z M 77.47249847123913,-11.969334347493842 L 77.11508436993816,-11.035388331820982 A 70.9340931103365 70.9340931103365 0 0 1 77.19285646907836,-11.005573176471927 L 76.11732496689021,-8.20499609526154 L 83.90679157560062,-8.96276251823463 L 78.6268984719959,-14.73967595141911 L 77.55136696980775,-11.939098870208724 A 71.9340931103365 71.9340931103365 0 0 0 77.47249847123913,-11.969334347493842"/><text text-anchor="middle" pointer-events="none" font-size="8px" fill="#000000" x="49.98274341764108" y="-13.198699842716806" font-family="sans-serif">CONNECTI…</text></g><g class="relationship" transform="translate(26.29913020662698 146.13398273241168) rotate(386.6481364448555)"><path class="outline" fill="#A5ABB6" stroke="none" d="M 23.249011035194496,-9.205079352477338 L 23.59847521479359,-8.268129627477578 A 80.59127561177341 80.59127561177341 0 0 1 23.99867262802466,-8.416189878068764 L 23.654174214387115,-9.354976777743673 A 81.59127561177341 81.59127561177341 0 0 0 23.249011035194496,-9.205079352477338 Z M 76.55290948646848,-10.492054272128826 L 76.24906976743871,-9.53933110922162 A 80.59127561177341 80.59127561177341 0 0 1 76.65525980639238,-9.408604449290351 L 75.72862027668693,-6.555301243883109 L 83.46740720729352,-7.721996080878821 L 77.890779179333,-13.213008723166675 L 76.96413964962754,-10.359705517759433 A 81.59127561177341 81.59127561177341 0 0 0 76.55290948646848,-10.492054272128826"/><text text-anchor="middle" pointer-events="none" font-size="8px" fill="#000000" x="50.019555416001076" y="-10.830704070240742" font-family="sans-serif">CONNECT…</text></g><g class="relationship" transform="translate(26.29913020662698 146.13398273241168) rotate(386.6481364448555)"><path class="outline" fill="#A5ABB6" stroke="none" d="M 23.755247544689013,-7.806293236264361 L 24.048377823992112,-6.850220728890738 A 94.54451949216089 94.54451949216089 0 0 1 26.176839628477218,-7.475580808811429 L 25.906222148603614,-8.438267767062584 A 95.54451949216089 95.54451949216089 0 0 0 23.755247544689013,-7.806293236264361 Z M 74.28962762363199,-9.309609854810788 L 74.05384865363912,-8.337803147019002 A 94.54451949216089 94.54451949216089 0 0 1 76.20344732045268,-7.78948713016035 L 75.42790131665161,-4.891465667854007 L 83.09475506646766,-6.4628833650089135 L 77.23750865885411,-11.653515746568807 L 76.46196265505304,-8.755494284262465 A 95.54451949216089 95.54451949216089 0 0 0 74.28962762363199,-9.309609854810788"/><text text-anchor="middle" pointer-events="none" font-size="8px" fill="#000000" x="50.050849494064096" y="-8.487915357755881" font-family="sans-serif">CONNEC…</text></g><g class="relationship" transform="translate(26.29913020662698 146.13398273241168) rotate(386.6481364448555)"><path class="outline" fill="#A5ABB6" stroke="none" d="M 24.177409740333825,-6.379879171897452 L 24.413168675843256,-5.40806760357391 A 116.00438598167135 116.00438598167135 0 0 1 26.069021140393467,-5.796941709349085 L 25.847536255391166,-6.772105513904762 A 117.00438598167135 117.00438598167135 0 0 0 24.177409740333825,-6.379879171897452 Z M 74.36468702459973,-7.4741672168803746 L 74.1715109517059,-6.493003109882309 A 116.00438598167135 116.00438598167135 0 0 1 75.83792207467769,-6.152203427172165 L 75.21529864604695,-3.2175245578373795 L 82.78927667456398,-5.1885285719228875 L 76.66808664618536,-10.065108586285213 L 76.04546321755461,-7.1304297169504265 A 117.00438598167135 117.00438598167135 0 0 0 74.36468702459973,-7.4741672168803746"/><text text-anchor="middle" pointer-events="none" font-size="8px" fill="#000000" x="50.0765527401311" y="-6.165853686693808" font-family="sans-serif">CONNEC…</text></g><g class="relationship" transform="translate(26.29913020662698 146.13398273241168) rotate(386.6481364448555)"><path class="outline" fill="#A5ABB6" stroke="none" d="M 24.514003510275753,-4.930885508525639 L 24.691556706530054,-3.946774304189523 A 152.46519405938693 152.46519405938693 0 0 1 25.972173519455485,-4.172188631981783 L 25.80301972754278,-5.157778300495778 A 153.46519405938693 153.46519405938693 0 0 0 24.514003510275753,-4.930885508525639 Z M 74.42150353840607,-5.687214951067773 L 74.27385270169367,-4.698175401596615 A 152.46519405938693 152.46519405938693 0 0 1 75.55907459907318,-4.500702073733025 L 75.09083326340485,-1.5374690333577776 L 82.55132524922682,-3.902011130569452 L 76.18339637996431,-8.45167946090002 L 75.71515504429597,-5.488446420524774 A 153.46519405938693 153.46519405938693 0 0 0 74.42150353840607,-5.687214951067773"/><text text-anchor="middle" pointer-events="none" font-size="8px" fill="#000000" x="50.09660566154914" y="-3.860193831786063" font-family="sans-serif">CONNEC…</text></g><g class="relationship" transform="translate(26.29913020662698 146.13398273241168) rotate(386.6481364448555)"><path class="outline" fill="#A5ABB6" stroke="none" d="M 24.763837585503556,-3.464440508769274 L 24.88255664816086,-2.4715126240959857 A 226.41420829557012 226.41420829557012 0 0 1 25.89085342124592,-2.589777026247617 L 25.776587686763893,-3.5832272474078195 A 227.41420829557012 227.41420829557012 0 0 0 24.763837585503556,-3.464440508769274 Z M 74.45707291916055,-3.937489334341848 L 74.35727777504908,-2.9424813297450214 A 226.41420829557012 226.41420829557012 0 0 1 75.36718895499715,-2.838904015404777 L 75.05442214716224,0.144747593599996 L 82.38117051064744,-2.606390065290812 L 75.78421136544368,-6.8171061607444745 L 75.47144455760878,-3.833454551739701 A 227.41420829557012 227.41420829557012 0 0 0 74.45707291916055,-3.937489334341848"/><text text-anchor="middle" pointer-events="none" font-size="8px" fill="#000000" x="50.110962088633286" y="-1.5667316836722591" font-family="sans-serif">CONNEC…</text></g><g class="relationship" transform="translate(26.29913020662698 146.13398273241168) rotate(386.6481364448555)"><path class="outline" fill="#A5ABB6" stroke="none" d="M 24.92602775597432,-1.9857341988287085 L 24.985492515818752,-0.9875037933928472 A 450.2960540585738 450.2960540585738 0 0 1 25.82877069892991,-1.0369442917659057 L 25.77117865854529,-2.0352844927416527 A 451.2960540585738 451.2960540585738 0 0 0 24.92602775597432,-1.9857341988287085 Z M 74.4691462217936,-2.2127355887548674 L 74.41883134137689,-1.214002184482922 A 450.2960540585738 450.2960540585738 0 0 1 75.26244743937472,-1.1707085799951757 L 75.1058823884604,1.8252031985510804 L 82.27900243113505,-1.3047087576194418 L 75.47120084059384,-5.165257618056851 L 75.31463578967951,-2.1693458395105947 A 451.2960540585738 451.2960540585738 0 0 0 74.4691462217936,-2.2127355887548674"/><text text-anchor="middle" pointer-events="none" font-size="8px" fill="#000000" x="50.11958909843723" y="0.7186475832105543" font-family="sans-serif">CONNEC…</text></g><g class="relationship" transform="translate(26.29913020662698 146.13398273241168) rotate(386.6481364448555)"><path class="outline" fill="#A5ABB6" stroke="none" d="M 25 0.5 L 25.78848258451027 0.5 L 25.78848258451027 -0.5 L 25 -0.5 Z M 74.45645133451026 0.5 L 75.24493391902054 0.5 L 75.24493391902054 3.5 L 82.24493391902054 0 L 75.24493391902054 -3.5 L 75.24493391902054 -0.5 L 74.45645133451026 -0.5 Z"/><text text-anchor="middle" pointer-events="none" font-size="8px" fill="#000000" x="50.12246695951027" y="3" font-family="sans-serif">CONNEC…</text></g><g class="relationship" transform="translate(26.29913020662698 146.13398273241168) rotate(386.6481364448555)"><path class="outline" fill="#A5ABB6" stroke="none" d="M 24.92602775597432,1.9857341988287085 L 24.985492515818752,0.9875037933928472 A 450.2960540585738 450.2960540585738 0 0 0 25.828770698929894,1.0369442917659057 L 25.771178658545274,2.0352844927416527 A 451.2960540585738 451.2960540585738 0 0 1 24.92602775597432,1.9857341988287085 Z M 74.46914622179368,2.2127355887548674 L 74.41883134137697,1.214002184482922 A 450.2960540585738 450.2960540585738 0 0 0 75.26244743937472,1.1707085799951757 L 75.1058823884604,-1.8252031985510804 L 82.27900243113505,1.3047087576194418 L 75.47120084059384,5.165257618056851 L 75.31463578967951,2.1693458395105947 A 451.2960540585738 451.2960540585738 0 0 1 74.46914622179368,2.2127355887548674"/><text text-anchor="middle" pointer-events="none" font-size="8px" fill="#000000" x="50.11958909843727" y="5.281352416789446" font-family="sans-serif">CONNEC…</text></g><g class="relationship" transform="translate(26.29913020662698 146.13398273241168) rotate(386.6481364448555)"><path class="outline" fill="#A5ABB6" stroke="none" d="M 24.763837585503556,3.464440508769274 L 24.88255664816086,2.4715126240959857 A 226.41420829557012 226.41420829557012 0 0 0 25.890853421246057,2.589777026247617 L 25.776587686764024,3.5832272474078195 A 227.41420829557012 227.41420829557012 0 0 1 24.763837585503556,3.464440508769274 Z M 74.45707291916064,3.937489334341848 L 74.35727777504916,2.9424813297450214 A 226.41420829557012 226.41420829557012 0 0 0 75.36718895499715,2.838904015404777 L 75.05442214716224,-0.144747593599996 L 82.38117051064744,2.606390065290812 L 75.78421136544368,6.8171061607444745 L 75.47144455760878,3.833454551739701 A 227.41420829557012 227.41420829557012 0 0 1 74.45707291916064,3.937489334341848"/><text text-anchor="middle" pointer-events="none" font-size="8px" fill="#000000" x="50.11096208863339" y="7.566731683672259" font-family="sans-serif">CONNEC…</text></g><g class="relationship" transform="translate(26.29913020662698 146.13398273241168) rotate(386.6481364448555)"><path class="outline" fill="#A5ABB6" stroke="none" d="M 24.514003510275753,4.930885508525639 L 24.691556706530054,3.946774304189523 A 152.46519405938693 152.46519405938693 0 0 0 25.972173519455456,4.172188631981783 L 25.803019727542754,5.157778300495778 A 153.46519405938693 153.46519405938693 0 0 1 24.514003510275753,4.930885508525639 Z M 74.42150353840606,5.687214951067773 L 74.27385270169366,4.698175401596615 A 152.46519405938693 152.46519405938693 0 0 0 75.55907459907318,4.500702073733025 L 75.09083326340485,1.5374690333577776 L 82.55132524922682,3.902011130569452 L 76.18339637996431,8.45167946090002 L 75.71515504429597,5.488446420524774 A 153.46519405938693 153.46519405938693 0 0 1 74.42150353840606,5.687214951067773"/><text text-anchor="middle" pointer-events="none" font-size="8px" fill="#000000" x="50.09660566154912" y="9.860193831786063" font-family="sans-serif">CONNEC…</text></g><g class="relationship" transform="translate(26.29913020662698 146.13398273241168) rotate(386.6481364448555)"><path class="outline" fill="#A5ABB6" stroke="none" d="M 24.177409740333825,6.379879171897452 L 24.413168675843256,5.40806760357391 A 116.00438598167135 116.00438598167135 0 0 0 26.069021140393478,5.796941709349085 L 25.847536255391173,6.772105513904762 A 117.00438598167135 117.00438598167135 0 0 1 24.177409740333825,6.379879171897452 Z M 74.36468702459972,7.4741672168803746 L 74.1715109517059,6.493003109882309 A 116.00438598167135 116.00438598167135 0 0 0 75.83792207467769,6.152203427172165 L 75.21529864604695,3.2175245578373795 L 82.78927667456398,5.1885285719228875 L 76.66808664618536,10.065108586285213 L 76.04546321755461,7.1304297169504265 A 117.00438598167135 117.00438598167135 0 0 1 74.36468702459972,7.4741672168803746"/><text text-anchor="middle" pointer-events="none" font-size="8px" fill="#000000" x="50.0765527401311" y="12.165853686693808" font-family="sans-serif">CONNEC…</text></g><g class="relationship" transform="translate(26.29913020662698 146.13398273241168) rotate(386.6481364448555)"><path class="outline" fill="#A5ABB6" stroke="none" d="M 23.755247544689013,7.806293236264361 L 24.048377823992112,6.850220728890738 A 94.54451949216089 94.54451949216089 0 0 0 26.176839628477207,7.475580808811429 L 25.906222148603604,8.438267767062584 A 95.54451949216089 95.54451949216089 0 0 1 23.755247544689013,7.806293236264361 Z M 74.28962762363199,9.309609854810788 L 74.05384865363912,8.337803147019002 A 94.54451949216089 94.54451949216089 0 0 0 76.20344732045268,7.78948713016035 L 75.42790131665161,4.891465667854007 L 83.09475506646766,6.4628833650089135 L 77.23750865885411,11.653515746568807 L 76.46196265505304,8.755494284262465 A 95.54451949216089 95.54451949216089 0 0 1 74.28962762363199,9.309609854810788"/><text text-anchor="middle" pointer-events="none" font-size="8px" fill="#000000" x="50.05084949406409" y="14.487915357755881" font-family="sans-serif">CONNEC…</text></g><g class="relationship" transform="translate(26.29913020662698 146.13398273241168) rotate(386.6481364448555)"><path class="outline" fill="#A5ABB6" stroke="none" d="M 23.249011035194496,9.205079352477338 L 23.59847521479359,8.268129627477578 A 80.59127561177341 80.59127561177341 0 0 0 23.99867262802465,8.416189878068764 L 23.654174214387105,9.354976777743673 A 81.59127561177341 81.59127561177341 0 0 1 23.249011035194496,9.205079352477338 Z M 76.55290948646848,10.492054272128826 L 76.2490697674387,9.53933110922162 A 80.59127561177341 80.59127561177341 0 0 0 76.65525980639238,9.408604449290351 L 75.72862027668693,6.555301243883109 L 83.46740720729352,7.721996080878821 L 77.890779179333,13.213008723166675 L 76.96413964962754,10.359705517759433 A 81.59127561177341 81.59127561177341 0 0 1 76.55290948646848,10.492054272128826"/><text text-anchor="middle" pointer-events="none" font-size="8px" fill="#000000" x="50.01955541600107" y="16.830704070240742" font-family="sans-serif">CONNECT…</text></g><g class="relationship" transform="translate(26.29913020662698 146.13398273241168) rotate(386.6481364448555)"><path class="outline" fill="#A5ABB6" stroke="none" d="M 22.66049187860102,10.571286951921099 L 23.065053138670955,9.656776051575658 A 70.9340931103365 70.9340931103365 0 0 0 23.141243722878837,9.69042776432893 L 22.737756566682894,10.605413072836626 A 71.9340931103365 71.9340931103365 0 0 1 22.66049187860102,10.571286951921099 Z M 77.47249847123916,11.969334347493827 L 77.11508436993819,11.035388331820968 A 70.9340931103365 70.9340931103365 0 0 0 77.19285646907836,11.005573176471927 L 76.11732496689021,8.20499609526154 L 83.90679157560062,8.96276251823463 L 78.6268984719959,14.73967595141911 L 77.55136696980775,11.939098870208724 A 71.9340931103365 71.9340931103365 0 0 1 77.47249847123916,11.969334347493827"/><text text-anchor="middle" pointer-events="none" font-size="8px" fill="#000000" x="49.98274341764111" y="19.198699842716806" font-family="sans-serif">CONNECTI…</text></g><g class="relationship" transform="translate(28.36553922059226 39.501211531311085) rotate(342.56711954730395)"><path class="outline" fill="#A5ABB6" stroke="none" d="M 22.982190118496508,9.852356944268795 L 23.357748420851518,8.925558173481836 A 75.4669272901676 75.4669272901676 0 0 0 24.01484079231025,9.188245886962108 L 23.64798951427772,10.118525489987931 A 76.4669272901676 76.4669272901676 0 0 1 22.982190118496508,9.852356944268795 Z M 76.4316485471567,11.339903190435578 L 76.10821892986068,10.393650960501205 A 75.4669272901676 75.4669272901676 0 0 0 76.77675834846109,10.161637458264519 L 75.77989337471654,7.332103888200141 L 83.54514750756873,8.307208114537953 L 78.10591164678716,13.934348885017023 L 77.10904667304261,11.104815314952646 A 76.4669272901676 76.4669272901676 0 0 1 76.4316485471567,11.339903190435578"/><text text-anchor="middle" pointer-events="none" font-size="8px" fill="#000000" x="49.942627280860194" y="17.92950077362302" font-family="sans-serif">CONNECT…</text></g><g class="relationship" transform="translate(28.36553922059226 39.501211531311085) rotate(342.56711954730395)"><path class="outline" fill="#A5ABB6" stroke="none" d="M 24.221476084042255,6.210482775933699 L 24.45042663399239,5.237044721573006 A 119.0193816517962 119.0193816517962 0 0 0 25.997863515951728,5.590126519780853 L 25.781914519702205,6.56653116490439 A 120.0193816517962 120.0193816517962 0 0 1 24.221476084042255,6.210482775933699 Z M 74.31173973861895,7.249148557469667 L 74.12333883278589,6.267056352693928 A 119.0193816517962 119.0193816517962 0 0 0 75.68009440020322,5.957637925335994 L 75.07565213501492,3.0191605053012496 L 82.637282091149,5.0370188765691015 L 76.48601742045427,9.875607818715652 L 75.88157515526598,6.937130398680908 A 120.0193816517962 120.0193816517962 0 0 1 74.31173973861895,7.249148557469667"/><text text-anchor="middle" pointer-events="none" font-size="8px" fill="#000000" x="50.01899388533766" y="11.886609333974192" font-family="sans-serif">CONNEC…</text></g><g class="relationship" transform="translate(28.36553922059226 39.501211531311085) rotate(342.56711954730395)"><path class="outline" fill="#A5ABB6" stroke="none" d="M 24.88746257968859,2.4216123439973125 L 24.964386333883052,1.4245753657258797 A 347.55965129347663 347.55965129347663 0 0 0 25.78487231279881,1.4869008481667265 L 25.710309264100115,2.4841171495621666 A 348.55965129347663 348.55965129347663 0 0 1 24.88746257968859,2.4216123439973125 Z M 74.40795471353047,2.713925690830706 L 74.34280668187688,1.7160500803603327 A 347.55965129347663 347.55965129347663 0 0 0 75.16384434342592,1.6614710946913405 L 74.96131337006749,-1.3316846321011164 L 82.18162953483474,1.6877581113203772 L 75.43388564123718,5.652345397081283 L 75.23135466787875,2.659189670288826 A 348.55965129347663 348.55965129347663 0 0 1 74.40795471353047,2.713925690830706"/><text text-anchor="middle" pointer-events="none" font-size="8px" fill="#000000" x="50.05747320436601" y="5.950526619011441" font-family="sans-serif">CONNEC…</text></g><g class="relationship" transform="translate(28.36553922059226 39.501211531311085) rotate(342.56711954730395)"><path class="outline" fill="#A5ABB6" stroke="none" d="M 24.88746257968859,-2.4216123439973125 L 24.964386333883052,-1.4245753657258797 A 347.55965129347663 347.55965129347663 0 0 1 25.78487231279877,-1.4869008481667265 L 25.710309264100072,-2.4841171495621666 A 348.55965129347663 348.55965129347663 0 0 0 24.88746257968859,-2.4216123439973125 Z M 74.40795471353037,-2.713925690830706 L 74.34280668187677,-1.7160500803603327 A 347.55965129347663 347.55965129347663 0 0 1 75.16384434342592,-1.6614710946913405 L 74.96131337006749,1.3316846321011164 L 82.18162953483474,-1.6877581113203772 L 75.43388564123718,-5.652345397081283 L 75.23135466787875,-2.659189670288826 A 348.55965129347663 348.55965129347663 0 0 0 74.40795471353037,-2.713925690830706"/><text text-anchor="middle" pointer-events="none" font-size="8px" fill="#000000" x="50.05747320436594" y="0.0494733809885588" font-family="sans-serif">CONNEC…</text></g><g class="relationship" transform="translate(28.36553922059226 39.501211531311085) rotate(342.56711954730395)"><path class="outline" fill="#A5ABB6" stroke="none" d="M 24.221476084042255,-6.210482775933699 L 24.45042663399239,-5.237044721573006 A 119.0193816517962 119.0193816517962 0 0 1 25.99786351595172,-5.590126519780853 L 25.781914519702198,-6.56653116490439 A 120.0193816517962 120.0193816517962 0 0 0 24.221476084042255,-6.210482775933699 Z M 74.3117397386189,-7.249148557469681 L 74.12333883278583,-6.267056352693928 A 119.0193816517962 119.0193816517962 0 0 1 75.68009440020322,-5.957637925335994 L 75.07565213501492,-3.0191605053012496 L 82.637282091149,-5.0370188765691015 L 76.48601742045427,-9.875607818715652 L 75.88157515526598,-6.937130398680908 A 120.0193816517962 120.0193816517962 0 0 0 74.3117397386189,-7.249148557469681"/><text text-anchor="middle" pointer-events="none" font-size="8px" fill="#000000" x="50.01899388533763" y="-5.886609333974192" font-family="sans-serif">CONNEC…</text></g><g class="relationship" transform="translate(28.36553922059226 39.501211531311085) rotate(342.56711954730395)"><path class="outline" fill="#A5ABB6" stroke="none" d="M 22.982190118496508,-9.852356944268795 L 23.357748420851518,-8.925558173481836 A 75.4669272901676 75.4669272901676 0 0 1 24.01484079231024,-9.188245886962108 L 23.64798951427771,-10.118525489987931 A 76.4669272901676 76.4669272901676 0 0 0 22.982190118496508,-9.852356944268795 Z M 76.43164854715667,-11.339903190435578 L 76.10821892986067,-10.393650960501219 A 75.4669272901676 75.4669272901676 0 0 1 76.77675834846109,-10.161637458264519 L 75.77989337471654,-7.332103888200141 L 83.54514750756873,-8.307208114537953 L 78.10591164678716,-13.934348885017023 L 77.10904667304261,-11.104815314952646 A 76.4669272901676 76.4669272901676 0 0 0 76.43164854715667,-11.339903190435578"/><text text-anchor="middle" pointer-events="none" font-size="8px" fill="#000000" x="49.94262728086019" y="-11.929500773623019" font-family="sans-serif">CONNECT…</text></g><g class="relationship" transform="translate(28.36553922059226 39.501211531311085) rotate(342.56711954730395)"><path class="outline" fill="#A5ABB6" stroke="none" d="M 21.198937411768455,-13.261035125959197 L 21.71221435609968,-12.402812090601834 A 58.42414215754266 58.42414215754266 0 0 1 21.71275616489053,-12.403136125891315 L 21.199488494273407,-13.261364707505365 A 59.42414215754266 59.42414215754266 0 0 0 21.198937411768455,-13.261035125959197 Z M 78.90290666396514,-15.093954555842792 L 78.4451309829305,-14.20488682734667 A 58.42414215754266 58.42414215754266 0 0 1 78.4456922610535,-14.20459782474579 L 77.07233639708359,-11.537409479146723 L 84.89802437811296,-11.444632199749194 L 80.27683341301336,-17.760848952211212 L 78.90347754904346,-15.093660606612143 A 59.42414215754266 59.42414215754266 0 0 0 78.90290666396514,-15.093954555842792"/><text text-anchor="middle" pointer-events="none" font-size="8px" fill="#000000" x="49.82956400293692" y="-18.15631606071478" font-family="sans-serif">CONNECTION</text></g><g class="relationship" transform="translate(28.36553922059226 39.501211531311085) rotate(342.56711954730395)"><path class="outline" fill="#A5ABB6" stroke="none" d="M 18.913925871745995,-16.355837126790473 L 19.552772677397954,-15.586503155807593 A 50.32068182244556 50.32068182244556 0 0 1 22.141453072851434,-17.597343130436037 L 21.554049934131243,-18.40663760874518 A 51.32068182244556 51.32068182244556 0 0 0 18.913925871745995,-16.355837126790473 Z M 78.45435265108935,-20.668251606067848 L 77.9330350811912,-19.814888851246963 A 50.32068182244556 50.32068182244556 0 0 1 80.67314648872014,-18.015852145757414 L 78.94583481955071,-15.563018193458337 L 86.68431098894622,-14.394263909745256 L 82.97622871427937,-21.286297415489518 L 81.24891704510995,-18.83346346319044 A 51.32068182244556 51.32068182244556 0 0 0 78.45435265108935,-20.668251606067848"/><text text-anchor="middle" pointer-events="none" font-size="8px" fill="#000000" x="49.68160566805278" y="-24.65367872791446" font-family="sans-serif">CONNECTION</text></g><g class="relationship" transform="translate(28.36553922059226 39.501211531311085) rotate(342.56711954730395)"><path class="outline" fill="#A5ABB6" stroke="none" d="M 16.181239564159192,-19.063511905398997 L 16.93053533041732,-18.401276407507467 A 46.40283016826864 46.40283016826864 0 0 1 22.372943302230087,-23.63203650097922 L 21.74093365735889,-24.406997021773527 A 47.40283016826864 47.40283016826864 0 0 0 16.181239564159192,-19.063511905398997 Z M 78.08683614484325,-27.051391995209777 L 77.53018464253252,-26.22064588178209 A 46.40283016826864 46.40283016826864 0 0 1 83.43856613111123,-21.52259481005796 L 81.38662749947243,-19.334091245521634 L 88.88706422030248,-17.09948859699011 L 86.17448430662965,-24.440599562773066 L 84.12254567499085,-22.25209599823674 A 47.40283016826864 47.40283016826864 0 0 0 78.08683614484325,-27.051391995209777"/><text text-anchor="middle" pointer-events="none" font-size="8px" fill="#000000" x="49.50118179355087" y="-31.52293723145872" font-family="sans-serif">CONNECTION</text></g><g class="relationship" transform="translate(28.36553922059226 39.501211531311085) rotate(342.56711954730395)"><path class="outline" fill="#A5ABB6" stroke="none" d="M 13.065558593808642,-21.319971356260147 L 13.907568197342588,-20.78050882043712 A 44.88358703028714 44.88358703028714 0 0 1 22.38633140455016,-30.55641126394932 L 21.73322745157142,-31.313679529891807 A 45.88358703028714 45.88358703028714 0 0 0 13.065558593808642,-21.319971356260147 Z M 77.81499779047738,-34.29426785791181 L 77.24583962384705,-33.472039798698304 A 44.88358703028714 44.88358703028714 0 0 1 86.71303568120408,-24.64991460572305 L 84.37277779541958,-22.772897549853955 L 91.48278512586272,-19.502149048204085 L 89.83337952891674,-27.152604013548515 L 87.49312164313224,-25.27558695767942 A 45.88358703028714 45.88358703028714 0 0 0 77.81499779047738,-34.29426785791181"/><text text-anchor="middle" pointer-events="none" font-size="8px" fill="#000000" x="49.29136884768046" y="-38.88712186793913" font-family="sans-serif">CONNECTION</text></g><g class="relationship" transform="translate(28.36553922059226 39.501211531311085) rotate(342.56711954730395)"><path class="outline" fill="#A5ABB6" stroke="none" d="M 9.640628187553363,-23.071807214636475 L 10.555422056041385,-22.66788620976458 A 44.97686186928496 44.97686186928496 0 0 1 22.19871726082079,-38.450656317037016 L 21.542796393268627,-39.20548597696674 A 45.97686186928496 45.97686186928496 0 0 0 9.640628187553363,-23.071807214636475 Z M 77.62457005467977,-42.47166308131041 L 77.06070837550538,-41.645793838174036 A 44.97686186928496 44.97686186928496 0 0 1 90.45743448203946,-27.32134323400909 L 87.87227491198433,-25.799190154535037 L 94.43998492915478,-21.542996417126112 L 93.90431390877964,-29.350880673307824 L 91.31915433872452,-27.828727593833772 A 45.97686186928496 45.97686186928496 0 0 0 77.62457005467977,-42.47166308131041"/><text text-anchor="middle" pointer-events="none" font-size="8px" fill="#000000" x="49.055908018664084" y="-46.90071925146358" font-family="sans-serif">CONNECTION</text></g><g class="relationship" transform="translate(28.36553922059226 39.501211531311085) rotate(342.56711954730395)"><path class="outline" fill="#A5ABB6" stroke="none" d="M 5.987513214418485,-24.277555179777966 L 6.953439040707552,-24.018736134675446 A 46.32502751178901 46.32502751178901 0 0 1 21.846156442353358,-47.45149201811694 L 21.201713801322104,-48.216144672869845 A 47.32502751178901 47.32502751178901 0 0 0 5.987513214418485,-24.277555179777966 Z M 77.48925065206312,-51.70981027035337 L 76.94431127241369,-50.871334824972124 A 46.32502751178901 46.32502751178901 0 0 1 94.62041612095898,-29.460066826988612 L 91.84089678281241,-28.331230147539696 L 97.71762159603088,-23.162661151221435 L 98.3264419051544,-30.965182399587167 L 95.54692256700783,-29.83634572013825 A 47.32502751178901 47.32502751178901 0 0 0 77.48925065206312,-51.70981027035337"/><text text-anchor="middle" pointer-events="none" font-size="8px" fill="#000000" x="48.79921692431269" y="-55.764028253386115" font-family="sans-serif">CONNECTION</text></g><g class="relationship" transform="translate(26.29913020662698 146.13398273241168) rotate(271.1101811999123)"><path class="outline" fill="#A5ABB6" stroke="none" d="M 21.6567284317686,-12.499444532963278 L 22.139187846575794,-11.623526207396388 A 60.765011927811926 60.765011927811926 0 0 1 23.118685349922668,-12.151406937201997 L 22.652345367536725,-13.036012510793007 A 61.765011927811926 61.765011927811926 0 0 0 21.6567284317686,-12.499444532963278 Z M 76.93851297427653,-14.661560028939768 L 76.52593840759403,-13.75063619736725 A 60.765011927811926 60.765011927811926 0 0 1 77.53526640874976,-13.282308950620006 L 76.24771166436602,-10.572659013780395 L 84.07237538543947,-10.729622869864537 L 79.25200606792808,-16.89517553307282 L 77.96445132354434,-14.185525596233209 A 61.765011927811926 61.765011927811926 0 0 0 76.93851297427653,-14.661560028939768"/><text text-anchor="middle" pointer-events="none" font-size="8px" fill="#000000" x="49.622139491967644" y="-16.635902580144986" font-family="sans-serif">CONNECTI…</text></g><g class="relationship" transform="translate(26.29913020662698 146.13398273241168) rotate(386.6481364448555)"><path class="outline" fill="#A5ABB6" stroke="none" d="M 21.991772955509383,11.900080767512723 L 22.449999477236794,11.0112453188578 A 63.968885174017174 63.968885174017174 0 0 0 23.31451319160255,11.448678037198945 L 22.8698012670424,12.344351696605102 A 64.96888517401717 64.96888517401717 0 0 1 21.991772955509383,11.900080767512723 Z M 77.32117210505123,13.883634230809534 L 76.92776943533809,12.964267960239106 A 63.968885174017174 63.968885174017174 0 0 0 77.81561430071413,12.576372561417138 L 76.59376832041293,9.836465190643118 L 84.41237249590371,10.182049835843339 L 79.44474227444907,16.22958238911583 L 78.22289629414787,13.48967501834181 A 64.96888517401717 64.96888517401717 0 0 1 77.32117210505123,13.883634230809534"/><text text-anchor="middle" pointer-events="none" font-size="8px" fill="#000000" x="49.94049994415562" y="21.59657356224197" font-family="sans-serif">CONNECTI…</text></g><g class="relationship" transform="translate(26.29913020662698 146.13398273241168) rotate(271.1101811999123)"><path class="outline" fill="#A5ABB6" stroke="none" d="M 20.290564273975832,-14.613110601225724 L 20.858629020706985,-13.790126735332066 A 53.86218929687184 53.86218929687184 0 0 1 21.70576739647454,-14.363066734687678 L 21.15343053579529,-15.196687747099787 A 54.86218929687184 54.86218929687184 0 0 0 20.290564273975832,-14.613110601225724 Z M 78.45100134279434,-17.223497235102954 L 77.95894731165282,-16.35293257326709 A 53.86218929687184 53.86218929687184 0 0 1 78.8444513354416,-15.84128201437598 L 77.31896870555087,-13.258085787624777 L 85.12615630284286,-12.712355249089466 L 80.87842817529591,-19.28554365004425 L 79.35294554540518,-16.702347423293048 A 54.86218929687184 54.86218929687184 0 0 0 78.45100134279434,-17.223497235102954"/><text text-anchor="middle" pointer-events="none" font-size="8px" fill="#000000" x="49.534066816981415" y="-20.79062406722094" font-family="sans-serif">CONNECTION</text></g><g class="relationship" transform="translate(26.29913020662698 146.13398273241168) rotate(386.6481364448555)"><path class="outline" fill="#A5ABB6" stroke="none" d="M 21.245220988662066,13.18675794662634 L 21.755491021722964,12.32674370641864 A 58.80562498954862 58.80562498954862 0 0 0 23.477575695516663,13.309633273746144 L 22.99659001534037,14.186361723989059 A 59.80562498954862 59.80562498954862 0 0 1 21.245220988662066,13.18675794662634 Z M 77.1669765885297,15.894661880556953 L 76.74218816162735,14.989369224909169 A 58.80562498954862 58.80562498954862 0 0 0 78.52278161267544,14.1169390057163 L 77.15757841715845,11.445568526926401 L 84.98351326243804,11.37669329597496 L 80.34305254003144,17.6787663107695 L 78.97784934451444,15.0073958319796 A 59.80562498954862 59.80562498954862 0 0 1 77.1669765885297,15.894661880556953"/><text text-anchor="middle" pointer-events="none" font-size="8px" fill="#000000" x="49.89292510507138" y="24.02922607610057" font-family="sans-serif">CONNECTI…</text></g><g class="relationship" transform="translate(26.29913020662698 146.13398273241168) rotate(386.6481364448555)"><path class="outline" fill="#A5ABB6" stroke="none" d="M 20.42347816666382,14.426764695378036 L 20.983985768904716,13.598615416666664 A 54.91139341795093 54.91139341795093 0 0 0 21.941428472198204,14.232139261829062 L 21.39835700923001,15.071825742671521 A 55.91139341795093 55.91139341795093 0 0 1 20.42347816666382,14.426764695378036 Z M 78.79795022955598,17.064097647409532 L 78.3144045808516,16.188778502400666 A 54.91139341795093 54.91139341795093 0 0 0 79.31346800233791,15.623162667820964 L 77.80824875412132,13.02810678888535 L 85.61946826122377,12.543493735138199 L 81.32042699996002,19.08323717306845 L 79.81520775174343,16.488181294132836 A 55.91139341795093 55.91139341795093 0 0 1 78.79795022955598,17.064097647409532"/><text text-anchor="middle" pointer-events="none" font-size="8px" fill="#000000" x="49.84013281929409" y="26.501831004163584" font-family="sans-serif">CONNECTION</text></g><g class="relationship" transform="translate(26.29913020662698 146.13398273241168) rotate(271.1101811999123)"><path class="outline" fill="#A5ABB6" stroke="none" d="M 18.71885000674371,-16.57874103860215 L 19.366765402124248,-15.817028730424791 A 49.52664309056741 49.52664309056741 0 0 1 21.96092257613349,-17.878131308512494 L 21.36538620368139,-18.681459653018393 A 50.52664309056741 50.52664309056741 0 0 0 18.71885000674371,-16.57874103860215 Z M 78.16536068203341,-20.98187093017811 L 77.63673817504957,-20.133013907405648 A 49.52664309056741 49.52664309056741 0 0 1 80.38907586925748,-18.288445530276267 L 78.63648973853618,-15.85360634577078 L 86.36246498822383,-14.604884422677486 L 82.72585737688588,-21.534897776283586 L 80.97327124616459,-19.100058591778097 A 50.52664309056741 50.52664309056741 0 0 0 78.16536068203341,-20.98187093017811"/><text text-anchor="middle" pointer-events="none" font-size="8px" fill="#000000" x="49.43140967747605" y="-25.077640060847486" font-family="sans-serif">CONNECTION</text></g><g class="relationship" transform="translate(26.29913020662698 146.13398273241168) rotate(386.6481364448555)"><path class="outline" fill="#A5ABB6" stroke="none" d="M 19.529452792776517,15.615712395363635 L 20.13821422178524,14.822359055072399 A 51.948141752372 51.948141752372 0 0 0 22.10378140864057,16.258691295408653 L 21.53285708256856,17.07969398352801 A 52.948141752372 52.948141752372 0 0 1 19.529452792776517,15.615712395363635 Z M 78.62565199390849,19.236561671073993 L 78.11829872568168,18.374823508277665 A 51.948141752372 51.948141752372 0 0 0 80.18663306196488,17.090885135915663 L 78.54512715585457,14.579817960349668 L 86.31937412263724,13.679215884252603 L 82.3753076034453,20.438974703336985 L 80.73380169733498,17.92790752777099 A 52.948141752372 52.948141752372 0 0 1 78.62565199390849,19.236561671073993"/><text text-anchor="middle" pointer-events="none" font-size="8px" fill="#000000" x="49.78225097149634" y="29.019882084114442" font-family="sans-serif">CONNECTION</text></g><g class="relationship" transform="translate(26.29913020662698 146.13398273241168) rotate(386.6481364448555)"><path class="outline" fill="#A5ABB6" stroke="none" d="M 18.56630899188382,16.749393135809257 L 19.221169725829103,15.993643561454997 A 49.6915875646265 49.6915875646265 0 0 0 22.23818957669103,18.40904058988628 L 21.644043744376493,19.213397929594983 A 50.6915875646265 50.6915875646265 0 0 1 18.56630899188382,16.749393135809257 Z M 78.4643535457682,21.527925051533764 L 77.93759722190245,20.677908713298173 A 49.6915875646265 49.6915875646265 0 0 0 81.14107388074706,18.515898333654405 L 79.36740336076831,16.096375056940932 L 87.0822399464083,14.780587666489566 L 83.5059679073854,21.741929369272373 L 81.73229738740665,19.3224060925589 A 50.6915875646265 50.6915875646265 0 0 1 78.4643535457682,21.527925051533764"/><text text-anchor="middle" pointer-events="none" font-size="8px" fill="#000000" x="49.71942157658779" y="31.589245997692657" font-family="sans-serif">CONNECTION</text></g><g class="relationship" transform="translate(26.29913020662698 146.13398273241168) rotate(271.1101811999123)"><path class="outline" fill="#A5ABB6" stroke="none" d="M 16.957507614068078,-18.376423360350163 L 17.67871006141189,-17.683699006840566 A 46.83446375564752 46.83446375564752 0 0 1 22.127673324679268,-21.755057175888 L 21.501464241335075,-22.534712345778658 A 47.83446375564752 47.83446375564752 0 0 0 16.957507614068078,-18.376423360350163 Z M 77.9174442364853,-25.089032020653264 L 77.36425303882416,-24.255977701397775 A 46.83446375564752 46.83446375564752 0 0 1 82.16293288803605,-20.603320700892574 L 80.19597796956666,-18.33813012420614 L 87.77620338671596,-16.391290987245036 L 84.78553944599525,-23.623574803141153 L 82.81858452752586,-21.358384226454717 A 47.83446375564752 47.83446375564752 0 0 0 77.9174442364853,-25.089032020653264"/><text text-anchor="middle" pointer-events="none" font-size="8px" fill="#000000" x="49.31489309619151" y="-29.52634662955682" font-family="sans-serif">CONNECTION</text></g><g class="relationship" transform="translate(26.29913020662698 146.13398273241168) rotate(386.6481364448555)"><path class="outline" fill="#A5ABB6" stroke="none" d="M 17.5374555120548,17.82379460616338 L 18.236097874946534,17.108323538423353 A 47.98755863528368 47.98755863528368 0 0 0 22.341831146368662,20.68563286042879 L 21.7287470695866,21.475650527823817 A 48.98755863528368 48.98755863528368 0 0 1 17.5374555120548,17.82379460616338 Z M 78.31617691408859,23.94097492375466 L 77.77412218785742,23.100631735663946 A 47.98755863528368 47.98755863528368 0 0 0 82.17541140595756,19.89394483170763 L 80.27409533311058,17.573385159746206 L 87.90693665267538,15.844300607058225 L 84.71049950308688,22.98802439432286 L 82.8091834302399,20.667464722361437 A 48.98755863528368 48.98755863528368 0 0 1 78.31617691408859,23.94097492375466"/><text text-anchor="middle" pointer-events="none" font-size="8px" fill="#000000" x="49.65180094843754" y="34.216221796137376" font-family="sans-serif">CONNECTION</text></g><g class="relationship" transform="translate(26.29913020662698 146.13398273241168) rotate(386.6481364448555)"><path class="outline" fill="#A5ABB6" stroke="none" d="M 16.44653366033987,18.835114296422724 L 17.186485024722753,18.16245392272147 A 46.727063248839436 46.727063248839436 0 0 0 22.413122687953056,23.09098531722607 L 21.785025938430014,23.869120571046764 A 47.727063248839436 47.727063248839436 0 0 1 16.44653366033987,18.835114296422724 Z M 78.18225662109741,26.47840305906 L 77.6286919223008,25.645596884583476 A 46.727063248839436 46.727063248839436 0 0 0 83.2880757468988,21.220719745589264 L 81.26403436751413,19.006389938505734 L 88.79218552665782,16.867011494872276 L 85.98679758607837,24.173159488367304 L 83.9627562066937,21.958829681283774 A 47.727063248839436 47.727063248839436 0 0 1 78.18225662109741,26.47840305906"/><text text-anchor="middle" pointer-events="none" font-size="8px" fill="#000000" x="49.579559868423694" y="36.90760825544893" font-family="sans-serif">CONNECTION</text></g><g class="relationship" transform="translate(26.29913020662698 146.13398273241168) rotate(386.6481364448555)"><path class="outline" fill="#A5ABB6" stroke="none" d="M 15.297404415496423,19.779772954934305 L 16.076045953546178,19.152303947553452 A 45.83135054051057 45.83135054051057 0 0 0 22.451552903346354,25.628007033786105 L 21.81201935305194,26.39677022102118 A 46.83135054051057 46.83135054051057 0 0 1 15.297404415496423,19.779772954934305 Z M 78.06288344851947,29.143119724090226 L 77.50128007992855,28.31571313940085 A 45.83135054051057 45.83135054051057 0 0 0 84.47729052607973,22.491874406813643 L 82.33584907316929,20.390867861427168 L 89.73654604079991,17.845345440920358 L 87.33254579662697,25.293216467328946 L 85.19110434371653,23.19220992194247 A 46.83135054051057 46.83135054051057 0 0 1 78.06288344851947,29.143119724090226"/><text text-anchor="middle" pointer-events="none" font-size="8px" fill="#000000" x="49.502883748740885" y="39.67078075771076" font-family="sans-serif">CONNECTION</text></g><g class="relationship" transform="translate(26.29913020662698 146.13398273241168) rotate(271.1101811999123)"><path class="outline" fill="#A5ABB6" stroke="none" d="M 15.024380075409052,-19.987946451540527 L 15.8115635560181,-19.37122757891198 A 45.28077286177769 45.28077286177769 0 0 1 22.199362021141784,-26.005912670661125 L 21.553249420321443,-26.76915477318245 A 46.28077286177769 46.28077286177769 0 0 0 15.024380075409052,-19.987946451540527 Z M 77.7119408363517,-29.55775395350919 L 77.14461883045634,-28.734257905172072 A 45.28077286177769 45.28077286177769 0 0 1 84.15827336148251,-22.76503135417482 L 81.99162968342813,-20.69002408374251 L 89.36106427216697,-18.055363983786627 L 87.04713159888837,-25.53170771475123 L 84.88048792083399,-23.456700444318923 A 46.28077286177769 46.28077286177769 0 0 0 77.7119408363517,-29.55775395350919"/><text text-anchor="middle" pointer-events="none" font-size="8px" fill="#000000" x="49.18536100444262" y="-34.170156843813594" font-family="sans-serif">CONNECTION</text></g><g class="relationship" transform="translate(26.29913020662698 146.13398273241168) rotate(386.6481364448555)"><path class="outline" fill="#A5ABB6" stroke="none" d="M 14.094134763254786,20.65442725604399 L 14.908710715305123,20.074370346472794 A 45.24259330420837 45.24259330420837 0 0 0 22.457497528402815,28.300271389889367 L 21.809772905195196,29.062145928439215 A 46.24259330420837 46.24259330420837 0 0 1 14.094134763254786,20.65442725604399 Z M 77.9576670550743,31.938531666245687 L 77.39118870786223,31.114455042296257 A 45.24259330420837 45.24259330420837 0 0 0 85.74105640607499,23.703021999488467 L 83.48794834825677,21.72223829605323 L 90.73840305706024,18.775900481818493 L 88.74520048316595,26.344066937402115 L 86.49209242534772,24.36328323396688 A 46.24259330420837 46.24259330420837 0 0 1 77.9576670550743,31.938531666245687"/><text text-anchor="middle" pointer-events="none" font-size="8px" fill="#000000" x="49.42197278470981" y="42.513779627602496" font-family="sans-serif">CONNECTION</text></g><g class="relationship" transform="translate(26.29913020662698 146.13398273241168) rotate(386.6481364448555)"><path class="outline" fill="#A5ABB6" stroke="none" d="M 12.840983302486569,21.45598163275829 L 13.68861073018383,20.92538975210488 A 44.9178816718532 44.9178816718532 0 0 0 22.432034038451068,31.112249388296547 L 21.779060120287987,31.8696297829456 A 45.9178816718532 45.9178816718532 0 0 1 12.840983302486569,21.45598163275829 Z M 77.86570025247693,34.86878974597677 L 77.29721886629899,34.0460936212933 A 44.9178816718532 44.9178816718532 0 0 0 87.0771339478703,24.849745357320533 L 84.71850348239849,22.9958677110482 L 91.79595353341772,19.655253878931713 L 90.22197456849938,27.32158221901698 L 87.86334410302757,25.467704572744648 A 45.9178816718532 45.9178816718532 0 0 1 77.86570025247693,34.86878974597677"/><text text-anchor="middle" pointer-events="none" font-size="8px" fill="#000000" x="49.337042089602946" y="45.445412271846756" font-family="sans-serif">CONNECTION</text></g><g class="relationship" transform="translate(26.29913020662698 146.13398273241168) rotate(271.1101811999123)"><path class="outline" fill="#A5ABB6" stroke="none" d="M 12.939050610423134,-21.396985051658767 L 13.784240695966929,-20.862519225530967 A 44.571747693674475 44.571747693674475 0 0 1 22.177425262835424,-30.64721530345161 L 21.52054245715312,-31.401207995457938 A 45.571747693674475 45.571747693674475 0 0 0 12.939050610423134,-21.396985051658767 Z M 77.54723616952305,-34.4038375341731 L 76.97470170358847,-33.5839568810796 A 44.571747693674475 44.571747693674475 0 0 1 86.36558627381622,-24.752359545407337 L 84.01590863238393,-22.887147766184093 L 91.1093600322425,-19.580647011935845 L 89.49848979572594,-27.239308584371663 L 87.14881215429365,-25.37409680514842 A 45.571747693674475 45.571747693674475 0 0 0 77.54723616952305,-34.4038375341731"/><text text-anchor="middle" pointer-events="none" font-size="8px" fill="#000000" x="49.043778522706255" y="-39.04760270151891" font-family="sans-serif">CONNECTION</text></g><g class="relationship" transform="translate(26.29913020662698 146.13398273241168) rotate(271.1101811999123)"><path class="outline" fill="#A5ABB6" stroke="none" d="M 10.722644294488074,-22.589265134879494 L 11.617278930593223,-22.142466670377868 A 44.530537275939515 44.530537275939515 0 0 1 22.06879810463492,-35.70328610715252 L 21.408868006435466,-36.45461311018813 A 45.530537275939515 45.530537275939515 0 0 0 10.722644294488074,-22.589265134879494 Z M 77.4177101815346,-39.64964803794565 L 76.84750232121063,-38.828147583883236 A 44.530537275939515 44.530537275939515 0 0 1 88.77336105992966,-26.543849875577493 L 86.25929834696485,-24.906935499295077 L 93.01183839008277,-20.95052260804002 L 92.12544467721607,-28.726402377287382 L 89.61138196425127,-27.089488001004966 A 45.530537275939515 45.530537275939515 0 0 0 77.4177101815346,-39.64964803794565"/><text text-anchor="middle" pointer-events="none" font-size="8px" fill="#000000" x="48.891233902002796" y="-44.203738464296414" font-family="sans-serif">CONNECTION</text></g><g class="relationship" transform="translate(26.29913020662698 146.13398273241168) rotate(386.6481364448555)"><path class="outline" fill="#A5ABB6" stroke="none" d="M 11.542385173217793,22.18159923254142 L 12.420064162785048,21.70235024582136 A 44.82524423413572 44.82524423413572 0 0 0 22.376768846564012,34.06951554865539 L 21.72121256606159,34.8246618676518 A 45.82524423413572 45.82524423413572 0 0 1 11.542385173217793,22.18159923254142 Z M 77.78571290652492,37.9390148924583 L 77.21782780057205,37.11590705843113 A 44.82524423413572 44.82524423413572 0 0 0 88.48302598722711,25.92760711594695 L 86.02542955566392,24.20707819158449 L 92.90719288266672,20.479970263026573 L 91.75982122931137,28.221645681763565 L 89.30222479774818,26.501116757401103 A 45.82524423413572 45.82524423413572 0 0 1 77.78571290652492,37.9390148924583"/><text text-anchor="middle" pointer-events="none" font-size="8px" fill="#000000" x="49.248321804735966" y="48.475371998015724" font-family="sans-serif">CONNECTION</text></g><g class="relationship" transform="translate(26.29913020662698 146.13398273241168) rotate(386.6481364448555)"><path class="outline" fill="#A5ABB6" stroke="none" d="M 10.202936359829577,22.82871195747293 L 11.10756063932883,22.402502017489763 A 44.94095450597666 44.94095450597666 0 0 0 22.293684515574526,37.178939246191156 L 21.637967363198218,37.933945879327254 A 45.94095450597666 45.94095450597666 0 0 1 10.202936359829577,22.82871195747293 Z M 77.71620807907158,41.15551269378089 L 77.15126620686061,40.3303819883634 A 44.94095450597666 44.94095450597666 0 0 0 89.95595974959684,26.932162411677922 L 87.40636633707527,25.351158480365097 L 94.06990115808036,21.246611771013058 L 93.35541763295893,29.04016765342835 L 90.80582422043736,27.459163722115527 A 45.94095450597666 45.94095450597666 0 0 1 77.71620807907158,41.15551269378089"/><text text-anchor="middle" pointer-events="none" font-size="8px" fill="#000000" x="49.15605717678595" y="51.614377060188026" font-family="sans-serif">CONNECTION</text></g><g class="relationship" transform="translate(26.29913020662698 146.13398273241168) rotate(386.6481364448555)"><path class="outline" fill="#A5ABB6" stroke="none" d="M 8.82737742500015,23.39502955323198 L 9.755745358016224,23.02336709757165 A 45.24767861683915 45.24767861683915 0 0 0 22.185010445625995,40.448874545321175 L 21.53133649620324,41.20565084505978 A 46.24767861683915 46.24767861683915 0 0 1 8.82737742500015,23.39502955323198 Z M 77.6555767871606,44.525987665554226 L 77.09569273822531,43.69741669590357 A 45.24767861683915 45.24767861683915 0 0 0 91.49286896116067,27.858974309248374 L 88.8586589234505,26.423377751288232 L 95.28162926935269,21.95175031425135 L 95.00514901144088,29.773103053195232 L 92.37093897373072,28.33750649523509 A 46.24767861683915 46.24767861683915 0 0 1 77.6555767871606,44.525987665554226"/><text text-anchor="middle" pointer-events="none" font-size="8px" fill="#000000" x="49.06050859349586" y="54.874334335574275" font-family="sans-serif">CONNECTION</text></g><g class="relationship" transform="translate(26.29913020662698 146.13398273241168) rotate(271.1101811999123)"><path class="outline" fill="#A5ABB6" stroke="none" d="M 8.397614054720682,-23.552708510656636 L 9.332630297406096,-23.198103623614102 A 45.05077850159476 45.05077850159476 0 0 1 21.883638659619564,-41.20901508936652 L 21.22721934199659,-41.96341132441239 A 46.05077850159476 46.05077850159476 0 0 0 8.397614054720682,-23.552708510656636 Z M 77.31576415440145,-45.327188448435706 L 76.75421177561842,-44.49974725663829 A 45.05077850159476 45.05077850159476 0 0 1 91.36783985834056,-28.117970277464188 L 88.7100389560826,-26.7265341977405 L 95.05749086140548,-22.148340852149587 L 94.9115743946845,-29.973218383762443 L 92.25377349242653,-28.581782304038754 A 46.05077850159476 46.05077850159476 0 0 0 77.31576415440145,-45.327188448435706"/><text text-anchor="middle" pointer-events="none" font-size="8px" fill="#000000" x="48.72893983909255" y="-49.69195962188749" font-family="sans-serif">CONNECTION</text></g><g class="relationship" transform="translate(26.29913020662698 146.13398273241168) rotate(271.1101811999123)"><path class="outline" fill="#A5ABB6" stroke="none" d="M 5.987513214418485,-24.277555179777966 L 6.953439040707552,-24.018736134675446 A 46.07227562418923 46.07227562418923 0 0 1 21.63359418043796,-47.21255756315208 L 20.986301522162478,-47.974799135452265 A 47.07227562418923 47.07227562418923 0 0 0 5.987513214418485,-24.277555179777966 Z M 77.23335645239915,-51.48113802021221 L 76.68574076633845,-50.64440803964484 A 46.07227562418923 46.07227562418923 0 0 1 94.13276922367984,-29.453336679486373 L 91.35385747880913,-28.323005084679068 L 97.233361569042,-23.157597873922604 L 97.83798488350745,-30.960445472562782 L 95.05907313863673,-29.830113877755476 A 47.07227562418923 47.07227562418923 0 0 0 77.23335645239915,-51.48113802021221"/><text text-anchor="middle" pointer-events="none" font-size="8px" fill="#000000" x="48.55823382492225" y="-55.576401206887525" font-family="sans-serif">CONNECTION</text></g><g class="relationship" transform="translate(26.29913020662698 146.13398273241168) rotate(386.6481364448555)"><path class="outline" fill="#A5ABB6" stroke="none" d="M 7.420576731956966,23.878547714740503 L 8.369402648794285,23.562748127125477 A 45.733190683863235 45.733190683863235 0 0 0 22.05311758579378,43.88936141358079 L 21.403499197064217,44.64962186173287 A 46.733190683863235 46.733190683863235 0 0 1 7.420576731956966,23.878547714740503 Z M 77.60219053060436,48.059768615276 L 77.04926549118008,47.22653761442591 A 45.733190683863235 45.733190683863235 0 0 0 93.09037625323457,28.70363212706607 L 90.37933840046716,27.419002312348123 L 96.53968546303767,22.591982106395097 L 96.70509339025779,30.416471880023327 L 93.99405553749038,29.13184206530538 A 46.733190683863235 46.733190683863235 0 0 1 77.60219053060436,48.059768615276"/><text text-anchor="middle" pointer-events="none" font-size="8px" fill="#000000" x="48.961951568129315" y="58.26853313657202" font-family="sans-serif">CONNECTION</text></g><g class="relationship" transform="translate(26.29913020662698 146.13398273241168) rotate(386.6481364448555)"><path class="outline" fill="#A5ABB6" stroke="none" d="M 5.987513214418485,24.277555179777966 L 6.953439040707552,24.018736134675446 A 46.389483508011665 46.389483508011665 0 0 0 21.900435818038403,47.51235117170543 L 21.256716570633735,48.27761291158322 A 47.389483508011665 47.389483508011665 0 0 1 5.987513214418485,24.277555179777966 Z M 77.55447260413685,51.76805696471784 L 77.01021190607565,50.92914082317213 A 46.389483508011665 46.389483508011665 0 0 0 94.74477619897864,29.461772807726234 L 91.96510285153242,28.33331541752615 L 97.84112233401986,23.163944562051753 L 98.45100732890693,30.966382661326342 L 95.6713339814607,29.83792527112626 A 47.389483508011665 47.389483508011665 0 0 1 77.55447260413685,51.76805696471784"/><text text-anchor="middle" pointer-events="none" font-size="8px" fill="#000000" x="48.86067666227345" y="61.811876085702764" font-family="sans-serif">CONNECTION</text></g></g><g class="layer nodes"><g class="node" transform="translate(130.56974630958354,7.407930663536683)"><circle class="outline" cx="0" cy="0" r="25" fill="#ECB5C9" stroke="#da7298" stroke-width="2px"/><text text-anchor="middle" pointer-events="none" font-family="sans-serif" dy="1.5625" font-size="25" fill="#2A2C34"/><text text-anchor="middle" pointer-events="none" x="0" y="5" font-size="10px" fill="#2A2C34" font-family="sans-serif"> LAX</text></g><g class="node" transform="translate(122.15226500486422,194.2344234855487)"><circle class="outline" cx="0" cy="0" r="25" fill="#ECB5C9" stroke="#da7298" stroke-width="2px"/><text text-anchor="middle" pointer-events="none" font-family="sans-serif" dy="1.5625" font-size="25" fill="#2A2C34"/><text text-anchor="middle" pointer-events="none" x="0" y="5" font-size="10px" fill="#2A2C34" font-family="sans-serif"> DAY</text></g><g class="node" transform="translate(28.36553922059226,39.501211531311085)"><circle class="outline" cx="0" cy="0" r="25" fill="#ECB5C9" stroke="#da7298" stroke-width="2px"/><text text-anchor="middle" pointer-events="none" font-family="sans-serif" dy="1.5625" font-size="25" fill="#2A2C34"/><text text-anchor="middle" pointer-events="none" x="0" y="5" font-size="10px" fill="#2A2C34" font-family="sans-serif"> ORD</text></g><g class="node" transform="translate(26.29913020662698,146.13398273241168)"><circle class="outline" cx="0" cy="0" r="25" fill="#ECB5C9" stroke="#da7298" stroke-width="2px"/><text text-anchor="middle" pointer-events="none" font-family="sans-serif" dy="1.5625" font-size="25" fill="#2A2C34"/><text text-anchor="middle" pointer-events="none" x="0" y="5" font-size="10px" fill="#2A2C34" font-family="sans-serif"> MSP</text></g></g></svg>