<svg xmlns="http://www.w3.org/2000/svg" width="560.227294921875" height="555.2669067382812" viewBox="-215.49156188964844 -159.13311767578125 560.227294921875 555.2669067382812"><title>Neo4j Graph Visualization</title><desc>Created using Neo4j (http://www.neo4j.com/)</desc><g class="layer relationships"><g class="relationship" transform="translate(56.83687743936118 125.65863043920123) rotate(391.4383482428195)"><path class="outline" fill="#A5ABB6" stroke="none" d="M 25 0.5 L 45.2367733829099 0.5 L 45.2367733829099 -0.5 L 25 -0.5 Z M 90.7992733829099 0.5 L 111.0360467658198 0.5 L 111.0360467658198 3.5 L 118.0360467658198 0 L 111.0360467658198 -3.5 L 111.0360467658198 -0.5 L 90.7992733829099 -0.5 Z"/><text text-anchor="middle" pointer-events="none" font-size="8px" fill="#000000" x="68.0180233829099" y="3" font-family="sans-serif">ACTED_IN</text></g><g class="relationship" transform="translate(56.83687743936118 125.65863043920123) rotate(517.7961477064243)"><path class="outline" fill="#A5ABB6" stroke="none" d="M 25 0.5 L 39.63604657808081 0.5 L 39.63604657808081 -0.5 L 25 -0.5 Z M 85.19854657808081 0.5 L 99.83459315616162 0.5 L 99.83459315616162 3.5 L 106.83459315616162 0 L 99.83459315616162 -3.5 L 99.83459315616162 -0.5 L 85.19854657808081 -0.5 Z"/><text text-anchor="middle" pointer-events="none" font-size="8px" fill="#000000" x="62.41729657808081" y="3" transform="rotate(180 62.41729657808081 0)" font-family="sans-serif">ACTED_IN</text></g><g class="relationship" transform="translate(56.83687743936118 125.65863043920123) rotate(363.6001143068536)"><path class="outline" fill="#A5ABB6" stroke="none" d="M 24.018736134675446,-6.953439040707552 L 24.277555179777966,-5.987513214418485 A 118.39384703008412 118.39384703008412 0 0 1 30.623019230106546,-7.501705691247267 L 30.417796416645324,-8.480420969985204 A 119.39384703008412 119.39384703008412 0 0 0 24.018736134675446,-6.953439040707552 Z M 75.8872760809355,-9.166214611132062 L 75.7116628563986,-8.181755371057719 A 118.39384703008412 118.39384703008412 0 0 1 82.09990584856399,-6.859619090658825 L 81.41119349780628,-3.9397431861187373 L 89.02773501761715,-5.739269589647531 L 83.0181889829076,-10.752786963378941 L 82.32947663214989,-7.832911058838855 A 119.39384703008412 119.39384703008412 0 0 0 75.8872760809355,-9.166214611132062"/><text text-anchor="middle" pointer-events="none" font-size="8px" fill="#000000" x="53.127124533888036" y="-7.508164929204696" font-family="sans-serif">ACTED_IN</text></g><g class="relationship" transform="translate(56.83687743936118 125.65863043920123) rotate(472.7735050073133)"><path class="outline" fill="#A5ABB6" stroke="none" d="M 25 0.5 L 40.32881633018131 0.5 L 40.32881633018131 -0.5 L 25 -0.5 Z M 85.89131633018131 0.5 L 101.22013266036262 0.5 L 101.22013266036262 3.5 L 108.22013266036262 0 L 101.22013266036262 -3.5 L 101.22013266036262 -0.5 L 85.89131633018131 -0.5 Z"/><text text-anchor="middle" pointer-events="none" font-size="8px" fill="#000000" x="63.11006633018131" y="3" transform="rotate(180 63.11006633018131 0)" font-family="sans-serif">ACTED_IN</text></g><g class="relationship" transform="translate(56.83687743936118 125.65863043920123) rotate(430.1666643859603)"><path class="outline" fill="#A5ABB6" stroke="none" d="M 25 0.5 L 41.0039814252668 0.5 L 41.0039814252668 -0.5 L 25 -0.5 Z M 86.5664814252668 0.5 L 102.5704628505336 0.5 L 102.5704628505336 3.5 L 109.5704628505336 0 L 102.5704628505336 -3.5 L 102.5704628505336 -0.5 L 86.5664814252668 -0.5 Z"/><text text-anchor="middle" pointer-events="none" font-size="8px" fill="#000000" x="63.7852314252668" y="3" font-family="sans-serif">ACTED_IN</text></g><g class="relationship" transform="translate(56.83687743936118 125.65863043920123) rotate(202.36675375922533)"><path class="outline" fill="#A5ABB6" stroke="none" d="M 25 0.5 L 42.179000781059415 0.5 L 42.179000781059415 -0.5 L 25 -0.5 Z M 87.74150078105941 0.5 L 104.92050156211883 0.5 L 104.92050156211883 3.5 L 111.92050156211883 0 L 104.92050156211883 -3.5 L 104.92050156211883 -0.5 L 87.74150078105941 -0.5 Z"/><text text-anchor="middle" pointer-events="none" font-size="8px" fill="#000000" x="64.96025078105941" y="3" transform="rotate(180 64.96025078105941 0)" font-family="sans-serif">ACTED_IN</text></g><g class="relationship" transform="translate(56.83687743936118 125.65863043920123) rotate(297.68427097622504)"><path class="outline" fill="#A5ABB6" stroke="none" d="M 25 0.5 L 41.0399181197178 0.5 L 41.0399181197178 -0.5 L 25 -0.5 Z M 86.6024181197178 0.5 L 102.6423362394356 0.5 L 102.6423362394356 3.5 L 109.6423362394356 0 L 102.6423362394356 -3.5 L 102.6423362394356 -0.5 L 86.6024181197178 -0.5 Z"/><text text-anchor="middle" pointer-events="none" font-size="8px" fill="#000000" x="63.8211681197178" y="3" font-family="sans-serif">ACTED_IN</text></g><g class="relationship" transform="translate(56.83687743936118 125.65863043920123) rotate(335.8544444486904)"><path class="outline" fill="#A5ABB6" stroke="none" d="M 25 0.5 L 47.891361341971944 0.5 L 47.891361341971944 -0.5 L 25 -0.5 Z M 93.45386134197194 0.5 L 116.34522268394389 0.5 L 116.34522268394389 3.5 L 123.34522268394389 0 L 116.34522268394389 -3.5 L 116.34522268394389 -0.5 L 93.45386134197194 -0.5 Z"/><text text-anchor="middle" pointer-events="none" font-size="8px" fill="#000000" x="70.67261134197194" y="3" font-family="sans-serif">ACTED_IN</text></g><g class="relationship" transform="translate(56.83687743936118 125.65863043920123) rotate(230.4214038121259)"><path class="outline" fill="#A5ABB6" stroke="none" d="M 25 0.5 L 41.29265944530553 0.5 L 41.29265944530553 -0.5 L 25 -0.5 Z M 86.85515944530553 0.5 L 103.14781889061106 0.5 L 103.14781889061106 3.5 L 110.14781889061106 0 L 103.14781889061106 -3.5 L 103.14781889061106 -0.5 L 86.85515944530553 -0.5 Z"/><text text-anchor="middle" pointer-events="none" font-size="8px" fill="#000000" x="64.07390944530553" y="3" transform="rotate(180 64.07390944530553 0)" font-family="sans-serif">ACTED_IN</text></g><g class="relationship" transform="translate(56.83687743936118 125.65863043920123) rotate(271.87951708692503)"><path class="outline" fill="#A5ABB6" stroke="none" d="M 25 0.5 L 40.726224359114696 0.5 L 40.726224359114696 -0.5 L 25 -0.5 Z M 86.2887243591147 0.5 L 102.01494871822939 0.5 L 102.01494871822939 3.5 L 109.01494871822939 0 L 102.01494871822939 -3.5 L 102.01494871822939 -0.5 L 86.2887243591147 -0.5 Z"/><text text-anchor="middle" pointer-events="none" font-size="8px" fill="#000000" x="63.507474359114696" y="3" font-family="sans-serif">ACTED_IN</text></g><g class="relationship" transform="translate(56.83687743936118 125.65863043920123) rotate(363.6001143068536)"><path class="outline" fill="#A5ABB6" stroke="none" d="M 24.018736134675446,6.953439040707552 L 24.277555179777966,5.987513214418485 A 118.39384703008412 118.39384703008412 0 0 0 29.976206694528244,7.364191344932706 L 29.765520653443257,8.341745124574487 A 119.39384703008412 119.39384703008412 0 0 1 24.018736134675446,6.953439040707552 Z M 76.54343735651362,9.04727327352002 L 76.36232836069621,8.063810243389241 A 118.39384703008412 118.39384703008412 0 0 0 82.09990584856399,6.859619090658825 L 81.41119349780628,3.9397431861187373 L 89.02773501761715,5.739269589647531 L 83.0181889829076,10.752786963378941 L 82.32947663214989,7.832911058838855 A 119.39384703008412 119.39384703008412 0 0 1 76.54343735651362,9.04727327352002"/><text text-anchor="middle" pointer-events="none" font-size="8px" fill="#000000" x="53.12712453388806" y="13.508164929204696" font-family="sans-serif">DIRECTED</text></g><g class="relationship" transform="translate(307.87442814106765 238.8383203687733) rotate(196.64835917564415)"><path class="outline" fill="#A5ABB6" stroke="none" d="M 25 0.5 L 40.37619309209653 0.5 L 40.37619309209653 -0.5 L 25 -0.5 Z M 87.26681809209653 0.5 L 102.64301118419306 0.5 L 102.64301118419306 3.5 L 109.64301118419306 0 L 102.64301118419306 -3.5 L 102.64301118419306 -0.5 L 87.26681809209653 -0.5 Z"/><text text-anchor="middle" pointer-events="none" font-size="8px" fill="#000000" x="63.82150559209653" y="3" transform="rotate(180 63.82150559209653 0)" font-family="sans-serif">DIRECTED</text></g><g class="relationship" transform="translate(315.7357131937534 14.069595187238512) rotate(517.603523902965)"><path class="outline" fill="#A5ABB6" stroke="none" d="M 25 0.5 L 39.86007926877157 0.5 L 39.86007926877157 -0.5 L 25 -0.5 Z M 86.75070426877157 0.5 L 101.61078353754314 0.5 L 101.61078353754314 3.5 L 108.61078353754314 0 L 101.61078353754314 -3.5 L 101.61078353754314 -0.5 L 86.75070426877157 -0.5 Z"/><text text-anchor="middle" pointer-events="none" font-size="8px" fill="#000000" x="63.30539176877157" y="3" transform="rotate(180 63.30539176877157 0)" font-family="sans-serif">DIRECTED</text></g><g class="relationship" transform="translate(155.99995295545287 -114.63725283247625) rotate(491.70317511242706)"><path class="outline" fill="#A5ABB6" stroke="none" d="M 25 0.5 L 44.279470778780066 0.5 L 44.279470778780066 -0.5 L 25 -0.5 Z M 91.17009577878007 0.5 L 110.44956655756013 0.5 L 110.44956655756013 3.5 L 117.44956655756013 0 L 110.44956655756013 -3.5 L 110.44956655756013 -0.5 L 91.17009577878007 -0.5 Z"/><text text-anchor="middle" pointer-events="none" font-size="8px" fill="#000000" x="67.72478327878007" y="3" transform="rotate(180 67.72478327878007 0)" font-family="sans-serif">DIRECTED</text></g><g class="relationship" transform="translate(-136.46378728239773 -31.89629066753978) rotate(417.69336498878397)"><path class="outline" fill="#A5ABB6" stroke="none" d="M 25 0.5 L 35.43758122771271 0.5 L 35.43758122771271 -0.5 L 25 -0.5 Z M 82.32820622771271 0.5 L 92.76578745542542 0.5 L 92.76578745542542 3.5 L 99.76578745542542 0 L 92.76578745542542 -3.5 L 92.76578745542542 -0.5 L 82.32820622771271 -0.5 Z"/><text text-anchor="middle" pointer-events="none" font-size="8px" fill="#000000" x="58.88289372771271" y="3" font-family="sans-serif">DIRECTED</text></g><g class="relationship" transform="translate(-136.46378728239773 -31.89629066753978) rotate(386.47647138446405)"><path class="outline" fill="#A5ABB6" stroke="none" d="M 25 0.5 L 32.93124413333631 0.5 L 32.93124413333631 -0.5 L 25 -0.5 Z M 79.8218691333363 0.5 L 87.75311326667261 0.5 L 87.75311326667261 3.5 L 94.75311326667261 0 L 87.75311326667261 -3.5 L 87.75311326667261 -0.5 L 79.8218691333363 -0.5 Z"/><text text-anchor="middle" pointer-events="none" font-size="8px" fill="#000000" x="56.37655663333631" y="3" font-family="sans-serif">DIRECTED</text></g><g class="relationship" transform="translate(86.60399331936674 -130.13312177616314) rotate(436.49933642594146)"><path class="outline" fill="#A5ABB6" stroke="none" d="M 25 0.5 L 43.276670718432314 0.5 L 43.276670718432314 -0.5 L 25 -0.5 Z M 90.16729571843231 0.5 L 108.44396643686463 0.5 L 108.44396643686463 3.5 L 115.44396643686463 0 L 108.44396643686463 -3.5 L 108.44396643686463 -0.5 L 90.16729571843231 -0.5 Z"/><text text-anchor="middle" pointer-events="none" font-size="8px" fill="#000000" x="66.72198321843231" y="3" font-family="sans-serif">DIRECTED</text></g><g class="relationship" transform="translate(-35.43779180022606 367.1337884411487) rotate(288.93753053227084)"><path class="outline" fill="#A5ABB6" stroke="none" d="M 25 0.5 L 35.76953911848839 0.5 L 35.76953911848839 -0.5 L 25 -0.5 Z M 82.66016411848838 0.5 L 93.42970323697678 0.5 L 93.42970323697678 3.5 L 100.42970323697678 0 L 93.42970323697678 -3.5 L 93.42970323697678 -0.5 L 82.66016411848838 -0.5 Z"/><text text-anchor="middle" pointer-events="none" font-size="8px" fill="#000000" x="59.21485161848839" y="3" font-family="sans-serif">DIRECTED</text></g><g class="relationship" transform="translate(-186.4915549935922 204.52756560077245) rotate(346.5295367661852)"><path class="outline" fill="#A5ABB6" stroke="none" d="M 25 0.5 L 35.404939482708016 0.5 L 35.404939482708016 -0.5 L 25 -0.5 Z M 82.29556448270802 0.5 L 92.70050396541603 0.5 L 92.70050396541603 3.5 L 99.70050396541603 0 L 92.70050396541603 -3.5 L 92.70050396541603 -0.5 L 82.29556448270802 -0.5 Z"/><text text-anchor="middle" pointer-events="none" font-size="8px" fill="#000000" x="58.850251982708016" y="3" font-family="sans-serif">DIRECTED</text></g><g class="relationship" transform="translate(171.58410389108798 362.23882115190406) rotate(237.86576631574928)"><path class="outline" fill="#A5ABB6" stroke="none" d="M 25 0.5 L 38.000022423176546 0.5 L 38.000022423176546 -0.5 L 25 -0.5 Z M 84.89064742317655 0.5 L 97.89066984635309 0.5 L 97.89066984635309 3.5 L 104.89066984635309 0 L 97.89066984635309 -3.5 L 97.89066984635309 -0.5 L 84.89064742317655 -0.5 Z"/><text text-anchor="middle" pointer-events="none" font-size="8px" fill="#000000" x="61.445334923176546" y="3" transform="rotate(180 61.445334923176546 0)" font-family="sans-serif">DIRECTED</text></g></g><g class="layer nodes"><g class="node" transform="translate(56.83687743936118,125.65863043920123)"><circle class="outline" cx="0" cy="0" r="25" fill="#F79767" stroke="#f36924" stroke-width="2px"/><text text-anchor="middle" pointer-events="none" font-family="sans-serif" dy="1.5625" font-size="25" fill="#FFFFFF"/><text text-anchor="middle" pointer-events="none" font-family="sans-serif" dy="1.5625" font-size="25" fill="#FFFFFF"/><text text-anchor="middle" pointer-events="none" x="0" y="0" font-size="10px" fill="#FFFFFF" font-family="sans-serif"> Tom</text><text text-anchor="middle" pointer-events="none" x="0" y="10" font-size="10px" fill="#FFFFFF" font-family="sans-serif"> Hanks</text></g><g class="node" transform="translate(169.97320732785172,132.77679159236285)"><circle class="outline" cx="0" cy="0" r="25" fill="#57C7E3" stroke="#23b3d7" stroke-width="2px"/><text text-anchor="middle" pointer-events="none" font-family="sans-serif" dy="1.5625" font-size="25" fill="#2A2C34"/><text text-anchor="middle" pointer-events="none" font-family="sans-serif" dy="1.5625" font-size="25" fill="#2A2C34"/><text text-anchor="middle" pointer-events="none" font-family="sans-serif" dy="1.5625" font-size="25" fill="#2A2C34"/><text text-anchor="middle" pointer-events="none" x="0" y="-5" font-size="10px" fill="#2A2C34" font-family="sans-serif"> That</text><text text-anchor="middle" pointer-events="none" x="0" y="5" font-size="10px" fill="#2A2C34" font-family="sans-serif"> Thing You</text><text text-anchor="middle" pointer-events="none" x="0" y="15" font-size="10px" fill="#2A2C34" font-family="sans-serif"> Do</text></g><g class="node" transform="translate(178.87550327268633,200.2634860392723)"><circle class="outline" cx="0" cy="0" r="25" fill="#57C7E3" stroke="#23b3d7" stroke-width="2px"/><text text-anchor="middle" pointer-events="none" font-family="sans-serif" dy="1.5625" font-size="25" fill="#2A2C34"/><text text-anchor="middle" pointer-events="none" font-family="sans-serif" dy="1.5625" font-size="25" fill="#2A2C34"/><text text-anchor="middle" pointer-events="none" font-family="sans-serif" dy="1.5625" font-size="25" fill="#2A2C34"/><text text-anchor="middle" pointer-events="none" font-family="sans-serif" dy="1.5625" font-size="25" fill="#2A2C34"/><text text-anchor="middle" pointer-events="none" x="0" y="-10" font-size="10px" fill="#2A2C34" font-family="sans-serif"> A</text><text text-anchor="middle" pointer-events="none" x="0" y="0" font-size="10px" fill="#2A2C34" font-family="sans-serif"> League</text><text text-anchor="middle" pointer-events="none" x="0" y="10" font-size="10px" fill="#2A2C34" font-family="sans-serif"> of Their</text><text text-anchor="middle" pointer-events="none" x="0" y="20" font-size="10px" fill="#2A2C34" font-family="sans-serif"> Own</text></g><g class="node" transform="translate(307.87442814106765,238.8383203687733)"><circle class="outline" cx="0" cy="0" r="25" fill="#F79767" stroke="#f36924" stroke-width="2px"/><text text-anchor="middle" pointer-events="none" font-family="sans-serif" dy="1.5625" font-size="25" fill="#FFFFFF"/><text text-anchor="middle" pointer-events="none" font-family="sans-serif" dy="1.5625" font-size="25" fill="#FFFFFF"/><text text-anchor="middle" pointer-events="none" x="0" y="0" font-size="10px" fill="#FFFFFF" font-family="sans-serif"> Penny</text><text text-anchor="middle" pointer-events="none" x="0" y="10" font-size="10px" fill="#FFFFFF" font-family="sans-serif"> Marshall</text></g><g class="node" transform="translate(192.2032619917053,64.97710914667105)"><circle class="outline" cx="0" cy="0" r="25" fill="#57C7E3" stroke="#23b3d7" stroke-width="2px"/><text text-anchor="middle" pointer-events="none" font-family="sans-serif" dy="1.5625" font-size="25" fill="#2A2C34"/><text text-anchor="middle" pointer-events="none" x="0" y="5" font-size="10px" fill="#2A2C34" font-family="sans-serif"> Sleepless</text></g><g class="node" transform="translate(315.7357131937534,14.069595187238512)"><circle class="outline" cx="0" cy="0" r="25" fill="#F79767" stroke="#f36924" stroke-width="2px"/><text text-anchor="middle" pointer-events="none" font-family="sans-serif" dy="1.5625" font-size="25" fill="#FFFFFF"/><text text-anchor="middle" pointer-events="none" font-family="sans-serif" dy="1.5625" font-size="25" fill="#FFFFFF"/><text text-anchor="middle" pointer-events="none" x="0" y="0" font-size="10px" fill="#FFFFFF" font-family="sans-serif"> Nora</text><text text-anchor="middle" pointer-events="none" x="0" y="10" font-size="10px" fill="#FFFFFF" font-family="sans-serif"> Ephron</text></g><g class="node" transform="translate(61.23228345111586,-8.28421888819468)"><circle class="outline" cx="0" cy="0" r="25" fill="#57C7E3" stroke="#23b3d7" stroke-width="2px"/><text text-anchor="middle" pointer-events="none" font-family="sans-serif" dy="1.5625" font-size="25" fill="#2A2C34"/><text text-anchor="middle" pointer-events="none" font-family="sans-serif" dy="1.5625" font-size="25" fill="#2A2C34"/><text text-anchor="middle" pointer-events="none" font-family="sans-serif" dy="1.5625" font-size="25" fill="#2A2C34"/><text text-anchor="middle" pointer-events="none" x="0" y="-5" font-size="10px" fill="#2A2C34" font-family="sans-serif"> Charlie</text><text text-anchor="middle" pointer-events="none" x="0" y="5" font-size="10px" fill="#2A2C34" font-family="sans-serif"> Wilson's</text><text text-anchor="middle" pointer-events="none" x="0" y="15" font-size="10px" fill="#2A2C34" font-family="sans-serif"> War</text></g><g class="node" transform="translate(155.99995295545287,-114.63725283247625)"><circle class="outline" cx="0" cy="0" r="25" fill="#F79767" stroke="#f36924" stroke-width="2px"/><text text-anchor="middle" pointer-events="none" font-family="sans-serif" dy="1.5625" font-size="25" fill="#FFFFFF"/><text text-anchor="middle" pointer-events="none" font-family="sans-serif" dy="1.5625" font-size="25" fill="#FFFFFF"/><text text-anchor="middle" pointer-events="none" x="0" y="0" font-size="10px" fill="#FFFFFF" font-family="sans-serif"> Mike</text><text text-anchor="middle" pointer-events="none" x="0" y="10" font-size="10px" fill="#FFFFFF" font-family="sans-serif"> Nichols</text></g><g class="node" transform="translate(-69.7826835447642,73.55574640952831)"><circle class="outline" cx="0" cy="0" r="25" fill="#57C7E3" stroke="#23b3d7" stroke-width="2px"/><text text-anchor="middle" pointer-events="none" font-family="sans-serif" dy="1.5625" font-size="25" fill="#2A2C34"/><text text-anchor="middle" pointer-events="none" font-family="sans-serif" dy="1.5625" font-size="25" fill="#2A2C34"/><text text-anchor="middle" pointer-events="none" x="0" y="0" font-size="10px" fill="#2A2C34" font-family="sans-serif"> Cast</text><text text-anchor="middle" pointer-events="none" x="0" y="10" font-size="10px" fill="#2A2C34" font-family="sans-serif"> Away</text></g><g class="node" transform="translate(-136.46378728239773,-31.89629066753978)"><circle class="outline" cx="0" cy="0" r="25" fill="#F79767" stroke="#f36924" stroke-width="2px"/><text text-anchor="middle" pointer-events="none" font-family="sans-serif" dy="1.5625" font-size="25" fill="#FFFFFF"/><text text-anchor="middle" pointer-events="none" font-family="sans-serif" dy="1.5625" font-size="25" fill="#FFFFFF"/><text text-anchor="middle" pointer-events="none" x="0" y="0" font-size="10px" fill="#FFFFFF" font-family="sans-serif"> Robert</text><text text-anchor="middle" pointer-events="none" x="0" y="10" font-size="10px" fill="#FFFFFF" font-family="sans-serif"> Zemeckis</text></g><g class="node" transform="translate(119.39156778055208,6.429986966540063)"><circle class="outline" cx="0" cy="0" r="25" fill="#57C7E3" stroke="#23b3d7" stroke-width="2px"/><text text-anchor="middle" pointer-events="none" font-family="sans-serif" dy="1.5625" font-size="25" fill="#2A2C34"/><text text-anchor="middle" pointer-events="none" font-family="sans-serif" dy="1.5625" font-size="25" fill="#2A2C34"/><text text-anchor="middle" pointer-events="none" font-family="sans-serif" dy="1.5625" font-size="25" fill="#2A2C34"/><text text-anchor="middle" pointer-events="none" x="0" y="-5" font-size="10px" fill="#2A2C34" font-family="sans-serif"> The</text><text text-anchor="middle" pointer-events="none" x="0" y="5" font-size="10px" fill="#2A2C34" font-family="sans-serif"> Green</text><text text-anchor="middle" pointer-events="none" x="0" y="15" font-size="10px" fill="#2A2C34" font-family="sans-serif"> Mile</text></g><g class="node" transform="translate(86.60399331936674,-130.13312177616314)"><circle class="outline" cx="0" cy="0" r="25" fill="#F79767" stroke="#f36924" stroke-width="2px"/><text text-anchor="middle" pointer-events="none" font-family="sans-serif" dy="1.5625" font-size="25" fill="#FFFFFF"/><text text-anchor="middle" pointer-events="none" font-family="sans-serif" dy="1.5625" font-size="25" fill="#FFFFFF"/><text text-anchor="middle" pointer-events="none" x="0" y="0" font-size="10px" fill="#FFFFFF" font-family="sans-serif"> Frank</text><text text-anchor="middle" pointer-events="none" x="0" y="10" font-size="10px" fill="#FFFFFF" font-family="sans-serif"> Darabont</text></g><g class="node" transform="translate(5.2687958568429165,248.4932212837323)"><circle class="outline" cx="0" cy="0" r="25" fill="#57C7E3" stroke="#23b3d7" stroke-width="2px"/><text text-anchor="middle" pointer-events="none" font-family="sans-serif" dy="1.5625" font-size="25" fill="#2A2C34"/><text text-anchor="middle" pointer-events="none" font-family="sans-serif" dy="1.5625" font-size="25" fill="#2A2C34"/><text text-anchor="middle" pointer-events="none" font-family="sans-serif" dy="1.5625" font-size="25" fill="#2A2C34"/><text text-anchor="middle" pointer-events="none" x="0" y="-5" font-size="10px" fill="#2A2C34" font-family="sans-serif"> The Da</text><text text-anchor="middle" pointer-events="none" x="0" y="5" font-size="10px" fill="#2A2C34" font-family="sans-serif"> Vinci</text><text text-anchor="middle" pointer-events="none" x="0" y="15" font-size="10px" fill="#2A2C34" font-family="sans-serif"> Code</text></g><g class="node" transform="translate(-35.43779180022606,367.1337884411487)"><circle class="outline" cx="0" cy="0" r="25" fill="#F79767" stroke="#f36924" stroke-width="2px"/><text text-anchor="middle" pointer-events="none" font-family="sans-serif" dy="1.5625" font-size="25" fill="#FFFFFF"/><text text-anchor="middle" pointer-events="none" font-family="sans-serif" dy="1.5625" font-size="25" fill="#FFFFFF"/><text text-anchor="middle" pointer-events="none" x="0" y="0" font-size="10px" fill="#FFFFFF" font-family="sans-serif"> Ron</text><text text-anchor="middle" pointer-events="none" x="0" y="10" font-size="10px" fill="#FFFFFF" font-family="sans-serif"> Howard</text></g><g class="node" transform="translate(-29.270677753061463,21.49327204365163)"><circle class="outline" cx="0" cy="0" r="25" fill="#57C7E3" stroke="#23b3d7" stroke-width="2px"/><text text-anchor="middle" pointer-events="none" font-family="sans-serif" dy="1.5625" font-size="25" fill="#2A2C34"/><text text-anchor="middle" pointer-events="none" font-family="sans-serif" dy="1.5625" font-size="25" fill="#2A2C34"/><text text-anchor="middle" pointer-events="none" font-family="sans-serif" dy="1.5625" font-size="25" fill="#2A2C34"/><text text-anchor="middle" pointer-events="none" x="0" y="-5" font-size="10px" fill="#2A2C34" font-family="sans-serif"> The</text><text text-anchor="middle" pointer-events="none" x="0" y="5" font-size="10px" fill="#2A2C34" font-family="sans-serif"> Polar</text><text text-anchor="middle" pointer-events="none" x="0" y="15" font-size="10px" fill="#2A2C34" font-family="sans-serif"> Express</text></g><g class="node" transform="translate(-65.22154499561248,175.47932358307648)"><circle class="outline" cx="0" cy="0" r="25" fill="#57C7E3" stroke="#23b3d7" stroke-width="2px"/><text text-anchor="middle" pointer-events="none" font-family="sans-serif" dy="1.5625" font-size="25" fill="#2A2C34"/><text text-anchor="middle" pointer-events="none" font-family="sans-serif" dy="1.5625" font-size="25" fill="#2A2C34"/><text text-anchor="middle" pointer-events="none" font-family="sans-serif" dy="1.5625" font-size="25" fill="#2A2C34"/><text text-anchor="middle" pointer-events="none" font-family="sans-serif" dy="1.5625" font-size="25" fill="#2A2C34"/><text text-anchor="middle" pointer-events="none" x="0" y="-10" font-size="10px" fill="#2A2C34" font-family="sans-serif"> Joe</text><text text-anchor="middle" pointer-events="none" x="0" y="0" font-size="10px" fill="#2A2C34" font-family="sans-serif"> Versus</text><text text-anchor="middle" pointer-events="none" x="0" y="10" font-size="10px" fill="#2A2C34" font-family="sans-serif"> the</text><text text-anchor="middle" pointer-events="none" x="0" y="20" font-size="10px" fill="#2A2C34" font-family="sans-serif"> Volc…</text></g><g class="node" transform="translate(-186.4915549935922,204.52756560077245)"><circle class="outline" cx="0" cy="0" r="25" fill="#F79767" stroke="#f36924" stroke-width="2px"/><text text-anchor="middle" pointer-events="none" font-family="sans-serif" dy="1.5625" font-size="25" fill="#FFFFFF"/><text text-anchor="middle" pointer-events="none" font-family="sans-serif" dy="1.5625" font-size="25" fill="#FFFFFF"/><text text-anchor="middle" pointer-events="none" font-family="sans-serif" dy="1.5625" font-size="25" fill="#FFFFFF"/><text text-anchor="middle" pointer-events="none" x="0" y="-5" font-size="10px" fill="#FFFFFF" font-family="sans-serif"> John</text><text text-anchor="middle" pointer-events="none" x="0" y="5" font-size="10px" fill="#FFFFFF" font-family="sans-serif"> Patrick</text><text text-anchor="middle" pointer-events="none" x="0" y="15" font-size="10px" fill="#FFFFFF" font-family="sans-serif"> Stanley</text></g><g class="node" transform="translate(102.49465495408793,252.2468479960598)"><circle class="outline" cx="0" cy="0" r="25" fill="#57C7E3" stroke="#23b3d7" stroke-width="2px"/><text text-anchor="middle" pointer-events="none" font-family="sans-serif" dy="1.5625" font-size="25" fill="#2A2C34"/><text text-anchor="middle" pointer-events="none" font-family="sans-serif" dy="1.5625" font-size="25" fill="#2A2C34"/><text text-anchor="middle" pointer-events="none" x="0" y="0" font-size="10px" fill="#2A2C34" font-family="sans-serif"> Cloud</text><text text-anchor="middle" pointer-events="none" x="0" y="10" font-size="10px" fill="#2A2C34" font-family="sans-serif"> Atlas</text></g><g class="node" transform="translate(171.58410389108798,362.23882115190406)"><circle class="outline" cx="0" cy="0" r="25" fill="#F79767" stroke="#f36924" stroke-width="2px"/><text text-anchor="middle" pointer-events="none" font-family="sans-serif" dy="1.5625" font-size="25" fill="#FFFFFF"/><text text-anchor="middle" pointer-events="none" font-family="sans-serif" dy="1.5625" font-size="25" fill="#FFFFFF"/><text text-anchor="middle" pointer-events="none" x="0" y="0" font-size="10px" fill="#FFFFFF" font-family="sans-serif"> Tom</text><text text-anchor="middle" pointer-events="none" x="0" y="10" font-size="10px" fill="#FFFFFF" font-family="sans-serif"> Tykwer</text></g></g></svg>