<svg xmlns="http://www.w3.org/2000/svg" width="487.39605712890625" height="477.322265625" viewBox="-171.3216094970703 -118.04210662841797 487.39605712890625 477.322265625"><title>Neo4j Graph Visualization</title><desc>Created using Neo4j (http://www.neo4j.com/)</desc><g class="layer relationships"><g class="relationship" transform="translate(68.5769652721266 107.70896366836135) rotate(413.8946250163436)"><path class="outline" fill="#A5ABB6" stroke="none" d="M 25 0.5 L 38.32177485736524 0.5 L 38.32177485736524 -0.5 L 25 -0.5 Z M 83.88427485736524 0.5 L 97.20604971473048 0.5 L 97.20604971473048 3.5 L 104.20604971473048 0 L 97.20604971473048 -3.5 L 97.20604971473048 -0.5 L 83.88427485736524 -0.5 Z"/><text text-anchor="middle" pointer-events="none" font-size="8px" fill="#000000" x="61.10302485736524" y="3" font-family="sans-serif">ACTED_IN</text></g><g class="relationship" transform="translate(68.5769652721266 107.70896366836135) rotate(322.8726182278672)"><path class="outline" fill="#A5ABB6" stroke="none" d="M 25 0.5 L 39.261357116173855 0.5 L 39.261357116173855 -0.5 L 25 -0.5 Z M 84.82385711617385 0.5 L 99.08521423234771 0.5 L 99.08521423234771 3.5 L 106.08521423234771 0 L 99.08521423234771 -3.5 L 99.08521423234771 -0.5 L 84.82385711617385 -0.5 Z"/><text text-anchor="middle" pointer-events="none" font-size="8px" fill="#000000" x="62.042607116173855" y="3" font-family="sans-serif">ACTED_IN</text></g><g class="relationship" transform="translate(68.5769652721266 107.70896366836135) rotate(223.59451429020186)"><path class="outline" fill="#A5ABB6" stroke="none" d="M 25 0.5 L 35.882897563174126 0.5 L 35.882897563174126 -0.5 L 25 -0.5 Z M 81.44539756317413 0.5 L 92.32829512634825 0.5 L 92.32829512634825 3.5 L 99.32829512634825 0 L 92.32829512634825 -3.5 L 92.32829512634825 -0.5 L 81.44539756317413 -0.5 Z"/><text text-anchor="middle" pointer-events="none" font-size="8px" fill="#000000" x="58.664147563174126" y="3" transform="rotate(180 58.664147563174126 0)" font-family="sans-serif">ACTED_IN</text></g><g class="relationship" transform="translate(68.5769652721266 107.70896366836135) rotate(192.97837156726558)"><path class="outline" fill="#A5ABB6" stroke="none" d="M 25 0.5 L 28.218500180825693 0.5 L 28.218500180825693 -0.5 L 25 -0.5 Z M 73.78100018082569 0.5 L 76.99950036165139 0.5 L 76.99950036165139 3.5 L 83.99950036165139 0 L 76.99950036165139 -3.5 L 76.99950036165139 -0.5 L 73.78100018082569 -0.5 Z"/><text text-anchor="middle" pointer-events="none" font-size="8px" fill="#000000" x="50.99975018082569" y="3" transform="rotate(180 50.99975018082569 0)" font-family="sans-serif">ACTED_IN</text></g><g class="relationship" transform="translate(68.5769652721266 107.70896366836135) rotate(524.1713300771682)"><path class="outline" fill="#A5ABB6" stroke="none" d="M 25 0.5 L 39.220559391718595 0.5 L 39.220559391718595 -0.5 L 25 -0.5 Z M 84.7830593917186 0.5 L 99.00361878343719 0.5 L 99.00361878343719 3.5 L 106.00361878343719 0 L 99.00361878343719 -3.5 L 99.00361878343719 -0.5 L 84.7830593917186 -0.5 Z"/><text text-anchor="middle" pointer-events="none" font-size="8px" fill="#000000" x="62.001809391718595" y="3" transform="rotate(180 62.001809391718595 0)" font-family="sans-serif">ACTED_IN</text></g><g class="relationship" transform="translate(226.30447044326712 303.19991122386716) rotate(228.15237366166417)"><path class="outline" fill="#A5ABB6" stroke="none" d="M 25 0.5 L 34.866726364528695 0.5 L 34.866726364528695 -0.5 L 25 -0.5 Z M 80.42922636452869 0.5 L 90.29595272905739 0.5 L 90.29595272905739 3.5 L 97.29595272905739 0 L 90.29595272905739 -3.5 L 90.29595272905739 -0.5 L 80.42922636452869 -0.5 Z"/><text text-anchor="middle" pointer-events="none" font-size="8px" fill="#000000" x="57.647976364528695" y="3" transform="rotate(180 57.647976364528695 0)" font-family="sans-serif">ACTED_IN</text></g><g class="relationship" transform="translate(128.35294304577417 330.28015058308966) rotate(277.88219068544083)"><path class="outline" fill="#A5ABB6" stroke="none" d="M 25 0.5 L 33.37292842770183 0.5 L 33.37292842770183 -0.5 L 25 -0.5 Z M 78.93542842770182 0.5 L 87.30835685540366 0.5 L 87.30835685540366 3.5 L 94.30835685540366 0 L 87.30835685540366 -3.5 L 87.30835685540366 -0.5 L 78.93542842770182 -0.5 Z"/><text text-anchor="middle" pointer-events="none" font-size="8px" fill="#000000" x="56.15417842770183" y="3" font-family="sans-serif">ACTED_IN</text></g><g class="relationship" transform="translate(265.74513353112377 219.2718798468131) rotate(183.39166540301585)"><path class="outline" fill="#A5ABB6" stroke="none" d="M 25 0.5 L 34.34025249679923 0.5 L 34.34025249679923 -0.5 L 25 -0.5 Z M 79.90275249679922 0.5 L 89.24300499359846 0.5 L 89.24300499359846 3.5 L 96.24300499359846 0 L 89.24300499359846 -3.5 L 89.24300499359846 -0.5 L 79.90275249679922 -0.5 Z"/><text text-anchor="middle" pointer-events="none" font-size="8px" fill="#000000" x="57.12150249679923" y="3" transform="rotate(180 57.12150249679923 0)" font-family="sans-serif">ACTED_IN</text></g><g class="relationship" transform="translate(286.204605968911 -21.419958041447575) rotate(516.1499367728738)"><path class="outline" fill="#A5ABB6" stroke="none" d="M 25 0.5 L 35.556247625958434 0.5 L 35.556247625958434 -0.5 L 25 -0.5 Z M 81.11874762595843 0.5 L 91.67499525191687 0.5 L 91.67499525191687 3.5 L 98.67499525191687 0 L 91.67499525191687 -3.5 L 91.67499525191687 -0.5 L 81.11874762595843 -0.5 Z"/><text text-anchor="middle" pointer-events="none" font-size="8px" fill="#000000" x="58.337497625958434" y="3" transform="rotate(180 58.337497625958434 0)" font-family="sans-serif">ACTED_IN</text></g><g class="relationship" transform="translate(224.07379390414036 -84.1399591063595) rotate(474.3358061252827)"><path class="outline" fill="#A5ABB6" stroke="none" d="M 25 0.5 L 35.57893866582991 0.5 L 35.57893866582991 -0.5 L 25 -0.5 Z M 81.14143866582991 0.5 L 91.72037733165982 0.5 L 91.72037733165982 3.5 L 98.72037733165982 0 L 91.72037733165982 -3.5 L 91.72037733165982 -0.5 L 81.14143866582991 -0.5 Z"/><text text-anchor="middle" pointer-events="none" font-size="8px" fill="#000000" x="58.36018866582991" y="3" transform="rotate(180 58.36018866582991 0)" font-family="sans-serif">ACTED_IN</text></g><g class="relationship" transform="translate(287.07445118479427 66.71410013830373) rotate(198.49470461143613)"><path class="outline" fill="#A5ABB6" stroke="none" d="M 25 0.5 L 33.814425836176504 0.5 L 33.814425836176504 -0.5 L 25 -0.5 Z M 79.3769258361765 0.5 L 88.19135167235301 0.5 L 88.19135167235301 3.5 L 95.19135167235301 0 L 88.19135167235301 -3.5 L 88.19135167235301 -0.5 L 79.3769258361765 -0.5 Z"/><text text-anchor="middle" pointer-events="none" font-size="8px" fill="#000000" x="56.595675836176504" y="3" transform="rotate(180 56.595675836176504 0)" font-family="sans-serif">ACTED_IN</text></g><g class="relationship" transform="translate(136.08405846110574 -89.0421096507834) rotate(432.53627579708996)"><path class="outline" fill="#A5ABB6" stroke="none" d="M 25 0.5 L 35.37541604654986 0.5 L 35.37541604654986 -0.5 L 25 -0.5 Z M 80.93791604654986 0.5 L 91.31333209309972 0.5 L 91.31333209309972 3.5 L 98.31333209309972 0 L 91.31333209309972 -3.5 L 91.31333209309972 -0.5 L 80.93791604654986 -0.5 Z"/><text text-anchor="middle" pointer-events="none" font-size="8px" fill="#000000" x="58.15666604654986" y="3" font-family="sans-serif">ACTED_IN</text></g><g class="relationship" transform="translate(-136.17300622434306 47.24874322257584) rotate(347.5759525324961)"><path class="outline" fill="#A5ABB6" stroke="none" d="M 25 0.5 L 32.44740884365578 0.5 L 32.44740884365578 -0.5 L 25 -0.5 Z M 78.00990884365578 0.5 L 85.45731768731156 0.5 L 85.45731768731156 3.5 L 92.45731768731156 0 L 85.45731768731156 -3.5 L 85.45731768731156 -0.5 L 78.00990884365578 -0.5 Z"/><text text-anchor="middle" pointer-events="none" font-size="8px" fill="#000000" x="55.22865884365578" y="3" font-family="sans-serif">ACTED_IN</text></g><g class="relationship" transform="translate(-136.17300622434306 47.24874322257584) rotate(380.0600516713195)"><path class="outline" fill="#A5ABB6" stroke="none" d="M 25 0.5 L 26.168097860590187 0.5 L 26.168097860590187 -0.5 L 25 -0.5 Z M 71.7305978605902 0.5 L 72.89869572118037 0.5 L 72.89869572118037 3.5 L 79.89869572118037 0 L 72.89869572118037 -3.5 L 72.89869572118037 -0.5 L 71.7305978605902 -0.5 Z"/><text text-anchor="middle" pointer-events="none" font-size="8px" fill="#000000" x="48.94934786059019" y="3" font-family="sans-serif">ACTED_IN</text></g><g class="relationship" transform="translate(-136.17300622434306 47.24874322257584) rotate(410.7068677774099)"><path class="outline" fill="#A5ABB6" stroke="none" d="M 25 0.5 L 35.86565849724282 0.5 L 35.86565849724282 -0.5 L 25 -0.5 Z M 81.42815849724282 0.5 L 92.29381699448564 0.5 L 92.29381699448564 3.5 L 99.29381699448564 0 L 92.29381699448564 -3.5 L 92.29381699448564 -0.5 L 81.42815849724282 -0.5 Z"/><text text-anchor="middle" pointer-events="none" font-size="8px" fill="#000000" x="58.64690849724282" y="3" font-family="sans-serif">ACTED_IN</text></g><g class="relationship" transform="translate(-101.25346682498478 -1.534071341999073) rotate(376.41968655848547)"><path class="outline" fill="#A5ABB6" stroke="none" d="M 25 0.5 L 25.533103075848253 0.5 L 25.533103075848253 -0.5 L 25 -0.5 Z M 50.64638432584825 0.5 L 51.179487401696505 0.5 L 51.179487401696505 3.5 L 58.179487401696505 0 L 51.179487401696505 -3.5 L 51.179487401696505 -0.5 L 50.64638432584825 -0.5 Z"/><text text-anchor="middle" pointer-events="none" font-size="8px" fill="#000000" x="38.08974370084825" y="3" font-family="sans-serif">AC…</text></g><g class="relationship" transform="translate(-101.25346682498478 -1.534071341999073) rotate(413.1116553002373)"><path class="outline" fill="#A5ABB6" stroke="none" d="M 25 0.5 L 26.708783068080585 0.5 L 26.708783068080585 -0.5 L 25 -0.5 Z M 72.27128306808058 0.5 L 73.98006613616117 0.5 L 73.98006613616117 3.5 L 80.98006613616117 0 L 73.98006613616117 -3.5 L 73.98006613616117 -0.5 L 72.27128306808058 -0.5 Z"/><text text-anchor="middle" pointer-events="none" font-size="8px" fill="#000000" x="49.490033068080585" y="3" font-family="sans-serif">ACTED_IN</text></g><g class="relationship" transform="translate(-101.25346682498478 -1.534071341999073) rotate(433.1914955417013)"><path class="outline" fill="#A5ABB6" stroke="none" d="M 25 0.5 L 49.44179905239986 0.5 L 49.44179905239986 -0.5 L 25 -0.5 Z M 95.00429905239986 0.5 L 119.44609810479972 0.5 L 119.44609810479972 3.5 L 126.44609810479972 0 L 119.44609810479972 -3.5 L 119.44609810479972 -0.5 L 95.00429905239986 -0.5 Z"/><text text-anchor="middle" pointer-events="none" font-size="8px" fill="#000000" x="72.22304905239986" y="3" font-family="sans-serif">ACTED_IN</text></g><g class="relationship" transform="translate(-142.32161606310885 106.92256060426939) rotate(324.89820485473535)"><path class="outline" fill="#A5ABB6" stroke="none" d="M 25 0.5 L 47.57930303611643 0.5 L 47.57930303611643 -0.5 L 25 -0.5 Z M 93.14180303611643 0.5 L 115.72110607223286 0.5 L 115.72110607223286 3.5 L 122.72110607223286 0 L 115.72110607223286 -3.5 L 115.72110607223286 -0.5 L 93.14180303611643 -0.5 Z"/><text text-anchor="middle" pointer-events="none" font-size="8px" fill="#000000" x="70.36055303611643" y="3" font-family="sans-serif">ACTED_IN</text></g><g class="relationship" transform="translate(-142.32161606310885 106.92256060426939) rotate(347.24708297808627)"><path class="outline" fill="#A5ABB6" stroke="none" d="M 25 0.5 L 27.384363994019665 0.5 L 27.384363994019665 -0.5 L 25 -0.5 Z M 72.94686399401967 0.5 L 75.33122798803933 0.5 L 75.33122798803933 3.5 L 82.33122798803933 0 L 75.33122798803933 -3.5 L 75.33122798803933 -0.5 L 72.94686399401967 -0.5 Z"/><text text-anchor="middle" pointer-events="none" font-size="8px" fill="#000000" x="50.165613994019665" y="3" font-family="sans-serif">ACTED_IN</text></g><g class="relationship" transform="translate(-142.32161606310885 106.92256060426939) rotate(383.2838493887366)"><path class="outline" fill="#A5ABB6" stroke="none" d="M 25 0.5 L 25.02531522899975 0.5 L 25.02531522899975 -0.5 L 25 -0.5 Z M 60.36125272899975 0.5 L 60.3865679579995 0.5 L 60.3865679579995 3.5 L 67.3865679579995 0 L 60.3865679579995 -3.5 L 60.3865679579995 -0.5 L 60.36125272899975 -0.5 Z"/><text text-anchor="middle" pointer-events="none" font-size="8px" fill="#000000" x="42.69328397899975" y="3" font-family="sans-serif">ACTE…</text></g><g class="relationship" transform="translate(-83.95891031761231 264.86233048919166) rotate(282.3115894695011)"><path class="outline" fill="#A5ABB6" stroke="none" d="M 25 0.5 L 35.85810102623707 0.5 L 35.85810102623707 -0.5 L 25 -0.5 Z M 81.42060102623708 0.5 L 92.27870205247415 0.5 L 92.27870205247415 3.5 L 99.27870205247415 0 L 92.27870205247415 -3.5 L 92.27870205247415 -0.5 L 81.42060102623708 -0.5 Z"/><text text-anchor="middle" pointer-events="none" font-size="8px" fill="#000000" x="58.63935102623707" y="3" font-family="sans-serif">ACTED_IN</text></g></g><g class="layer nodes"><g class="node" transform="translate(68.5769652721266,107.70896366836135)"><circle class="outline" cx="0" cy="0" r="25" fill="#F79767" stroke="#f36924" stroke-width="2px"/><text text-anchor="middle" pointer-events="none" font-family="sans-serif" dy="1.5625" font-size="25" fill="#FFFFFF"/><text text-anchor="middle" pointer-events="none" font-family="sans-serif" dy="1.5625" font-size="25" fill="#FFFFFF"/><text text-anchor="middle" pointer-events="none" x="0" y="0" font-size="10px" fill="#FFFFFF" font-family="sans-serif"> Hugo</text><text text-anchor="middle" pointer-events="none" x="0" y="10" font-size="10px" fill="#FFFFFF" font-family="sans-serif"> Weaving</text></g><g class="node" transform="translate(144.71449239793787,212.0990026857492)"><circle class="outline" cx="0" cy="0" r="25" fill="#57C7E3" stroke="#23b3d7" stroke-width="2px"/><text text-anchor="middle" pointer-events="none" font-family="sans-serif" dy="1.5625" font-size="25" fill="#2A2C34"/><text text-anchor="middle" pointer-events="none" font-family="sans-serif" dy="1.5625" font-size="25" fill="#2A2C34"/><text text-anchor="middle" pointer-events="none" x="0" y="0" font-size="10px" fill="#2A2C34" font-family="sans-serif"> Cloud</text><text text-anchor="middle" pointer-events="none" x="0" y="10" font-size="10px" fill="#2A2C34" font-family="sans-serif"> Atlas</text></g><g class="node" transform="translate(226.30447044326712,303.19991122386716)"><circle class="outline" cx="0" cy="0" r="25" fill="#F79767" stroke="#f36924" stroke-width="2px"/><text text-anchor="middle" pointer-events="none" font-family="sans-serif" dy="1.5625" font-size="25" fill="#FFFFFF"/><text text-anchor="middle" pointer-events="none" font-family="sans-serif" dy="1.5625" font-size="25" fill="#FFFFFF"/><text text-anchor="middle" pointer-events="none" x="0" y="0" font-size="10px" fill="#FFFFFF" font-family="sans-serif"> Tom</text><text text-anchor="middle" pointer-events="none" x="0" y="10" font-size="10px" fill="#FFFFFF" font-family="sans-serif"> Hanks</text></g><g class="node" transform="translate(128.35294304577417,330.28015058308966)"><circle class="outline" cx="0" cy="0" r="25" fill="#F79767" stroke="#f36924" stroke-width="2px"/><text text-anchor="middle" pointer-events="none" font-family="sans-serif" dy="1.5625" font-size="25" fill="#FFFFFF"/><text text-anchor="middle" pointer-events="none" font-family="sans-serif" dy="1.5625" font-size="25" fill="#FFFFFF"/><text text-anchor="middle" pointer-events="none" x="0" y="0" font-size="10px" fill="#FFFFFF" font-family="sans-serif"> Jim</text><text text-anchor="middle" pointer-events="none" x="0" y="10" font-size="10px" fill="#FFFFFF" font-family="sans-serif"> Broadb…</text></g><g class="node" transform="translate(265.74513353112377,219.2718798468131)"><circle class="outline" cx="0" cy="0" r="25" fill="#F79767" stroke="#f36924" stroke-width="2px"/><text text-anchor="middle" pointer-events="none" font-family="sans-serif" dy="1.5625" font-size="25" fill="#FFFFFF"/><text text-anchor="middle" pointer-events="none" font-family="sans-serif" dy="1.5625" font-size="25" fill="#FFFFFF"/><text text-anchor="middle" pointer-events="none" x="0" y="0" font-size="10px" fill="#FFFFFF" font-family="sans-serif"> Halle</text><text text-anchor="middle" pointer-events="none" x="0" y="10" font-size="10px" fill="#FFFFFF" font-family="sans-serif"> Berry</text></g><g class="node" transform="translate(173.09062500753038,28.587359039456548)"><circle class="outline" cx="0" cy="0" r="25" fill="#57C7E3" stroke="#23b3d7" stroke-width="2px"/><text text-anchor="middle" pointer-events="none" font-family="sans-serif" dy="1.5625" font-size="25" fill="#2A2C34"/><text text-anchor="middle" pointer-events="none" font-family="sans-serif" dy="1.5625" font-size="25" fill="#2A2C34"/><text text-anchor="middle" pointer-events="none" x="0" y="0" font-size="10px" fill="#2A2C34" font-family="sans-serif"> V for</text><text text-anchor="middle" pointer-events="none" x="0" y="10" font-size="10px" fill="#2A2C34" font-family="sans-serif"> Vendetta</text></g><g class="node" transform="translate(286.204605968911,-21.419958041447575)"><circle class="outline" cx="0" cy="0" r="25" fill="#F79767" stroke="#f36924" stroke-width="2px"/><text text-anchor="middle" pointer-events="none" font-family="sans-serif" dy="1.5625" font-size="25" fill="#FFFFFF"/><text text-anchor="middle" pointer-events="none" x="0" y="5" font-size="10px" fill="#FFFFFF" font-family="sans-serif"> John Hurt</text></g><g class="node" transform="translate(224.07379390414036,-84.1399591063595)"><circle class="outline" cx="0" cy="0" r="25" fill="#F79767" stroke="#f36924" stroke-width="2px"/><text text-anchor="middle" pointer-events="none" font-family="sans-serif" dy="1.5625" font-size="25" fill="#FFFFFF"/><text text-anchor="middle" pointer-events="none" font-family="sans-serif" dy="1.5625" font-size="25" fill="#FFFFFF"/><text text-anchor="middle" pointer-events="none" x="0" y="0" font-size="10px" fill="#FFFFFF" font-family="sans-serif"> Stephen</text><text text-anchor="middle" pointer-events="none" x="0" y="10" font-size="10px" fill="#FFFFFF" font-family="sans-serif"> Rea</text></g><g class="node" transform="translate(287.07445118479427,66.71410013830373)"><circle class="outline" cx="0" cy="0" r="25" fill="#F79767" stroke="#f36924" stroke-width="2px"/><text text-anchor="middle" pointer-events="none" font-family="sans-serif" dy="1.5625" font-size="25" fill="#FFFFFF"/><text text-anchor="middle" pointer-events="none" font-family="sans-serif" dy="1.5625" font-size="25" fill="#FFFFFF"/><text text-anchor="middle" pointer-events="none" x="0" y="0" font-size="10px" fill="#FFFFFF" font-family="sans-serif"> Natalie</text><text text-anchor="middle" pointer-events="none" x="0" y="10" font-size="10px" fill="#FFFFFF" font-family="sans-serif"> Portman</text></g><g class="node" transform="translate(136.08405846110574,-89.0421096507834)"><circle class="outline" cx="0" cy="0" r="25" fill="#F79767" stroke="#f36924" stroke-width="2px"/><text text-anchor="middle" pointer-events="none" font-family="sans-serif" dy="1.5625" font-size="25" fill="#FFFFFF"/><text text-anchor="middle" pointer-events="none" x="0" y="5" font-size="10px" fill="#FFFFFF" font-family="sans-serif"> Ben Miles</text></g><g class="node" transform="translate(-21.466296216360934,21.97836219175785)"><circle class="outline" cx="0" cy="0" r="25" fill="#57C7E3" stroke="#23b3d7" stroke-width="2px"/><text text-anchor="middle" pointer-events="none" font-family="sans-serif" dy="1.5625" font-size="25" fill="#2A2C34"/><text text-anchor="middle" pointer-events="none" font-family="sans-serif" dy="1.5625" font-size="25" fill="#2A2C34"/><text text-anchor="middle" pointer-events="none" font-family="sans-serif" dy="1.5625" font-size="25" fill="#2A2C34"/><text text-anchor="middle" pointer-events="none" x="0" y="-5" font-size="10px" fill="#2A2C34" font-family="sans-serif"> The</text><text text-anchor="middle" pointer-events="none" x="0" y="5" font-size="10px" fill="#2A2C34" font-family="sans-serif"> Matrix</text><text text-anchor="middle" pointer-events="none" x="0" y="15" font-size="10px" fill="#2A2C34" font-family="sans-serif"> Revol…</text></g><g class="node" transform="translate(-136.17300622434306,47.24874322257584)"><circle class="outline" cx="0" cy="0" r="25" fill="#F79767" stroke="#f36924" stroke-width="2px"/><text text-anchor="middle" pointer-events="none" font-family="sans-serif" dy="1.5625" font-size="25" fill="#FFFFFF"/><text text-anchor="middle" pointer-events="none" font-family="sans-serif" dy="1.5625" font-size="25" fill="#FFFFFF"/><text text-anchor="middle" pointer-events="none" x="0" y="0" font-size="10px" fill="#FFFFFF" font-family="sans-serif"> Laurence</text><text text-anchor="middle" pointer-events="none" x="0" y="10" font-size="10px" fill="#FFFFFF" font-family="sans-serif"> Fishbur…</text></g><g class="node" transform="translate(-101.25346682498478,-1.534071341999073)"><circle class="outline" cx="0" cy="0" r="25" fill="#F79767" stroke="#f36924" stroke-width="2px"/><text text-anchor="middle" pointer-events="none" font-family="sans-serif" dy="1.5625" font-size="25" fill="#FFFFFF"/><text text-anchor="middle" pointer-events="none" x="0" y="5" font-size="10px" fill="#FFFFFF" font-family="sans-serif"> Carrie-A…</text></g><g class="node" transform="translate(-142.32161606310885,106.92256060426939)"><circle class="outline" cx="0" cy="0" r="25" fill="#F79767" stroke="#f36924" stroke-width="2px"/><text text-anchor="middle" pointer-events="none" font-family="sans-serif" dy="1.5625" font-size="25" fill="#FFFFFF"/><text text-anchor="middle" pointer-events="none" font-family="sans-serif" dy="1.5625" font-size="25" fill="#FFFFFF"/><text text-anchor="middle" pointer-events="none" x="0" y="0" font-size="10px" fill="#FFFFFF" font-family="sans-serif"> Keanu</text><text text-anchor="middle" pointer-events="none" x="0" y="10" font-size="10px" fill="#FFFFFF" font-family="sans-serif"> Reeves</text></g><g class="node" transform="translate(-37.638133210834766,83.22950425144491)"><circle class="outline" cx="0" cy="0" r="25" fill="#57C7E3" stroke="#23b3d7" stroke-width="2px"/><text text-anchor="middle" pointer-events="none" font-family="sans-serif" dy="1.5625" font-size="25" fill="#2A2C34"/><text text-anchor="middle" pointer-events="none" font-family="sans-serif" dy="1.5625" font-size="25" fill="#2A2C34"/><text text-anchor="middle" pointer-events="none" font-family="sans-serif" dy="1.5625" font-size="25" fill="#2A2C34"/><text text-anchor="middle" pointer-events="none" x="0" y="-5" font-size="10px" fill="#2A2C34" font-family="sans-serif"> The</text><text text-anchor="middle" pointer-events="none" x="0" y="5" font-size="10px" fill="#2A2C34" font-family="sans-serif"> Matrix</text><text text-anchor="middle" pointer-events="none" x="0" y="15" font-size="10px" fill="#2A2C34" font-family="sans-serif"> Reloa…</text></g><g class="node" transform="translate(-57.45920959287706,143.44173237936886)"><circle class="outline" cx="0" cy="0" r="25" fill="#57C7E3" stroke="#23b3d7" stroke-width="2px"/><text text-anchor="middle" pointer-events="none" font-family="sans-serif" dy="1.5625" font-size="25" fill="#2A2C34"/><text text-anchor="middle" pointer-events="none" font-family="sans-serif" dy="1.5625" font-size="25" fill="#2A2C34"/><text text-anchor="middle" pointer-events="none" x="0" y="0" font-size="10px" fill="#2A2C34" font-family="sans-serif"> The</text><text text-anchor="middle" pointer-events="none" x="0" y="10" font-size="10px" fill="#2A2C34" font-family="sans-serif"> Matrix</text></g><g class="node" transform="translate(-83.95891031761231,264.86233048919166)"><circle class="outline" cx="0" cy="0" r="25" fill="#F79767" stroke="#f36924" stroke-width="2px"/><text text-anchor="middle" pointer-events="none" font-family="sans-serif" dy="1.5625" font-size="25" fill="#FFFFFF"/><text text-anchor="middle" pointer-events="none" font-family="sans-serif" dy="1.5625" font-size="25" fill="#FFFFFF"/><text text-anchor="middle" pointer-events="none" x="0" y="0" font-size="10px" fill="#FFFFFF" font-family="sans-serif"> Emil</text><text text-anchor="middle" pointer-events="none" x="0" y="10" font-size="10px" fill="#FFFFFF" font-family="sans-serif"> Eifrem</text></g></g></svg>