<svg xmlns="http://www.w3.org/2000/svg" width="360.1280212402344" height="479.6368408203125" viewBox="-52.41008758544922 -162.18714904785156 360.1280212402344 479.6368408203125"><title>Neo4j Graph Visualization</title><desc>Created using Neo4j (http://www.neo4j.com/)</desc><g class="layer relationships"><g class="relationship" transform="translate(188.41314050125823 -22.50426127427229) rotate(323.26295637321806)"><path class="outline" fill="#A5ABB6" stroke="none" d="M 25 0.5 L 30.061408625213247 0.5 L 30.061408625213247 -0.5 L 25 -0.5 Z M 75.62390862521325 0.5 L 80.6853172504265 0.5 L 80.6853172504265 3.5 L 87.6853172504265 0 L 80.6853172504265 -3.5 L 80.6853172504265 -0.5 L 75.62390862521325 -0.5 Z"/><text text-anchor="middle" pointer-events="none" font-size="8px" fill="#000000" x="52.84265862521325" y="3" font-family="sans-serif">ACTED_IN</text></g><g class="relationship" transform="translate(188.41314050125823 -22.50426127427229) rotate(246.7028484644265)"><path class="outline" fill="#A5ABB6" stroke="none" d="M 25 0.5 L 33.97295786830071 0.5 L 33.97295786830071 -0.5 L 25 -0.5 Z M 79.53545786830071 0.5 L 88.50841573660142 0.5 L 88.50841573660142 3.5 L 95.50841573660142 0 L 88.50841573660142 -3.5 L 88.50841573660142 -0.5 L 79.53545786830071 -0.5 Z"/><text text-anchor="middle" pointer-events="none" font-size="8px" fill="#000000" x="56.75420786830071" y="3" transform="rotate(180 56.75420786830071 0)" font-family="sans-serif">ACTED_IN</text></g><g class="relationship" transform="translate(188.41314050125823 -22.50426127427229) rotate(471.8159846670147)"><path class="outline" fill="#A5ABB6" stroke="none" d="M 25 0.5 L 27.209105211685568 0.5 L 27.209105211685568 -0.5 L 25 -0.5 Z M 72.77160521168557 0.5 L 74.98071042337114 0.5 L 74.98071042337114 3.5 L 81.98071042337114 0 L 74.98071042337114 -3.5 L 74.98071042337114 -0.5 L 72.77160521168557 -0.5 Z"/><text text-anchor="middle" pointer-events="none" font-size="8px" fill="#000000" x="49.99035521168557" y="3" transform="rotate(180 49.99035521168557 0)" font-family="sans-serif">ACTED_IN</text></g><g class="relationship" transform="translate(188.41314050125823 -22.50426127427229) rotate(497.31610940466004)"><path class="outline" fill="#A5ABB6" stroke="none" d="M 25 0.5 L 41.21091490429134 0.5 L 41.21091490429134 -0.5 L 25 -0.5 Z M 86.77341490429134 0.5 L 102.98432980858269 0.5 L 102.98432980858269 3.5 L 109.98432980858269 0 L 102.98432980858269 -3.5 L 102.98432980858269 -0.5 L 86.77341490429134 -0.5 Z"/><text text-anchor="middle" pointer-events="none" font-size="8px" fill="#000000" x="63.99216490429134" y="3" transform="rotate(180 63.99216490429134 0)" font-family="sans-serif">ACTED_IN</text></g><g class="relationship" transform="translate(188.41314050125823 -22.50426127427229) rotate(438.82375716229154)"><path class="outline" fill="#A5ABB6" stroke="none" d="M 25 0.5 L 25.600045561867162 0.5 L 25.600045561867162 -0.5 L 25 -0.5 Z M 71.16254556186716 0.5 L 71.76259112373432 0.5 L 71.76259112373432 3.5 L 78.76259112373432 0 L 71.76259112373432 -3.5 L 71.76259112373432 -0.5 L 71.16254556186716 -0.5 Z"/><text text-anchor="middle" pointer-events="none" font-size="8px" fill="#000000" x="48.38129556186716" y="3" font-family="sans-serif">ACTED_IN</text></g><g class="relationship" transform="translate(109.49777892292798 -20.349544316057834) rotate(428.04992789820557)"><path class="outline" fill="#A5ABB6" stroke="none" d="M 25 0.5 L 26.09784850062715 0.5 L 26.09784850062715 -0.5 L 25 -0.5 Z M 71.66034850062715 0.5 L 72.7581970012543 0.5 L 72.7581970012543 3.5 L 79.7581970012543 0 L 72.7581970012543 -3.5 L 72.7581970012543 -0.5 L 71.66034850062715 -0.5 Z"/><text text-anchor="middle" pointer-events="none" font-size="8px" fill="#000000" x="48.87909850062715" y="3" font-family="sans-serif">ACTED_IN</text></g><g class="relationship" transform="translate(109.49777892292798 -20.349544316057834) rotate(462.8064720737193)"><path class="outline" fill="#A5ABB6" stroke="none" d="M 25 0.5 L 27.318935132713385 0.5 L 27.318935132713385 -0.5 L 25 -0.5 Z M 57.318935132713385 0.5 L 59.63787026542677 0.5 L 59.63787026542677 3.5 L 66.63787026542677 0 L 59.63787026542677 -3.5 L 59.63787026542677 -0.5 L 57.318935132713385 -0.5 Z"/><text text-anchor="middle" pointer-events="none" font-size="8px" fill="#000000" x="42.318935132713385" y="3" transform="rotate(180 42.318935132713385 0)" font-family="sans-serif">ACT…</text></g><g class="relationship" transform="translate(109.49777892292798 -20.349544316057834) rotate(405.1766922986232)"><path class="outline" fill="#A5ABB6" stroke="none" d="M 25 0.5 L 43.95865023412132 0.5 L 43.95865023412132 -0.5 L 25 -0.5 Z M 89.52115023412132 0.5 L 108.47980046824264 0.5 L 108.47980046824264 3.5 L 115.47980046824264 0 L 108.47980046824264 -3.5 L 108.47980046824264 -0.5 L 89.52115023412132 -0.5 Z"/><text text-anchor="middle" pointer-events="none" font-size="8px" fill="#000000" x="66.73990023412132" y="3" font-family="sans-serif">ACTED_IN</text></g><g class="relationship" transform="translate(196.89824513522063 167.2399587598804) rotate(241.9200064833433)"><path class="outline" fill="#A5ABB6" stroke="none" d="M 25 0.5 L 27.187906643436122 0.5 L 27.187906643436122 -0.5 L 25 -0.5 Z M 68.30118789343612 0.5 L 70.48909453687224 0.5 L 70.48909453687224 3.5 L 77.48909453687224 0 L 70.48909453687224 -3.5 L 70.48909453687224 -0.5 L 68.30118789343612 -0.5 Z"/><text text-anchor="middle" pointer-events="none" font-size="8px" fill="#000000" x="47.74454726843612" y="3" transform="rotate(180 47.74454726843612 0)" font-family="sans-serif">ACTED…</text></g><g class="relationship" transform="translate(196.89824513522063 167.2399587598804) rotate(222.36397908053902)"><path class="outline" fill="#A5ABB6" stroke="none" d="M 25 0.5 L 46.608069844141724 0.5 L 46.608069844141724 -0.5 L 25 -0.5 Z M 92.17056984414172 0.5 L 113.77863968828345 0.5 L 113.77863968828345 3.5 L 120.77863968828345 0 L 113.77863968828345 -3.5 L 113.77863968828345 -0.5 L 92.17056984414172 -0.5 Z"/><text text-anchor="middle" pointer-events="none" font-size="8px" fill="#000000" x="69.38931984414172" y="3" transform="rotate(180 69.38931984414172 0)" font-family="sans-serif">ACTED_IN</text></g><g class="relationship" transform="translate(196.89824513522063 167.2399587598804) rotate(277.5308551202107)"><path class="outline" fill="#A5ABB6" stroke="none" d="M 25 0.5 L 25.857318984836866 0.5 L 25.857318984836866 -0.5 L 25 -0.5 Z M 55.857318984836866 0.5 L 56.71463796967373 0.5 L 56.71463796967373 3.5 L 63.71463796967373 0 L 56.71463796967373 -3.5 L 56.71463796967373 -0.5 L 55.857318984836866 -0.5 Z"/><text text-anchor="middle" pointer-events="none" font-size="8px" fill="#000000" x="40.857318984836866" y="3" font-family="sans-serif">ACT…</text></g><g class="relationship" transform="translate(100.70530978324295 172.73900595240966) rotate(512.0576487801924)"><path class="outline" fill="#A5ABB6" stroke="none" d="M 25 0.5 L 35.743662875739815 0.5 L 35.743662875739815 -0.5 L 25 -0.5 Z M 81.30616287573982 0.5 L 92.04982575147963 0.5 L 92.04982575147963 3.5 L 99.04982575147963 0 L 92.04982575147963 -3.5 L 92.04982575147963 -0.5 L 81.30616287573982 -0.5 Z"/><text text-anchor="middle" pointer-events="none" font-size="8px" fill="#000000" x="58.524912875739815" y="3" transform="rotate(180 58.524912875739815 0)" font-family="sans-serif">ACTED_IN</text></g><g class="relationship" transform="translate(100.70530978324295 172.73900595240966) rotate(468.81021479495314)"><path class="outline" fill="#A5ABB6" stroke="none" d="M 25 0.5 L 34.83838782152094 0.5 L 34.83838782152094 -0.5 L 25 -0.5 Z M 80.40088782152094 0.5 L 90.23927564304188 0.5 L 90.23927564304188 3.5 L 97.23927564304188 0 L 90.23927564304188 -3.5 L 90.23927564304188 -0.5 L 80.40088782152094 -0.5 Z"/><text text-anchor="middle" pointer-events="none" font-size="8px" fill="#000000" x="57.61963782152094" y="3" transform="rotate(180 57.61963782152094 0)" font-family="sans-serif">ACTED_IN</text></g><g class="relationship" transform="translate(100.70530978324295 172.73900595240966) rotate(193.29983966864194)"><path class="outline" fill="#A5ABB6" stroke="none" d="M 25 0.5 L 37.48673707232374 0.5 L 37.48673707232374 -0.5 L 25 -0.5 Z M 83.04923707232373 0.5 L 95.53597414464748 0.5 L 95.53597414464748 3.5 L 102.53597414464748 0 L 95.53597414464748 -3.5 L 95.53597414464748 -0.5 L 83.04923707232373 -0.5 Z"/><text text-anchor="middle" pointer-events="none" font-size="8px" fill="#000000" x="60.26798707232374" y="3" transform="rotate(180 60.26798707232374 0)" font-family="sans-serif">ACTED_IN</text></g><g class="relationship" transform="translate(100.70530978324295 172.73900595240966) rotate(423.06604996862404)"><path class="outline" fill="#A5ABB6" stroke="none" d="M 25 0.5 L 35.60775324499089 0.5 L 35.60775324499089 -0.5 L 25 -0.5 Z M 81.17025324499089 0.5 L 91.77800648998178 0.5 L 91.77800648998178 3.5 L 98.77800648998178 0 L 91.77800648998178 -3.5 L 91.77800648998178 -0.5 L 81.17025324499089 -0.5 Z"/><text text-anchor="middle" pointer-events="none" font-size="8px" fill="#000000" x="58.38900324499089" y="3" font-family="sans-serif">ACTED_IN</text></g><g class="relationship" transform="translate(100.70530978324295 172.73900595240966) rotate(296.55969193075623)"><path class="outline" fill="#A5ABB6" stroke="none" d="M 25 0.5 L 27.33954605284181 0.5 L 27.33954605284181 -0.5 L 25 -0.5 Z M 72.90204605284181 0.5 L 75.24159210568362 0.5 L 75.24159210568362 3.5 L 82.24159210568362 0 L 75.24159210568362 -3.5 L 75.24159210568362 -0.5 L 72.90204605284181 -0.5 Z"/><text text-anchor="middle" pointer-events="none" font-size="8px" fill="#000000" x="50.12079605284181" y="3" font-family="sans-serif">ACTED_IN</text></g><g class="relationship" transform="translate(100.70530978324295 172.73900595240966) rotate(263.6629315376649)"><path class="outline" fill="#A5ABB6" stroke="none" d="M 25 0.5 L 25.90272404068601 0.5 L 25.90272404068601 -0.5 L 25 -0.5 Z M 71.46522404068601 0.5 L 72.36794808137202 0.5 L 72.36794808137202 3.5 L 79.36794808137202 0 L 72.36794808137202 -3.5 L 72.36794808137202 -0.5 L 71.46522404068601 -0.5 Z"/><text text-anchor="middle" pointer-events="none" font-size="8px" fill="#000000" x="48.68397404068601" y="3" transform="rotate(180 48.68397404068601 0)" font-family="sans-serif">ACTED_IN</text></g><g class="relationship" transform="translate(100.70530978324295 172.73900595240966) rotate(319.0842295884086)"><path class="outline" fill="#A5ABB6" stroke="none" d="M 25 0.5 L 45.05903310080397 0.5 L 45.05903310080397 -0.5 L 25 -0.5 Z M 90.62153310080397 0.5 L 110.68056620160795 0.5 L 110.68056620160795 3.5 L 117.68056620160795 0 L 110.68056620160795 -3.5 L 110.68056620160795 -0.5 L 90.62153310080397 -0.5 Z"/><text text-anchor="middle" pointer-events="none" font-size="8px" fill="#000000" x="67.84028310080397" y="3" font-family="sans-serif">ACTED_IN</text></g></g><g class="layer nodes"><g class="node" transform="translate(208.52519353312502,79.29053544714489)"><circle class="outline" cx="0" cy="0" r="25" fill="#57C7E3" stroke="#23b3d7" stroke-width="2px"/><text text-anchor="middle" pointer-events="none" font-family="sans-serif" dy="1.5625" font-size="25" fill="#2A2C34"/><text text-anchor="middle" pointer-events="none" font-family="sans-serif" dy="1.5625" font-size="25" fill="#2A2C34"/><text text-anchor="middle" pointer-events="none" x="0" y="0" font-size="10px" fill="#2A2C34" font-family="sans-serif"> The</text><text text-anchor="middle" pointer-events="none" x="0" y="10" font-size="10px" fill="#2A2C34" font-family="sans-serif"> Matrix</text></g><g class="node" transform="translate(188.41314050125823,-22.50426127427229)"><circle class="outline" cx="0" cy="0" r="25" fill="#F79767" stroke="#f36924" stroke-width="2px"/><text text-anchor="middle" pointer-events="none" font-family="sans-serif" dy="1.5625" font-size="25" fill="#FFFFFF"/><text text-anchor="middle" pointer-events="none" font-family="sans-serif" dy="1.5625" font-size="25" fill="#FFFFFF"/><text text-anchor="middle" pointer-events="none" x="0" y="0" font-size="10px" fill="#FFFFFF" font-family="sans-serif"> Hugo</text><text text-anchor="middle" pointer-events="none" x="0" y="10" font-size="10px" fill="#FFFFFF" font-family="sans-serif"> Weaving</text></g><g class="node" transform="translate(278.71792459305846,-89.90623968709495)"><circle class="outline" cx="0" cy="0" r="25" fill="#57C7E3" stroke="#23b3d7" stroke-width="2px"/><text text-anchor="middle" pointer-events="none" font-family="sans-serif" dy="1.5625" font-size="25" fill="#2A2C34"/><text text-anchor="middle" pointer-events="none" font-family="sans-serif" dy="1.5625" font-size="25" fill="#2A2C34"/><text text-anchor="middle" pointer-events="none" x="0" y="0" font-size="10px" fill="#2A2C34" font-family="sans-serif"> Cloud</text><text text-anchor="middle" pointer-events="none" x="0" y="10" font-size="10px" fill="#2A2C34" font-family="sans-serif"> Atlas</text></g><g class="node" transform="translate(140.75208118570328,-133.18714923923605)"><circle class="outline" cx="0" cy="0" r="25" fill="#57C7E3" stroke="#23b3d7" stroke-width="2px"/><text text-anchor="middle" pointer-events="none" font-family="sans-serif" dy="1.5625" font-size="25" fill="#2A2C34"/><text text-anchor="middle" pointer-events="none" font-family="sans-serif" dy="1.5625" font-size="25" fill="#2A2C34"/><text text-anchor="middle" pointer-events="none" x="0" y="0" font-size="10px" fill="#2A2C34" font-family="sans-serif"> V for</text><text text-anchor="middle" pointer-events="none" x="0" y="10" font-size="10px" fill="#2A2C34" font-family="sans-serif"> Vendetta</text></g><g class="node" transform="translate(148.65623556477954,76.81472438587723)"><circle class="outline" cx="0" cy="0" r="25" fill="#57C7E3" stroke="#23b3d7" stroke-width="2px"/><text text-anchor="middle" pointer-events="none" font-family="sans-serif" dy="1.5625" font-size="25" fill="#2A2C34"/><text text-anchor="middle" pointer-events="none" font-family="sans-serif" dy="1.5625" font-size="25" fill="#2A2C34"/><text text-anchor="middle" pointer-events="none" font-family="sans-serif" dy="1.5625" font-size="25" fill="#2A2C34"/><text text-anchor="middle" pointer-events="none" x="0" y="-5" font-size="10px" fill="#2A2C34" font-family="sans-serif"> The</text><text text-anchor="middle" pointer-events="none" x="0" y="5" font-size="10px" fill="#2A2C34" font-family="sans-serif"> Matrix</text><text text-anchor="middle" pointer-events="none" x="0" y="15" font-size="10px" fill="#2A2C34" font-family="sans-serif"> Revol…</text></g><g class="node" transform="translate(89.18545248534716,69.0087718133117)"><circle class="outline" cx="0" cy="0" r="25" fill="#57C7E3" stroke="#23b3d7" stroke-width="2px"/><text text-anchor="middle" pointer-events="none" font-family="sans-serif" dy="1.5625" font-size="25" fill="#2A2C34"/><text text-anchor="middle" pointer-events="none" font-family="sans-serif" dy="1.5625" font-size="25" fill="#2A2C34"/><text text-anchor="middle" pointer-events="none" font-family="sans-serif" dy="1.5625" font-size="25" fill="#2A2C34"/><text text-anchor="middle" pointer-events="none" x="0" y="-5" font-size="10px" fill="#2A2C34" font-family="sans-serif"> The</text><text text-anchor="middle" pointer-events="none" x="0" y="5" font-size="10px" fill="#2A2C34" font-family="sans-serif"> Matrix</text><text text-anchor="middle" pointer-events="none" x="0" y="15" font-size="10px" fill="#2A2C34" font-family="sans-serif"> Reloa…</text></g><g class="node" transform="translate(109.49777892292798,-20.349544316057834)"><circle class="outline" cx="0" cy="0" r="25" fill="#F79767" stroke="#f36924" stroke-width="2px"/><text text-anchor="middle" pointer-events="none" font-family="sans-serif" dy="1.5625" font-size="25" fill="#FFFFFF"/><text text-anchor="middle" pointer-events="none" font-family="sans-serif" dy="1.5625" font-size="25" fill="#FFFFFF"/><text text-anchor="middle" pointer-events="none" x="0" y="0" font-size="10px" fill="#FFFFFF" font-family="sans-serif"> Laurence</text><text text-anchor="middle" pointer-events="none" x="0" y="10" font-size="10px" fill="#FFFFFF" font-family="sans-serif"> Fishbur…</text></g><g class="node" transform="translate(196.89824513522063,167.2399587598804)"><circle class="outline" cx="0" cy="0" r="25" fill="#F79767" stroke="#f36924" stroke-width="2px"/><text text-anchor="middle" pointer-events="none" font-family="sans-serif" dy="1.5625" font-size="25" fill="#FFFFFF"/><text text-anchor="middle" pointer-events="none" x="0" y="5" font-size="10px" fill="#FFFFFF" font-family="sans-serif"> Carrie-A…</text></g><g class="node" transform="translate(100.70530978324295,172.73900595240966)"><circle class="outline" cx="0" cy="0" r="25" fill="#F79767" stroke="#f36924" stroke-width="2px"/><text text-anchor="middle" pointer-events="none" font-family="sans-serif" dy="1.5625" font-size="25" fill="#FFFFFF"/><text text-anchor="middle" pointer-events="none" font-family="sans-serif" dy="1.5625" font-size="25" fill="#FFFFFF"/><text text-anchor="middle" pointer-events="none" x="0" y="0" font-size="10px" fill="#FFFFFF" font-family="sans-serif"> Keanu</text><text text-anchor="middle" pointer-events="none" x="0" y="10" font-size="10px" fill="#FFFFFF" font-family="sans-serif"> Reeves</text></g><g class="node" transform="translate(-8.882726477526036,230.866637742126)"><circle class="outline" cx="0" cy="0" r="25" fill="#57C7E3" stroke="#23b3d7" stroke-width="2px"/><text text-anchor="middle" pointer-events="none" font-family="sans-serif" dy="1.5625" font-size="25" fill="#2A2C34"/><text text-anchor="middle" pointer-events="none" x="0" y="5" font-size="10px" fill="#2A2C34" font-family="sans-serif"> Somethi…</text></g><g class="node" transform="translate(61.2911548959341,288.44970080925856)"><circle class="outline" cx="0" cy="0" r="25" fill="#57C7E3" stroke="#23b3d7" stroke-width="2px"/><text text-anchor="middle" pointer-events="none" font-family="sans-serif" dy="1.5625" font-size="25" fill="#2A2C34"/><text text-anchor="middle" pointer-events="none" font-family="sans-serif" dy="1.5625" font-size="25" fill="#2A2C34"/><text text-anchor="middle" pointer-events="none" x="0" y="0" font-size="10px" fill="#2A2C34" font-family="sans-serif"> The</text><text text-anchor="middle" pointer-events="none" x="0" y="10" font-size="10px" fill="#2A2C34" font-family="sans-serif"> Replac…</text></g><g class="node" transform="translate(-23.410087874234314,143.39973593165968)"><circle class="outline" cx="0" cy="0" r="25" fill="#57C7E3" stroke="#23b3d7" stroke-width="2px"/><text text-anchor="middle" pointer-events="none" font-family="sans-serif" dy="1.5625" font-size="25" fill="#2A2C34"/><text text-anchor="middle" pointer-events="none" font-family="sans-serif" dy="1.5625" font-size="25" fill="#2A2C34"/><text text-anchor="middle" pointer-events="none" x="0" y="0" font-size="10px" fill="#2A2C34" font-family="sans-serif"> Johnny</text><text text-anchor="middle" pointer-events="none" x="0" y="10" font-size="10px" fill="#2A2C34" font-family="sans-serif"> Mnemo…</text></g><g class="node" transform="translate(156.77217379557396,283.09072388401574)"><circle class="outline" cx="0" cy="0" r="25" fill="#57C7E3" stroke="#23b3d7" stroke-width="2px"/><text text-anchor="middle" pointer-events="none" font-family="sans-serif" dy="1.5625" font-size="25" fill="#2A2C34"/><text text-anchor="middle" pointer-events="none" font-family="sans-serif" dy="1.5625" font-size="25" fill="#2A2C34"/><text text-anchor="middle" pointer-events="none" font-family="sans-serif" dy="1.5625" font-size="25" fill="#2A2C34"/><text text-anchor="middle" pointer-events="none" x="0" y="-5" font-size="10px" fill="#2A2C34" font-family="sans-serif"> The</text><text text-anchor="middle" pointer-events="none" x="0" y="5" font-size="10px" fill="#2A2C34" font-family="sans-serif"> Devil's</text><text text-anchor="middle" pointer-events="none" x="0" y="15" font-size="10px" fill="#2A2C34" font-family="sans-serif"> Advoc…</text></g></g></svg>