<svg xmlns="http://www.w3.org/2000/svg" width="367.90118408203125" height="375.0888977050781" viewBox="-117.79774475097656 -123.39572143554688 367.90118408203125 375.0888977050781"><title>Neo4j Graph Visualization</title><desc>Created using Neo4j (http://www.neo4j.com/)</desc><g class="layer relationships"><g class="relationship" transform="translate(-37.87310209776934 191.35673534389048) rotate(306.8661539727972)"><path class="outline" fill="#A5ABB6" stroke="none" d="M 25 0.5 L 54.80918514092879 0.5 L 54.80918514092879 -0.5 L 25 -0.5 Z M 100.37168514092879 0.5 L 130.18087028185758 0.5 L 130.18087028185758 3.5 L 137.18087028185758 0 L 130.18087028185758 -3.5 L 130.18087028185758 -0.5 L 100.37168514092879 -0.5 Z"/><text text-anchor="middle" pointer-events="none" font-size="8px" fill="#000000" x="77.59043514092879" y="3" font-family="sans-serif">ACTED_IN</text></g><g class="relationship" transform="translate(50.98282541613989 222.69318090355122) rotate(273.00066645138253)"><path class="outline" fill="#A5ABB6" stroke="none" d="M 25 0.5 L 53.70902035997763 0.5 L 53.70902035997763 -0.5 L 25 -0.5 Z M 100.59964535997763 0.5 L 129.30866571995526 0.5 L 129.30866571995526 3.5 L 136.30866571995526 0 L 129.30866571995526 -3.5 L 129.30866571995526 -0.5 L 100.59964535997763 -0.5 Z"/><text text-anchor="middle" pointer-events="none" font-size="8px" fill="#000000" x="77.15433285997763" y="3" font-family="sans-serif">DIRECTED</text></g><g class="relationship" transform="translate(198.79750962534703 119.59829860060525) rotate(202.59237839695203)"><path class="outline" fill="#A5ABB6" stroke="none" d="M 25 0.5 L 54.090593508265556 0.5 L 54.090593508265556 -0.5 L 25 -0.5 Z M 89.86403100826556 0.5 L 118.95462451653111 0.5 L 118.95462451653111 3.5 L 125.95462451653111 0 L 118.95462451653111 -3.5 L 118.95462451653111 -0.5 L 89.86403100826556 -0.5 Z"/><text text-anchor="middle" pointer-events="none" font-size="8px" fill="#000000" x="71.97731225826556" y="3" transform="rotate(180 71.97731225826556 0)" font-family="sans-serif">WROTE</text></g><g class="relationship" transform="translate(168.7962415213335 33.43281970493888) rotate(525.5549907899169)"><path class="outline" fill="#A5ABB6" stroke="none" d="M 25 0.5 L 30.18855103786619 0.5 L 30.18855103786619 -0.5 L 25 -0.5 Z M 75.75105103786619 0.5 L 80.93960207573238 0.5 L 80.93960207573238 3.5 L 87.93960207573238 0 L 80.93960207573238 -3.5 L 80.93960207573238 -0.5 L 75.75105103786619 -0.5 Z"/><text text-anchor="middle" pointer-events="none" font-size="8px" fill="#000000" x="52.96980103786619" y="3" transform="rotate(180 52.96980103786619 0)" font-family="sans-serif">ACTED_IN</text></g><g class="relationship" transform="translate(221.10344713446176 62.719247254451005) rotate(180.3946251799897)"><path class="outline" fill="#A5ABB6" stroke="none" d="M 25 0.5 L 54.55891978842244 0.5 L 54.55891978842244 -0.5 L 25 -0.5 Z M 100.12141978842244 0.5 L 129.6803395768449 0.5 L 129.6803395768449 3.5 L 136.6803395768449 0 L 129.6803395768449 -3.5 L 129.6803395768449 -0.5 L 100.12141978842244 -0.5 Z"/><text text-anchor="middle" pointer-events="none" font-size="8px" fill="#000000" x="77.34016978842244" y="3" transform="rotate(180 77.34016978842244 0)" font-family="sans-serif">ACTED_IN</text></g><g class="relationship" transform="translate(196.7567930877293 -19.58100432824736) rotate(509.409262128857)"><path class="outline" fill="#A5ABB6" stroke="none" d="M 25 0.5 L 53.48523075746159 0.5 L 53.48523075746159 -0.5 L 25 -0.5 Z M 99.0477307574616 0.5 L 127.53296151492319 0.5 L 127.53296151492319 3.5 L 134.5329615149232 0 L 127.53296151492319 -3.5 L 127.53296151492319 -0.5 L 99.0477307574616 -0.5 Z"/><text text-anchor="middle" pointer-events="none" font-size="8px" fill="#000000" x="76.2664807574616" y="3" transform="rotate(180 76.2664807574616 0)" font-family="sans-serif">ACTED_IN</text></g><g class="relationship" transform="translate(90.48919546264241 -59.23711254295006) rotate(464.4156104970933)"><path class="outline" fill="#A5ABB6" stroke="none" d="M 25 0.5 L 36.10433405382839 0.5 L 36.10433405382839 -0.5 L 25 -0.5 Z M 81.66683405382838 0.5 L 92.77116810765678 0.5 L 92.77116810765678 3.5 L 99.77116810765678 0 L 92.77116810765678 -3.5 L 92.77116810765678 -0.5 L 81.66683405382838 -0.5 Z"/><text text-anchor="middle" pointer-events="none" font-size="8px" fill="#000000" x="58.88558405382839" y="3" transform="rotate(180 58.88558405382839 0)" font-family="sans-serif">ACTED_IN</text></g><g class="relationship" transform="translate(150.40410768232834 -59.07851943000344) rotate(487.0106262210634)"><path class="outline" fill="#A5ABB6" stroke="none" d="M 25 0.5 L 49.28580781631807 0.5 L 49.28580781631807 -0.5 L 25 -0.5 Z M 94.84830781631807 0.5 L 119.13411563263614 0.5 L 119.13411563263614 3.5 L 126.13411563263614 0 L 119.13411563263614 -3.5 L 119.13411563263614 -0.5 L 94.84830781631807 -0.5 Z"/><text text-anchor="middle" pointer-events="none" font-size="8px" fill="#000000" x="72.06705781631807" y="3" transform="rotate(180 72.06705781631807 0)" font-family="sans-serif">ACTED_IN</text></g><g class="relationship" transform="translate(41.959198132362914 -94.39572202119322) rotate(443.61110536430914)"><path class="outline" fill="#A5ABB6" stroke="none" d="M 25 0.5 L 52.20690186496742 0.5 L 52.20690186496742 -0.5 L 25 -0.5 Z M 97.76940186496742 0.5 L 124.97630372993484 0.5 L 124.97630372993484 3.5 L 131.97630372993484 0 L 124.97630372993484 -3.5 L 124.97630372993484 -0.5 L 97.76940186496742 -0.5 Z"/><text text-anchor="middle" pointer-events="none" font-size="8px" fill="#000000" x="74.98815186496742" y="3" font-family="sans-serif">ACTED_IN</text></g><g class="relationship" transform="translate(176.50773651596901 182.18509131163177) rotate(225.84339508056155)"><path class="outline" fill="#A5ABB6" stroke="none" d="M 25 0.5 L 57.75342507777627 0.5 L 57.75342507777627 -0.5 L 25 -0.5 Z M 103.31592507777627 0.5 L 136.06935015555254 0.5 L 136.06935015555254 3.5 L 143.06935015555254 0 L 136.06935015555254 -3.5 L 136.06935015555254 -0.5 L 103.31592507777627 -0.5 Z"/><text text-anchor="middle" pointer-events="none" font-size="8px" fill="#000000" x="80.53467507777627" y="3" transform="rotate(180 80.53467507777627 0)" font-family="sans-serif">ACTED_IN</text></g><g class="relationship" transform="translate(129.9878828982948 144.40166263545225) rotate(229.56147989115016)"><path class="outline" fill="#A5ABB6" stroke="none" d="M 25 0.5 L 28.110892916741165 0.5 L 28.110892916741165 -0.5 L 25 -0.5 Z M 73.67339291674116 0.5 L 76.78428583348233 0.5 L 76.78428583348233 3.5 L 83.78428583348233 0 L 76.78428583348233 -3.5 L 76.78428583348233 -0.5 L 73.67339291674116 -0.5 Z"/><text text-anchor="middle" pointer-events="none" font-size="8px" fill="#000000" x="50.892142916741165" y="3" transform="rotate(180 50.892142916741165 0)" font-family="sans-serif">ACTED_IN</text></g><g class="relationship" transform="translate(109.20063160031302 206.53461765120375) rotate(251.04572760361305)"><path class="outline" fill="#A5ABB6" stroke="none" d="M 25 0.5 L 50.33763918984124 0.5 L 50.33763918984124 -0.5 L 25 -0.5 Z M 95.90013918984124 0.5 L 121.23777837968248 0.5 L 121.23777837968248 3.5 L 128.23777837968248 0 L 121.23777837968248 -3.5 L 121.23777837968248 -0.5 L 95.90013918984124 -0.5 Z"/><text text-anchor="middle" pointer-events="none" font-size="8px" fill="#000000" x="73.11888918984124" y="3" transform="rotate(180 73.11888918984124 0)" font-family="sans-serif">ACTED_IN</text></g><g class="relationship" transform="translate(-2.4156096006895798 -54.011089648039864) rotate(421.85800444040615)"><path class="outline" fill="#A5ABB6" stroke="none" d="M 25 0.5 L 39.2773859069205 0.5 L 39.2773859069205 -0.5 L 25 -0.5 Z M 84.8398859069205 0.5 L 99.117271813841 0.5 L 99.117271813841 3.5 L 106.117271813841 0 L 99.117271813841 -3.5 L 99.117271813841 -0.5 L 84.8398859069205 -0.5 Z"/><text text-anchor="middle" pointer-events="none" font-size="8px" fill="#000000" x="62.0586359069205" y="3" font-family="sans-serif">ACTED_IN</text></g><g class="relationship" transform="translate(-88.79774227530866 24.587504946014242) rotate(374.0224197906002)"><path class="outline" fill="#A5ABB6" stroke="none" d="M 25 0.5 L 50.10739859167792 0.5 L 50.10739859167792 -0.5 L 25 -0.5 Z M 95.66989859167792 0.5 L 120.77729718335584 0.5 L 120.77729718335584 3.5 L 127.77729718335584 0 L 120.77729718335584 -3.5 L 120.77729718335584 -0.5 L 95.66989859167792 -0.5 Z"/><text text-anchor="middle" pointer-events="none" font-size="8px" fill="#000000" x="72.88864859167792" y="3" font-family="sans-serif">ACTED_IN</text></g><g class="relationship" transform="translate(-64.98298010777974 79.48991855023736) rotate(351.81962984616325)"><path class="outline" fill="#A5ABB6" stroke="none" d="M 25 0.5 L 36.563150635642984 0.5 L 36.563150635642984 -0.5 L 25 -0.5 Z M 82.12565063564298 0.5 L 93.68880127128597 0.5 L 93.68880127128597 3.5 L 100.68880127128597 0 L 93.68880127128597 -3.5 L 93.68880127128597 -0.5 L 82.12565063564298 -0.5 Z"/><text text-anchor="middle" pointer-events="none" font-size="8px" fill="#000000" x="59.344400635642984" y="3" font-family="sans-serif">ACTED_IN</text></g><g class="relationship" transform="translate(-67.87878262272378 139.3381802888016) rotate(328.59188449717215)"><path class="outline" fill="#A5ABB6" stroke="none" d="M 25 0.5 L 48.29939263898966 0.5 L 48.29939263898966 -0.5 L 25 -0.5 Z M 93.86189263898966 0.5 L 117.16128527797932 0.5 L 117.16128527797932 3.5 L 124.16128527797932 0 L 117.16128527797932 -3.5 L 117.16128527797932 -0.5 L 93.86189263898966 -0.5 Z"/><text text-anchor="middle" pointer-events="none" font-size="8px" fill="#000000" x="71.08064263898966" y="3" font-family="sans-serif">ACTED_IN</text></g><g class="relationship" transform="translate(-54.57856804464469 -24.704888300626152) rotate(397.12840449049884)"><path class="outline" fill="#A5ABB6" stroke="none" d="M 25 0.5 L 45.21485276684582 0.5 L 45.21485276684582 -0.5 L 25 -0.5 Z M 90.77735276684582 0.5 L 110.99220553369165 0.5 L 110.99220553369165 3.5 L 117.99220553369165 0 L 110.99220553369165 -3.5 L 110.99220553369165 -0.5 L 90.77735276684582 -0.5 Z"/><text text-anchor="middle" pointer-events="none" font-size="8px" fill="#000000" x="67.99610276684582" y="3" font-family="sans-serif">ACTED_IN</text></g><g class="relationship" transform="translate(18.824980679918536 172.09604440203708) rotate(290.17689678320414)"><path class="outline" fill="#A5ABB6" stroke="none" d="M 25 0.5 L 37.47039558790731 0.5 L 37.47039558790731 -0.5 L 25 -0.5 Z M 73.24383308790732 0.5 L 85.71422867581462 0.5 L 85.71422867581462 3.5 L 92.71422867581462 0 L 85.71422867581462 -3.5 L 85.71422867581462 -0.5 L 73.24383308790732 -0.5 Z"/><text text-anchor="middle" pointer-events="none" font-size="8px" fill="#000000" x="55.35711433790731" y="3" font-family="sans-serif">WROTE</text></g></g><g class="layer nodes"><g class="node" transform="translate(59.4269424203331,61.6056813128885)"><circle class="outline" cx="0" cy="0" r="25" fill="#57C7E3" stroke="#23b3d7" stroke-width="2px"/><text text-anchor="middle" pointer-events="none" font-family="sans-serif" dy="1.5625" font-size="25" fill="#2A2C34"/><text text-anchor="middle" pointer-events="none" font-family="sans-serif" dy="1.5625" font-size="25" fill="#2A2C34"/><text text-anchor="middle" pointer-events="none" font-family="sans-serif" dy="1.5625" font-size="25" fill="#2A2C34"/><text text-anchor="middle" pointer-events="none" x="0" y="-5" font-size="10px" fill="#2A2C34" font-family="sans-serif"> Captain</text><text text-anchor="middle" pointer-events="none" x="0" y="5" font-size="10px" fill="#2A2C34" font-family="sans-serif"> America:</text><text text-anchor="middle" pointer-events="none" x="0" y="15" font-size="10px" fill="#2A2C34" font-family="sans-serif"> The Fi…</text></g><g class="node" transform="translate(-37.87310209776934,191.35673534389048)"><circle class="outline" cx="0" cy="0" r="25" fill="#F79767" stroke="#f36924" stroke-width="2px"/><text text-anchor="middle" pointer-events="none" font-family="sans-serif" dy="1.5625" font-size="25" fill="#FFFFFF"/><text text-anchor="middle" pointer-events="none" font-family="sans-serif" dy="1.5625" font-size="25" fill="#FFFFFF"/><text text-anchor="middle" pointer-events="none" x="0" y="0" font-size="10px" fill="#FFFFFF" font-family="sans-serif"> Neal</text><text text-anchor="middle" pointer-events="none" x="0" y="10" font-size="10px" fill="#FFFFFF" font-family="sans-serif"> McDon…</text></g><g class="node" transform="translate(50.98282541613989,222.69318090355122)"><circle class="outline" cx="0" cy="0" r="25" fill="#F79767" stroke="#f36924" stroke-width="2px"/><text text-anchor="middle" pointer-events="none" font-family="sans-serif" dy="1.5625" font-size="25" fill="#FFFFFF"/><text text-anchor="middle" pointer-events="none" font-family="sans-serif" dy="1.5625" font-size="25" fill="#FFFFFF"/><text text-anchor="middle" pointer-events="none" x="0" y="0" font-size="10px" fill="#FFFFFF" font-family="sans-serif"> Joe</text><text text-anchor="middle" pointer-events="none" x="0" y="10" font-size="10px" fill="#FFFFFF" font-family="sans-serif"> Johnston</text></g><g class="node" transform="translate(198.79750962534703,119.59829860060525)"><circle class="outline" cx="0" cy="0" r="25" fill="#F79767" stroke="#f36924" stroke-width="2px"/><text text-anchor="middle" pointer-events="none" font-family="sans-serif" dy="1.5625" font-size="25" fill="#FFFFFF"/><text text-anchor="middle" pointer-events="none" x="0" y="5" font-size="10px" fill="#FFFFFF" font-family="sans-serif"> Christop…</text></g><g class="node" transform="translate(168.7962415213335,33.43281970493888)"><circle class="outline" cx="0" cy="0" r="25" fill="#F79767" stroke="#f36924" stroke-width="2px"/><text text-anchor="middle" pointer-events="none" font-family="sans-serif" dy="1.5625" font-size="25" fill="#FFFFFF"/><text text-anchor="middle" pointer-events="none" font-family="sans-serif" dy="1.5625" font-size="25" fill="#FFFFFF"/><text text-anchor="middle" pointer-events="none" x="0" y="0" font-size="10px" fill="#FFFFFF" font-family="sans-serif"> Hugo</text><text text-anchor="middle" pointer-events="none" x="0" y="10" font-size="10px" fill="#FFFFFF" font-family="sans-serif"> Weaving</text></g><g class="node" transform="translate(221.10344713446176,62.719247254451005)"><circle class="outline" cx="0" cy="0" r="25" fill="#F79767" stroke="#f36924" stroke-width="2px"/><text text-anchor="middle" pointer-events="none" font-family="sans-serif" dy="1.5625" font-size="25" fill="#FFFFFF"/><text text-anchor="middle" pointer-events="none" font-family="sans-serif" dy="1.5625" font-size="25" fill="#FFFFFF"/><text text-anchor="middle" pointer-events="none" x="0" y="0" font-size="10px" fill="#FFFFFF" font-family="sans-serif"> Dominic</text><text text-anchor="middle" pointer-events="none" x="0" y="10" font-size="10px" fill="#FFFFFF" font-family="sans-serif"> Cooper</text></g><g class="node" transform="translate(196.7567930877293,-19.58100432824736)"><circle class="outline" cx="0" cy="0" r="25" fill="#F79767" stroke="#f36924" stroke-width="2px"/><text text-anchor="middle" pointer-events="none" font-family="sans-serif" dy="1.5625" font-size="25" fill="#FFFFFF"/><text text-anchor="middle" pointer-events="none" font-family="sans-serif" dy="1.5625" font-size="25" fill="#FFFFFF"/><text text-anchor="middle" pointer-events="none" x="0" y="0" font-size="10px" fill="#FFFFFF" font-family="sans-serif"> Richard</text><text text-anchor="middle" pointer-events="none" x="0" y="10" font-size="10px" fill="#FFFFFF" font-family="sans-serif"> Armitage</text></g><g class="node" transform="translate(90.48919546264241,-59.23711254295006)"><circle class="outline" cx="0" cy="0" r="25" fill="#F79767" stroke="#f36924" stroke-width="2px"/><text text-anchor="middle" pointer-events="none" font-family="sans-serif" dy="1.5625" font-size="25" fill="#FFFFFF"/><text text-anchor="middle" pointer-events="none" x="0" y="5" font-size="10px" fill="#FFFFFF" font-family="sans-serif"> JJ Feild</text></g><g class="node" transform="translate(150.40410768232834,-59.07851943000344)"><circle class="outline" cx="0" cy="0" r="25" fill="#F79767" stroke="#f36924" stroke-width="2px"/><text text-anchor="middle" pointer-events="none" font-family="sans-serif" dy="1.5625" font-size="25" fill="#FFFFFF"/><text text-anchor="middle" pointer-events="none" x="0" y="5" font-size="10px" fill="#FFFFFF" font-family="sans-serif"> Sebastian</text></g><g class="node" transform="translate(41.959198132362914,-94.39572202119322)"><circle class="outline" cx="0" cy="0" r="25" fill="#F79767" stroke="#f36924" stroke-width="2px"/><text text-anchor="middle" pointer-events="none" font-family="sans-serif" dy="1.5625" font-size="25" fill="#FFFFFF"/><text text-anchor="middle" pointer-events="none" font-family="sans-serif" dy="1.5625" font-size="25" fill="#FFFFFF"/><text text-anchor="middle" pointer-events="none" x="0" y="0" font-size="10px" fill="#FFFFFF" font-family="sans-serif"> Stanley</text><text text-anchor="middle" pointer-events="none" x="0" y="10" font-size="10px" fill="#FFFFFF" font-family="sans-serif"> Tucci</text></g><g class="node" transform="translate(176.50773651596901,182.18509131163177)"><circle class="outline" cx="0" cy="0" r="25" fill="#F79767" stroke="#f36924" stroke-width="2px"/><text text-anchor="middle" pointer-events="none" font-family="sans-serif" dy="1.5625" font-size="25" fill="#FFFFFF"/><text text-anchor="middle" pointer-events="none" font-family="sans-serif" dy="1.5625" font-size="25" fill="#FFFFFF"/><text text-anchor="middle" pointer-events="none" x="0" y="0" font-size="10px" fill="#FFFFFF" font-family="sans-serif"> Tommy</text><text text-anchor="middle" pointer-events="none" x="0" y="10" font-size="10px" fill="#FFFFFF" font-family="sans-serif"> Lee Jon…</text></g><g class="node" transform="translate(129.9878828982948,144.40166263545225)"><circle class="outline" cx="0" cy="0" r="25" fill="#F79767" stroke="#f36924" stroke-width="2px"/><text text-anchor="middle" pointer-events="none" font-family="sans-serif" dy="1.5625" font-size="25" fill="#FFFFFF"/><text text-anchor="middle" pointer-events="none" font-family="sans-serif" dy="1.5625" font-size="25" fill="#FFFFFF"/><text text-anchor="middle" pointer-events="none" x="0" y="0" font-size="10px" fill="#FFFFFF" font-family="sans-serif"> Lex</text><text text-anchor="middle" pointer-events="none" x="0" y="10" font-size="10px" fill="#FFFFFF" font-family="sans-serif"> Shrapnel</text></g><g class="node" transform="translate(109.20063160031302,206.53461765120375)"><circle class="outline" cx="0" cy="0" r="25" fill="#F79767" stroke="#f36924" stroke-width="2px"/><text text-anchor="middle" pointer-events="none" font-family="sans-serif" dy="1.5625" font-size="25" fill="#FFFFFF"/><text text-anchor="middle" pointer-events="none" font-family="sans-serif" dy="1.5625" font-size="25" fill="#FFFFFF"/><text text-anchor="middle" pointer-events="none" x="0" y="0" font-size="10px" fill="#FFFFFF" font-family="sans-serif"> Hayley</text><text text-anchor="middle" pointer-events="none" x="0" y="10" font-size="10px" fill="#FFFFFF" font-family="sans-serif"> Atwell</text></g><g class="node" transform="translate(-2.4156096006895798,-54.011089648039864)"><circle class="outline" cx="0" cy="0" r="25" fill="#F79767" stroke="#f36924" stroke-width="2px"/><text text-anchor="middle" pointer-events="none" font-family="sans-serif" dy="1.5625" font-size="25" fill="#FFFFFF"/><text text-anchor="middle" pointer-events="none" font-family="sans-serif" dy="1.5625" font-size="25" fill="#FFFFFF"/><text text-anchor="middle" pointer-events="none" font-family="sans-serif" dy="1.5625" font-size="25" fill="#FFFFFF"/><text text-anchor="middle" pointer-events="none" x="0" y="-5" font-size="10px" fill="#FFFFFF" font-family="sans-serif"> Samuel</text><text text-anchor="middle" pointer-events="none" x="0" y="5" font-size="10px" fill="#FFFFFF" font-family="sans-serif"> L.</text><text text-anchor="middle" pointer-events="none" x="0" y="15" font-size="10px" fill="#FFFFFF" font-family="sans-serif"> Jackson</text></g><g class="node" transform="translate(-88.79774227530866,24.587504946014242)"><circle class="outline" cx="0" cy="0" r="25" fill="#F79767" stroke="#f36924" stroke-width="2px"/><text text-anchor="middle" pointer-events="none" font-family="sans-serif" dy="1.5625" font-size="25" fill="#FFFFFF"/><text text-anchor="middle" pointer-events="none" font-family="sans-serif" dy="1.5625" font-size="25" fill="#FFFFFF"/><text text-anchor="middle" pointer-events="none" x="0" y="0" font-size="10px" fill="#FFFFFF" font-family="sans-serif"> Derek</text><text text-anchor="middle" pointer-events="none" x="0" y="10" font-size="10px" fill="#FFFFFF" font-family="sans-serif"> Luke</text></g><g class="node" transform="translate(-64.98298010777974,79.48991855023736)"><circle class="outline" cx="0" cy="0" r="25" fill="#F79767" stroke="#f36924" stroke-width="2px"/><text text-anchor="middle" pointer-events="none" font-family="sans-serif" dy="1.5625" font-size="25" fill="#FFFFFF"/><text text-anchor="middle" pointer-events="none" font-family="sans-serif" dy="1.5625" font-size="25" fill="#FFFFFF"/><text text-anchor="middle" pointer-events="none" x="0" y="0" font-size="10px" fill="#FFFFFF" font-family="sans-serif"> Toby</text><text text-anchor="middle" pointer-events="none" x="0" y="10" font-size="10px" fill="#FFFFFF" font-family="sans-serif"> Jones</text></g><g class="node" transform="translate(-67.87878262272378,139.3381802888016)"><circle class="outline" cx="0" cy="0" r="25" fill="#F79767" stroke="#f36924" stroke-width="2px"/><text text-anchor="middle" pointer-events="none" font-family="sans-serif" dy="1.5625" font-size="25" fill="#FFFFFF"/><text text-anchor="middle" pointer-events="none" font-family="sans-serif" dy="1.5625" font-size="25" fill="#FFFFFF"/><text text-anchor="middle" pointer-events="none" x="0" y="0" font-size="10px" fill="#FFFFFF" font-family="sans-serif"> Kenneth</text><text text-anchor="middle" pointer-events="none" x="0" y="10" font-size="10px" fill="#FFFFFF" font-family="sans-serif"> Choi</text></g><g class="node" transform="translate(-54.57856804464469,-24.704888300626152)"><circle class="outline" cx="0" cy="0" r="25" fill="#F79767" stroke="#f36924" stroke-width="2px"/><text text-anchor="middle" pointer-events="none" font-family="sans-serif" dy="1.5625" font-size="25" fill="#FFFFFF"/><text text-anchor="middle" pointer-events="none" font-family="sans-serif" dy="1.5625" font-size="25" fill="#FFFFFF"/><text text-anchor="middle" pointer-events="none" x="0" y="0" font-size="10px" fill="#FFFFFF" font-family="sans-serif"> Chris</text><text text-anchor="middle" pointer-events="none" x="0" y="10" font-size="10px" fill="#FFFFFF" font-family="sans-serif"> Evans</text></g><g class="node" transform="translate(18.824980679918536,172.09604440203708)"><circle class="outline" cx="0" cy="0" r="25" fill="#F79767" stroke="#f36924" stroke-width="2px"/><text text-anchor="middle" pointer-events="none" font-family="sans-serif" dy="1.5625" font-size="25" fill="#FFFFFF"/><text text-anchor="middle" pointer-events="none" font-family="sans-serif" dy="1.5625" font-size="25" fill="#FFFFFF"/><text text-anchor="middle" pointer-events="none" x="0" y="0" font-size="10px" fill="#FFFFFF" font-family="sans-serif"> Stephen</text><text text-anchor="middle" pointer-events="none" x="0" y="10" font-size="10px" fill="#FFFFFF" font-family="sans-serif"> McFeely</text></g></g></svg>