<svg xmlns="http://www.w3.org/2000/svg" width="294.10406494140625" height="449.6317138671875" viewBox="-58.431861877441406 -135.58941650390625 294.10406494140625 449.6317138671875"><title>Neo4j Graph Visualization</title><desc>Created using Neo4j (http://www.neo4j.com/)</desc><g class="layer relationships"><g class="relationship" transform="translate(53.59335882043667 79.26486102412977) rotate(415.2850189439131)"><path class="outline" fill="#A5ABB6" stroke="none" d="M 25 0.5 L 45.55507998408335 0.5 L 45.55507998408335 -0.5 L 25 -0.5 Z M 91.11757998408335 0.5 L 111.6726599681667 0.5 L 111.6726599681667 3.5 L 118.6726599681667 0 L 111.6726599681667 -3.5 L 111.6726599681667 -0.5 L 91.11757998408335 -0.5 Z"/><text text-anchor="middle" pointer-events="none" font-size="8px" fill="#000000" x="68.33632998408335" y="3" font-family="sans-serif">ACTED_IN</text></g><g class="relationship" transform="translate(53.59335882043667 79.26486102412977) rotate(297.3785200013011)"><path class="outline" fill="#A5ABB6" stroke="none" d="M 25 0.5 L 26.90559548363867 0.5 L 26.90559548363867 -0.5 L 25 -0.5 Z M 56.90559548363867 0.5 L 58.81119096727734 0.5 L 58.81119096727734 3.5 L 65.81119096727734 0 L 58.81119096727734 -3.5 L 58.81119096727734 -0.5 L 56.90559548363867 -0.5 Z"/><text text-anchor="middle" pointer-events="none" font-size="8px" fill="#000000" x="41.90559548363867" y="3" font-family="sans-serif">ACT…</text></g><g class="relationship" transform="translate(53.59335882043667 79.26486102412977) rotate(483.77835248653537)"><path class="outline" fill="#A5ABB6" stroke="none" d="M 25 0.5 L 31.19296236110123 0.5 L 31.19296236110123 -0.5 L 25 -0.5 Z M 76.75546236110122 0.5 L 82.94842472220246 0.5 L 82.94842472220246 3.5 L 89.94842472220246 0 L 82.94842472220246 -3.5 L 82.94842472220246 -0.5 L 76.75546236110122 -0.5 Z"/><text text-anchor="middle" pointer-events="none" font-size="8px" fill="#000000" x="53.97421236110123" y="3" transform="rotate(180 53.97421236110123 0)" font-family="sans-serif">ACTED_IN</text></g><g class="relationship" transform="translate(53.59335882043667 79.26486102412977) rotate(360.9235978426678)"><path class="outline" fill="#A5ABB6" stroke="none" d="M 25 0.5 L 38.696441011842694 0.5 L 38.696441011842694 -0.5 L 25 -0.5 Z M 84.2589410118427 0.5 L 97.95538202368539 0.5 L 97.95538202368539 3.5 L 104.95538202368539 0 L 97.95538202368539 -3.5 L 97.95538202368539 -0.5 L 84.2589410118427 -0.5 Z"/><text text-anchor="middle" pointer-events="none" font-size="8px" fill="#000000" x="61.477691011842694" y="3" font-family="sans-serif">ACTED_IN</text></g><g class="relationship" transform="translate(53.59335882043667 79.26486102412977) rotate(183.6403659519063)"><path class="outline" fill="#A5ABB6" stroke="none" d="M 25 0.5 L 25.539901961694746 0.5 L 25.539901961694746 -0.5 L 25 -0.5 Z M 50.653183211694746 0.5 L 51.19308517338949 0.5 L 51.19308517338949 3.5 L 58.19308517338949 0 L 51.19308517338949 -3.5 L 51.19308517338949 -0.5 L 50.653183211694746 -0.5 Z"/><text text-anchor="middle" pointer-events="none" font-size="8px" fill="#000000" x="38.096542586694746" y="3" transform="rotate(180 38.096542586694746 0)" font-family="sans-serif">AC…</text></g><g class="relationship" transform="translate(206.672219115638 285.0423018181414) rotate(230.8987742149269)"><path class="outline" fill="#A5ABB6" stroke="none" d="M 25 0.5 L 29.546627131106447 0.5 L 29.546627131106447 -0.5 L 25 -0.5 Z M 76.43725213110645 0.5 L 80.9838792622129 0.5 L 80.9838792622129 3.5 L 87.9838792622129 0 L 80.9838792622129 -3.5 L 80.9838792622129 -0.5 L 76.43725213110645 -0.5 Z"/><text text-anchor="middle" pointer-events="none" font-size="8px" fill="#000000" x="52.99193963110645" y="3" transform="rotate(180 52.99193963110645 0)" font-family="sans-serif">DIRECTED</text></g><g class="relationship" transform="translate(63.06909592596595 138.47648799897445) rotate(282.9993036156401)"><path class="outline" fill="#A5ABB6" stroke="none" d="M 24.018736134675446,6.953439040707552 L 24.277555179777966,5.987513214418485 A 178.10527880721853 178.10527880721853 0 0 0 42.524281232101494,9.865351641822286 L 42.36791128999313,10.85305019968547 A 179.10527880721853 179.10527880721853 0 0 1 24.018736134675446,6.953439040707552 Z M 94.10869517254714,11.476778545395746 L 93.97618036359104,10.48559751984726 A 178.10527880721853 178.10527880721853 0 0 0 112.31108404340502,7.048745828322944 L 111.60470704622881,4.133092978983653 L 119.23200352472605,5.88647497646835 L 113.25292003963995,10.936282960775332 L 112.54654304246374,8.020630111436041 A 179.10527880721853 179.10527880721853 0 0 1 94.10869517254714,11.476778545395746"/><text text-anchor="middle" pointer-events="none" font-size="8px" fill="#000000" x="68.22168664359604" y="15.543327391002919" font-family="sans-serif">PRODUCED</text></g><g class="relationship" transform="translate(63.06909592596595 138.47648799897445) rotate(282.9993036156401)"><path class="outline" fill="#A5ABB6" stroke="none" d="M 24.018736134675446,-6.953439040707552 L 24.277555179777966,-5.987513214418485 A 178.10527880721853 178.10527880721853 0 0 1 50.43291886724322,-10.936391121615515 L 50.32095321055585,-11.930103198488155 A 179.10527880721853 179.10527880721853 0 0 0 24.018736134675446,-6.953439040707552 Z M 86.13200069442745,-12.361800666697519 L 86.04402223041463,-11.365678289742789 A 178.10527880721853 178.10527880721853 0 0 1 112.31108404340502,-7.048745828322944 L 111.60470704622881,-4.133092978983653 L 119.23200352472605,-5.88647497646835 L 113.25292003963995,-10.936282960775332 L 112.54654304246374,-8.020630111436041 A 179.10527880721853 179.10527880721853 0 0 0 86.13200069442745,-12.361800666697519"/><text text-anchor="middle" pointer-events="none" font-size="8px" fill="#000000" x="68.221686643596" y="-9.543327391002919" font-family="sans-serif">WROTE</text></g><g class="relationship" transform="translate(63.06909592596595 138.47648799897445) rotate(399.1445106493149)"><path class="outline" fill="#A5ABB6" stroke="none" d="M 25 0.5 L 26.5841092610223 0.5 L 26.5841092610223 -0.5 L 25 -0.5 Z M 59.6973905110223 0.5 L 61.2814997720446 0.5 L 61.2814997720446 3.5 L 68.2814997720446 0 L 61.2814997720446 -3.5 L 61.2814997720446 -0.5 L 59.6973905110223 -0.5 Z"/><text text-anchor="middle" pointer-events="none" font-size="8px" fill="#000000" x="43.1407498860223" y="3" font-family="sans-serif">DIRE…</text></g><g class="relationship" transform="translate(63.06909592596595 138.47648799897445) rotate(513.6599918636645)"><path class="outline" fill="#A5ABB6" stroke="none" d="M 25 0.5 L 26.44334147268581 0.5 L 26.44334147268581 -0.5 L 25 -0.5 Z M 48.44334147268581 0.5 L 49.88668294537162 0.5 L 49.88668294537162 3.5 L 56.88668294537162 0 L 49.88668294537162 -3.5 L 49.88668294537162 -0.5 L 48.44334147268581 -0.5 Z"/><text text-anchor="middle" pointer-events="none" font-size="8px" fill="#000000" x="37.44334147268581" y="3" transform="rotate(180 37.44334147268581 0)" font-family="sans-serif">DI…</text></g><g class="relationship" transform="translate(63.06909592596595 138.47648799897445) rotate(334.6322477205937)"><path class="outline" fill="#A5ABB6" stroke="none" d="M 25 0.5 L 39.71354372358822 0.5 L 39.71354372358822 -0.5 L 25 -0.5 Z M 86.60416872358822 0.5 L 101.31771244717643 0.5 L 101.31771244717643 3.5 L 108.31771244717643 0 L 101.31771244717643 -3.5 L 101.31771244717643 -0.5 L 86.60416872358822 -0.5 Z"/><text text-anchor="middle" pointer-events="none" font-size="8px" fill="#000000" x="63.15885622358822" y="3" font-family="sans-serif">DIRECTED</text></g><g class="relationship" transform="translate(63.06909592596595 138.47648799897445) rotate(214.88512120904483)"><path class="outline" fill="#A5ABB6" stroke="none" d="M 25 0.5 L 29.43705428398591 0.5 L 29.43705428398591 -0.5 L 25 -0.5 Z M 76.3276792839859 0.5 L 80.76473356797182 0.5 L 80.76473356797182 3.5 L 87.76473356797182 0 L 80.76473356797182 -3.5 L 80.76473356797182 -0.5 L 76.3276792839859 -0.5 Z"/><text text-anchor="middle" pointer-events="none" font-size="8px" fill="#000000" x="52.88236678398591" y="3" transform="rotate(180 52.88236678398591 0)" font-family="sans-serif">DIRECTED</text></g><g class="relationship" transform="translate(109.51601155254426 100.7173886829354) rotate(262.10264957903024)"><path class="outline" fill="#A5ABB6" stroke="none" d="M 24.018736134675446,6.953439040707552 L 24.277555179777966,5.987513214418485 A 97.83475787232909 97.83475787232909 0 0 0 26.85897988734321,6.6416821525057514 L 26.626546400540267,7.614294446388897 A 98.83475787232909 98.83475787232909 0 0 1 24.018736134675446,6.953439040707552 Z M 69.38853502591842,8.319682554299447 L 69.18830707310295,7.339933215482972 A 97.83475787232909 97.83475787232909 0 0 0 71.78990336566119,6.77126173656597 L 71.10944429186793,3.8494514331936873 L 78.72087058582872,5.67049228161043 L 72.69718213071886,10.667008807729013 L 72.0167230569256,7.745198504356731 A 98.83475787232909 98.83475787232909 0 0 1 69.38853502591842,8.319682554299447"/><text text-anchor="middle" pointer-events="none" font-size="8px" fill="#000000" x="47.97717567599648" y="12.807775667294095" transform="rotate(180 47.97717567599648 9.807775667294095)" font-family="sans-serif">PRODU…</text></g><g class="relationship" transform="translate(109.51601155254426 100.7173886829354) rotate(262.10264957903024)"><path class="outline" fill="#A5ABB6" stroke="none" d="M 24.018736134675446,-6.953439040707552 L 24.277555179777966,-5.987513214418485 A 97.83475787232909 97.83475787232909 0 0 1 30.31665034404159,-7.402131716213759 L 30.11955880044875,-8.382516805576202 A 98.83475787232909 98.83475787232909 0 0 0 24.018736134675446,-6.953439040707552 Z M 65.87208525170092,-8.972279064001754 L 65.70743637905845,-7.985926820258385 A 97.83475787232909 97.83475787232909 0 0 1 71.78990336566119,-6.77126173656597 L 71.10944429186793,-3.8494514331936873 L 78.72087058582872,-5.67049228161043 L 72.69718213071886,-10.667008807729013 L 72.0167230569256,-7.745198504356731 A 98.83475787232909 98.83475787232909 0 0 0 65.87208525170092,-8.972279064001754"/><text text-anchor="middle" pointer-events="none" font-size="8px" fill="#000000" x="47.97717567599646" y="-6.807775667294095" transform="rotate(180 47.97717567599646 -9.807775667294095)" font-family="sans-serif">WROTE</text></g><g class="relationship" transform="translate(109.51601155254426 100.7173886829354) rotate(434.9988970047054)"><path class="outline" fill="#A5ABB6" stroke="none" d="M 25 0.5 L 27.082443237321016 0.5 L 27.082443237321016 -0.5 L 25 -0.5 Z M 65.97306823732102 0.5 L 68.05551147464203 0.5 L 68.05551147464203 3.5 L 75.05551147464203 0 L 68.05551147464203 -3.5 L 68.05551147464203 -0.5 L 65.97306823732102 -0.5 Z"/><text text-anchor="middle" pointer-events="none" font-size="8px" fill="#000000" x="46.527755737321016" y="3" font-family="sans-serif">DIREC…</text></g><g class="relationship" transform="translate(109.51601155254426 100.7173886829354) rotate(508.2715189345487)"><path class="outline" fill="#A5ABB6" stroke="none" d="M 25 0.5 L 43.49845430121208 0.5 L 43.49845430121208 -0.5 L 25 -0.5 Z M 90.38907930121208 0.5 L 108.88753360242416 0.5 L 108.88753360242416 3.5 L 115.88753360242416 0 L 108.88753360242416 -3.5 L 108.88753360242416 -0.5 L 90.38907930121208 -0.5 Z"/><text text-anchor="middle" pointer-events="none" font-size="8px" fill="#000000" x="66.94376680121208" y="3" transform="rotate(180 66.94376680121208 0)" font-family="sans-serif">DIRECTED</text></g><g class="relationship" transform="translate(109.51601155254426 100.7173886829354) rotate(345.3434153272618)"><path class="outline" fill="#A5ABB6" stroke="none" d="M 25 0.5 L 34.75267392157144 0.5 L 34.75267392157144 -0.5 L 25 -0.5 Z M 34.75267392157144 0.5 L 44.505347843142886 0.5 L 44.505347843142886 3.5 L 51.505347843142886 0 L 44.505347843142886 -3.5 L 44.505347843142886 -0.5 L 34.75267392157144 -0.5 Z"/><text text-anchor="middle" pointer-events="none" font-size="8px" fill="#000000" x="34.75267392157144" y="3" font-family="sans-serif"/></g><g class="relationship" transform="translate(109.51601155254426 100.7173886829354) rotate(190.89109948949465)"><path class="outline" fill="#A5ABB6" stroke="none" d="M 25 0.5 L 43.80293688827908 0.5 L 43.80293688827908 -0.5 L 25 -0.5 Z M 90.69356188827908 0.5 L 109.49649877655816 0.5 L 109.49649877655816 3.5 L 116.49649877655816 0 L 109.49649877655816 -3.5 L 109.49649877655816 -0.5 L 90.69356188827908 -0.5 Z"/><text text-anchor="middle" pointer-events="none" font-size="8px" fill="#000000" x="67.24824938827908" y="3" transform="rotate(180 67.24824938827908 0)" font-family="sans-serif">DIRECTED</text></g><g class="relationship" transform="translate(137.1128923996808 -106.58941454966688) rotate(471.6474794880313)"><path class="outline" fill="#A5ABB6" stroke="none" d="M 25 0.5 L 29.654101951655008 0.5 L 29.654101951655008 -0.5 L 25 -0.5 Z M 76.54472695165501 0.5 L 81.19882890331002 0.5 L 81.19882890331002 3.5 L 88.19882890331002 0 L 81.19882890331002 -3.5 L 81.19882890331002 -0.5 L 76.54472695165501 -0.5 Z"/><text text-anchor="middle" pointer-events="none" font-size="8px" fill="#000000" x="53.09941445165501" y="3" transform="rotate(180 53.09941445165501 0)" font-family="sans-serif">DIRECTED</text></g></g><g class="layer nodes"><g class="node" transform="translate(53.59335882043667,79.26486102412977)"><circle class="outline" cx="0" cy="0" r="25" fill="#F79767" stroke="#f36924" stroke-width="2px"/><text text-anchor="middle" pointer-events="none" font-family="sans-serif" dy="1.5625" font-size="25" fill="#FFFFFF"/><text text-anchor="middle" pointer-events="none" font-family="sans-serif" dy="1.5625" font-size="25" fill="#FFFFFF"/><text text-anchor="middle" pointer-events="none" x="0" y="0" font-size="10px" fill="#FFFFFF" font-family="sans-serif"> Hugo</text><text text-anchor="middle" pointer-events="none" x="0" y="10" font-size="10px" fill="#FFFFFF" font-family="sans-serif"> Weaving</text></g><g class="node" transform="translate(135.4141440111924,197.36309273441685)"><circle class="outline" cx="0" cy="0" r="25" fill="#57C7E3" stroke="#23b3d7" stroke-width="2px"/><text text-anchor="middle" pointer-events="none" font-family="sans-serif" dy="1.5625" font-size="25" fill="#2A2C34"/><text text-anchor="middle" pointer-events="none" font-family="sans-serif" dy="1.5625" font-size="25" fill="#2A2C34"/><text text-anchor="middle" pointer-events="none" x="0" y="0" font-size="10px" fill="#2A2C34" font-family="sans-serif"> Cloud</text><text text-anchor="middle" pointer-events="none" x="0" y="10" font-size="10px" fill="#2A2C34" font-family="sans-serif"> Atlas</text></g><g class="node" transform="translate(206.672219115638,285.0423018181414)"><circle class="outline" cx="0" cy="0" r="25" fill="#F79767" stroke="#f36924" stroke-width="2px"/><text text-anchor="middle" pointer-events="none" font-family="sans-serif" dy="1.5625" font-size="25" fill="#FFFFFF"/><text text-anchor="middle" pointer-events="none" font-family="sans-serif" dy="1.5625" font-size="25" fill="#FFFFFF"/><text text-anchor="middle" pointer-events="none" x="0" y="0" font-size="10px" fill="#FFFFFF" font-family="sans-serif"> Tom</text><text text-anchor="middle" pointer-events="none" x="0" y="10" font-size="10px" fill="#FFFFFF" font-family="sans-serif"> Tykwer</text></g><g class="node" transform="translate(63.06909592596595,138.47648799897445)"><circle class="outline" cx="0" cy="0" r="25" fill="#F79767" stroke="#f36924" stroke-width="2px"/><text text-anchor="middle" pointer-events="none" font-family="sans-serif" dy="1.5625" font-size="25" fill="#FFFFFF"/><text text-anchor="middle" pointer-events="none" font-family="sans-serif" dy="1.5625" font-size="25" fill="#FFFFFF"/><text text-anchor="middle" pointer-events="none" x="0" y="0" font-size="10px" fill="#FFFFFF" font-family="sans-serif"> Lana</text><text text-anchor="middle" pointer-events="none" x="0" y="10" font-size="10px" fill="#FFFFFF" font-family="sans-serif"> Wacho…</text></g><g class="node" transform="translate(109.51601155254426,100.7173886829354)"><circle class="outline" cx="0" cy="0" r="25" fill="#F79767" stroke="#f36924" stroke-width="2px"/><text text-anchor="middle" pointer-events="none" font-family="sans-serif" dy="1.5625" font-size="25" fill="#FFFFFF"/><text text-anchor="middle" pointer-events="none" font-family="sans-serif" dy="1.5625" font-size="25" fill="#FFFFFF"/><text text-anchor="middle" pointer-events="none" x="0" y="0" font-size="10px" fill="#FFFFFF" font-family="sans-serif"> Lilly</text><text text-anchor="middle" pointer-events="none" x="0" y="10" font-size="10px" fill="#FFFFFF" font-family="sans-serif"> Wacho…</text></g><g class="node" transform="translate(95.35442091210342,-1.374373210027409)"><circle class="outline" cx="0" cy="0" r="25" fill="#57C7E3" stroke="#23b3d7" stroke-width="2px"/><text text-anchor="middle" pointer-events="none" font-family="sans-serif" dy="1.5625" font-size="25" fill="#2A2C34"/><text text-anchor="middle" pointer-events="none" font-family="sans-serif" dy="1.5625" font-size="25" fill="#2A2C34"/><text text-anchor="middle" pointer-events="none" x="0" y="0" font-size="10px" fill="#2A2C34" font-family="sans-serif"> V for</text><text text-anchor="middle" pointer-events="none" x="0" y="10" font-size="10px" fill="#2A2C34" font-family="sans-serif"> Vendetta</text></g><g class="node" transform="translate(137.1128923996808,-106.58941454966688)"><circle class="outline" cx="0" cy="0" r="25" fill="#F79767" stroke="#f36924" stroke-width="2px"/><text text-anchor="middle" pointer-events="none" font-family="sans-serif" dy="1.5625" font-size="25" fill="#FFFFFF"/><text text-anchor="middle" pointer-events="none" font-family="sans-serif" dy="1.5625" font-size="25" fill="#FFFFFF"/><text text-anchor="middle" pointer-events="none" x="0" y="0" font-size="10px" fill="#FFFFFF" font-family="sans-serif"> James</text><text text-anchor="middle" pointer-events="none" x="0" y="10" font-size="10px" fill="#FFFFFF" font-family="sans-serif"> Marshall</text></g><g class="node" transform="translate(-10.315851760456232,174.8093697571958)"><circle class="outline" cx="0" cy="0" r="25" fill="#57C7E3" stroke="#23b3d7" stroke-width="2px"/><text text-anchor="middle" pointer-events="none" font-family="sans-serif" dy="1.5625" font-size="25" fill="#2A2C34"/><text text-anchor="middle" pointer-events="none" font-family="sans-serif" dy="1.5625" font-size="25" fill="#2A2C34"/><text text-anchor="middle" pointer-events="none" font-family="sans-serif" dy="1.5625" font-size="25" fill="#2A2C34"/><text text-anchor="middle" pointer-events="none" x="0" y="-5" font-size="10px" fill="#2A2C34" font-family="sans-serif"> The</text><text text-anchor="middle" pointer-events="none" x="0" y="5" font-size="10px" fill="#2A2C34" font-family="sans-serif"> Matrix</text><text text-anchor="middle" pointer-events="none" x="0" y="15" font-size="10px" fill="#2A2C34" font-family="sans-serif"> Revol…</text></g><g class="node" transform="translate(183.5318568409466,81.35962809851924)"><circle class="outline" cx="0" cy="0" r="25" fill="#57C7E3" stroke="#23b3d7" stroke-width="2px"/><text text-anchor="middle" pointer-events="none" font-family="sans-serif" dy="1.5625" font-size="25" fill="#2A2C34"/><text text-anchor="middle" pointer-events="none" font-family="sans-serif" dy="1.5625" font-size="25" fill="#2A2C34"/><text text-anchor="middle" pointer-events="none" font-family="sans-serif" dy="1.5625" font-size="25" fill="#2A2C34"/><text text-anchor="middle" pointer-events="none" x="0" y="-5" font-size="10px" fill="#2A2C34" font-family="sans-serif"> The</text><text text-anchor="middle" pointer-events="none" x="0" y="5" font-size="10px" fill="#2A2C34" font-family="sans-serif"> Matrix</text><text text-anchor="middle" pointer-events="none" x="0" y="15" font-size="10px" fill="#2A2C34" font-family="sans-serif"> Reloa…</text></g><g class="node" transform="translate(-29.431862976980266,73.98262985192974)"><circle class="outline" cx="0" cy="0" r="25" fill="#57C7E3" stroke="#23b3d7" stroke-width="2px"/><text text-anchor="middle" pointer-events="none" font-family="sans-serif" dy="1.5625" font-size="25" fill="#2A2C34"/><text text-anchor="middle" pointer-events="none" font-family="sans-serif" dy="1.5625" font-size="25" fill="#2A2C34"/><text text-anchor="middle" pointer-events="none" x="0" y="0" font-size="10px" fill="#2A2C34" font-family="sans-serif"> The</text><text text-anchor="middle" pointer-events="none" x="0" y="10" font-size="10px" fill="#2A2C34" font-family="sans-serif"> Matrix</text></g></g></svg>